<svg id="Camada_1" data-name="Camada 1" xmlns="http://www.w3.org/2000/svg" xmlns:xlink="http://www.w3.org/1999/xlink" viewBox="0 0 336.38132 366.58096"><defs><style>.cls-1{fill:#4d8740;}.cls-2{fill:#d8a125;}.cls-14,.cls-3{fill:#fff;}.cls-4{fill:#1c61c6;}.cls-5{opacity:0.2;}.cls-6{fill:#000a2d;}.cls-7{fill:#606060;}.cls-8{fill:#444;}.cls-9{opacity:0.4;}.cls-10{fill:url(#Gradiente_sem_nome_44);}.cls-11{fill:url(#Gradiente_sem_nome_44-2);}.cls-12{fill:url(#Gradiente_sem_nome_44-3);}.cls-13{fill:url(#Gradiente_sem_nome_44-4);}.cls-14{opacity:0.1;}.cls-15{fill:none;stroke:#606060;stroke-miterlimit:10;stroke-width:2px;}</style><linearGradient id="Gradiente_sem_nome_44" x1="157.74158" y1="220.89472" x2="159.97844" y2="291.51549" gradientTransform="matrix(0.8288, 0.55955, -0.55955, 0.8288, 105.03292, -78.67102)" gradientUnits="userSpaceOnUse"><stop offset="0" stop-color="#fff"/><stop offset="1" stop-color="#fff" stop-opacity="0.1"/></linearGradient><linearGradient id="Gradiente_sem_nome_44-2" x1="155.10359" y1="220.97827" x2="157.34045" y2="291.59905" gradientTransform="matrix(0.8288, 0.55955, -0.55955, 0.8288, 124.557, -73.02884)" xlink:href="#Gradiente_sem_nome_44"/><linearGradient id="Gradiente_sem_nome_44-3" x1="153.97899" y1="221.01389" x2="156.21585" y2="291.63467" gradientTransform="matrix(0.8288, 0.55955, -0.55955, 0.8288, 124.557, -73.02884)" xlink:href="#Gradiente_sem_nome_44"/><linearGradient id="Gradiente_sem_nome_44-4" x1="156.64618" y1="220.92941" x2="158.88304" y2="291.55019" gradientTransform="matrix(0.8288, 0.55955, -0.55955, 0.8288, 124.557, -73.02884)" xlink:href="#Gradiente_sem_nome_44"/></defs><title>M1_A2_RM_01</title><rect class="cls-1" x="80.04905" y="41.75718" width="232.5269" height="295.30917" transform="translate(-72.28852 72.5217) rotate(-19.90759)"/><polygon class="cls-2" points="336.183 282.466 187.279 212.738 117.552 361.642 117.75 362.189 336.381 283.013 336.183 282.466"/><rect class="cls-3" x="46.10111" y="52.01895" width="223.22583" height="61.61963" transform="translate(-38.3031 53.00968) rotate(-19.90759)"/><path class="cls-4" d="M305.91232,306.7595a90.60474,90.60474,0,0,0-118.64565,42.96691Z" transform="translate(-19.52408 -5.64219)"/><g class="cls-5"><rect class="cls-6" x="86.69482" y="79.62575" width="10.10039" height="295.30917" transform="translate(-91.43156 39.17895) rotate(-19.90759)"/></g><path class="cls-1" d="M67.35791,107.38491a3.34055,3.34055,0,0,0-2.23975,2.41846,7.39177,7.39177,0,0,0,.42188,4.33349q1.86768,5.27784,5.88281,3.856a8.72793,8.72793,0,0,0,2.23145-1.16943,24.98039,24.98039,0,0,0,2.00049-1.62354l1.479,4.17676a13.42383,13.42383,0,0,1-4.81836,2.84668,8.6843,8.6843,0,0,1-7.19678-.15528q-3.05786-1.61791-4.66455-6.1582a11.7468,11.7468,0,0,1-.69726-5.36767,8.10812,8.10812,0,0,1,1.90527-4.397,9.85314,9.85314,0,0,1,4.31152-2.82861,13.80544,13.80544,0,0,1,6.12061-.71826l-.13623,4.4248a17.93909,17.93909,0,0,0-2.3086-.082A7.469,7.469,0,0,0,67.35791,107.38491Z" transform="translate(-19.52408 -5.64219)"/><path class="cls-1" d="M94.83008,103.65346q1.6333,4.61572.2207,7.8169-1.41357,3.20361-5.77734,4.749-4.30225,1.52345-7.45166-.07861-3.15015-1.60107-4.78272-6.21582-1.61572-4.56445-.18652-7.77979,1.42968-3.21459,5.78223-4.75586,4.36377-1.54541,7.46093.04639Q93.19239,99.02652,94.83008,103.65346ZM82.25,108.10757q1.87719,5.30272,5.56641,3.99658a3.36267,3.36267,0,0,0,2.32617-2.27344,9.9188,9.9188,0,0,0-2.86572-8.05469,3.32918,3.32918,0,0,0-3.208-.335Q80.35473,102.75577,82.25,108.10757Z" transform="translate(-19.52408 -5.64219)"/><path class="cls-1" d="M118.78516,105.48842l-6.47754,2.29346L101.06836,97.26626l-.11231.04q1.314,2.95532,1.88086,4.55566l2.917,8.24023-4.377,1.54932L94.9043,93.36831l6.45215-2.28467,11.15234,10.35059.07422-.02637q-1.15284-2.70117-1.7461-4.37744l-2.92675-8.2666,4.40136-1.5586Z" transform="translate(-19.52408 -5.64219)"/><path class="cls-1" d="M132.72559,94.30385a5.7208,5.7208,0,0,1,.207,3.32569,5.98533,5.98533,0,0,1-1.7627,2.93213,9.76918,9.76918,0,0,1-3.55469,2.08252,16.34448,16.34448,0,0,1-3.15527.82812,12.04848,12.04848,0,0,1-2.89258.01856l-1.55859-4.40235a15.63439,15.63439,0,0,0,3.33984.09131,11.622,11.622,0,0,0,2.94532-.58545,2.88978,2.88978,0,0,0,1.478-.95215,1.24662,1.24662,0,0,0,.165-1.16406,1.14317,1.14317,0,0,0-.439-.583,2.52447,2.52447,0,0,0-.86426-.33447q-.55811-.12525-2.84815-.31494a12.38723,12.38723,0,0,1-3.24072-.625A5.13716,5.13716,0,0,1,118.59961,93.34a6.18356,6.18356,0,0,1-1.25928-2.187,4.97006,4.97006,0,0,1,.44385-4.58985,8.59515,8.59515,0,0,1,4.55176-3.20166,15.03337,15.03337,0,0,1,6.25439-.7373l-.16162,4.35009a11.63766,11.63766,0,0,0-4.84375.39161,2.44044,2.44044,0,0,0-1.28076.834,1.08221,1.08221,0,0,0-.14111.99268,1.28279,1.28279,0,0,0,.89746.76611,22.529,22.529,0,0,0,3.56836.48145,8.86583,8.86583,0,0,1,4.09179,1.11962A5.26041,5.26041,0,0,1,132.72559,94.30385Z" transform="translate(-19.52408 -5.64219)"/><path class="cls-1" d="M145.584,96.00014l-4.93945,1.749-5.043-14.24317-4.46386,1.58057-1.43067-4.04,13.85645-4.90576,1.42968,4.04L140.541,81.757Z" transform="translate(-19.52408 -5.64219)"/><path class="cls-1" d="M152.65039,93.49868l-6.47363-18.2832,4.96484-1.75782,6.47363,18.28321Z" transform="translate(-19.52408 -5.64219)"/><path class="cls-1" d="M169.63281,87.486l-4.94043,1.749-5.043-14.24317-4.46386,1.58057-1.43067-4.04,13.85645-4.90576,1.42969,4.04-4.45118,1.57617Z" transform="translate(-19.52408 -5.64219)"/><path class="cls-1" d="M185.76953,61.1979,189.666,72.20376a7.83376,7.83376,0,0,1-.06446,6.27783,10.227,10.227,0,0,1-11.585,4.16455,7.68571,7.68571,0,0,1-3.95605-4.7915L170.125,66.73647l4.96484-1.75781,3.79883,10.73047a4.66408,4.66408,0,0,0,1.72071,2.55713,3.31758,3.31758,0,0,0,4.33593-1.52881,4.929,4.929,0,0,0-.32617-3.08594l-3.79-10.70508Z" transform="translate(-19.52408 -5.64219)"/><path class="cls-1" d="M196.082,78.12173,189.6084,59.83852l4.96484-1.75781,6.47266,18.2832Z" transform="translate(-19.52408 -5.64219)"/><path class="cls-1" d="M208.00781,57.58852a3.33932,3.33932,0,0,0-2.23926,2.418,7.39189,7.39189,0,0,0,.42188,4.3335q1.86768,5.27783,5.88281,3.85595a8.74264,8.74264,0,0,0,2.23145-1.16894,24.89317,24.89317,0,0,0,2-1.624l1.47949,4.17675a13.42383,13.42383,0,0,1-4.81836,2.84668,8.68535,8.68535,0,0,1-7.19727-.15527q-3.05712-1.61791-4.66406-6.1582a11.73362,11.73362,0,0,1-.69726-5.36768,8.09387,8.09387,0,0,1,1.90526-4.397,9.85041,9.85041,0,0,1,4.31153-2.82862,13.81062,13.81062,0,0,1,6.12012-.71826l-.13574,4.4253a17.86178,17.86178,0,0,0-2.30957-.08252A7.48691,7.48691,0,0,0,208.00781,57.58852Zm8.18555,16.959a2.92049,2.92049,0,0,1-.166,2.51465,3.86594,3.86594,0,0,1-2.19726,1.70019,8.30348,8.30348,0,0,1-2.793.58106l-.90723-2.56446a6.39443,6.39443,0,0,0,1.958-.313q.65039-.23.44141-.81787a.94294.94294,0,0,0-.77149-.5498,4.61061,4.61061,0,0,0-1.51758-.0332l.28516-2.05762,2.53906-.89844.01563.40332a3.83134,3.83134,0,0,1,2.07324.56836A2.96718,2.96718,0,0,1,216.19336,74.54751Z" transform="translate(-19.52408 -5.64219)"/><path class="cls-1" d="M224.24023,45.95962a3.81623,3.81623,0,0,1-1.19824.21289q-.63575.01318-1.26562-.0166-.62988-.02931-1.21485-.0337a3.08136,3.08136,0,0,0-1.04882.16016q-.67532.2395-.46582,1.54346l-2.251.79687a6.55616,6.55616,0,0,1-.24414-3.55029,2.77144,2.77144,0,0,1,1.88086-1.8418,3.26978,3.26978,0,0,1,1.0791-.17138q.605-.00294,1.23437.02734.6299.03077,1.23438.02832a3.25678,3.25678,0,0,0,1.0791-.17188.70261.70261,0,0,0,.46484-.51611,2.63005,2.63005,0,0,0,.00293-1.02832l2.27539-.80566a6.49664,6.49664,0,0,1,.20118,3.51025A2.66254,2.66254,0,0,1,224.24023,45.95962ZM232.83594,65.109l-2.11328-3.10693-5.94043,2.103.28711,3.75342-5.42676,1.92139-.53418-20.46924,6.58984-2.3335,12.54,16.21875Zm-4.57422-6.79687-1.84961-2.72168q-.62988-.90162-1.58594-2.35206-.95653-1.44873-1.32422-2.09179.1128.67822.29883,2.25781.1875,1.582.57227,6.28467Z" transform="translate(-19.52408 -5.64219)"/><path class="cls-1" d="M254.07617,47.27309q1.63331,4.61572.22071,7.8169-1.415,3.20361-5.77833,4.749-4.30224,1.52271-7.45117-.07861-3.14942-1.6018-4.7832-6.21582-1.61572-4.56446-.18652-7.77979,1.43115-3.21459,5.78222-4.75586,4.36377-1.54541,7.46192.04639Q252.437,42.64615,254.07617,47.27309Zm-12.58105,4.4541q1.87646,5.30274,5.5664,3.99659a3.36085,3.36085,0,0,0,2.32618-2.27344,7.47439,7.47439,0,0,0-.51465-4.33545,7.53858,7.53858,0,0,0-2.35059-3.71973,3.32914,3.32914,0,0,0-3.208-.33447Q239.59961,46.3754,241.49512,51.72719Z" transform="translate(-19.52408 -5.64219)"/><path class="cls-7" d="M155.45372,193.28324a152.72668,152.72668,0,0,1-14.18951-8.47785q-3.3233-2.24368-6.48566-4.63328-3.14252,3.671-6.23038,7.37874a710.74712,710.74712,0,0,0-42.50012,57.06168c-13.20318,19.671-25.56931,39.90718-36.91463,60.83266-5.62808,10.4927-11.03839,21.13256-16.05107,32.04087-2.48831,5.46627-4.92871,10.96487-7.20091,16.57718-2.28706,5.60213-4.47868,11.2687-6.35736,17.14668l1.50077,1.01323c4.74961-3.93971,9.18616-8.09064,13.52726-12.306,4.3561-4.20538,8.54386-8.52428,12.68372-12.87552,8.24378-8.72688,16.08992-17.72221,23.71827-26.86446,15.1676-18.34491,29.31425-37.379,42.62378-56.97819a710.71565,710.71565,0,0,0,37.03838-60.74911Q153.0708,197.89074,155.45372,193.28324Z" transform="translate(-19.52408 -5.64219)"/><path class="cls-8" d="M155.45372,193.28324a152.72668,152.72668,0,0,1-14.18951-8.47785q-3.3233-2.24368-6.48566-4.63328-3.14252,3.671-6.23038,7.37874c-.45938.55559-.909,1.11788-1.36655,1.6747,6.189,4.69329,13.51393,9.97961,15.58037,10.361-4.64563,6.20649-37.31253,70.11244-77.22612,127.00718q2.72808-3.19548,5.41823-6.41658c15.1676-18.34491,29.31425-37.379,42.62378-56.97819a710.71565,710.71565,0,0,0,37.03838-60.74911Q153.0708,197.89074,155.45372,193.28324Z" transform="translate(-19.52408 -5.64219)"/><g class="cls-9"><polygon class="cls-10" points="106.241 190.407 116.746 197.5 108.64 209.506 102.188 196.411 106.241 190.407"/><path class="cls-11" d="M93.11092,263.12477l15.91-22.81265q-1.43305-7.57665-3.01618-15.12339c-4.38878,6.038-9.62123,13.518-15.10087,21.94659Q91.84912,255.16134,93.11092,263.12477Z" transform="translate(-19.52408 -5.64219)"/><path class="cls-12" d="M84.553,257.18588c-5.30453,8.63458-10.62955,17.95489-15.4677,27.57524l17.72067-13.378C85.985,266.66469,85.21757,261.93545,84.553,257.18588Z" transform="translate(-19.52408 -5.64219)"/><path class="cls-13" d="M113.35713,223.31962c.58295,2.781,1.13646,5.56781,1.68789,8.355l9.1108-13.06355s-3.58814-7.82032-5.97166-9.42953c0,0-2.34576,2.87186-6.16166,7.89974C112.47074,219.16067,112.92131,221.24019,113.35713,223.31962Z" transform="translate(-19.52408 -5.64219)"/></g><circle class="cls-14" cx="176.79733" cy="101.81149" r="88.3176"/><path class="cls-7" d="M253.2844,23.08127a101.80121,101.80121,0,1,0,27.40942,141.3354A101.80119,101.80119,0,0,0,253.2844,23.08127ZM143.1308,186.23851a95.05941,95.05941,0,1,1,131.97544-25.59423A95.05943,95.05943,0,0,1,143.1308,186.23851Z" transform="translate(-19.52408 -5.64219)"/><circle class="cls-15" cx="176.79733" cy="101.81149" r="89.66596"/><path class="cls-8" d="M249.512,28.66884a95.05941,95.05941,0,1,0,25.59422,131.97544A95.05937,95.05937,0,0,0,249.512,28.66884ZM145.39423,182.886A91.01432,91.01432,0,1,1,271.7537,158.38085,91.11723,91.11723,0,0,1,145.39423,182.886Z" transform="translate(-19.52408 -5.64219)"/></svg>