<?xml version="1.0" encoding="utf-8"?>
<!-- Generator: Adobe Illustrator 23.0.1, SVG Export Plug-In . SVG Version: 6.00 Build 0)  -->
<svg version="1.1" xmlns="http://www.w3.org/2000/svg" xmlns:xlink="http://www.w3.org/1999/xlink" x="0px" y="0px"
	 width="226.286px" height="226.286px" viewBox="0 0 226.286 226.286" style="enable-background:new 0 0 226.286 226.286;"
	 xml:space="preserve">
<style type="text/css">
	.st0{fill:url(#SVGID_1_);}
	.st1{fill:#FFB1DF;}
	.st2{fill:#FFFFFF;}
	.st3{fill:#993F3F;}
	.st4{fill:#606060;}
	.st5{fill:#3A1212;}
	.st6{fill:#FCCD9D;}
	.st7{fill:#FFB6FF;}
	.st8{fill:#633D2A;}
	.st9{fill:#616D8C;}
	.st10{fill:#343E5E;}
	.st11{opacity:0.2;}
	.st12{fill:#330800;}
	.st13{fill:#000F33;}
	.st14{fill:#75471C;}
	.st15{fill:#684223;}
	.st16{fill:none;stroke:#000000;stroke-width:0.3;stroke-linecap:round;stroke-linejoin:round;stroke-miterlimit:10;}
	.st17{fill:#4B254C;}
	.st18{fill:#211009;}
	.st19{fill:#001633;}
</style>
<g id="Camada_3">
	
		<radialGradient id="SVGID_1_" cx="113.0755" cy="112.8436" r="163.6078" fx="18.4975" fy="-10.4171" gradientUnits="userSpaceOnUse">
		<stop  offset="0.0297" style="stop-color:#FCEEB8"/>
		<stop  offset="1" style="stop-color:#A2F2BB"/>
	</radialGradient>
	<rect x="2.017" y="1.785" class="st0" width="222.118" height="222.118"/>
	<g>
		<g>
			<path class="st1" d="M90.173,65.455c-0.49,0.101-1.105,0.593-1.553,0.953c-0.247,0.199-0.441,0.347-0.595,0.427
				c0.384,0.32,0.87,0.625,1.483,0.908c2.023,0.938,5.64,0.18,7.845-0.579c-0.995-1.293-1.996-2.039-2.982-2.181
				c-0.945-0.14-1.651,0.311-1.992,0.561c0.285,0.084,0.579,0.174,0.88,0.268c0.415,0.13,0.845,0.263,0.931,0.266
				c0.081-0.023,0.164,0.028,0.19,0.117c0.025,0.088-0.04,0.182-0.129,0.206c-0.106,0.029-0.277-0.019-1.091-0.273
				C92.23,65.836,90.667,65.349,90.173,65.455z"/>
			<path class="st2" d="M91.653,60.735c2.568-0.435,6.607-1.449,7.345-1.636l0.013-0.236c-0.526,0.122-1.481,0.26-3.253,0.39
				C95.233,59.292,93.499,59.807,91.653,60.735z"/>
			<path class="st3" d="M99.522,66.395c-0.124,0.291-0.921,0.649-1.569,0.898c-0.058,0.022-0.129,0.047-0.192,0.07
				c-0.008,0.009-0.008,0.022-0.017,0.029c-0.027,0.021-0.06,0.031-0.093,0.032c-0.009,0-0.015-0.011-0.024-0.012
				c-1.32,0.473-3.426,1.033-5.37,1.091c-1.069,0.032-2.085-0.088-2.888-0.46c-0.862-0.399-1.49-0.847-1.931-1.328
				c0.748,1.904,2.684,3.19,5.505,3.537c2.615,0.324,5.575-0.165,6.743-1.111c0.31-0.251,0.481-0.524,0.506-0.811
				c0.107-1.212-0.412-1.835-0.654-2.058C99.53,66.314,99.541,66.349,99.522,66.395z"/>
			<path class="st2" d="M93.778,44.77c0.133-0.143,0.291-0.314,0.488-0.507c0.27-0.267,1.111-0.63,2.192-1.083
				c-0.207,0.065-0.422,0.112-0.649,0.119c-0.728,0.022-1.383-0.285-1.844-0.779c-0.553,1.21-0.706,2.378-0.632,2.661
				C93.422,45.153,93.596,44.966,93.778,44.77z"/>
			<path class="st3" d="M99.397,58.388c-0.138-0.393-0.725-1.251-0.907-1.312c-0.02,0.005-0.149,0.072-0.261,0.131
				c-0.382,0.199-1.093,0.571-2.217,0.676c-0.591,0.051-1.091-0.061-1.584-0.172c-0.388-0.087-0.753-0.169-1.119-0.158
				c-0.428,0.013-0.86,0.153-1.335,0.56c-0.886,0.76-2.438,2.816-3.471,4.25c2.512-2.072,6.19-3.363,7.23-3.439
				C98.682,58.707,99.278,58.47,99.397,58.388z"/>
			<path class="st4" d="M93.965,42.521c0.127-0.277,0.282-0.555,0.452-0.827C94.244,41.967,94.092,42.243,93.965,42.521z"/>
			<path class="st4" d="M78.191,44.155c-0.24,0.058-0.474,0.125-0.697,0.206c0.22-0.081,0.459-0.134,0.695-0.191
				C78.19,44.165,78.19,44.16,78.191,44.155z"/>
			<path class="st2" d="M98.168,40.795c0.029,0.952-0.5,1.785-1.285,2.208c-0.048,0.02-0.099,0.042-0.147,0.061
				c1.646-0.687,3.695-1.542,4.481-2.319c0.899-0.888,1.729-1.552,2.196-1.904c-0.772-0.024-1.506-0.03-2.199-0.01
				c-1.364,0.041-2.568,0.189-3.601,0.503C97.94,39.735,98.151,40.237,98.168,40.795z"/>
			<path class="st4" d="M78.307,44.138c0.033-0.007,0.063-0.02,0.096-0.026c-0.071,0.015-0.142,0.027-0.212,0.044
				C78.228,44.146,78.27,44.146,78.307,44.138z"/>
			<path class="st4" d="M80.749,43.973c0.03,0.002,0.06-0.002,0.09,0.001c0.001,0.004,0.002,0.007,0.004,0.011
				c0.32,0.027,0.642,0.062,0.959,0.121c-0.716-0.133-1.445-0.183-2.153-0.149C80.011,43.941,80.379,43.945,80.749,43.973z"/>
			<path class="st5" d="M87.082,64.948C87.082,64.948,87.082,64.948,87.082,64.948c0.004,0.259,0.045,0.501,0.083,0.745
				c0.109,0.32,0.325,0.626,0.623,0.92c0.015-0.015,0.023-0.035,0.044-0.044c0.115-0.047,0.341-0.228,0.581-0.42
				c0.501-0.402,1.125-0.901,1.692-1.019c0.364-0.074,1.053,0.07,1.874,0.299c0.005-0.002,0.008-0.008,0.013-0.01
				c0.019-0.012,0.046-0.034,0.082-0.061c0.315-0.239,1.151-0.877,2.344-0.703c1.098,0.158,2.197,0.965,3.268,2.389
				c0.859-0.317,1.451-0.619,1.531-0.779c0.052-0.122-0.029-0.192-0.51-0.439c-0.536-0.275-1.346-0.692-1.932-1.673
				c-1.021-1.708-0.363-3.48-0.038-4.158c-1.901,0.451-4.449,1.02-5.955,1.207c-1.245,0.71-2.463,1.602-3.324,2.661
				C87.231,64.244,87.114,64.603,87.082,64.948z"/>
			<path class="st4" d="M78.655,44.067c0.213-0.036,0.432-0.061,0.652-0.08c0.029-0.003,0.056-0.01,0.085-0.013
				C79.142,43.994,78.897,44.026,78.655,44.067z"/>
			<path class="st6" d="M146.056,132.132c0.304,0.692,0.574,1.61,0.638,2.719c0.028,0,0.057-0.005,0.083,0.01
				c0.075,0.042,4.243,2.419,9.024,7.116c-2.178-7.958-3.99-12.017-4.008-12.058c0-0.001,0-0.002,0-0.003
				C150.114,130.825,147.628,132.026,146.056,132.132z"/>
			<path class="st4" d="M75.201,81.939c0.488,1.05,1.14,2.464,1.67,4.332l6.212-7.637c0.177-0.218,0.171-0.526-0.013-0.733
				c-0.872-0.981-3.013-3.477-5.658-6.579c-1.29,0.031-2.71,0.105-2.981,0.239c-0.219,0.265-0.097,3.028-0.015,4.857
				c0.064,1.458,0.126,2.834,0.066,3.433C74.438,80.293,74.758,80.983,75.201,81.939z"/>
			<path class="st7" d="M98.006,131.123c0.351-0.379,0.518-0.554,0.625-0.644c-2.089-3.503-5.307-9.19-10.09-17.729
				c-3.322-5.93-6.491-11.59-8.121-14.261c0.662,1.926,1.341,3.989,1.9,5.887c0.391,1.33,1.519,4.28,2.947,8.015
				c2.298,6.01,5.531,14.472,8.115,22.526C95.004,134.344,97.019,132.186,98.006,131.123z"/>
			<path class="st8" d="M79.048,94.611c0.02-0.017,0.037-0.038,0.065-0.043c0.231-0.046,2.75-0.796,3.7-1.081
				c0.006-0.002,0.012,0.001,0.018,0c0.004-0.001,0.006-0.005,0.011-0.006l1.507-0.179c0.028-0.971,0.138-7.207-1.332-12.762
				l-5.809,7.059c0.227,1.029,0.408,2.175,0.508,3.451c0.004,0.007,0.012,0.008,0.015,0.016
				C77.743,91.099,78.291,92.527,79.048,94.611z"/>
			<path class="st9" d="M101.885,134.776c0.557-0.046,2.945-0.947,6.522-2.476c0.291-0.125,0.511-0.37,0.603-0.674
				c0.091-0.304,0.044-0.632-0.132-0.898c-4.612-6.984-24.741-35.022-26.083-36.891c-0.605,0.181-3.351,1.002-3.619,1.055
				c-0.01,0.003-0.019-0.006-0.029-0.005c0.251,0.694,0.522,1.452,0.803,2.252c1.197,1.734,4.769,8.11,8.879,15.449
				C94.279,122.319,101.063,134.43,101.885,134.776z"/>
			<path class="st7" d="M145.368,130.863c0.133,0.211,0.332,0.538,0.535,0.952c0.005,0,0.009,0,0.013,0
				c2.089-0.063,6.289-2.487,7.263-3.065c-2.132-1.773-4.731-7.09-6-9.685c-0.102-0.209-0.196-0.399-0.283-0.576
				c-0.073,2.759-0.44,6.889-1.671,12.138C145.249,130.673,145.309,130.769,145.368,130.863z"/>
			<path class="st6" d="M166.122,156.221c0.01,0.017,0.025,0.042,0.045,0.076c1.171,1.933,1.555,4.742,1.671,6.757
				c0.1,1.757-0.474,3.18-1.659,4.115c-1.416,1.118-3.238,1.224-3.727,1.075c-0.125-0.037-0.48-0.153-0.996-0.321
				c-2.421-0.79-9.742-3.179-11.017-3.141c-0.022,0-0.044,0.002-0.059,0.004c0.275,0.685,5.265,3.926,9.174,6.101
				c1.061,0.59,1.963,1.031,2.688,1.384c1.287,0.628,1.997,0.974,2.151,1.45c0.057,0.176,0.034,0.364-0.071,0.558
				c-0.222,0.42-1.487,0.963-9.85,0.842l-0.206-0.003c-0.225-0.003-0.451-0.009-0.673-0.015c-1.206-0.034-2.348-0.063-2.831,0.402
				c0.068,0.41,3.125,1.599,4.43,2.106c0.654,0.254,1.171,0.455,1.393,0.566c0.654,0.327,5.104,0.996,7.407,1.31
				c0.269-0.114,1.67-0.699,2.542-0.654c0.092,0.004,0.162,0.081,0.158,0.172c-0.004,0.092-0.089,0.163-0.172,0.158
				c-0.837-0.038-2.422,0.639-2.438,0.646c-0.019,0.009-0.041,0.013-0.061,0.014c-0.009,0-0.018,0-0.027-0.001
				c-0.27-0.037-6.547-0.894-7.52-1.334c-1.267-0.146-3.29-0.341-3.842-0.29c0.325,0.425,2.314,1.83,6.107,3.151
				c3.909,1.362,5.096,1.658,5.31,1.707c0.284-0.089,1.853-0.569,2.647-0.593c0.092-0.003,0.168,0.069,0.171,0.16
				c0.003,0.091-0.069,0.167-0.161,0.17c-0.783,0.023-2.452,0.545-2.577,0.584c-0.792,0.61-2.459,1.04-2.531,1.058
				c-0.032,0.01-0.068,0.008-0.098-0.006c-3.644-1.362-4.91-1.681-5.281-1.67c-0.014,0-0.027,0.001-0.038,0.003
				c0.047,0.071,0.177,0.219,0.52,0.492l0.184,0.147c1.114,0.893,4.511,3.624,6.019,3.329c1.057-0.195,3.038-1.058,4.596-1.966
				c0.024-0.024,0.049-0.043,0.082-0.049c0.773-0.455,1.443-0.919,1.814-1.313c1.078-1.144,3.053-4.764,3.156-7.906
				c0.03-0.965,0.172-1.939,0.309-2.881c0.305-2.095,0.592-4.073-0.406-5.518c-0.692-1.003-1.152-2.539-1.641-4.166
				c-0.572-1.907-1.22-4.068-2.35-5.642c-1.424-1.98-3.692-4.41-4.981-5.746c0.889,1.441,1.727,2.974,2.487,4.601
				C166.032,156.145,166.091,156.165,166.122,156.221z"/>
			<path class="st4" d="M96.418,39.82c0.001,0.001,0.002,0.002,0.003,0.003c0.368-0.193,0.762-0.358,1.19-0.488
				C97.182,39.465,96.785,39.627,96.418,39.82z"/>
			<path class="st4" d="M95.833,40.18c0.108-0.075,0.218-0.149,0.333-0.217c-0.134,0.08-0.266,0.162-0.39,0.252
				C95.794,40.203,95.815,40.193,95.833,40.18z"/>
			<path class="st2" d="M86.048,47.896c0.385,0.032,0.724,0.059,0.838,0.035c-0.002-0.006-0.004-0.013-0.006-0.021
				c-0.497-1.627-1.804-2.567-2.814-3.069c-0.695-0.346-1.47-0.588-2.264-0.736c0.071,0.216,0.123,0.441,0.13,0.68
				c0.04,1.343-1.016,2.464-2.359,2.504c-1.343,0.04-2.464-1.016-2.504-2.359c-0.004-0.147,0.01-0.291,0.03-0.431
				c0.132-0.047,0.262-0.09,0.394-0.138c-2.513,0.923-4.971,1.483-5.882,1.676c2.395,1.635,5.993,1.744,10.413,1.712
				C84.028,47.734,85.293,47.835,86.048,47.896z"/>
			<path class="st4" d="M95.738,40.242c0.004-0.003,0.007-0.006,0.011-0.009c-0.019,0.014-0.04,0.027-0.06,0.041
				C95.705,40.262,95.723,40.254,95.738,40.242z"/>
			<path class="st10" d="M82.94,80.113c0.013-0.045,0.039-0.081,0.083-0.101l1.162-1.412c0.177-0.217,0.171-0.526-0.013-0.733
				c-0.876-0.986-3.021-3.471-5.676-6.562c-0.204,0.001-0.425,0.004-0.656,0.008c2.561,3.003,4.626,5.409,5.478,6.368
				c0.292,0.329,0.301,0.817,0.022,1.162l-6.367,7.827c0.046,0.174,0.091,0.35,0.135,0.531L82.94,80.113z"/>
			<path class="st4" d="M94.52,41.532c0.018-0.026,0.042-0.049,0.061-0.075c0.051-0.074,0.1-0.15,0.154-0.222
				C94.658,41.333,94.588,41.431,94.52,41.532z"/>
			<path class="st4" d="M96.386,39.84c0.011-0.006,0.021-0.014,0.032-0.02c-0.049,0.026-0.1,0.049-0.147,0.076
				C96.307,39.876,96.348,39.86,96.386,39.84z"/>
			<path class="st8" d="M111.663,34.272c-0.017,0.065-0.072,0.113-0.14,0.122c-0.071,0.008-0.132-0.025-0.165-0.084
				c-2.935-5.303-5.373-6.465-6.008-6.688c0.474,2.172,0.161,3.581,0.14,3.667c-0.015,0.064-0.069,0.105-0.131,0.118
				c1.309,3.747,1.669,8.04,1.349,11.166c-0.151,1.491,0.382,3.637,0.998,6.122c0.926,3.729,2.079,8.369,1.422,12.942
				c-0.588,4.097-2.279,8.387-4.367,11.688c0.125,7.222,3.584,14.674,5.45,18.185l3.202,0.505c0.423-0.589,1.903-0.367,2.083-0.336
				c0.001,0,0.001,0.001,0.002,0.001c0.001,0,0.002-0.001,0.003,0c0.168,0.034,1.963,0.404,4.203,1.062
				c-0.577-2.305-1.446-4.559-2.62-6.634c-0.613-1.05-1.315-2.047-2.118-2.962c-0.825-0.893-1.771-1.677-2.844-2.269
				c1.092,0.555,2.073,1.309,2.936,2.183c0.852,0.887,1.559,1.9,2.194,2.95c1.156,1.989,2.021,4.132,2.633,6.354
				c0.523-1.646,0.959-3.35,0.772-5.083c-0.134-1.865-0.719-3.698-1.686-5.32c-0.986-1.61-2.259-3.035-3.683-4.28
				c-1.43-1.237-2.973-2.367-4.658-3.25c1.71,0.832,3.313,1.889,4.773,3.117c1.45,1.238,2.755,2.661,3.776,4.287
				c1.003,1.637,1.627,3.507,1.788,5.424l0.046,1.445l-0.21,1.43c-0.042,0.483-0.19,0.941-0.348,1.395l-0.426,1.31
				c1.416,0.426,2.977,0.966,4.417,1.606c1.447-0.532,2.794-1.323,3.974-2.298c1.194-0.978,2.194-2.212,2.777-3.635
				c0.56-1.417,0.815-2.988,0.555-4.512c-0.012-0.386-0.108-0.759-0.209-1.131l-0.282-1.119c-0.277-0.719-0.57-1.434-0.867-2.145
				c-1.306-2.788-3.177-5.393-5.765-7.11c-2.573-1.751-5.771-2.356-8.865-2.177c1.542-0.078,3.125-0.134,4.661,0.204
				c1.532,0.325,3.008,0.932,4.324,1.79c2.653,1.715,4.587,4.343,5.943,7.152c0.298,0.727,0.586,1.459,0.858,2.195l0.276,1.149
				c0.098,0.382,0.191,0.764,0.2,1.161c0.247,1.563-0.032,3.184-0.627,4.63c-1.249,2.932-4.053,4.863-6.951,5.847
				c0.484,0.215,0.953,0.44,1.397,0.678c0.008-0.005,0.011-0.015,0.02-0.019c0.063-0.024,6.456-2.463,12.522-8.838
				c1.997-2.099,2.817-4.028,3.005-5.686c-0.01-0.017-0.016-0.032-0.025-0.048c-0.04-0.069-0.016-0.149,0.04-0.2
				c0.203-2.645-1.174-4.563-1.823-5.302c-0.033-0.039-0.056-0.065-0.064-0.076c-0.053-0.074-0.035-0.178,0.039-0.231
				c0.074-0.052,0.177-0.035,0.23,0.038c0.007,0.009,0.022,0.026,0.044,0.05c0.694,0.789,2.193,2.864,1.904,5.716
				c0.703,1.258,1.069,2.355,1.251,3.146c0.371-5.52-2.198-10.24-7.821-14.391c-1.428-1.055-3.213-2.194-5.102-3.4
				c-7.821-4.992-18.531-11.828-16.857-21.417c1.575-9.032-0.309-14.392-1.22-16.324C112.302,31.727,111.675,34.226,111.663,34.272z
				"/>
			<path class="st9" d="M145.356,117.966c-0.881-1.439-14.198-17.694-17.246-20.843c-2.328-2.405-8.46-4.116-11.253-4.795
				c2.689,1.371,8.825,4.883,12.254,9.92c4.291,6.306,10.2,16.576,10.626,17.319C140.082,119.738,142.479,120.777,145.356,117.966z"
				/>
			<path class="st4" d="M60.684,51.61c-0.109,0.844-0.207,1.613-0.228,1.978c-0.051,0.896,0.256,4.14,0.372,5.319
				c0.93-1.407,2.3-3.418,2.674-3.968C62.363,53.593,61.398,52.453,60.684,51.61z"/>
			<path class="st10" d="M60.815,50.604c-0.023,0.181-0.048,0.371-0.073,0.563c0.725,0.856,1.764,2.084,3.01,3.556
				c0.044,0,0.275,0.004,0.587,0.027C62.812,52.957,61.572,51.498,60.815,50.604z"/>
			<path class="st7" d="M130.601,99.408c2.172,2.51,5.197,6.138,7.656,9.129c2.574,3.132,4.256,5.211,5.368,6.617
				c0.262-0.066,1.095-0.263,1.826-0.436C142.814,110.483,134.291,102.69,130.601,99.408z"/>
			<path class="st7" d="M144.048,112.256c-0.438-1.193-1.016-1.951-2.022-3.259c-0.617-0.801-1.383-1.799-2.363-3.22
				c-2.218-3.218-8.104-6.726-10.482-8.059C130.158,98.566,139.483,106.697,144.048,112.256z"/>
			<path class="st8" d="M68.55,90.103c-0.155-0.31-0.299-0.598-0.43-0.864c-0.629-1.283-1.613-2.847-2.656-4.502
				c-1.908-3.03-3.882-6.162-4.266-8.431c-0.164-0.969-0.552-2.192-1.01-3.522c-0.015-0.011-0.034-0.013-0.046-0.029l-7.796-11.194
				c-0.182-0.261-0.199-0.61-0.044-0.887l5.975-10.67c0.135-0.241,0.379-0.401,0.653-0.427c0.103-0.012,0.204,0.008,0.304,0.04
				c0.676-1.542,1.305-2.558,1.623-2.568c0.001,0,0.002,0,0.003,0c0.084-0.001,0.189,0.048,0.228,0.187
				c0.085,0.3-0.026,1.39-0.221,2.942c0.011,0.008,0.025,0.008,0.035,0.019c0.771,0.911,2.168,2.555,3.912,4.6
				c0.387,0.049,0.799,0.129,1.096,0.266c0.686,0.318,2.45,3.17,2.456,3.482c0.002,0.064-0.037,0.132-0.093,0.161
				c-0.04,0.019-0.091,0-0.139-0.016c0.744,0.872,1.511,1.77,2.292,2.684c0.038,0.013,0.075,0.027,0.114,0.04
				c1.029-11.41-2.798-20.915-3.249-21.577c-0.046-0.054-0.05-0.128-0.013-0.189c0.036-0.06,0.107-0.09,0.179-0.073
				c0.14,0.03,3.264,0.73,4.578,3.333c0.201-1.337,0.648-4.817,0.303-7.39c-0.008-0.063,0.02-0.126,0.073-0.161
				c0.055-0.034,0.124-0.035,0.177-0.004c0.184,0.111,4.462,2.702,5.491,5.512c2.84-0.97,8.093-2.921,9.076-3.858
				c-1.202-3.153-2.616-6.89-2.62-7.032c-0.002-0.075,0.051-0.146,0.122-0.167c0.006-0.002,0.016-0.003,0.027-0.003
				c0.632-0.019,7.649,3.061,10.311,6.862c0.149-1.033,0.405-3.928-0.688-7.327c-0.021-0.069,0.003-0.144,0.063-0.186
				c0.058-0.041,0.138-0.04,0.196,0.005c0.125,0.097,3.026,2.363,3.626,4.76c0.766-0.077,4.402-0.498,5.525-1.647
				c-0.193-0.688-1.526-5.258-3.582-7.623c-0.011-0.013-0.012-0.03-0.018-0.045c-0.006-0.014-0.013-0.024-0.016-0.039
				c-0.005-0.03,0.002-0.057,0.013-0.086c0.003-0.008-0.001-0.017,0.004-0.025c0.001-0.002,0.003-0.001,0.004-0.003
				c0.001-0.002,0.001-0.005,0.002-0.007c0.023-0.032,0.057-0.053,0.093-0.062c0.009-0.002,0.018,0.002,0.027,0.001
				c0.026-0.002,0.051-0.006,0.076,0.003c0.036,0.015,3.451,1.426,4.94,6.032c0.063-1.166-0.067-3.51-1.609-6.343
				c-0.043-0.081-0.014-0.181,0.067-0.224c0.081-0.046,0.181-0.014,0.224,0.066c0.665,1.223,1.071,2.347,1.319,3.334
				c0.221,0.045,2.85,0.692,6.173,6.52c0.18-0.928,0.529-3.326,0.142-6.411c-0.014-0.022-0.03-0.049-0.032-0.051
				c-0.035-0.052-0.026-0.111,0.001-0.163c-0.398-2.947-1.469-6.489-4-9.983c-6.028-8.321-17.387-9.567-17.5-9.578
				c-0.082-0.008-0.146-0.075-0.149-0.158c-0.004-0.082,0.055-0.154,0.135-0.169c0.075-0.015,1.617-0.301,2.995-0.075
				c-1.472-1.037-6.341-3.302-17.549,0.734C61.341,13.004,56.17,20.791,51.715,28.998c-4.267,7.86-5.524,15.454-4.803,29.019
				c0.63,11.862,7.916,23.161,14.524,29.78c0.776,0.777,1.612,1.577,2.42,2.35c2.509,2.401,5.101,4.884,6.807,7.503
				c0.332-0.128,0.67-0.244,1.018-0.343C70.573,94.142,69.401,91.802,68.55,90.103z"/>
			<path class="st9" d="M153.576,199.167c1.238,8.377,1.278,17.286,0.057,25.774c8.913-1.669,22.088-4.27,23.162-4.841
				c-0.386-1.389-7.729-20.656-11.721-31.074C162.653,192.285,158.694,196.696,153.576,199.167z"/>
			<path class="st4" d="M59.096,49.938c-0.045-0.011-0.086-0.037-0.133-0.032c-0.168,0.016-0.312,0.111-0.395,0.259l-5.975,10.67
				c-0.094,0.168-0.085,0.378,0.026,0.536l7.187,10.319c-0.039-0.109-0.075-0.214-0.114-0.325c-1.101-3.112-2.348-6.639-2.181-9.25
				c0.261-4.087,0.02-7.489,0.018-7.523c-0.002-0.018,0-0.037,0.005-0.055C57.983,52.845,58.549,51.232,59.096,49.938z"/>
			<path class="st7" d="M75.603,146.992c-0.045-0.227-0.104-0.454-0.14-0.681c-0.721-4.549-0.617-9.583-0.496-15.412
				c0.102-4.88,0.216-10.41-0.129-16.761c-0.385-7.085-1.659-12.461-3.052-16.52c-3.352,0.954-5.974,3.282-7.791,6.93
				c-3.075,6.177-3.041,14.895-1.245,19.432c2.475,6.248,9.026,24.871,9.972,27.563l2.837-4.521
				C75.57,147.006,75.589,147.003,75.603,146.992z"/>
			<path class="st6" d="M93.149,135.268c-0.023-0.02-0.044-0.044-0.054-0.076c-0.007-0.024,0.004-0.045,0.008-0.068
				c-2.588-8.071-5.839-16.581-8.145-22.614c-1.431-3.742-2.56-6.697-2.956-8.039c-0.687-2.332-1.553-4.912-2.349-7.179
				c-0.046-0.066-0.096-0.139-0.134-0.189c-0.043-0.056-0.032-0.126,0.003-0.182c-0.732-2.076-1.386-3.839-1.763-4.842
				c0.014,0.331,0.039,0.645,0.041,0.993c0.001,0.09-0.072,0.164-0.161,0.166c-0.001,0-0.002,0-0.004,0
				c-0.09,0.001-0.166-0.073-0.167-0.164c-0.034-5.537-1.62-8.953-2.567-10.994c-0.483-1.041-0.802-1.728-0.749-2.261
				c0.057-0.576-0.004-1.941-0.068-3.386c-0.165-3.724-0.16-4.992,0.2-5.169c0.488-0.24,3.238-0.279,4.086-0.288
				c-0.232-0.836-0.713-1.994-1.196-2.064c-0.246-0.036-0.708-0.147-1.243-0.275c-0.957-0.229-2.952-0.709-3.205-0.519
				c-0.254,0.467-0.481,1.115-0.701,1.678l-0.65,1.763l-1.252,3.539l0.123,2.035l-0.194-2.037l0.002-0.014l1.132-3.588l0.59-1.788
				c0.221-0.605,0.364-1.161,0.697-1.8c0.001-0.001,0-0.002,0.001-0.003c0,0,0.001,0,0.001-0.001
				c0.024-0.045,0.065-0.069,0.111-0.078c0.374-0.183,1.386,0.004,3.31,0.463c-0.055-0.864-0.346-2.81-1.169-2.955
				c-1.904-0.338-4.236-0.491-4.533,0.191c0,0,0,0,0,0l-1.515,3.213l-0.754,1.608c-0.244,0.532-0.511,1.083-0.72,1.606l0-0.003
				c0.051,0.625,0.053,1.258-0.076,1.871c0.106-0.616,0.08-1.247,0.007-1.863l0-0.003c0.199-0.588,0.44-1.109,0.666-1.662
				l0.694-1.635l1.394-3.264c0,0,0-0.001,0-0.001c0.355-0.81,2.234-0.751,3.81-0.548c-0.033-0.59-0.211-1.852-0.747-2.1
				c-0.6-0.278-1.397-0.613-2.196-0.898c-0.021,0.011-0.041,0.026-0.066,0.027c-0.006,0-0.014,0-0.02,0
				c-0.061-0.006-0.1-0.047-0.124-0.098c-1.172-0.403-2.312-0.676-2.799-0.451c-0.106,0.05-0.169,0.119-0.196,0.217c0,0,0,0,0,0
				c0,0,0,0,0,0c-0.243,0.733-0.542,1.41-0.833,2.103L65.819,65.7l-1.846,4.084l-0.014,2.28l-0.053-2.286l0.003-0.015l0.235-0.564
				c-0.004,0.001-0.006,0.005-0.01,0.006c-0.005,0.001-0.012,0.001-0.017,0.002c-0.084,0.003-0.157-0.058-0.169-0.143
				c-0.036-0.261-0.874-6.418-0.902-7.34c-0.03-1.002,1.585-3.569,2.15-3.952c0.498-0.341,1.944,0.138,2.67,0.446
				c-0.449-0.813-1.643-2.643-2.096-2.853c-0.554-0.257-1.633-0.302-1.945-0.309c-0.42,0.616-3.323,4.878-3.573,5.37
				c-0.157,0.308,0.075,2.194,0.244,3.571c0.108,0.874,0.209,1.7,0.244,2.268c0.005,0.091-0.065,0.169-0.155,0.175
				c-0.002,0-0.004,0-0.005,0c-0.089,0.003-0.165-0.066-0.171-0.155c-0.033-0.558-0.134-1.378-0.241-2.247
				c-0.249-2.032-0.398-3.391-0.211-3.762c0.063-0.125,0.284-0.473,0.583-0.93c-0.038-0.369-0.476-4.679-0.414-5.777
				c0.024-0.419,0.137-1.288,0.269-2.293c0.179-1.386,0.42-3.235,0.393-3.815c-0.465,0.515-1.874,3.182-2.928,7.136
				c0.023,0.336,0.231,3.628-0.019,7.54c-0.163,2.543,1.072,6.036,2.162,9.118c0.666,1.883,1.295,3.661,1.521,4.995
				c0.373,2.203,2.417,5.447,4.22,8.309c1.048,1.663,2.036,3.233,2.673,4.533c0.13,0.266,0.274,0.553,0.429,0.862
				c1.963,3.92,5.619,11.217,6.323,24.167c0.346,6.363,0.23,11.9,0.129,16.786c-0.121,5.813-0.225,10.833,0.491,15.353
				c1.298,8.186,9.044,16.543,9.122,16.626c0.062,0.067,0.059,0.171-0.007,0.233c-0.031,0.029-0.07,0.044-0.109,0.045
				c-0.046,0.001-0.092-0.016-0.125-0.052c-0.075-0.081-7.191-7.77-8.977-15.679l-2.41,3.84c0.004,0.006,0.013,0.007,0.016,0.014
				c0.039,0.084,3.975,8.379,7.488,11.071c3.746,2.87,9.317,5.136,9.93,5.117c0.026-0.007,4.123-1.381,6.367-11.214
				C97.979,152.342,95.966,144.077,93.149,135.268z"/>
			<path class="st9" d="M151.788,191.718c-0.093-0.374-0.118-0.474-0.119-0.527c-0.003-0.092,0.069-0.167,0.161-0.17
				c0.092-0.003,0.168,0.069,0.171,0.16c0.003,0.033,0.052,0.23,0.109,0.457c0.578,2.329,1.038,4.737,1.41,7.185
				c7.413-3.622,12.377-11.363,13.628-13.476c-1.488,0.812-3.196,1.528-4.183,1.71c-0.072,0.013-0.148,0.021-0.227,0.023
				c-1.726,0.052-4.85-2.451-6.059-3.421l-0.183-0.146c-0.585-0.466-0.76-0.716-0.642-0.925c0.159-0.28,0.694-0.363,5.713,1.512
				c0.248-0.067,1.369-0.382,2.089-0.804c-0.582-0.157-1.974-0.572-5.026-1.636c-3.901-1.359-6.38-3.003-6.372-3.537
				c0.001-0.106,0.068-0.192,0.173-0.225c0.315-0.102,1.824,0.025,2.946,0.138c-0.099-0.039-0.196-0.077-0.304-0.118
				c-2.992-1.164-4.531-1.85-4.633-2.365c-0.022-0.108,0.012-0.21,0.094-0.288c0.586-0.561,1.792-0.527,3.069-0.494
				c0.221,0.006,0.445,0.012,0.67,0.015l0.205,0.003c8.239,0.119,9.427-0.427,9.554-0.667c0.081-0.152,0.065-0.244,0.047-0.3
				c-0.112-0.343-0.855-0.705-1.981-1.255c-0.728-0.355-1.635-0.797-2.704-1.392c-0.095-0.054-9.582-5.426-9.349-6.491
				c0.017-0.078,0.083-0.212,0.334-0.231c0.014-0.001,0.029-0.002,0.044-0.002c1.187-0.036,6.564,1.664,11.137,3.156
				c0.511,0.167,0.864,0.282,0.989,0.319c0.424,0.128,2.126,0.01,3.426-1.018c1.113-0.878,1.629-2.169,1.533-3.837
				c-0.085-1.479-0.316-3.39-0.901-5.044c-0.014,0.004-0.028,0.008-0.041,0.009c-0.067,0.002-0.13-0.036-0.157-0.101
				c-6.03-14.453-18.503-22.033-19.692-22.729c0.005,0.362-0.009,0.738-0.058,1.138c-0.01,0.082-0.079,0.143-0.159,0.145
				c-0.009,0-0.016,0-0.025-0.001c-0.091-0.011-0.156-0.094-0.145-0.184c0.338-2.759-0.808-4.581-1.241-5.267
				c-0.162-0.259-0.217-0.346-0.193-0.451c1.327-5.639,1.654-9.99,1.687-12.714c-0.012-0.021-0.031-0.056-0.039-0.067
				c-0.05-0.041-0.073-0.11-0.054-0.176c0.015-0.049,0.051-0.081,0.094-0.099c0.005-1.416-0.068-2.348-0.105-2.716
				c-0.836,0.196-2.111,0.497-2.628,0.622c1.971,2.506,1.901,2.601,1.821,2.681c0,0.001,0,0.001,0,0.001
				c-1.61,1.609-3.117,2.052-4.234,2.085c-1.148,0.034-1.885-0.363-1.899-0.371c-0.026-0.014-0.047-0.036-0.063-0.062
				c-0.017-0.03-0.501-0.875-1.285-2.216l-2.77,1.244c-5.437,2.796-25.226,8.993-27.741,9.561c0.584,0.853,1.089,1.599,1.476,2.184
				c0.229,0.349,0.293,0.777,0.173,1.175c-0.12,0.397-0.407,0.72-0.79,0.883c-2.12,0.907-5.806,2.437-6.663,2.498
				c-0.001,0-0.003,0-0.004,0c-0.317,0.009-1.234-1.274-3.068-4.335c-0.117,0.11-0.329,0.338-0.555,0.581
				c-1.083,1.167-3.065,3.29-4.766,3.885c2.81,8.803,4.815,17.071,3.934,21.056c0.678,2.694,5.573,10.819,5.623,10.901
				c0.027,0.046,0.031,0.103,0.01,0.152c-1.534,3.513-0.511,6.745-0.502,6.777c0.015,0.047,0.009,0.099-0.017,0.141
				c-13.137,20.365-10.079,45.254-9.799,47.295l60.56,3.419C154.894,213.901,154.364,202.099,151.788,191.718z M127.175,141.059
				c-1.504,0.691-3.095,1.177-4.713,1.514c-1.624,0.312-3.276,0.456-4.923,0.475c-0.824,0.009-1.648-0.02-2.469-0.066
				c-0.822-0.054-1.637-0.164-2.457-0.206c1.645,0.014,3.284,0.099,4.92,0.019c1.633-0.073,3.268-0.211,4.866-0.546
				c1.603-0.308,3.167-0.788,4.671-1.421c1.488-0.67,2.883-1.534,4.164-2.568C130.035,139.385,128.668,140.338,127.175,141.059z"/>
			<path class="st10" d="M67.46,58.408c-0.243-0.091-0.521-0.182-0.805-0.26c0.783,0.924,1.599,1.887,2.434,2.871
				c0.244,0.048,0.494,0.107,0.755,0.181C69.029,60.246,68.23,59.31,67.46,58.408z"/>
			<path class="st6" d="M76.81,39.814c0.082-0.032,0.169-0.061,0.254-0.091c-1.277-1.803-3.55-3.381-4.357-3.903
				c0.23,2.195-0.043,4.9-0.249,6.449C73.823,41.324,75.258,40.48,76.81,39.814z"/>
			<path class="st4" d="M68.592,60.945c-0.851-1.003-1.681-1.983-2.474-2.918c-0.327-0.057-0.607-0.07-0.736,0.018
				c-0.472,0.32-2.03,2.809-2.004,3.668c0.025,0.843,0.774,6.395,0.885,7.203l1.374-3.294l0.837-2.08
				c0.268-0.693,0.552-1.396,0.759-2.09c0,0,0,0,0-0.001c0,0,0-0.001,0.001-0.001l0.003-0.011c0.001-0.004,0.006-0.005,0.007-0.009
				c0.056-0.18,0.179-0.323,0.365-0.409C67.845,60.911,68.197,60.904,68.592,60.945z"/>
			<path class="st7" d="M138.02,117.269c-2.098-3.586-6.068-10.257-9.185-14.836c-4.357-6.402-13.147-10.314-13.415-10.432
				c-0.512-0.084-1.638-0.135-1.784,0.25c-0.023,0.091,0.042,0.585,0.105,1.064c0.278,2.12,0.858,6.531-1.04,8.684
				c-0.687,0.78-1.639,1.192-2.831,1.228c-0.067,0.002-0.134,0.002-0.2,0.002c-12.983-0.065-18.824-3.827-20.304-4.979
				c-2.35-1.829-4.541-4.208-4.923-4.627l-1.286,0.152c1.736,2.418,17.903,24.944,24.324,34.298
				c1.139-0.238,21.758-6.468,27.793-9.571L138.02,117.269z M113.203,112.744c0.721,0.267,1.437,0.544,2.165,0.785
				c0.72,0.266,1.453,0.487,2.189,0.694c0.737,0.197,1.485,0.381,2.259,0.365c-0.766,0.139-1.561,0.039-2.317-0.117
				c-0.761-0.158-1.504-0.385-2.239-0.629c-1.454-0.531-2.881-1.134-4.22-1.911L113.203,112.744z M118.804,116.844
				c-1.101,0.054-2.204,0.005-3.302-0.085c-1.096-0.112-2.188-0.27-3.262-0.513c-1.079-0.221-2.123-0.583-3.174-0.881
				c1.084,0.181,2.145,0.457,3.224,0.633c1.076,0.188,2.156,0.349,3.244,0.432c1.085,0.114,2.175,0.16,3.267,0.16
				c1.092,0.016,2.184-0.051,3.28-0.122C120.999,116.66,119.905,116.814,118.804,116.844z"/>
			<path class="st4" d="M104.264,28.859c-0.027-0.053-0.057-0.096-0.084-0.148C104.207,28.761,104.238,28.808,104.264,28.859z"/>
			<path class="st6" d="M78.74,71.082c2.658,3.094,4.803,5.579,5.68,6.566c0.057,0.064,0.094,0.138,0.129,0.212
				c0.006,0.001,0.01-0.004,0.016-0.003c0.105,0.021,10.481,2.047,14.438,0.642c1.823-0.647,3.766-2.631,5.452-5.284
				c0.011-0.022,0.017-0.043,0.036-0.058c2.057-3.255,3.727-7.506,4.31-11.567c0.647-4.509-0.497-9.114-1.416-12.815
				c-0.625-2.515-1.164-4.687-1.006-6.235c0.529-5.186-0.82-13.625-5.332-17.24c1.866,2.717,2.963,6.783,3.014,6.974
				c0.013,0.053,0,0.11-0.035,0.151c-1.254,1.433-5.757,1.821-5.949,1.837c-0.081,0.006-0.159-0.049-0.175-0.131
				c-0.379-1.8-2.265-3.615-3.118-4.36c0.667,2.329,0.727,4.385,0.654,5.731c0.362-0.097,0.749-0.145,1.073-0.112
				c1.869,0.184,3.59,0.741,5.285,1.419c-1.829-0.085-3.606-0.502-5.34-0.649c-0.414-0.042-0.727-0.013-1.079,0.108
				c-0.058,0.548-0.126,0.864-0.128,0.875c-0.014,0.066-0.068,0.116-0.134,0.127c-0.067,0.01-0.133-0.019-0.168-0.076
				c-0.121-0.196-0.26-0.387-0.402-0.577c-0.141,0.072-0.282,0.144-0.423,0.219c-0.767,0.435-1.535,0.908-2.31,1.392
				c0.58-0.709,1.237-1.353,1.987-1.898c0.106-0.08,0.22-0.15,0.332-0.222c-2.721-3.162-7.965-5.455-9.182-5.899
				c0.341,0.952,1.647,4.405,2.552,6.779c0.022,0.057,0.01,0.121-0.029,0.167c-0.568,0.659-3.178,1.761-5.513,2.654
				c0.725,0.226,1.428,0.509,2.074,0.89c-0.97-0.27-1.946-0.462-2.913-0.573c-1.624,0.606-2.956,1.06-3.09,1.106
				c-0.043,0.014-0.087,0.011-0.127-0.009c-0.039-0.02-0.07-0.055-0.084-0.097c-0.079-0.246-0.201-0.491-0.332-0.735
				c-0.128,0.042-0.255,0.08-0.383,0.137c-1.58,0.657-3.12,1.462-4.708,2.2c-0.07,0.485-0.121,0.78-0.123,0.792
				c-0.013,0.073-0.074,0.129-0.148,0.136c-0.07-0.001-0.143-0.037-0.169-0.107c-0.874-2.344-3.349-3.29-4.242-3.562
				c0.799,1.83,4.173,10.49,3.151,21.542c0.933,0.334,1.798,0.715,2.228,0.914c0.815,0.377,0.928,2.089,0.943,2.444
				c0.265,0.038,0.519,0.079,0.748,0.119c1.259,0.223,1.433,3,1.45,3.362c0.428,0.102,0.792,0.187,0.99,0.215
				C78.125,68.714,78.669,70.794,78.74,71.082z M94.93,40.496c1.848-1.856,4.922-2.13,8.974-1.968
				c0.071,0.003,0.132,0.051,0.152,0.119c0.019,0.068-0.007,0.142-0.066,0.182c-0.012,0.008-1.198,0.822-2.541,2.151
				c-0.833,0.823-2.913,1.692-4.586,2.389c-1.09,0.455-2.118,0.884-2.366,1.129c-0.193,0.189-0.348,0.357-0.478,0.496
				c-0.288,0.31-0.481,0.518-0.695,0.525c-0.045,0.001-0.092-0.006-0.14-0.024c-0.085-0.031-0.143-0.111-0.171-0.237
				C92.864,44.584,93.35,42.082,94.93,40.496z M91.508,45.565c0.789,0.842,1.809,1.5,2.951,1.596
				c0.579,0.077,1.196,0.105,1.777,0.361c0.299-0.057,0.604,0.076,0.683,0.691c0.101,0.331,0.036,0.664-0.063,0.948
				c-0.412,1.149-1.098,2.113-1.703,3.13c0.496-1.067,1.115-2.106,1.459-3.201c0.185-0.554,0.062-1.115-0.5-1.294
				c-0.511-0.217-1.1-0.24-1.687-0.307c-1.237-0.132-2.331-0.845-3.106-1.754c-0.787-0.911-1.346-1.987-1.713-3.111
				C90.086,43.703,90.716,44.716,91.508,45.565z M91.76,57.862c1.007-0.865,1.888-0.666,2.742-0.474
				c0.466,0.105,0.951,0.213,1.479,0.165c1.059-0.098,1.708-0.437,2.095-0.639c0.195-0.102,0.312-0.163,0.423-0.166
				c0.408-0.012,1.148,1.299,1.231,1.598c0.02,0.073,0.007,0.149-0.039,0.214c-0.034,0.049-0.088,0.123-0.343,0.211l-0.026,0.469
				c-0.004,0.072-0.054,0.133-0.124,0.151c-0.022,0.006-0.863,0.221-2.04,0.503c-0.09,0.158-1.223,2.211-0.1,4.089
				c0.539,0.9,1.268,1.275,1.801,1.549c0.224,0.115,0.438,0.229,0.572,0.37c0.052-0.03,0.113-0.04,0.167-0.005
				c0.044,0.029,1.074,0.726,0.923,2.464c-0.034,0.38-0.245,0.73-0.628,1.04c-0.991,0.802-2.968,1.214-4.877,1.271
				c-0.734,0.022-1.459-0.009-2.113-0.089c-3.449-0.425-5.642-2.203-6.061-4.806c-0.004-0.011-0.012-0.021-0.016-0.032
				c-0.077-0.248-0.092-0.507-0.073-0.77c0-0.007-0.002-0.013-0.002-0.019c0-0.004,0.004-0.006,0.004-0.01
				c0.034-0.405,0.165-0.825,0.423-1.258c0.005-0.007,0.014-0.008,0.019-0.014l-0.006-0.005l0.006,0.005c0,0,0,0,0,0l-0.005-0.005
				c0.012-0.016,0.025-0.032,0.038-0.048C87.75,62.662,90.752,58.726,91.76,57.862z M71.109,46.081
				c-0.052-0.039-0.075-0.106-0.06-0.169c0.015-0.063,0.066-0.112,0.13-0.124c0.03-0.006,3.074-0.589,6.199-1.737
				c2.01-0.738,4.758-0.539,6.835,0.493c1.531,0.762,2.563,1.892,2.982,3.269c0.016,0.051,0.063,0.207-0.034,0.328
				c-0.07,0.087-0.172,0.122-0.361,0.128c-0.173,0.005-0.42-0.014-0.778-0.043c-0.751-0.06-2.006-0.161-3.994-0.146
				C77.354,48.115,73.582,47.99,71.109,46.081z"/>
			<path class="st6" d="M99.113,78.81c-0.899,0.319-2.099,0.469-3.426,0.509c-4.342,0.13-10.046-0.919-11.045-1.111
				c0.008,0.211-0.057,0.425-0.201,0.602l-1.165,1.415c1.597,5.835,1.422,12.5,1.4,13.163c0.323,0.358,2.526,2.761,4.892,4.602
				c3.008,2.34,9.869,4.858,20.102,4.909c1.204,0.01,2.124-0.371,2.783-1.118c1.799-2.04,1.232-6.351,0.96-8.422
				c-0.071-0.547-0.107-0.843-0.108-1.026l-2.901-0.457c0.572,1.057,0.959,1.684,0.975,1.709c0.048,0.077,0.025,0.179-0.052,0.228
				c-0.026,0.016-0.055,0.024-0.083,0.025c-0.057,0.002-0.113-0.026-0.146-0.078c-0.063-0.102-6.283-10.164-6.644-19.957
				C102.787,76.312,100.895,78.178,99.113,78.81z"/>
		</g>
		<g class="st11">
			<g>
				<path class="st12" d="M129.124,91.659c0,0,7.107-5.405-0.998-16.001c0,0,3.855,7.348-5.515,8.732c0,0,0.437-7.087-8.618-10.386
					c-9.055-3.298-0.428-12.124-1.583-18.19c-1.155-6.066-3.999-10.005-3.068-15.744c0.931-5.739,1.474-7.118,1.474-7.118
					l-2.769-3.616l-2.595-2.129c0,0-0.336-0.379-0.254,0.202c0.082,0.582,0.373,1.611,0.381,1.871
					c0.008,0.259-0.264,2.02-0.264,2.02s0.42,1.026,0.426,1.22c0.006,0.195,1.07,3.213,0.901,8.41
					c-0.169,5.197-0.239,5.005,0.153,5.123c0.393,0.118,2.85,8.482,2.321,14.663c-0.529,6.181-5.119,13.263-5.119,13.263
					s-1.835,3.754-5.305,4.897c-3.47,1.142-14.108-0.811-14.108-0.811l-1.178,1.852c0,0,9.73,1.98,14.304,0.87
					c4.575-1.11,6.067-3.297,6.067-3.297s2.461,8.493,3.614,10.146c1.153,1.653,2.722,4.202,2.722,4.202l3.189,0.294l1.613-0.308
					l3.916,0.726c0,0,4.138,1.628,4.591,1.615c0.454-0.014,2.303,1.034,2.564,1.091c0.261,0.057,1.415-0.432,1.606-0.567
					c0.191-0.136,6.128-3.429,7.437-5.22L129.124,91.659z"/>
				<path class="st12" d="M92.897,46.859c1.486,0.864,3.441,0.059,3.904,1.408c0,0-0.128,2.21-1.571,3.876
					c0,0,2.428-1.273,3.154-3.048c0.726-1.774-3.046-3.089-3.337-3.08c-0.292,0.009-1.088-0.584-0.71-0.952
					c0.378-0.368,3.729-0.079,6.542-2.597c2.813-2.518,3.066-3.824,3.066-3.824l-2.66,2.189c0,0-1.819,1.028-1.945,1.162
					c-0.126,0.134-3.29,1.754-3.385,1.821c-0.095,0.068-1.831,0.607-1.831,0.607l-0.533,0.632l-0.353,0.14
					c0,0-0.061-0.972-0.037-1.232c0.025-0.26,0.652-2.064,0.774-2.327c0.122-0.263,1.933-1.551,1.993-1.715
					c0.06-0.164,0.951-0.742,1.305-0.85c0.354-0.108,2.388-0.461,2.614-0.5c0.226-0.039,2.919-0.055,2.919-0.055
					s-0.311-1.711-1.551-1.933c-1.24-0.222-4.042-0.593-4.401-0.679c-0.36-0.087-1.674,0.44-1.674,0.44s-0.141,0.718-0.177,0.589
					c-0.036-0.129-0.696-0.498-0.696-0.498s-0.153,0.297-0.572,0.406c-0.419,0.11-1.116,0.65-1.275,0.785
					c-0.158,0.135-0.502,0.567-0.63,0.635c-0.128,0.069-0.572,0.407-0.663,0.604c-0.091,0.197-1.71,2.485-1.507,3.842
					C89.861,44.061,91.411,45.995,92.897,46.859z"/>
			</g>
			<path class="st12" d="M86.426,34.494c0,0,5.235-0.741,5.365-0.712c0.131,0.029-4.303-2.824-4.531-2.85
				c-0.228-0.026-2.337-1.098-2.337-1.098s-0.076,0.716,0.024,0.811C85.048,30.739,86.426,34.494,86.426,34.494z"/>
			<path class="st12" d="M95.09,36.636c-0.015-0.486,0.07-1.982,0.128-2.243s-0.004-2.304-0.111-2.625
				c-0.107-0.321-0.755-2.444-0.625-2.448c0.13-0.004,2.073,2.047,2.172,2.109s1.333,2.264,1.338,2.426
				c0.005,0.162,0.076,0.387,0.206,0.383c0.13-0.004,2.61-0.63,2.934-0.64c0.324-0.01,1.924-0.772,2.084-0.841
				s0.705-0.313,0.702-0.41c-0.003-0.097-0.61-1.961-0.614-2.091c-0.004-0.13-1.449-3.948-1.612-3.976s-1.672-1.637-1.377-1.549
				c0.295,0.089,2.612,1.609,3.125,2.502s1.767,3.744,1.77,3.841c0.003,0.097,1.425,3.17,1.463,3.331s-0.288,9.874-0.179,10.292
				s0.772,1.924,0.64,1.863s-0.612-3.097-2.677-3.781c-2.065-0.685-3.529,1.339-5.472,1.494c-1.942,0.156-3.598,0.14-3.598,0.14
				s-0.979-0.198-0.85-0.202s1.954-0.837,2.116-0.875c0.161-0.037,2.525-1.276,2.814-1.382c0.289-0.106,2.361-1.336,2.584-1.473
				c0.223-0.136,1.482-1.44,1.575-1.572c0.093-0.133,0.283-0.301,0.185-0.33s-1.108-0.162-1.108-0.162s-0.215-0.675-0.253-0.869
				s-0.574-0.762-0.8-0.722s-3.212,0.031-3.765-0.017S95.09,36.636,95.09,36.636z"/>
			<path class="st12" d="M71.095,45.922c0.171,0.287,3.067,2.731,5.873,3.231c2.806,0.5,10.537-0.316,10.626-0.578
				c0.09-0.262-0.276-0.543-0.438-0.539c-0.162,0.005-9.649-0.36-9.748-0.422c-0.099-0.062-2.116-0.229-2.604-0.279
				c-0.488-0.05-2.322-0.612-2.521-0.736C72.085,46.476,71.095,45.922,71.095,45.922z"/>
			<path class="st12" d="M70.089,75.19c-0.078-0.452,0.531-3.942,0.702-4.726s0.654-3.07,1.296-3.316
				c0.642-0.246,3.729-0.079,3.729-0.079l0.132,1.164l-2.151-0.293l-0.943-0.069c0,0-0.53,0.73-0.59,0.894
				c-0.06,0.164-1.35,3.675-1.35,3.675L70.089,75.19z"/>
			<path class="st12" d="M78.417,70.43c0,0-2.207,0.001-2.788,0.084c-0.582,0.082-2.091-0.489-2.272,1.074
				c-0.18,1.563,0.54,7.188,0.195,9.762c-0.345,2.574,2.438,4.47,3.112,7.468c0.674,2.998,0.329,4.501,0.89,4.808
				c0.561,0.308,1.264,1.033,1.228,0.904s-1.062-2.954-1.1-3.147c-0.038-0.194-0.311-2.814-0.447-3.005s-0.556-2.32-0.556-2.32
				s-1.097-3.05-1.303-3.433c-0.206-0.383-1.048-2.5-1.053-2.662c-0.005-0.162,0.002-8.599,0.002-8.599s0.577-0.244,0.772-0.218
				c0.196,0.027,3.401-0.199,3.401-0.199L78.417,70.43z"/>
			<path class="st12" d="M67.058,73.658c-0.008-0.259-0.483-2.03-0.154-2.981c0.328-0.951,2.286-6.007,3.149-6.455
				c0.863-0.448,3.713-0.63,3.687-0.402c-0.026,0.228,0.161,1.034,0.064,1.069c-0.096,0.035-3.112,0.093-3.112,0.093
				s-0.608,0.278-0.604,0.408s-2.465,5.461-2.465,5.461l-0.478,1.377L67.058,73.658z"/>
			<path class="st12" d="M63.922,71.87c0,0-1.402-7.811-1.393-8.59s0.31-2.638,0.548-3.359c0.238-0.721,2.397-2.311,2.397-2.311
				s-1.529,2.025-1.652,2.256c-0.123,0.231-0.693,1.773-0.687,1.968s0.434,3.654,0.473,3.88c0.039,0.226,0.59,3.455,0.59,3.455
				l-0.229,1.013L63.922,71.87z"/>
			<path class="st12" d="M60.502,66.034c0,0-1.243-5.739-1.165-6.39c0.078-0.651,0.505-8.063,0.646-8.781
				c0.141-0.718,0.961-3.663,0.961-3.663s-0.014,0.617-0.056,1.397s-0.518,4.364-0.544,4.592c-0.026,0.228,0.087,2.918,0.093,3.112
				c0.006,0.195,0.315,2.944,0.315,2.944s-0.713,1.125-0.705,1.384c0.008,0.259,0.201,2.363,0.205,2.525
				C60.258,63.315,60.502,66.034,60.502,66.034z"/>
			<path class="st12" d="M107.006,102.965c-0.231-0.048,2.933,0.431,4.406-2.404s-2.894-6.696-3.009-8.379
				c-0.115-1.684,0.952-3.955,1.011-4.152c0.059-0.196,4.304,3.927,4.177,4.029c-0.127,0.101,0.071,3.438,0.172,3.564
				c0.101,0.127,0.113,2.69,0.055,2.919C113.76,98.771,113.7,104.355,107.006,102.965z"/>
			<path class="st13" d="M108.667,115.052c0.586,0.047,5.366,1.462,6.344,1.627s6.681-0.135,6.94-0.143
				c0.259-0.008,3.091-0.806,3.091-0.806s-5.912-0.212-6.368-0.264c-0.456-0.051-3.401-0.872-4.315-1.039
				c-0.914-0.167-3.719-0.667-2.876-0.693C112.326,113.709,108.667,115.052,108.667,115.052z"/>
			<path class="st13" d="M110.814,110.899c0.593,0.307,0.491,1.218,2.267,2.009c1.776,0.791,6.348,1.757,6.802,1.743
				c0.454-0.014,3.999-0.834,3.999-0.834s-5.075-0.432-6.126-0.855c-1.051-0.423-4.841-1.283-5.171-1.468
				C112.254,111.31,110.814,110.899,110.814,110.899z"/>
			<path class="st13" d="M79.047,94.716l3.797-1.087c0,0-2.478,1.762-2.322,2.666c0.157,0.904,17.944,33.536,18.014,33.728
				c0.071,0.193,0.147,0.58-0.04,0.845s-3.347,3.086-3.347,3.086l-1.722,1.025c0,0-7.012-19.585-7.489-20.349
				c-0.477-0.765-4.817-13.485-4.888-13.678C80.98,100.759,79.047,94.716,79.047,94.716z"/>
			<path class="st13" d="M113.592,92.059c0,0,1.652-0.114,1.976-0.124c0.324-0.01,4.049,0.852,4.049,0.852s4.521,1.422,4.462,1.619
				c-0.059,0.196,3.041,1.856,3.3,1.848c0.259-0.008,1.65,0.924,1.656,1.119c0.006,0.195,5.283,3.022,5.353,3.215
				s4.728,4.012,4.728,4.012s1.498,2.356,1.634,2.547c0.136,0.191,3.107,4.061,3.107,4.061s0.583,2.124,0.779,2.183
				c0.196,0.059,0.691,1.407,0.951,1.399s0.971-0.094,0.971-0.094l0.158,3.111c0,0,1.333,7.683,2.759,9.782
				c1.426,2.099,2.271,2.139,2.271,2.139s-4.227,1.879-4.42,1.95c-0.193,0.071-1.482,0.369-1.482,0.369s0.436,1.545,0.573,1.8
				c0.137,0.255,0.229,1.161,0.229,1.161s1.12,0.551,1.385,0.737c0.265,0.187,12.28,9.108,15.333,15.701s3.161,5.876,3.232,6.069
				c0.071,0.193,0.871,3.089,0.944,3.347c0.073,0.257,0.177,3.759,0.177,3.759s-1.435,1.925-1.559,2.124
				c-0.124,0.198-1.91,1.225-1.91,1.225s-0.442,0.403-1.488,0.174s-4.324-1.363-4.324-1.363l-7.786-2.103
				c0,0,8.812,1.683,10.788-1.686c1.976-3.369-14.275-21.574-18.03-23.409s-15.909,8.394-21.114,7.966s-12.657-2.217-12.448-3.911
				c0.209-1.694,5.5-0.554,9.905-0.816s10.364-2.842,11.357-4.364c0.993-1.522,2.231-3.507,7.25-4.955
				c5.019-1.448-5.822-5.861-4.718-10.178c1.104-4.317-1.013-3.474-1.013-3.474l-22.161,7.673l-2.971,0.478l-3.323-4.768
				c0,0,8.867,1.357,16.361-1.983s10.967-6.559,10.875-9.607c-0.091-3.048-6.777-11.739-8.788-13.885
				C120.61,95.613,113.592,92.059,113.592,92.059z"/>
			<path class="st13" d="M154.256,168.009c0.204,0.318,4.4,3.892,4.439,5.189c0.039,1.297-1.443,1.666-1.443,1.666
				s3.574,0.153,3.961,0.076s2.58-0.532,2.58-0.532s0.704-0.346,0.505-0.469c-0.198-0.124-0.538-0.633-0.538-0.633
				s-0.408-0.637-0.603-0.631C162.963,172.681,154.256,168.009,154.256,168.009z"/>
			<polygon class="st13" points="157.898,181.269 159.955,182.765 160.571,183.85 161.554,184.145 163.542,183.372 163.79,182.975 
							"/>
			<path class="st13" d="M158.191,184.571c0.143,0.45,1.936,3.966-0.028,7.724c-1.964,3.758-4.016,4.598-4.295,3.958
				s-2.505-5.636-2.299-5.253c0.206,0.383,1.475,8.068,1.667,7.998c0.193-0.071,0.976,6.591,0.937,7.436
				c-0.04,0.845-0.192,8.767,0.072,8.889c0.263,0.122,20.883-0.496,20.883-0.496l-9.931-26.052l2.479-3.903
				c0,0-3.651,1.602-4.037,1.743c-0.385,0.141-0.7,0.475-1.224,0.296c-0.525-0.179-0.847-0.104-1.246-0.417
				C160.771,186.181,158.191,184.571,158.191,184.571z"/>
			<path class="st13" d="M114.647,163.03c0.755,0.084-7.342,1.907-10.341,3.62C104.306,166.649,108.656,162.365,114.647,163.03z"/>
			<path class="st13" d="M109.589,167.529c-0.332,0.518,3.583-1.73,5.774-2.25S111.201,165.015,109.589,167.529z"/>
			<path class="st13" d="M109.339,130.998c0.014,0.454-0.325,2.151-1.783,3.298c-1.458,1.147-6.422,2.269-6.848,5.397
				c-0.426,3.128-1.242,10.551,0.701,16.918c1.943,6.367,4.24,7.207,6.187,7.213c1.947,0.007,4.009-0.509,3.116,0.036
				c-0.892,0.546-5.263,1.975-5.52,2.047s-1.095,0.292-1.344,0.624c-0.25,0.332,0.047,1.556-0.588,2.03
				c-0.635,0.473-1.183,1.658-1.183,1.658l0.685-3.136l-4.939-8.873c0,0-0.703-1.796-0.589-2.319s0.321-2.281,0.235-2.992
				c-0.086-0.711-1.031-6.265-1.114-6.846c-0.082-0.582-2.35-6.939-2.445-7.975c-0.096-1.036-0.744-3.158-0.744-3.158
				s-0.361-7.712,0.624-7.353c0.984,0.36,5.939,3.262,6.025,3.973s1.585,3.068,1.781,3.127c0.196,0.059,1.93-0.577,2.639-0.728
				c0.709-0.151,4.494-1.627,4.494-1.627L109.339,130.998z"/>
			<path class="st12" d="M73.081,151.229c0.257-0.073,2.666-4.169,2.666-4.169s0.463,2.452,0.659,2.511
				c0.196,0.059,1.81,4.099,1.95,4.42c0.139,0.32,1.979,3.251,2.115,3.441s3.046,4.192,3.182,4.383s1.402,1.321,0.943,1.14
				c-0.46-0.181-4.532-3.953-6.593-7.785c-2.062-3.832-3.205-0.813-3.205-0.813L73.081,151.229z"/>
			<path class="st12" d="M90.771,167.639c0.248-0.397,2.543-1.764,3.463-3.543c0.92-1.78,2.486-5.851,2.486-5.851
				s0.647-2.226,0.634-2.68s0.007-4.089-0.065-4.346s-0.786-4.584-0.792-4.779s-2.112-7.66-2.121-7.984
				c-0.01-0.324-0.948-3.476-0.948-3.476s-7.854-21.701-7.993-22.022c-0.139-0.32-2.996-6.855-3.078-7.436
				c-0.082-0.582-2.047-7.662-2.232-7.332c-0.185,0.33,12.495,33.634,13.009,46.469c0.514,12.835-3.915,18.809-3.988,20.693
				S90.771,167.639,90.771,167.639z"/>
		</g>
		<g>
			<g>
				<path class="st14" d="M77.494,44.362c-0.132,0.049-0.263,0.092-0.394,0.138c-0.021,0.141-0.035,0.284-0.03,0.431
					c0.04,1.343,1.162,2.399,2.504,2.359c1.343-0.04,2.399-1.162,2.359-2.504c-0.007-0.239-0.059-0.464-0.13-0.68
					C80.313,43.828,78.752,43.9,77.494,44.362z"/>
			</g>
			<g>
				<path class="st14" d="M98.168,40.795c-0.017-0.558-0.227-1.06-0.555-1.461c-0.974,0.297-1.797,0.741-2.447,1.395
					c-0.529,0.531-0.915,1.167-1.2,1.792c0.461,0.493,1.116,0.8,1.844,0.779c0.227-0.007,0.442-0.055,0.649-0.119
					c0.092-0.039,0.183-0.076,0.278-0.116c0.048-0.02,0.098-0.041,0.147-0.061C97.668,42.579,98.196,41.747,98.168,40.795z"/>
			</g>
			<path class="st15" d="M89.607,42.625c0.479,1.078,1.109,2.091,1.901,2.94c0.789,0.842,1.809,1.5,2.951,1.596
				c0.579,0.077,1.196,0.105,1.777,0.361c0.299-0.057,0.604,0.076,0.683,0.691c0.101,0.331,0.036,0.664-0.063,0.948
				c-0.412,1.149-1.098,2.113-1.703,3.13c0.496-1.067,1.115-2.106,1.459-3.201c0.185-0.554,0.062-1.115-0.5-1.294
				c-0.511-0.217-1.1-0.24-1.687-0.307c-1.237-0.132-2.331-0.845-3.106-1.754C90.533,44.825,89.974,43.749,89.607,42.625z"/>
			<path class="st15" d="M87.315,63.941c-0.012,0-0.024-0.001-0.036-0.003c-0.062-0.013-0.111-0.06-0.125-0.121
				c-0.005-0.021,0.011-0.07,0.046-0.141l-0.01-0.009l0.01,0.008c0-0.001,0-0.001,0-0.001l-0.009-0.008
				c0.012-0.016,0.025-0.032,0.038-0.048c0.52-0.957,3.522-4.892,4.531-5.756c1.007-0.865,1.888-0.666,2.742-0.474
				c0.466,0.105,0.951,0.213,1.479,0.165c1.059-0.098,1.708-0.437,2.095-0.639c0.195-0.102,0.312-0.163,0.423-0.166
				c0.408-0.012,1.148,1.299,1.231,1.598c0.02,0.073,0.007,0.149-0.039,0.214c-0.09,0.128-0.301,0.428-3.932,0.694
				c-0.962,0.07-5.97,1.728-8.311,4.621C87.416,63.913,87.365,63.939,87.315,63.941z M93.31,57.553
				c-0.428,0.013-0.86,0.153-1.335,0.56c-0.886,0.76-2.438,2.816-3.471,4.25c2.512-2.072,6.19-3.363,7.23-3.439
				c2.948-0.216,3.544-0.454,3.663-0.535c-0.138-0.393-0.725-1.251-0.907-1.312c-0.02,0.005-0.149,0.072-0.261,0.131
				c-0.382,0.199-1.093,0.571-2.217,0.676c-0.591,0.051-1.091-0.061-1.584-0.172C94.041,57.624,93.676,57.542,93.31,57.553z"/>
			<path class="st15" d="M92.257,68.503c-1.069,0.032-2.085-0.088-2.888-0.46c-1.418-0.657-2.274-1.431-2.543-2.3
				c-0.198-0.639-0.08-1.332,0.351-2.058c0.048-0.077,0.15-0.106,0.227-0.057c0.079,0.047,0.105,0.148,0.059,0.227
				c-0.388,0.651-0.492,1.237-0.32,1.791c0.24,0.776,1.037,1.481,2.366,2.097c2.98,1.381,9.429-0.917,9.71-1.478
				c0.052-0.122-0.029-0.192-0.51-0.439c-0.536-0.275-1.346-0.692-1.932-1.673c-1.266-2.117,0.058-4.363,0.115-4.457
				c0.047-0.08,0.149-0.103,0.227-0.056c0.078,0.047,0.104,0.148,0.056,0.227c-0.012,0.021-1.277,2.173-0.115,4.117
				c0.539,0.9,1.268,1.275,1.801,1.549c0.434,0.223,0.846,0.435,0.662,0.864c-0.124,0.291-0.921,0.649-1.569,0.898
				C96.675,67.785,94.364,68.44,92.257,68.503z"/>
			<path class="st15" d="M90.748,61.204c-0.085,0.003-0.159-0.059-0.169-0.145c-0.011-0.091,0.053-0.173,0.144-0.184
				c2.372-0.291,7.44-1.564,8.276-1.776l0.026-0.464c0.005-0.091,0.082-0.171,0.174-0.156c0.092,0.005,0.161,0.083,0.156,0.174
				l-0.032,0.585c-0.004,0.072-0.054,0.133-0.124,0.151c-0.059,0.015-5.837,1.494-8.436,1.813
				C90.757,61.204,90.753,61.204,90.748,61.204z"/>
			<path class="st15" d="M95.016,70.67c-0.734,0.022-1.459-0.009-2.113-0.089c-3.805-0.469-6.104-2.573-6.152-5.628
				c-0.001-0.091,0.07-0.165,0.161-0.168c0.001,0,0.001,0,0.002,0c0.092-0.002,0.167,0.072,0.169,0.162
				c0.044,2.875,2.235,4.858,5.86,5.304c2.615,0.324,5.575-0.165,6.743-1.111c0.31-0.251,0.481-0.524,0.506-0.811
				c0.135-1.532-0.737-2.134-0.775-2.159c-0.075-0.051-0.096-0.153-0.046-0.229c0.05-0.077,0.152-0.097,0.228-0.047
				c0.044,0.029,1.074,0.726,0.923,2.464c-0.034,0.38-0.245,0.73-0.628,1.04C98.902,70.201,96.925,70.613,95.016,70.67z"/>
			<path class="st15" d="M87.9,66.888c-0.067,0.002-0.131-0.037-0.158-0.102c-0.035-0.085,0.006-0.181,0.09-0.216
				c0.115-0.047,0.341-0.228,0.581-0.42c0.501-0.402,1.125-0.901,1.692-1.019c0.543-0.11,1.801,0.259,3.155,0.681
				c0.415,0.13,0.845,0.263,0.931,0.266c0.081-0.023,0.164,0.028,0.19,0.117c0.025,0.088-0.04,0.182-0.129,0.206
				c-0.106,0.029-0.277-0.019-1.091-0.273c-0.932-0.291-2.495-0.779-2.989-0.673c-0.49,0.101-1.105,0.593-1.553,0.953
				c-0.281,0.226-0.503,0.403-0.663,0.469C87.938,66.883,87.919,66.887,87.9,66.888z"/>
			<path class="st15" d="M97.651,67.423c-0.053,0.002-0.105-0.022-0.138-0.068c-1.047-1.425-2.103-2.224-3.141-2.374
				c-1.051-0.155-1.812,0.422-2.096,0.639c-0.11,0.084-0.155,0.118-0.225,0.12c-0.092,0.003-0.168-0.069-0.171-0.16
				c-0.002-0.074,0.045-0.139,0.113-0.162c0.019-0.012,0.046-0.034,0.082-0.061c0.315-0.239,1.151-0.877,2.344-0.703
				c1.129,0.163,2.259,1.006,3.359,2.506c0.055,0.073,0.039,0.177-0.035,0.231C97.716,67.412,97.683,67.422,97.651,67.423z"/>
			<path class="st15" d="M86.8,48.269c-0.173,0.005-0.42-0.014-0.778-0.043c-0.751-0.06-2.006-0.161-3.994-0.146
				c-4.674,0.035-8.446-0.09-10.919-1.999c-0.052-0.039-0.075-0.106-0.06-0.169c0.015-0.063,0.066-0.112,0.13-0.124
				c0.03-0.006,3.074-0.589,6.199-1.737c2.01-0.738,4.758-0.539,6.835,0.493c1.531,0.762,2.563,1.892,2.982,3.269
				c0.016,0.051,0.063,0.207-0.034,0.328C87.092,48.228,86.99,48.263,86.8,48.269z M71.611,46.038
				c2.395,1.635,5.993,1.744,10.413,1.712c2.004-0.015,3.268,0.086,4.023,0.147c0.385,0.032,0.724,0.059,0.838,0.035
				c-0.002-0.006-0.004-0.013-0.006-0.021c-0.497-1.627-1.804-2.567-2.814-3.069c-2-0.994-4.644-1.187-6.573-0.48
				C74.98,45.284,72.522,45.845,71.611,46.038z"/>
			<path class="st15" d="M93.325,45.519c-0.045,0.001-0.092-0.006-0.14-0.024c-0.085-0.031-0.143-0.111-0.171-0.237
				c-0.151-0.673,0.336-3.175,1.915-4.762c1.848-1.856,4.922-2.13,8.974-1.968c0.071,0.003,0.132,0.051,0.152,0.119
				c0.019,0.068-0.007,0.142-0.066,0.182c-0.012,0.008-1.198,0.822-2.541,2.151c-0.833,0.823-2.913,1.692-4.586,2.389
				c-1.09,0.455-2.118,0.884-2.366,1.129c-0.193,0.189-0.348,0.357-0.478,0.496C93.732,45.304,93.539,45.512,93.325,45.519z
				 M101.213,38.831c-2.651,0.079-4.708,0.551-6.048,1.898c-1.553,1.559-1.945,4.023-1.832,4.453
				c0.089-0.03,0.263-0.216,0.444-0.413c0.133-0.143,0.291-0.314,0.488-0.507c0.293-0.29,1.254-0.691,2.47-1.199
				c1.646-0.687,3.695-1.542,4.481-2.319c0.899-0.888,1.729-1.552,2.196-1.904C102.64,38.816,101.906,38.81,101.213,38.831z"/>
			<path d="M77.305,39.637c-0.167,0.057-0.334,0.114-0.495,0.177c-1.598,0.686-3.073,1.558-4.475,2.538
				c0.015,0.134,0,0.273-0.101,0.405c-0.015,0.02-0.03,0.04-0.046,0.059c-0.01,0.012-0.023,0.013-0.033,0.024
				c1.674-0.767,3.289-1.623,4.948-2.313c0.203-0.091,0.405-0.15,0.607-0.218C77.564,40.092,77.433,39.866,77.305,39.637z"/>
			<path d="M81.548,39.67c-0.082,0.068-0.182,0.119-0.317,0.123l-0.125,0.004c-0.087,0.056-0.18,0.104-0.259,0.171
				c-0.04,0.034-0.083,0.048-0.125,0.069c-0.006,0.012-0.016,0.02-0.021,0.032c0.007,0.001,0.013,0,0.02,0.001
				c1.096,0.096,2.209,0.323,3.311,0.63C83.263,40.245,82.425,39.905,81.548,39.67z"/>
			<path class="st15" d="M73.876,65.117c-0.091,0.003-0.168-0.069-0.171-0.16c-0.016-0.526-0.182-1.951-0.754-2.215
				c-1.536-0.711-4.359-1.811-5.205-1.42c-0.106,0.05-0.169,0.119-0.196,0.217c-0.023,0.088-0.115,0.14-0.203,0.116
				c-0.088-0.024-0.14-0.115-0.116-0.203c0.052-0.192,0.183-0.34,0.376-0.43c1.119-0.522,4.48,0.955,5.484,1.42
				c0.858,0.397,0.939,2.291,0.946,2.505C74.04,65.039,73.968,65.115,73.876,65.117z"/>
			<path class="st15" d="M76.073,68.556c-0.09,0.003-0.166-0.067-0.171-0.158c-0.037-0.802-0.321-2.915-1.177-3.067
				c-1.904-0.338-4.236-0.491-4.533,0.191c-0.036,0.083-0.136,0.122-0.218,0.085c-0.083-0.037-0.121-0.134-0.085-0.218
				c0.443-1.009,3.257-0.673,4.893-0.384c1.27,0.225,1.436,3.056,1.451,3.377c0.004,0.091-0.067,0.168-0.159,0.173
				C76.075,68.556,76.074,68.556,76.073,68.556z"/>
			<path class="st15" d="M63.96,72.063l-0.053-2.286l0.003-0.015l1.727-4.141l0.837-2.08c0.268-0.693,0.552-1.397,0.759-2.09
				l0.003-0.012c0.026-0.088,0.118-0.137,0.206-0.111c0.088,0.026,0.137,0.118,0.111,0.206c0,0.001-0.001,0.003-0.001,0.005
				c-0.243,0.733-0.542,1.41-0.833,2.103L65.819,65.7l-1.848,4.09l0.003-0.014L63.96,72.063z"/>
			<path class="st15" d="M70.193,65.522l-1.515,3.214l-0.754,1.608c-0.244,0.532-0.511,1.083-0.72,1.606l0-0.003
				c0.051,0.625,0.053,1.258-0.076,1.871c0.106-0.616,0.08-1.247,0.007-1.863l0-0.003c0.199-0.588,0.44-1.109,0.666-1.662
				l0.694-1.635l1.394-3.265c0.034-0.085,0.131-0.126,0.215-0.091s0.126,0.131,0.091,0.215
				C70.196,65.515,70.194,65.521,70.193,65.522z"/>
			<path class="st15" d="M72.728,68.113c-0.255,0.467-0.482,1.118-0.703,1.682l-0.65,1.763l-1.255,3.545l0.002-0.014l0.123,2.042
				l-0.194-2.037l0.002-0.014l1.132-3.588l0.59-1.788c0.222-0.606,0.364-1.163,0.698-1.803c0.042-0.08,0.14-0.11,0.219-0.069
				s0.11,0.14,0.069,0.219c0,0.001-0.001,0.001-0.001,0.002L72.728,68.113z"/>
			<path class="st15" d="M64.117,69.206c-0.084,0.003-0.157-0.058-0.169-0.143c-0.036-0.261-0.874-6.418-0.902-7.34
				c-0.03-1.002,1.585-3.569,2.15-3.952c0.498-0.341,1.944,0.138,2.67,0.446c-0.449-0.813-1.643-2.643-2.096-2.853
				c-0.554-0.257-1.633-0.302-1.945-0.309c-0.42,0.616-3.323,4.878-3.573,5.37c-0.157,0.308,0.075,2.194,0.244,3.571
				c0.108,0.874,0.209,1.7,0.244,2.268c0.005,0.091-0.065,0.169-0.155,0.175c-0.002,0-0.004,0-0.005,0
				c-0.089,0.003-0.165-0.066-0.171-0.155c-0.033-0.558-0.134-1.378-0.241-2.247c-0.249-2.032-0.398-3.391-0.211-3.762
				c0.278-0.547,3.507-5.28,3.645-5.481c0.03-0.043,0.079-0.07,0.131-0.072c0.002,0,0.004,0,0.005,0c0.059,0,1.456,0.01,2.172,0.341
				c0.686,0.318,2.45,3.17,2.456,3.482c0.002,0.064-0.037,0.132-0.093,0.161c-0.055,0.027-0.143,0.016-0.194-0.022
				c-0.24-0.181-2.271-0.93-2.698-0.639c-0.472,0.32-2.03,2.809-2.004,3.668c0.027,0.905,0.889,7.242,0.899,7.306
				c0.012,0.09-0.051,0.174-0.142,0.186C64.129,69.206,64.123,69.206,64.117,69.206z"/>
			<path class="st15" d="M84.796,163.164c-0.046,0.001-0.092-0.016-0.125-0.052c-0.079-0.084-7.894-8.513-9.207-16.8
				c-0.721-4.549-0.617-9.583-0.496-15.412c0.102-4.88,0.216-10.41-0.129-16.761c-0.699-12.881-4.335-20.137-6.288-24.036
				c-0.155-0.31-0.299-0.598-0.43-0.864c-0.629-1.283-1.613-2.847-2.656-4.502c-1.908-3.03-3.882-6.162-4.266-8.431
				c-0.221-1.305-0.846-3.071-1.507-4.94c-1.101-3.112-2.348-6.639-2.181-9.25c0.261-4.087,0.02-7.489,0.018-7.523
				c-0.002-0.018,0-0.037,0.005-0.055c1.049-3.951,2.73-7.472,3.325-7.49c0.001,0,0.002,0,0.003,0
				c0.084-0.001,0.189,0.048,0.228,0.187c0.105,0.369-0.086,1.925-0.367,4.083c-0.124,0.957-0.243,1.862-0.266,2.27
				c-0.062,1.095,0.411,5.707,0.416,5.754c0.009,0.091-0.056,0.172-0.148,0.181c-0.087,0.016-0.172-0.056-0.181-0.148
				c-0.02-0.191-0.481-4.684-0.417-5.806c0.024-0.419,0.137-1.288,0.269-2.293c0.179-1.386,0.42-3.235,0.393-3.815
				c-0.465,0.515-1.874,3.182-2.928,7.136c0.023,0.336,0.231,3.628-0.019,7.54c-0.163,2.543,1.072,6.036,2.162,9.118
				c0.666,1.883,1.295,3.661,1.521,4.995c0.373,2.203,2.417,5.447,4.22,8.309c1.048,1.663,2.036,3.233,2.673,4.533
				c0.13,0.266,0.274,0.553,0.429,0.862c1.963,3.92,5.619,11.217,6.323,24.167c0.346,6.363,0.23,11.9,0.129,16.786
				c-0.121,5.813-0.225,10.833,0.491,15.353c1.298,8.186,9.044,16.543,9.122,16.626c0.062,0.067,0.059,0.171-0.007,0.233
				C84.873,163.148,84.835,163.163,84.796,163.164z"/>
			<path d="M52.618,61.372c-0.11-0.158-0.12-0.369-0.026-0.536l5.975-10.67c0.083-0.148,0.228-0.243,0.395-0.259
				c0.1-0.011,0.194,0.019,0.28,0.066c0.033-0.106,0.062-0.213,0.105-0.318c-0.133-0.061-0.275-0.094-0.417-0.077
				c-0.274,0.026-0.518,0.186-0.653,0.427l-5.975,10.67c-0.155,0.277-0.139,0.626,0.044,0.887l7.796,11.194
				c0.054,0.075,0.156,0.093,0.231,0.041s0.093-0.155,0.042-0.23L52.618,61.372z"/>
			<path d="M63.722,54.94c0.058-0.011,0.125-0.019,0.19-0.028c-1.393-1.645-2.547-3.008-3.304-3.904
				c-0.029,0.134-0.056,0.268-0.095,0.4c0.736,0.87,1.793,2.119,3.046,3.599C63.608,54.979,63.656,54.952,63.722,54.94z"/>
			<path d="M69.086,61.172c0.064,0.022,0.128,0.047,0.192,0.07c-0.976-1.151-1.933-2.279-2.838-3.347
				c-0.177-0.022-0.349-0.045-0.502-0.08c0.905,1.068,1.866,2.201,2.848,3.359C68.878,61.141,68.98,61.135,69.086,61.172z"/>
			<path class="st16" d="M76.954,88.224"/>
			<path d="M70.154,61.562c0.184,0.032,0.361,0.08,0.531,0.144c0.01,0.002,0.02,0.004,0.031,0.005
				c-0.995-1.164-1.975-2.312-2.91-3.408c-0.109,0.02-0.225,0.009-0.335-0.066c-0.058-0.04-0.116-0.074-0.174-0.112
				c-0.036-0.023-0.082-0.033-0.121-0.051c0.952,1.115,1.956,2.291,2.978,3.487C70.153,61.562,70.154,61.562,70.154,61.562z"/>
			<path d="M64.911,54.91c-1.789-2.1-3.222-3.785-4.008-4.713c-0.052-0.063-0.135-0.067-0.203-0.029
				c0.001,0.096-0.007,0.19-0.014,0.284c0.759,0.897,2.099,2.473,3.763,4.426C64.603,54.878,64.758,54.887,64.911,54.91z"/>
			<path class="st17" d="M72.684,152.088c-0.008,0-0.015,0-0.024-0.001c-0.063-0.007-0.117-0.05-0.137-0.11
				c-0.074-0.211-7.428-21.173-10.081-27.875c-1.823-4.602-1.86-13.443,1.256-19.701c1.876-3.766,4.596-6.166,8.084-7.129
				c0.083-0.026,0.179,0.027,0.203,0.115c0.024,0.088-0.027,0.179-0.116,0.203c-3.393,0.938-6.042,3.279-7.875,6.958
				c-3.075,6.177-3.041,14.895-1.245,19.432c2.475,6.248,9.026,24.871,9.972,27.563l2.837-4.521c0.05-0.078,0.151-0.099,0.229-0.052
				c0.077,0.048,0.1,0.151,0.052,0.228l-3.02,4.812C72.79,152.058,72.739,152.086,72.684,152.088z"/>
			<path d="M107.43,128.407c-0.01,0-0.017-0.001-0.022-0.002c-0.088-0.026-0.137-0.118-0.112-0.206
				c0.021-0.07,0.083-0.116,0.152-0.118c0.837-0.145,21.745-6.452,27.827-9.579l2.793-1.255c0.08-0.037,0.181-0.001,0.219,0.083
				c0.037,0.083,0,0.181-0.083,0.219l-2.785,1.251C129.729,121.726,108.309,128.381,107.43,128.407z"/>
			<path d="M166.564,158.038c-0.067,0.002-0.13-0.036-0.157-0.101c-6.303-15.109-19.658-22.712-19.791-22.787
				c-0.08-0.045-0.108-0.145-0.064-0.225c0.045-0.08,0.145-0.108,0.225-0.064c0.135,0.076,13.589,7.735,19.934,22.948
				c0.036,0.085-0.004,0.181-0.088,0.217C166.604,158.034,166.583,158.038,166.564,158.038z"/>
			<path d="M141.436,120.206c-1.148,0.034-1.885-0.363-1.899-0.371c-0.026-0.014-0.047-0.036-0.063-0.062
				c-0.061-0.108-6.212-10.838-10.638-17.34c-4.402-6.469-13.345-10.401-13.434-10.44c-0.078-0.034-0.118-0.12-0.092-0.201
				c0.025-0.08,0.099-0.133,0.191-0.112c0.396,0.08,9.734,1.997,12.849,5.214c1.646,1.701,6.366,7.336,9.908,11.645
				c7.668,9.329,7.539,9.458,7.413,9.583c0,0.001,0,0.001,0,0.001C144.06,119.73,142.553,120.172,141.436,120.206z M139.737,119.566
				c0.346,0.172,2.742,1.211,5.62-1.6c-0.881-1.439-14.198-17.694-17.246-20.843c-2.328-2.405-8.46-4.116-11.253-4.795
				c2.689,1.371,8.825,4.883,12.254,9.92C133.401,108.553,139.311,118.823,139.737,119.566z M145.554,118.004l0.004,0
				L145.554,118.004z M145.554,118.004l0.004,0L145.554,118.004z M145.437,117.887C145.437,117.886,145.437,117.886,145.437,117.887
				L145.437,117.887z"/>
			<path d="M146.497,136.491c-0.009,0-0.016,0-0.025-0.001c-0.091-0.011-0.156-0.094-0.145-0.184
				c0.338-2.759-0.808-4.581-1.241-5.267c-0.162-0.259-0.217-0.346-0.193-0.451c2.113-8.983,1.691-14.704,1.583-15.771
				c-1.021,0.24-2.717,0.639-2.858,0.679c-0.089,0.022-0.181-0.027-0.204-0.115c-0.025-0.088,0.027-0.179,0.115-0.204
				c0.194-0.055,2.936-0.698,3.052-0.726c0.049-0.012,0.093-0.002,0.132,0.025c0.038,0.026,0.063,0.068,0.07,0.114
				c0.008,0.06,0.784,6.045-1.559,16.036c0.023,0.047,0.083,0.143,0.142,0.237c0.449,0.713,1.64,2.608,1.289,5.483
				C146.646,136.428,146.578,136.489,146.497,136.491z"/>
			<path d="M93.259,135.311c-0.074,0.002-0.143-0.045-0.164-0.12c-0.025-0.088,0.026-0.18,0.113-0.205
				c1.649-0.474,3.776-2.764,4.797-3.864c0.517-0.557,0.648-0.691,0.749-0.728c0.084-0.031,0.179,0.012,0.212,0.099
				c0.03,0.083-0.01,0.174-0.09,0.208c-0.073,0.047-0.343,0.338-0.629,0.646c-1.121,1.209-3.21,3.458-4.948,3.958
				C93.286,135.309,93.272,135.311,93.259,135.311z"/>
			<path class="st15" d="M84.514,93.615c-0.004,0-0.008,0-0.012,0c-0.092-0.004-0.162-0.081-0.158-0.172
				c0.003-0.071,0.278-7.154-1.415-13.244c-0.024-0.088,0.027-0.179,0.115-0.203c0.09-0.025,0.18,0.026,0.204,0.115
				c1.709,6.142,1.43,13.275,1.427,13.346C84.671,93.544,84.6,93.612,84.514,93.615z"/>
			<path class="st15" d="M111.244,93.836c-0.057,0.002-0.113-0.026-0.146-0.078c-0.065-0.104-6.519-10.523-6.672-20.476
				c-0.001-0.092,0.081-0.174,0.163-0.168c0.092-0.002,0.167,0.072,0.169,0.162c0.151,9.862,6.556,20.202,6.621,20.306
				c0.048,0.077,0.025,0.179-0.052,0.228C111.301,93.828,111.272,93.835,111.244,93.836z"/>
			<path d="M113.487,92.358c-0.01,0-0.02,0-0.03-0.002l-3.374-0.532c-0.091-0.015-0.153-0.099-0.138-0.189
				c0.015-0.089,0.102-0.153,0.189-0.138l3.374,0.532c0.091,0.015,0.153,0.099,0.138,0.189
				C113.633,92.298,113.566,92.355,113.487,92.358z"/>
			<path class="st15" d="M95.687,79.319c-4.645,0.139-10.852-1.072-11.186-1.138c-0.09-0.017-0.149-0.104-0.131-0.194
				c0.018-0.089,0.104-0.151,0.194-0.13c0.105,0.021,10.481,2.047,14.438,0.642c4.065-1.443,8.735-9.502,9.798-16.91
				c0.647-4.509-0.497-9.114-1.416-12.815c-0.625-2.515-1.164-4.687-1.006-6.235c0.561-5.507-0.992-14.688-6.206-17.858
				c-0.078-0.048-0.103-0.149-0.055-0.227c0.048-0.078,0.15-0.102,0.228-0.056c5.336,3.246,6.933,12.582,6.362,18.175
				c-0.151,1.491,0.382,3.637,0.998,6.122c0.926,3.729,2.079,8.369,1.422,12.942c-1.078,7.511-5.851,15.697-10.015,17.174
				C98.215,79.129,97.015,79.279,95.687,79.319z"/>
			<path class="st18" d="M70.578,97.975c-0.056,0.002-0.112-0.025-0.144-0.075c-1.683-2.613-4.287-5.104-6.805-7.514
				c-0.81-0.775-1.647-1.575-2.426-2.356c-6.651-6.662-13.985-18.041-14.621-29.996C45.857,44.4,47.124,36.76,51.424,28.839
				c4.488-8.264,9.695-16.107,23.94-21.235c14.104-5.079,18.259-0.407,18.428-0.206c0.048,0.057,0.053,0.138,0.011,0.2
				c-0.042,0.062-0.121,0.088-0.19,0.064c-0.716-0.238-1.605-0.257-2.307-0.217c3.144,0.579,11.576,2.716,16.506,9.522
				c6.119,8.447,3.873,17.218,3.85,17.305c-0.017,0.065-0.072,0.113-0.14,0.122c-0.071,0.008-0.132-0.025-0.165-0.084
				c-3.405-6.151-6.146-6.734-6.173-6.739c-0.09-0.017-0.15-0.103-0.133-0.193c0.017-0.089,0.094-0.146,0.192-0.133
				c0.115,0.021,2.794,0.565,6.19,6.524c0.355-1.827,1.379-9.336-3.889-16.608c-6.028-8.321-17.387-9.567-17.5-9.578
				c-0.082-0.008-0.146-0.075-0.149-0.158c-0.004-0.082,0.055-0.154,0.135-0.169c0.075-0.015,1.617-0.301,2.995-0.075
				c-1.472-1.037-6.341-3.302-17.549,0.734C61.341,13.004,56.17,20.791,51.715,28.998c-4.267,7.86-5.524,15.454-4.803,29.019
				c0.63,11.862,7.916,23.161,14.524,29.78c0.776,0.777,1.612,1.577,2.42,2.35c2.531,2.423,5.15,4.928,6.855,7.573
				c0.049,0.077,0.027,0.179-0.05,0.229C70.635,97.965,70.607,97.974,70.578,97.975z"/>
			<g>
				<path d="M94.248,36.03c-0.153,0.096-0.306,0.192-0.449,0.3c-0.75,0.545-1.408,1.189-1.987,1.898
					c0.775-0.484,1.543-0.957,2.31-1.392c0.189-0.101,0.377-0.201,0.566-0.293C94.551,36.383,94.395,36.202,94.248,36.03z"/>
				<path d="M96.511,35.389c-0.354-0.035-0.784,0.016-1.174,0.133c-0.027,0.289-0.051,0.567-0.068,0.774
					c0.006-0.002,0.012-0.005,0.018-0.007c0.392-0.151,0.719-0.176,1.168-0.13c1.734,0.147,3.511,0.564,5.34,0.649
					C100.101,36.13,98.38,35.573,96.511,35.389z"/>
			</g>
			<path class="st18" d="M143.014,85.178c-0.005,0-0.011,0-0.017-0.001c-0.086-0.006-0.153-0.078-0.154-0.165
				c0.001-0.019-0.014-1.94-1.477-4.48c-0.045-0.079-0.018-0.18,0.06-0.226c0.078-0.043,0.18-0.019,0.226,0.061
				c0.765,1.328,1.145,2.48,1.335,3.306c0.371-5.52-2.198-10.24-7.821-14.391c-1.428-1.055-3.213-2.194-5.102-3.4
				c-7.821-4.992-18.531-11.828-16.857-21.417c2.011-11.53-1.624-17.102-1.661-17.157c-0.051-0.076-0.031-0.178,0.045-0.23
				c0.077-0.051,0.179-0.032,0.23,0.045c0.037,0.056,3.749,5.725,1.712,17.399c-1.635,9.372,8.537,15.864,16.71,21.081
				c1.894,1.209,3.684,2.352,5.121,3.412c6.172,4.558,8.727,9.798,7.81,16.021C143.16,85.117,143.093,85.175,143.014,85.178z"/>
			<path class="st18" d="M125.927,95.425c-0.069,0.002-0.135-0.039-0.159-0.107c-0.033-0.086,0.011-0.181,0.097-0.213
				c0.063-0.024,6.456-2.463,12.522-8.838c5.341-5.613,2.266-10.019,1.197-11.236c-0.033-0.039-0.056-0.065-0.064-0.076
				c-0.053-0.074-0.035-0.178,0.039-0.231c0.074-0.052,0.177-0.035,0.23,0.038c0.007,0.009,0.022,0.026,0.044,0.05
				c1.117,1.27,4.328,5.866-1.206,11.682c-6.121,6.434-12.581,8.896-12.646,8.92C125.962,95.421,125.944,95.424,125.927,95.425z"/>
			<path class="st18" d="M115.764,70.317c1.542-0.078,3.125-0.134,4.661,0.204c1.532,0.325,3.008,0.932,4.324,1.79
				c2.653,1.715,4.587,4.343,5.943,7.152c0.298,0.727,0.586,1.459,0.858,2.195l0.276,1.149c0.098,0.382,0.191,0.764,0.2,1.161
				c0.247,1.563-0.032,3.184-0.627,4.63c-1.255,2.947-4.08,4.883-6.994,5.864c1.463-0.533,2.824-1.331,4.015-2.315
				c1.194-0.978,2.194-2.212,2.777-3.635c0.56-1.417,0.815-2.988,0.555-4.512c-0.012-0.386-0.108-0.759-0.209-1.131l-0.282-1.119
				c-0.277-0.719-0.57-1.434-0.867-2.145c-1.306-2.788-3.177-5.393-5.765-7.11C122.056,70.743,118.858,70.138,115.764,70.317z"/>
			<path class="st18" d="M110.63,74.43c1.71,0.832,3.313,1.889,4.773,3.117c1.45,1.238,2.755,2.661,3.776,4.287
				c1.003,1.637,1.627,3.507,1.788,5.424l0.046,1.445l-0.21,1.43c-0.042,0.483-0.19,0.941-0.348,1.395l-0.446,1.37
				c-0.024,0.073-0.102,0.113-0.175,0.089c-0.047-0.015-0.081-0.054-0.092-0.098l-0.003-0.013c-0.577-2.352-1.46-4.653-2.658-6.768
				c-0.613-1.05-1.315-2.047-2.118-2.962c-0.825-0.894-1.771-1.677-2.844-2.27c1.092,0.555,2.073,1.309,2.936,2.183
				c0.852,0.887,1.559,1.9,2.194,2.95c1.235,2.125,2.15,4.42,2.765,6.805l-0.269-0.022c0.581-1.777,1.112-3.628,0.91-5.512
				c-0.134-1.865-0.719-3.698-1.686-5.32c-0.986-1.61-2.259-3.035-3.683-4.28C113.857,76.443,112.315,75.313,110.63,74.43z"/>
			<path class="st17" d="M145.655,114.888c-0.057,0.002-0.114-0.026-0.146-0.079c-3.294-5.396-16.503-16.805-16.636-16.919
				c-0.069-0.06-0.077-0.164-0.017-0.233c0.058-0.07,0.161-0.079,0.233-0.018c0.133,0.115,13.381,11.558,16.701,16.998
				c0.048,0.078,0.024,0.18-0.055,0.227C145.711,114.88,145.683,114.887,145.655,114.888z"/>
			<path class="st17" d="M144.432,113.043c-0.074,0.002-0.143-0.045-0.164-0.12c-0.468-1.618-1.061-2.39-2.242-3.927
				c-0.617-0.801-1.383-1.799-2.363-3.22c-2.793-4.052-11.423-8.577-11.509-8.622c-0.081-0.042-0.112-0.142-0.07-0.223
				c0.042-0.082,0.143-0.113,0.223-0.07c0.358,0.186,8.788,4.608,11.629,8.727c0.975,1.415,1.739,2.408,2.353,3.207
				c1.169,1.521,1.813,2.358,2.298,4.037c0.025,0.088-0.026,0.179-0.113,0.205C144.459,113.041,144.446,113.043,144.432,113.043z"/>
			<path class="st17" d="M145.924,132.145c-0.027,0.001-0.054,0.001-0.081,0.001c-0.092,0-0.166-0.074-0.167-0.165
				c0.001-0.091,0.093-0.17,0.165-0.166c0.025,0,0.05,0,0.074-0.001c2.089-0.063,6.289-2.487,7.263-3.065
				c-2.132-1.773-4.731-7.09-6-9.685c-0.303-0.62-0.566-1.157-0.638-1.257c-0.05-0.041-0.073-0.11-0.054-0.176
				c0.026-0.088,0.119-0.135,0.206-0.111c0.108,0.032,0.116,0.035,0.783,1.398c1.194,2.443,3.991,8.165,6.091,9.716
				c0.044,0.033,0.069,0.085,0.067,0.14c-0.003,0.055-0.031,0.105-0.079,0.134C153.343,129.039,148.374,132.072,145.924,132.145z"/>
			<path class="st15" d="M156.089,142.548c-0.075,0.002-0.145-0.047-0.164-0.122c-2.233-8.261-4.113-12.465-4.132-12.507
				c-0.037-0.083,0-0.182,0.083-0.219c0.081-0.037,0.18-0.001,0.219,0.083c0.018,0.042,1.909,4.27,4.148,12.557
				c0.024,0.088-0.028,0.179-0.116,0.203C156.115,142.546,156.102,142.548,156.089,142.548z"/>
			<path class="st15" d="M164.062,183.392c-0.012,0-0.024,0-0.035-0.003c-0.038-0.007-0.976-0.187-5.398-1.728
				c-3.901-1.359-6.38-3.003-6.372-3.537c0.001-0.106,0.068-0.192,0.173-0.225c0.46-0.149,3.496,0.193,4.1,0.262
				c0.091,0.01,0.156,0.092,0.146,0.183c-0.01,0.09-0.092,0.157-0.183,0.146c-1.266-0.146-3.306-0.344-3.861-0.292
				c0.325,0.425,2.314,1.83,6.107,3.151c3.909,1.362,5.096,1.658,5.31,1.707c0.284-0.089,1.853-0.569,2.647-0.593
				c0.092-0.003,0.168,0.069,0.171,0.16c0.003,0.091-0.069,0.167-0.161,0.17c-0.81,0.024-2.58,0.585-2.598,0.591
				C164.092,183.389,164.077,183.392,164.062,183.392z"/>
			<path class="st16" d="M157.993,190.937"/>
			<path d="M153.438,199.221c-0.064,0.002-0.125-0.033-0.154-0.094c-0.04-0.082-0.005-0.181,0.077-0.221
				c8.679-4.151,14.051-14.013,14.104-14.112c0.043-0.08,0.144-0.11,0.224-0.068c0.08,0.043,0.11,0.143,0.067,0.224
				c-0.054,0.1-5.475,10.057-14.252,14.254C153.483,199.216,153.461,199.221,153.438,199.221z"/>
			<path d="M153.44,225.312c-0.044,0.001-0.088-0.015-0.12-0.046c-0.038-0.037-0.057-0.09-0.048-0.143
				c1.63-11.114,1.104-22.978-1.484-33.404c-0.093-0.374-0.118-0.474-0.119-0.527c-0.003-0.092,0.069-0.167,0.161-0.17
				c0.092-0.003,0.168,0.069,0.171,0.16c0.003,0.033,0.052,0.23,0.109,0.457c2.581,10.396,3.12,22.213,1.524,33.303
				c8.913-1.669,22.088-4.27,23.162-4.841c-0.389-1.4-7.85-20.974-11.819-31.33c-0.033-0.085,0.01-0.181,0.095-0.213
				c0.083-0.033,0.181,0.009,0.214,0.095c1.212,3.162,11.838,30.906,11.856,31.501c0.007,0.237,0.015,0.505-11.896,2.881
				c-5.821,1.161-11.72,2.265-11.779,2.276C153.458,225.311,153.449,225.312,153.44,225.312z"/>
			<path d="M153.44,225.312c-0.004,0-0.01,0-0.014,0l-60.85-3.435c-0.079-0.004-0.143-0.063-0.154-0.14
				c-0.041-0.262-3.872-26.355,9.787-47.593c-0.147-0.518-0.904-3.56,0.501-6.856c-0.526-0.875-4.987-8.34-5.625-10.951
				c-0.022-0.089,0.032-0.178,0.121-0.2c0.095-0.024,0.179,0.033,0.2,0.121c0.652,2.667,5.582,10.849,5.632,10.931
				c0.027,0.046,0.031,0.103,0.01,0.152c-1.534,3.513-0.511,6.745-0.502,6.777c0.015,0.047,0.009,0.099-0.017,0.141
				c-13.137,20.365-10.079,45.254-9.799,47.295l60.714,3.427c0.092,0.005,0.161,0.083,0.156,0.174
				C153.596,225.243,153.526,225.309,153.44,225.312z"/>
			<path d="M112.612,142.776c1.645,0.014,3.284,0.099,4.92,0.019c1.633-0.073,3.268-0.211,4.866-0.546
				c1.603-0.308,3.167-0.788,4.671-1.421c1.488-0.67,2.883-1.534,4.164-2.568c-1.199,1.125-2.565,2.078-4.058,2.799
				c-1.504,0.691-3.095,1.177-4.713,1.514c-1.624,0.312-3.276,0.456-4.923,0.475c-0.824,0.009-1.648-0.02-2.469-0.066
				C114.247,142.928,113.432,142.818,112.612,142.776z"/>
			<path class="st17" d="M109.065,115.364c1.084,0.181,2.145,0.457,3.224,0.633c1.076,0.188,2.156,0.349,3.244,0.432
				c1.085,0.114,2.175,0.16,3.267,0.16c1.092,0.016,2.184-0.051,3.28-0.122c-1.08,0.192-2.173,0.347-3.275,0.376
				c-1.101,0.054-2.204,0.005-3.302-0.085c-1.096-0.112-2.188-0.27-3.262-0.513C111.16,116.025,110.116,115.662,109.065,115.364z"/>
			<path class="st17" d="M111.039,111.931l2.164,0.814c0.721,0.267,1.437,0.544,2.165,0.785c0.72,0.266,1.453,0.487,2.189,0.694
				c0.737,0.197,1.485,0.381,2.259,0.365c-0.766,0.139-1.561,0.039-2.317-0.117c-0.761-0.158-1.504-0.385-2.239-0.629
				C113.806,113.31,112.378,112.707,111.039,111.931z"/>
			<g>
				<path d="M78.191,44.155c-0.03,0.121-0.067,0.24-0.063,0.371c0.023,0.779,0.674,1.391,1.453,1.368
					c0.779-0.023,1.391-0.674,1.368-1.453c-0.005-0.167-0.051-0.321-0.109-0.469C79.924,43.898,79.015,43.956,78.191,44.155z"/>
			</g>
			<g>
				<path d="M94.423,41.684c0.259,0.403,0.697,0.679,1.211,0.663c0.779-0.023,1.391-0.674,1.368-1.453
					c-0.013-0.45-0.249-0.826-0.585-1.074c-0.467,0.246-0.889,0.543-1.253,0.909C94.874,41.021,94.637,41.348,94.423,41.684z"/>
			</g>
			<path class="st17" d="M109.87,103.227c-0.067,0.002-0.134,0.002-0.2,0.002c-12.983-0.065-18.824-3.827-20.304-4.979
				c-2.35-1.829-4.541-4.208-4.923-4.627l-1.564,0.185c-0.087,0.02-0.172-0.054-0.183-0.145c-0.01-0.091,0.054-0.173,0.145-0.184
				l1.649-0.195c0.054-0.004,0.107,0.015,0.143,0.054c0.023,0.027,2.387,2.667,4.936,4.65c3.008,2.34,9.869,4.858,20.102,4.909
				c1.204,0.01,2.124-0.371,2.783-1.118c1.799-2.04,1.232-6.351,0.96-8.422c-0.105-0.802-0.139-1.087-0.086-1.225
				c0.286-0.752,1.975-0.489,2.167-0.455c0.09,0.015,0.151,0.101,0.136,0.191c-0.016,0.089-0.1,0.151-0.191,0.135
				c-0.504-0.086-1.655-0.142-1.803,0.247c-0.023,0.091,0.042,0.585,0.105,1.064c0.278,2.12,0.858,6.531-1.04,8.684
				C112.015,102.779,111.063,103.191,109.87,103.227z"/>
			<path d="M101.87,135.102c-0.677,0.02-4.089-5.854-13.33-22.352c-4.132-7.378-8.034-14.346-9.022-15.648
				c-0.055-0.073-0.041-0.177,0.032-0.232c0.072-0.057,0.175-0.042,0.232,0.032c1.001,1.32,4.73,7.978,9.046,15.686
				c5.45,9.731,12.234,21.842,13.056,22.188c0.557-0.046,2.945-0.947,6.522-2.476c0.291-0.125,0.511-0.37,0.603-0.674
				c0.091-0.304,0.044-0.632-0.132-0.898c-4.612-6.984-24.741-35.022-26.083-36.891c-0.605,0.181-3.351,1.002-3.619,1.055
				c-0.087,0.024-0.177-0.041-0.194-0.13c-0.019-0.089,0.04-0.177,0.13-0.195c0.231-0.046,2.75-0.796,3.7-1.081
				c0.066-0.021,0.141,0.004,0.182,0.062c0.214,0.297,21.409,29.802,26.16,36.997c0.229,0.349,0.293,0.777,0.173,1.175
				c-0.12,0.397-0.407,0.72-0.79,0.883c-2.12,0.907-5.806,2.437-6.663,2.498C101.874,135.102,101.871,135.102,101.87,135.102z"/>
			<path d="M83.317,77.681c-0.871-0.981-3.008-3.472-5.652-6.572c-0.018,0.008-0.032,0.019-0.055,0.023
				c-0.119,0.024-0.23,0.019-0.342,0.021c2.713,3.182,4.913,5.747,5.801,6.747c0.184,0.207,0.19,0.516,0.013,0.733l-6.363,7.822
				c0.011,0.024,0.027,0.042,0.033,0.07c0.026,0.104,0.054,0.208,0.083,0.312l6.503-7.995C83.619,78.498,83.61,78.01,83.317,77.681z
				"/>
			<path d="M84.42,77.648c-0.884-0.995-3.056-3.511-5.745-6.642c-0.08,0.091-0.183,0.147-0.301,0.157
				c2.713,3.159,4.908,5.702,5.798,6.704c0.184,0.207,0.19,0.516,0.013,0.733l-7.11,8.639c0.042,0.136,0.072,0.272,0.092,0.41
				l7.275-8.84C84.721,78.465,84.712,77.977,84.42,77.648z"/>
			<path class="st15" d="M77.64,93.236c-0.001,0-0.002,0-0.004,0c-0.09,0.001-0.166-0.073-0.167-0.164
				c-0.034-5.537-1.62-8.953-2.567-10.994c-0.483-1.041-0.802-1.728-0.749-2.261c0.057-0.576-0.004-1.941-0.068-3.386
				c-0.165-3.724-0.16-4.992,0.2-5.169c0.488-0.24,3.238-0.279,4.086-0.288c-0.232-0.836-0.713-1.994-1.196-2.064
				c-0.246-0.036-0.708-0.147-1.243-0.275c-0.958-0.229-2.958-0.711-3.207-0.518c-0.058,0.069-0.159,0.078-0.231,0.02
				c-0.071-0.058-0.078-0.164-0.021-0.235c0.257-0.312,1.299-0.125,3.537,0.411c0.526,0.126,0.982,0.235,1.214,0.269
				c0.914,0.134,1.463,2.274,1.522,2.517c0.012,0.049,0.001,0.101-0.03,0.141s-0.09,0.061-0.13,0.064
				c-1.417,0.005-3.796,0.079-4.155,0.256c-0.219,0.265-0.097,3.028-0.015,4.857c0.064,1.458,0.126,2.834,0.066,3.433
				c-0.044,0.443,0.276,1.134,0.72,2.089c0.959,2.065,2.563,5.522,2.599,11.131C77.801,93.16,77.729,93.234,77.64,93.236z"/>
			<path class="st15" d="M90.727,167.805c-0.772,0.023-6.426-2.34-10.141-5.185c-3.577-2.741-7.424-10.849-7.587-11.192
				c-0.039-0.083-0.003-0.181,0.08-0.221c0.081-0.036,0.181-0.004,0.22,0.079c0.039,0.084,3.975,8.379,7.488,11.071
				c3.746,2.87,9.317,5.136,9.93,5.117c0.026-0.007,4.123-1.381,6.367-11.214c1.719-7.529-7.288-31.093-12.127-43.752
				c-1.431-3.742-2.56-6.697-2.956-8.039c-1.712-5.813-4.551-13.211-4.58-13.285c-0.033-0.085,0.01-0.181,0.095-0.214
				c0.084-0.034,0.181,0.01,0.214,0.095c0.028,0.075,2.873,7.485,4.589,13.31c0.391,1.33,1.519,4.28,2.947,8.015
				c4.852,12.692,13.881,36.317,12.141,43.943C95.092,166.479,90.768,167.804,90.727,167.805z"/>
			<path class="st18" d="M70.69,61.871c-0.006,0-0.014,0-0.02,0c-0.092-0.009-0.158-0.09-0.149-0.181
				c1.118-11.534-2.774-21.186-3.23-21.853c-0.046-0.054-0.05-0.128-0.013-0.189c0.036-0.06,0.107-0.09,0.179-0.073
				c0.14,0.03,3.264,0.73,4.578,3.333c0.201-1.337,0.648-4.817,0.303-7.39c-0.008-0.063,0.02-0.126,0.073-0.161
				c0.055-0.034,0.124-0.035,0.177-0.004c0.184,0.111,4.462,2.702,5.491,5.512c2.84-0.97,8.093-2.921,9.076-3.858
				c-1.202-3.153-2.616-6.89-2.62-7.032c-0.002-0.075,0.051-0.146,0.122-0.167c0.006-0.002,0.016-0.003,0.027-0.003
				c0.632-0.019,7.649,3.061,10.311,6.862c0.149-1.033,0.405-3.928-0.688-7.327c-0.021-0.069,0.003-0.144,0.063-0.186
				c0.058-0.041,0.138-0.04,0.196,0.005c0.125,0.097,3.026,2.363,3.626,4.76c0.766-0.077,4.402-0.498,5.525-1.647
				c-0.193-0.688-1.526-5.258-3.582-7.623c-0.05-0.058-0.054-0.142-0.01-0.204c0.044-0.062,0.126-0.085,0.197-0.058
				c0.036,0.015,3.451,1.426,4.94,6.032c0.063-1.166-0.067-3.51-1.609-6.343c-0.043-0.081-0.014-0.181,0.067-0.224
				c0.081-0.046,0.181-0.014,0.224,0.066c2.271,4.175,1.578,7.244,1.547,7.373c-0.017,0.073-0.081,0.125-0.156,0.127
				c-0.001,0-0.002,0-0.003,0c-0.076,0.001-0.144-0.051-0.162-0.124c-0.943-3.715-3.154-5.521-4.282-6.227
				c1.965,2.711,3.122,7.013,3.175,7.209c0.013,0.053,0,0.11-0.035,0.151c-1.254,1.433-5.757,1.821-5.949,1.837
				c-0.081,0.006-0.159-0.049-0.175-0.131c-0.379-1.8-2.265-3.615-3.118-4.36c1.17,4.085,0.473,7.337,0.465,7.371
				c-0.014,0.066-0.068,0.116-0.134,0.127c-0.067,0.01-0.133-0.019-0.168-0.076c-2.306-3.718-8.645-6.492-9.998-6.985
				c0.341,0.952,1.647,4.405,2.552,6.779c0.022,0.057,0.01,0.121-0.029,0.167c-1.052,1.219-9.1,3.961-9.443,4.077
				c-0.043,0.014-0.087,0.011-0.127-0.009c-0.039-0.02-0.07-0.055-0.084-0.097c-0.751-2.341-4.099-4.65-5.111-5.305
				c0.341,3.259-0.427,7.653-0.435,7.699c-0.013,0.073-0.074,0.129-0.148,0.136c-0.07-0.001-0.143-0.037-0.169-0.107
				c-0.874-2.344-3.349-3.29-4.242-3.562c0.804,1.84,4.218,10.59,3.137,21.736C70.841,61.806,70.772,61.869,70.69,61.871z"/>
			<path class="st15" d="M162.737,187.081c-1.726,0.052-4.85-2.451-6.059-3.421l-0.183-0.146c-0.585-0.466-0.76-0.716-0.642-0.925
				c0.159-0.28,0.694-0.363,5.713,1.512c0.285-0.077,1.733-0.483,2.388-1.005c0.069-0.058,0.175-0.045,0.232,0.026
				c0.057,0.071,0.045,0.175-0.026,0.232c-0.78,0.622-2.489,1.061-2.562,1.079c-0.032,0.01-0.068,0.008-0.098-0.006
				c-3.644-1.362-4.91-1.681-5.281-1.67c-0.014,0-0.027,0.001-0.038,0.003c0.047,0.071,0.177,0.219,0.52,0.492l0.184,0.147
				c1.114,0.893,4.511,3.624,6.019,3.329c1.605-0.296,5.368-2.133,6.492-3.328c1.078-1.144,3.053-4.764,3.156-7.906
				c0.03-0.965,0.172-1.939,0.309-2.881c0.305-2.095,0.592-4.073-0.406-5.518c-0.692-1.003-1.152-2.539-1.641-4.166
				c-0.572-1.907-1.22-4.068-2.35-5.642c-2.069-2.878-5.922-6.706-5.961-6.744c-0.066-0.064-0.065-0.169-0.002-0.234
				c0.065-0.064,0.169-0.064,0.234-0.001c0.039,0.039,3.913,3.886,5.997,6.786c1.163,1.619,1.82,3.809,2.399,5.741
				c0.48,1.601,0.934,3.113,1.596,4.072c1.072,1.553,0.775,3.593,0.461,5.754c-0.136,0.933-0.276,1.898-0.307,2.844
				c-0.105,3.225-2.137,6.945-3.245,8.122c-1.183,1.257-4.988,3.115-6.675,3.427C162.892,187.071,162.816,187.079,162.737,187.081z"
				/>
			<path class="st15" d="M164.021,179.824c-0.009,0-0.018,0-0.027-0.001c-0.273-0.037-6.685-0.913-7.557-1.348
				c-0.209-0.105-0.718-0.303-1.365-0.554c-2.992-1.164-4.531-1.85-4.633-2.365c-0.022-0.108,0.012-0.21,0.094-0.288
				c0.586-0.561,1.792-0.527,3.069-0.494c0.221,0.006,0.445,0.012,0.67,0.015l0.205,0.003c8.239,0.119,9.427-0.427,9.554-0.667
				c0.081-0.152,0.065-0.244,0.047-0.3c-0.112-0.343-0.855-0.705-1.981-1.255c-0.728-0.355-1.635-0.797-2.704-1.392
				c-0.095-0.054-9.582-5.426-9.349-6.491c0.017-0.078,0.083-0.212,0.334-0.231c0.014-0.001,0.029-0.002,0.044-0.002
				c1.187-0.036,6.564,1.664,11.137,3.156c0.511,0.167,0.864,0.282,0.989,0.319c0.424,0.128,2.126,0.01,3.426-1.018
				c1.113-0.878,1.629-2.169,1.533-3.837c-0.113-1.978-0.488-4.729-1.623-6.604c-0.024-0.04-0.041-0.069-0.052-0.09
				c-0.043-0.081-0.014-0.181,0.067-0.224c0.079-0.044,0.181-0.013,0.224,0.067c0.01,0.017,0.025,0.042,0.045,0.076
				c1.171,1.933,1.555,4.742,1.671,6.757c0.1,1.757-0.474,3.18-1.659,4.115c-1.416,1.118-3.238,1.224-3.727,1.075
				c-0.125-0.037-0.48-0.153-0.996-0.321c-2.421-0.79-9.742-3.179-11.017-3.141c-0.022,0-0.044,0.002-0.059,0.004
				c0.275,0.685,5.265,3.926,9.174,6.101c1.061,0.59,1.963,1.031,2.688,1.384c1.287,0.628,1.997,0.974,2.151,1.45
				c0.057,0.176,0.034,0.364-0.071,0.558c-0.222,0.42-1.487,0.963-9.85,0.842l-0.206-0.003c-0.225-0.003-0.451-0.009-0.673-0.015
				c-1.206-0.034-2.348-0.063-2.831,0.402c0.068,0.41,3.125,1.599,4.43,2.106c0.654,0.254,1.171,0.455,1.393,0.566
				c0.654,0.327,5.104,0.996,7.407,1.31c0.269-0.114,1.67-0.699,2.542-0.654c0.092,0.004,0.162,0.081,0.158,0.172
				c-0.004,0.092-0.089,0.163-0.172,0.158c-0.837-0.038-2.422,0.639-2.438,0.646C164.063,179.819,164.041,179.823,164.021,179.824z"
				/>
		</g>
		<path class="st2" d="M78.547,44.65c-0.008-0.002-0.017-0.002-0.025-0.004c-0.022-0.026-0.023-0.059-0.055-0.08
			c-0.312-0.204-0.684-0.007-0.862,0.287c-0.192,0.151-0.32,0.38-0.254,0.617c0.016,0.056,0.043,0.092,0.067,0.135
			c0.224,0.576,0.998,0.32,1.335-0.016c0.117-0.117,0.154-0.248,0.139-0.372C78.954,44.978,78.772,44.709,78.547,44.65z"/>
		<path class="st2" d="M80.023,45.608c-0.331-0.062-0.548,0.101-0.729,0.365c-0.228,0.333,0.281,0.651,0.547,0.396
			c0.123-0.118,0.187-0.254,0.296-0.376C80.248,45.87,80.201,45.642,80.023,45.608z"/>
		<path class="st2" d="M95.354,41.516c-0.084-0.125-0.222-0.141-0.352-0.081c-0.231,0.106-0.332,0.19-0.38,0.462
			c0,0.002,0.001,0.004,0,0.007c-0.128,0.308,0.264,0.573,0.519,0.438c0.108-0.034,0.199-0.114,0.228-0.263
			C95.406,41.886,95.471,41.691,95.354,41.516z"/>
		<path class="st2" d="M95.818,42.141c-0.037,0.208-0.047,0.237,0.039,0.429c0.035,0.078,0.152,0.137,0.218,0.051
			c0.128-0.171,0.141-0.219,0.151-0.437C96.236,41.952,95.859,41.912,95.818,42.141z"/>
	</g>
</g>
<g id="Camada_2">
	<path class="st19" d="M0,0v226.3h226.3V0H0z M221.8,204.3H4.5V4.5h217.3V204.3z"/>
</g>
</svg>
