<?xml version="1.0" encoding="utf-8"?><svg id="M1_A2_RM_22" image-rendering="auto" baseProfile="basic" version="1.1" x="0px" y="0px" width="375" height="375" xmlns="http://www.w3.org/2000/svg" xmlns:xlink="http://www.w3.org/1999/xlink"><g id="Cena-1r1" overflow="visible"><g id="Bipartite" transform="matrix(.046 0 0 .046 184.95 183.65)"><animateTransform attributeName="transform" additive="replace" type="translate" dur="1.333s" keyTimes="0;.219;.281;.344;1" values="188.552,187.252;188.657,187.203;188.499,187.243;188.5,187.2;188.5,187.2" fill="freeze"/><animateTransform attributeName="transform" additive="sum" type="scale" dur="1.333s" keyTimes="0;.219;.281;.344;1" values=".046,.046;1.097,1.097;.891,.891;1,1;1,1" fill="freeze"/><animateTransform attributeName="transform" additive="sum" type="translate" dur="1.333s" keyTimes="0;.219;.281;.344;1" values="-78.8,-78.8;-77.75,-77.7;-77.65,-77.7;-77.6,-77.65;-77.6,-77.65" fill="freeze"/><path fill="#637D8E" stroke="none" d="M149.05 46.8Q143.15 32.9 132.4 22.15 121.65 11.4 107.75 5.5 93.3 -.6 77.5 -.6 61.7 -.6 47.3 5.5 33.35 11.4 22.65 22.15 11.9 32.9 6 46.8 -.1 61.25 -.1 77.05 -.1 92.85 6 107.25 11.9 121.2 22.65 131.9 33.35 142.65 47.3 148.55 61.7 154.65 77.5 154.65 93.3 154.65 107.75 148.55 121.65 142.65 132.4 131.9 143.15 121.2 149.05 107.25 155.15 92.85 155.15 77.05 155.15 61.25 149.05 46.8M127.75 26.8Q137.6 36.65 143 49.4 148.6 62.6 148.6 77.05 148.6 91.5 143 104.7 137.6 117.45 127.75 127.3 117.9 137.1 105.15 142.5 91.95 148.1 77.5 148.1 48.1 148.1 27.3 127.3 17.45 117.45 12.05 104.7 6.45 91.5 6.45 77.05 6.45 62.6 12.05 49.4 17.45 36.65 27.3 26.8 37.1 16.95 49.85 11.55 63.05 5.95 77.5 5.95 91.95 5.95 105.15 11.55 117.9 16.95 127.75 26.8M147.6 77.05Q147.6 62.8 142.1 49.8 136.75 37.2 127.05 27.5 106.5 6.95 77.5 6.95 48.55 6.95 28 27.5 18.3 37.2 12.95 49.8 7.45 62.8 7.45 77.05 7.45 106.05 28 126.55 37.7 136.25 50.25 141.6 63.3 147.1 77.5 147.1 91.75 147.1 104.75 141.6 117.35 136.25 127.05 126.55 147.6 106.05 147.6 77.05M102.8 60.65Q102.8 58.8 103.8 57.7 104.8 56.7 106.55 56.7 107.6 56.7 108.5 57.15 109.3 57.65 109.75 58.55 110.2 59.45 110.2 60.65 110.2 62.55 109.25 63.55 108.3 64.6 106.5 64.6 105.35 64.6 104.55 64.1 103.7 63.65 103.25 62.75 102.8 61.85 102.8 60.65M104.05 73.65L105.6 73.65 105.9 74.9 106.05 74.9Q106.3 74.35 107 73.85 107.55 73.5 108.3 73.5L109 73.55 108.85 75.5 108.25 75.45Q107.2 75.45 106.7 75.95 106.1 76.5 106.1 77.4L106.1 81.25 104.05 81.25 104.05 73.65M119 74.05Q119.7 73.5 121.25 73.5 122.65 73.5 123.9 74.1L123.3 75.6Q122.9 75.4 122.2 75.2 121.75 75.05 121.2 75.05 120.25 75.05 120.25 75.5 120.25 75.8 120.55 76 120.85 76.2 121.85 76.6 122.65 76.95 123.2 77.3 123.55 77.6 123.8 78 124 78.4 124 79 124 80.15 123.2 80.8 122.4 81.4 120.75 81.4L119.3 81.3 118.2 80.95 118.2 79.25 119.5 79.7Q120.5 79.9 120.8 79.9 121.95 79.9 121.95 79.2 121.95 79.05 121.8 78.8L121.25 78.45 120.3 78Q119.3 77.6 119 77.35 118.55 77.05 118.4 76.6 118.2 76.25 118.2 75.6 118.2 74.55 119 74.05M97.95 55.65L97.4 55.4Q97.2 55.25 96.9 55.25 96.8 55.25 96.5 55.45 96.35 55.65 96.25 56L95.2 56Q95.3 55 95.75 54.45 96.25 53.9 97.05 53.9 97.45 53.9 97.6 54L98.65 54.5 99.15 54.6Q99.4 54.6 99.55 54.4 99.75 54.25 99.85 53.85L100.85 53.85Q100.75 54.95 100.3 55.4 99.8 56 99 56L97.95 55.65M92.4 60.5Q92.75 60.8 93 61.2 93.2 61.8 93.2 62.2 93.2 63.4 92.35 64 91.6 64.6 89.95 64.6L88.5 64.5 87.4 64.15 87.4 62.45 88.7 62.9Q89.7 63.1 90 63.1 91.15 63.1 91.15 62.4 91.15 62.25 91 62L89.5 61.2Q88.5 60.8 88.2 60.55 87.75 60.25 87.6 59.8 87.4 59.45 87.4 58.8 87.4 57.75 88.2 57.25 88.9 56.7 90.4 56.7 91.85 56.7 93.1 57.3L92.5 58.8Q92.1 58.6 91.4 58.4 90.9 58.25 90.4 58.25 89.45 58.25 89.45 58.75 89.45 59 89.75 59.2 90.05 59.4 91.05 59.8 91.85 60.15 92.4 60.5M95.7 58.75L95 57.35Q96.4 56.65 97.95 56.65 99.45 56.65 100.3 57.35 101.15 58.05 101.15 59.35L101.15 64.45 99.65 64.45 99.25 63.45 99.2 63.45Q98.55 64.15 98.15 64.35 97.5 64.6 96.7 64.6 95.55 64.6 94.95 64 94.3 63.35 94.3 62.2 94.3 61 95.15 60.4 96 59.85 97.75 59.75L99.05 59.7 99.05 59.35Q99.05 58.2 97.85 58.2 97.05 58.2 95.7 58.75M83.45 58.25Q82.5 58.25 82.5 58.75 82.5 59 82.8 59.2 83.1 59.4 84.1 59.8 85 60.15 85.4 60.5 85.8 60.75 86.05 61.2 86.25 61.8 86.25 62.2 86.25 63.4 85.4 64 84.6 64.6 82.95 64.6L81.55 64.5 80.45 64.15 80.45 62.45 81.75 62.9Q82.75 63.1 83.05 63.1 84.15 63.1 84.15 62.4 84.15 62.25 84 62L83.5 61.7 81.2 60.55Q80.85 60.25 80.6 59.8 80.45 59.45 80.45 58.8 80.45 57.8 81.2 57.25 81.95 56.7 83.45 56.7 84.9 56.7 86.15 57.3L85.5 58.8Q85.15 58.6 84.45 58.4L83.45 58.25M82.65 74.05Q83.4 73.5 84.9 73.5 86.25 73.5 87.6 74.1L86.95 75.6 85.9 75.2 84.85 75.05Q83.95 75.05 83.95 75.5 83.95 75.8 84.25 76 84.6 76.25 85.55 76.6 86.2 76.9 86.85 77.3 87.3 77.6 87.45 78 87.65 78.4 87.65 79 87.65 80.2 86.85 80.8 86.05 81.4 84.4 81.4L83 81.3Q82.2 81.1 81.9 80.95L81.9 79.25 83.2 79.7Q84.2 79.9 84.45 79.9 85.6 79.9 85.6 79.2 85.6 79.05 85.45 78.8L84.95 78.45 82.65 77.35Q82.3 77.05 82.05 76.6 81.85 76.1 81.85 75.6 81.85 74.6 82.65 74.05M89.65 73.6L90.25 72 91.6 72 91.6 73.65 93.75 73.65 93.75 75.2 91.6 75.2 91.6 78.9Q91.6 79.3 91.85 79.55 92.15 79.75 92.5 79.75 92.95 79.75 93.8 79.5L93.8 81.05Q93.1 81.4 91.9 81.4 90.6 81.4 90.1 80.75 89.5 80.15 89.5 78.9L89.5 75.2 88.5 75.2 88.5 74.3 89.65 73.6M98.65 73.5Q99.75 73.5 100.55 73.95 101.4 74.45 101.85 75.35 102.3 76.25 102.3 77.45 102.3 79.35 101.35 80.35 100.3 81.4 98.6 81.4 97.45 81.4 96.65 80.9 95.8 80.45 95.35 79.55 94.9 78.65 94.9 77.45 94.9 75.6 95.9 74.5 96.9 73.5 98.65 73.5M87.25 90.45L89.4 90.45 89.4 92 87.25 92 87.25 95.7Q87.25 96.1 87.5 96.35 87.8 96.55 88.15 96.55 88.6 96.55 89.5 96.3L89.5 97.85Q88.75 98.2 87.55 98.2 86.25 98.2 85.75 97.55 85.15 96.95 85.15 95.7L85.15 92 84.15 92 84.15 91.1 85.3 90.4 85.9 88.8 87.25 88.8 87.25 90.45M81.55 90.65Q82.1 90.3 82.85 90.3L83.55 90.35 83.4 92.3 82.8 92.25Q81.75 92.25 81.25 92.75 80.65 93.3 80.65 94.2L80.65 98.05 78.6 98.05 78.6 90.45 80.15 90.45 80.45 91.7 80.55 91.7Q80.9 91.15 81.55 90.65M91 98.05L91 90.4 93.1 90.4 93.1 98.05 91 98.05M97.6 90.45L99.75 90.45 99.75 92 97.6 92 97.6 95.7Q97.6 96.1 97.85 96.35 98.15 96.55 98.5 96.55 98.95 96.55 99.8 96.3L99.8 97.85Q99.1 98.2 97.9 98.2 96.6 98.2 96.1 97.55 95.5 96.95 95.5 95.7L95.5 92 94.5 92 94.5 91.1 95.65 90.4 96.25 88.8 97.6 88.8 97.6 90.45M92.9 89.2Q92.7 89.5 92.05 89.5 90.95 89.5 90.95 88.45 90.95 87.45 92.05 87.45 93.2 87.45 93.2 88.45 93.2 88.9 92.9 89.2M116.95 76.95L116.95 77.95 112.05 77.95Q112.05 78.75 112.55 79.35 113.05 79.85 113.95 79.85 114.65 79.85 115.25 79.7L116.55 79.25 116.55 80.85Q115.85 81.2 115.35 81.25 114.75 81.4 113.85 81.4 112.05 81.4 110.95 80.4 109.95 79.3 109.95 77.5 109.95 75.55 110.9 74.55 111.9 73.5 113.55 73.5 115.15 73.5 116.05 74.4 116.95 75.3 116.95 76.95M101.85 91.35Q102.85 90.3 104.5 90.3 106.15 90.3 107.05 91.2 107.95 92.1 107.95 93.75L107.95 94.75 103 94.75Q103.1 95.7 103.55 96.15 104 96.65 104.9 96.65 105.6 96.65 106.25 96.5L107.5 96.05 107.5 97.65Q106.95 98 106.35 98.05 105.75 98.2 104.85 98.2 103.05 98.2 101.95 97.2 100.9 96.15 100.9 94.3 100.9 92.35 101.85 91.35M31.75 71.25L33.9 71.25 33.9 81.25 31.75 81.25 31.75 71.25M36.25 73.6L37.85 73.6 38.1 74.6 38.25 74.6Q38.55 74.1 39.2 73.75 39.85 73.5 40.6 73.5 41.95 73.5 42.6 74.2 43.3 75 43.3 76.3L43.3 81.25 41.2 81.25 41.2 76.8Q41.2 76 40.9 75.55 40.6 75.15 40 75.15 39.15 75.15 38.7 75.75 38.35 76.25 38.35 77.65L38.35 81.25 36.25 81.25 36.25 73.6M78.8 54.85Q78.8 55.3 78.5 55.6 78.3 55.85 77.65 55.85 76.55 55.85 76.55 54.85 76.55 53.85 77.65 53.85 78.8 53.85 78.8 54.85M72.1 58.75Q71.85 58.35 71.25 58.35 70.5 58.35 70.1 58.9 69.7 59.45 69.7 60.65L69.7 64.45 67.65 64.45 67.65 60Q67.65 59.2 67.35 58.75 67.1 58.35 66.5 58.35 65.65 58.35 65.35 58.95 64.95 59.6 64.95 60.85L64.95 64.45 62.9 64.45 62.9 56.8 64.45 56.8 64.75 57.8 64.85 57.8Q65.15 57.3 65.75 57 66.35 56.7 67.1 56.7 68.8 56.7 69.4 57.8L69.6 57.8Q69.95 57.2 70.5 57 71.1 56.7 71.85 56.7 73.2 56.7 73.8 57.35 74.5 58.05 74.5 59.5L74.5 64.45 72.4 64.45 72.4 60Q72.4 59.2 72.1 58.75M76.65 56.85L78.7 56.85 78.7 64.45 76.65 64.45 76.65 56.85M64.05 73.5L64.75 73.55 64.6 75.5 64 75.45Q62.95 75.45 62.45 75.95 61.9 76.45 61.9 77.4L61.9 81.25 59.8 81.25 59.8 73.65 61.35 73.65 61.7 74.9 61.8 74.9Q62.05 74.35 62.75 73.85 63.3 73.5 64.05 73.5M66.5 74.15Q67.3 73.5 68.8 73.5L72.8 73.6 72.8 74.7 71.6 75Q71.95 75.6 71.95 76.15 71.95 77.35 71.1 78.05 70.15 78.75 68.7 78.75L68.3 78.7 68 78.7Q67.7 78.95 67.7 79.25 67.7 79.7 68.85 79.7L70.15 79.7Q71.45 79.7 72.05 80.25 72.7 80.75 72.7 81.8 72.7 83.15 71.6 83.9 70.5 84.65 68.4 84.65 66.8 84.65 65.95 84.05 65.1 83.5 65.1 82.5 65.1 81.8 65.55 81.35 65.9 80.95 66.8 80.7 66.45 80.55 66.25 80.25 66 80 66 79.6 66 79.2 66.25 78.85 66.5 78.5 67 78.3 66.3 77.95 66 77.45 65.65 76.75 65.65 76.1 65.65 74.85 66.5 74.15M53.75 60.65Q53.75 58.7 54.7 57.7 55.8 56.7 57.45 56.7 58.6 56.7 59.4 57.15 60.3 57.7 60.7 58.55 61.15 59.45 61.15 60.65 61.15 62.55 60.15 63.55 59.2 64.6 57.45 64.6 56.3 64.6 55.5 64.1 54.65 63.65 54.2 62.75 53.75 61.85 53.75 60.65M51.95 56.75Q51.2 56.4 50.8 56.3 50.35 56.1 49.7 56.1 48.55 56.1 47.85 57 47.2 57.85 47.2 59.5 47.2 62.85 49.7 62.85 50.7 62.85 52.25 62.3L52.25 64.1Q51.1 64.6 49.5 64.6 47.4 64.6 46.15 63.3 45 61.9 45 59.5 45 57.95 45.6 56.75 46.1 55.55 47.2 54.95 48.25 54.35 49.7 54.35 51.25 54.35 52.65 55.05L51.95 56.75M45.8 73.6L46.4 72 47.75 72 47.75 73.65 49.9 73.65 49.9 75.2 47.75 75.2 47.75 78.9Q47.75 79.3 48 79.55 48.3 79.75 48.65 79.75 49.1 79.75 50 79.5L50 81.05Q49.25 81.4 48.05 81.4 46.75 81.4 46.25 80.75 45.65 80.15 45.65 78.9L45.65 75.2 44.65 75.2 44.65 74.3 45.8 73.6M56.4 79.7L57.65 79.25 57.65 80.85Q57.1 81.2 56.5 81.25 55.9 81.4 55 81.4 53.2 81.4 52.1 80.4 51.05 79.35 51.05 77.5 51.05 75.65 52 74.55 53 73.5 54.65 73.5 56.3 73.5 57.2 74.4 58.1 75.3 58.1 76.95L58.1 77.95 53.15 77.95Q53.25 78.9 53.7 79.35 54.15 79.85 55.1 79.85 55.75 79.85 56.4 79.7M47.75 98.05L47.75 88.05 50.85 88.05Q52.9 88.05 53.95 88.7 54.9 89.3 54.9 90.6 54.9 91.5 54.5 92.05 54.05 92.7 53.35 92.75L53.35 92.85Q54.2 93 54.75 93.6 55.15 94.15 55.15 95.15 55.15 96.55 54.2 97.3 53.15 98.05 51.5 98.05L47.75 98.05M58.05 89.5Q56.9 89.5 56.9 88.45 56.9 87.45 58.05 87.45 59.2 87.45 59.2 88.45 59.2 88.9 58.9 89.2 58.6 89.5 58.05 89.5M57 90.4L59.1 90.4 59.1 98.05 57 98.05 57 90.4M79.75 74.4Q80.65 75.3 80.65 76.95L80.65 77.95 75.7 77.95Q75.8 78.9 76.25 79.35 76.7 79.85 77.6 79.85 78.3 79.85 78.9 79.7 79.5 79.55 80.2 79.25L80.2 80.85Q79.65 81.2 79.05 81.25 78.4 81.4 77.5 81.4 75.75 81.4 74.65 80.4 73.6 79.35 73.6 77.5 73.6 75.55 74.55 74.55 75.55 73.5 77.2 73.5 78.85 73.5 79.75 74.4M61.25 90.45L62.95 90.45 63.25 91.4 63.35 91.4Q64.1 90.3 65.5 90.3 66.9 90.3 67.65 91.35 68.4 92.35 68.4 94.25 68.4 95.5 68.05 96.35 67.7 97.2 67.05 97.75 66.4 98.2 65.45 98.2 64.1 98.2 63.35 97.25L63.25 97.25 63.35 98.35 63.35 101.45 61.25 101.45 61.25 90.45M70.25 97.6Q69.6 96.85 69.6 95.8 69.6 94.6 70.45 94 71.3 93.45 73.05 93.35L74.35 93.3 74.35 92.95Q74.35 91.8 73.2 91.8 72.35 91.8 71 92.35L70.35 90.95Q71.65 90.25 73.25 90.25 74.75 90.25 75.6 90.95 76.45 91.65 76.45 92.95L76.45 98.05 75 98.05 74.6 97.05 74.5 97.05Q73.85 97.75 73.45 97.95 72.8 98.2 72 98.2 70.95 98.2 70.25 97.6M74.35 95.15L74.35 94.55 73.55 94.55Q72.75 94.55 72.2 94.9 71.75 95.2 71.75 95.8 71.75 96.7 72.75 96.7 73.5 96.7 73.95 96.25 74.35 95.85 74.35 95.15M64.85 91.95Q64.1 91.95 63.7 92.4 63.35 93 63.35 94L63.35 94.2Q63.35 95.4 63.7 96 64.05 96.5 64.9 96.5 66.3 96.5 66.3 94.2 66.3 93.2 65.95 92.5 65.55 91.95 64.85 91.95M78.7 76.6Q78.6 75.7 78.3 75.4 77.85 74.95 77.2 74.95 76.6 74.95 76.2 75.4 75.85 75.8 75.75 76.6L78.7 76.6M49.85 93.7L49.85 96.3 51.25 96.3Q52.1 96.3 52.55 96 52.95 95.65 52.95 94.95 52.95 93.7 51.2 93.7L49.85 93.7M49.85 89.8L49.85 92.05 51.1 92.05Q52 92.05 52.35 91.75 52.75 91.5 52.75 90.9 52.75 90.35 52.3 90.05 51.9 89.8 51 89.8L49.85 89.8M56.15 76.6Q56.15 75.8 55.75 75.4 55.4 74.95 54.7 74.95 54.05 74.95 53.65 75.4 53.3 75.8 53.2 76.6L56.15 76.6M57.45 58.35Q56.65 58.35 56.25 58.95 55.85 59.5 55.85 60.65 55.85 61.7 56.25 62.35 56.65 62.95 57.45 62.95 58.3 62.95 58.65 62.35 59 61.8 59 60.65 59 59.45 58.65 58.95 58.3 58.35 57.45 58.35M70.25 82.95Q70.85 82.65 70.85 82.1 70.85 81.7 70.5 81.55 70.15 81.35 69.35 81.35L68.25 81.35Q67.7 81.35 67.3 81.65 66.9 81.9 66.9 82.35 66.9 82.75 67.3 83 67.7 83.25 68.45 83.25 69.6 83.25 70.25 82.95M69.65 77.1Q69.95 76.75 69.95 76.15 69.95 74.75 68.8 74.75 67.65 74.75 67.65 76.15 67.65 76.75 67.95 77.1 68.25 77.45 68.8 77.45 69.45 77.45 69.65 77.1M104.55 91.75Q103.9 91.75 103.5 92.2 103.15 92.6 103.05 93.4L106 93.4Q106 92.6 105.6 92.2 105.25 91.75 104.55 91.75M113.55 74.95Q112.9 74.95 112.5 75.4 112.1 75.8 112.1 76.6L115 76.6Q115 75.8 114.6 75.4 114.25 74.95 113.55 74.95M97.4 79.15Q97.8 79.75 98.6 79.75 99.45 79.75 99.8 79.15 100.2 78.5 100.2 77.45 100.2 76.3 99.8 75.75 99.45 75.15 98.6 75.15 97.8 75.15 97.4 75.75 97.05 76.25 97.05 77.45 97.05 78.6 97.4 79.15M99.05 60.95L98.25 60.95Q97.45 60.95 96.9 61.3 96.45 61.6 96.45 62.2 96.45 63.1 97.45 63.1 98.25 63.1 98.6 62.65 99.05 62.3 99.05 61.55L99.05 60.95M105.3 58.95Q104.95 59.45 104.95 60.65 104.95 61.8 105.3 62.35 105.7 62.95 106.5 62.95 107.4 62.95 107.7 62.35 108.1 61.7 108.1 60.65 108.1 59.5 107.7 58.95 107.35 58.35 106.5 58.35 105.7 58.35 105.3 58.95Z"/><path fill="#FFF" stroke="none" d="M143 49.4Q137.6 36.65 127.75 26.8 117.9 16.95 105.15 11.55 91.95 5.95 77.5 5.95 63.05 5.95 49.85 11.55 37.1 16.95 27.3 26.8 17.45 36.65 12.05 49.4 6.45 62.6 6.45 77.05 6.45 91.5 12.05 104.7 17.45 117.45 27.3 127.3 48.1 148.1 77.5 148.1 91.95 148.1 105.15 142.5 117.9 137.1 127.75 127.3 137.6 117.45 143 104.7 148.6 91.5 148.6 77.05 148.6 62.6 143 49.4M142.1 49.8Q147.6 62.8 147.6 77.05 147.6 106.05 127.05 126.55 117.35 136.25 104.75 141.6 91.75 147.1 77.5 147.1 63.3 147.1 50.25 141.6 37.7 136.25 28 126.55 7.45 106.05 7.45 77.05 7.45 62.8 12.95 49.8 18.3 37.2 28 27.5 48.55 6.95 77.5 6.95 106.5 6.95 127.05 27.5 136.75 37.2 142.1 49.8M69.6 95.8Q69.6 96.85 70.25 97.6 70.95 98.2 72 98.2 72.8 98.2 73.45 97.95 73.85 97.75 74.5 97.05L74.6 97.05 75 98.05 76.45 98.05 76.45 92.95Q76.45 91.65 75.6 90.95 74.75 90.25 73.25 90.25 71.65 90.25 70.35 90.95L71 92.35Q72.35 91.8 73.2 91.8 74.35 91.8 74.35 92.95L74.35 93.3 73.05 93.35Q71.3 93.45 70.45 94 69.6 94.6 69.6 95.8M74.35 94.55L74.35 95.15Q74.35 95.85 73.95 96.25 73.5 96.7 72.75 96.7 71.75 96.7 71.75 95.8 71.75 95.2 72.2 94.9 72.75 94.55 73.55 94.55L74.35 94.55M62.95 90.45L61.25 90.45 61.25 101.45 63.35 101.45 63.35 98.35 63.25 97.25 63.35 97.25Q64.1 98.2 65.45 98.2 66.4 98.2 67.05 97.75 67.7 97.2 68.05 96.35 68.4 95.5 68.4 94.25 68.4 92.35 67.65 91.35 66.9 90.3 65.5 90.3 64.1 90.3 63.35 91.4L63.25 91.4 62.95 90.45M63.7 92.4Q64.1 91.95 64.85 91.95 65.55 91.95 65.95 92.5 66.3 93.2 66.3 94.2 66.3 96.5 64.9 96.5 64.05 96.5 63.7 96 63.35 95.4 63.35 94.2L63.35 94Q63.35 93 63.7 92.4M80.65 76.95Q80.65 75.3 79.75 74.4 78.85 73.5 77.2 73.5 75.55 73.5 74.55 74.55 73.6 75.55 73.6 77.5 73.6 79.35 74.65 80.4 75.75 81.4 77.5 81.4 78.4 81.4 79.05 81.25 79.65 81.2 80.2 80.85L80.2 79.25Q79.5 79.55 78.9 79.7 78.3 79.85 77.6 79.85 76.7 79.85 76.25 79.35 75.8 78.9 75.7 77.95L80.65 77.95 80.65 76.95M78.3 75.4Q78.6 75.7 78.7 76.6L75.75 76.6Q75.85 75.8 76.2 75.4 76.6 74.95 77.2 74.95 77.85 74.95 78.3 75.4M59.1 90.4L57 90.4 57 98.05 59.1 98.05 59.1 90.4M56.9 88.45Q56.9 89.5 58.05 89.5 58.6 89.5 58.9 89.2 59.2 88.9 59.2 88.45 59.2 87.45 58.05 87.45 56.9 87.45 56.9 88.45M47.75 88.05L47.75 98.05 51.5 98.05Q53.15 98.05 54.2 97.3 55.15 96.55 55.15 95.15 55.15 94.15 54.75 93.6 54.2 93 53.35 92.85L53.35 92.75Q54.05 92.7 54.5 92.05 54.9 91.5 54.9 90.6 54.9 89.3 53.95 88.7 52.9 88.05 50.85 88.05L47.75 88.05M49.85 92.05L49.85 89.8 51 89.8Q51.9 89.8 52.3 90.05 52.75 90.35 52.75 90.9 52.75 91.5 52.35 91.75 52 92.05 51.1 92.05L49.85 92.05M49.85 96.3L49.85 93.7 51.2 93.7Q52.95 93.7 52.95 94.95 52.95 95.65 52.55 96 52.1 96.3 51.25 96.3L49.85 96.3M57.65 79.25L56.4 79.7Q55.75 79.85 55.1 79.85 54.15 79.85 53.7 79.35 53.25 78.9 53.15 77.95L58.1 77.95 58.1 76.95Q58.1 75.3 57.2 74.4 56.3 73.5 54.65 73.5 53 73.5 52 74.55 51.05 75.65 51.05 77.5 51.05 79.35 52.1 80.4 53.2 81.4 55 81.4 55.9 81.4 56.5 81.25 57.1 81.2 57.65 80.85L57.65 79.25M55.75 75.4Q56.15 75.8 56.15 76.6L53.2 76.6Q53.3 75.8 53.65 75.4 54.05 74.95 54.7 74.95 55.4 74.95 55.75 75.4M46.4 72L45.8 73.6 44.65 74.3 44.65 75.2 45.65 75.2 45.65 78.9Q45.65 80.15 46.25 80.75 46.75 81.4 48.05 81.4 49.25 81.4 50 81.05L50 79.5Q49.1 79.75 48.65 79.75 48.3 79.75 48 79.55 47.75 79.3 47.75 78.9L47.75 75.2 49.9 75.2 49.9 73.65 47.75 73.65 47.75 72 46.4 72M50.8 56.3Q51.2 56.4 51.95 56.75L52.65 55.05Q51.25 54.35 49.7 54.35 48.25 54.35 47.2 54.95 46.1 55.55 45.6 56.75 45 57.95 45 59.5 45 61.9 46.15 63.3 47.4 64.6 49.5 64.6 51.1 64.6 52.25 64.1L52.25 62.3Q50.7 62.85 49.7 62.85 47.2 62.85 47.2 59.5 47.2 57.85 47.85 57 48.55 56.1 49.7 56.1 50.35 56.1 50.8 56.3M54.7 57.7Q53.75 58.7 53.75 60.65 53.75 61.85 54.2 62.75 54.65 63.65 55.5 64.1 56.3 64.6 57.45 64.6 59.2 64.6 60.15 63.55 61.15 62.55 61.15 60.65 61.15 59.45 60.7 58.55 60.3 57.7 59.4 57.15 58.6 56.7 57.45 56.7 55.8 56.7 54.7 57.7M56.25 58.95Q56.65 58.35 57.45 58.35 58.3 58.35 58.65 58.95 59 59.45 59 60.65 59 61.8 58.65 62.35 58.3 62.95 57.45 62.95 56.65 62.95 56.25 62.35 55.85 61.7 55.85 60.65 55.85 59.5 56.25 58.95M68.8 73.5Q67.3 73.5 66.5 74.15 65.65 74.85 65.65 76.1 65.65 76.75 66 77.45 66.3 77.95 67 78.3 66.5 78.5 66.25 78.85 66 79.2 66 79.6 66 80 66.25 80.25 66.45 80.55 66.8 80.7 65.9 80.95 65.55 81.35 65.1 81.8 65.1 82.5 65.1 83.5 65.95 84.05 66.8 84.65 68.4 84.65 70.5 84.65 71.6 83.9 72.7 83.15 72.7 81.8 72.7 80.75 72.05 80.25 71.45 79.7 70.15 79.7L68.85 79.7Q67.7 79.7 67.7 79.25 67.7 78.95 68 78.7L68.3 78.7 68.7 78.75Q70.15 78.75 71.1 78.05 71.95 77.35 71.95 76.15 71.95 75.6 71.6 75L72.8 74.7 72.8 73.6 68.8 73.5M69.95 76.15Q69.95 76.75 69.65 77.1 69.45 77.45 68.8 77.45 68.25 77.45 67.95 77.1 67.65 76.75 67.65 76.15 67.65 74.75 68.8 74.75 69.95 74.75 69.95 76.15M70.85 82.1Q70.85 82.65 70.25 82.95 69.6 83.25 68.45 83.25 67.7 83.25 67.3 83 66.9 82.75 66.9 82.35 66.9 81.9 67.3 81.65 67.7 81.35 68.25 81.35L69.35 81.35Q70.15 81.35 70.5 81.55 70.85 81.7 70.85 82.1M64.75 73.55L64.05 73.5Q63.3 73.5 62.75 73.85 62.05 74.35 61.8 74.9L61.7 74.9 61.35 73.65 59.8 73.65 59.8 81.25 61.9 81.25 61.9 77.4Q61.9 76.45 62.45 75.95 62.95 75.45 64 75.45L64.6 75.5 64.75 73.55M78.7 56.85L76.65 56.85 76.65 64.45 78.7 64.45 78.7 56.85M71.25 58.35Q71.85 58.35 72.1 58.75 72.4 59.2 72.4 60L72.4 64.45 74.5 64.45 74.5 59.5Q74.5 58.05 73.8 57.35 73.2 56.7 71.85 56.7 71.1 56.7 70.5 57 69.95 57.2 69.6 57.8L69.4 57.8Q68.8 56.7 67.1 56.7 66.35 56.7 65.75 57 65.15 57.3 64.85 57.8L64.75 57.8 64.45 56.8 62.9 56.8 62.9 64.45 64.95 64.45 64.95 60.85Q64.95 59.6 65.35 58.95 65.65 58.35 66.5 58.35 67.1 58.35 67.35 58.75 67.65 59.2 67.65 60L67.65 64.45 69.7 64.45 69.7 60.65Q69.7 59.45 70.1 58.9 70.5 58.35 71.25 58.35M78.5 55.6Q78.8 55.3 78.8 54.85 78.8 53.85 77.65 53.85 76.55 53.85 76.55 54.85 76.55 55.85 77.65 55.85 78.3 55.85 78.5 55.6M37.85 73.6L36.25 73.6 36.25 81.25 38.35 81.25 38.35 77.65Q38.35 76.25 38.7 75.75 39.15 75.15 40 75.15 40.6 75.15 40.9 75.55 41.2 76 41.2 76.8L41.2 81.25 43.3 81.25 43.3 76.3Q43.3 75 42.6 74.2 41.95 73.5 40.6 73.5 39.85 73.5 39.2 73.75 38.55 74.1 38.25 74.6L38.1 74.6 37.85 73.6M33.9 71.25L31.75 71.25 31.75 81.25 33.9 81.25 33.9 71.25M104.5 90.3Q102.85 90.3 101.85 91.35 100.9 92.35 100.9 94.3 100.9 96.15 101.95 97.2 103.05 98.2 104.85 98.2 105.75 98.2 106.35 98.05 106.95 98 107.5 97.65L107.5 96.05 106.25 96.5Q105.6 96.65 104.9 96.65 104 96.65 103.55 96.15 103.1 95.7 103 94.75L107.95 94.75 107.95 93.75Q107.95 92.1 107.05 91.2 106.15 90.3 104.5 90.3M103.5 92.2Q103.9 91.75 104.55 91.75 105.25 91.75 105.6 92.2 106 92.6 106 93.4L103.05 93.4Q103.15 92.6 103.5 92.2M116.95 77.95L116.95 76.95Q116.95 75.3 116.05 74.4 115.15 73.5 113.55 73.5 111.9 73.5 110.9 74.55 109.95 75.55 109.95 77.5 109.95 79.3 110.95 80.4 112.05 81.4 113.85 81.4 114.75 81.4 115.35 81.25 115.85 81.2 116.55 80.85L116.55 79.25 115.25 79.7Q114.65 79.85 113.95 79.85 113.05 79.85 112.55 79.35 112.05 78.75 112.05 77.95L116.95 77.95M112.5 75.4Q112.9 74.95 113.55 74.95 114.25 74.95 114.6 75.4 115 75.8 115 76.6L112.1 76.6Q112.1 75.8 112.5 75.4M92.05 89.5Q92.7 89.5 92.9 89.2 93.2 88.9 93.2 88.45 93.2 87.45 92.05 87.45 90.95 87.45 90.95 88.45 90.95 89.5 92.05 89.5M99.75 90.45L97.6 90.45 97.6 88.8 96.25 88.8 95.65 90.4 94.5 91.1 94.5 92 95.5 92 95.5 95.7Q95.5 96.95 96.1 97.55 96.6 98.2 97.9 98.2 99.1 98.2 99.8 97.85L99.8 96.3Q98.95 96.55 98.5 96.55 98.15 96.55 97.85 96.35 97.6 96.1 97.6 95.7L97.6 92 99.75 92 99.75 90.45M91 90.4L91 98.05 93.1 98.05 93.1 90.4 91 90.4M82.85 90.3Q82.1 90.3 81.55 90.65 80.9 91.15 80.55 91.7L80.45 91.7 80.15 90.45 78.6 90.45 78.6 98.05 80.65 98.05 80.65 94.2Q80.65 93.3 81.25 92.75 81.75 92.25 82.8 92.25L83.4 92.3 83.55 90.35 82.85 90.3M89.4 90.45L87.25 90.45 87.25 88.8 85.9 88.8 85.3 90.4 84.15 91.1 84.15 92 85.15 92 85.15 95.7Q85.15 96.95 85.75 97.55 86.25 98.2 87.55 98.2 88.75 98.2 89.5 97.85L89.5 96.3Q88.6 96.55 88.15 96.55 87.8 96.55 87.5 96.35 87.25 96.1 87.25 95.7L87.25 92 89.4 92 89.4 90.45M100.55 73.95Q99.75 73.5 98.65 73.5 96.9 73.5 95.9 74.5 94.9 75.6 94.9 77.45 94.9 78.65 95.35 79.55 95.8 80.45 96.65 80.9 97.45 81.4 98.6 81.4 100.3 81.4 101.35 80.35 102.3 79.35 102.3 77.45 102.3 76.25 101.85 75.35 101.4 74.45 100.55 73.95M98.6 79.75Q97.8 79.75 97.4 79.15 97.05 78.6 97.05 77.45 97.05 76.25 97.4 75.75 97.8 75.15 98.6 75.15 99.45 75.15 99.8 75.75 100.2 76.3 100.2 77.45 100.2 78.5 99.8 79.15 99.45 79.75 98.6 79.75M90.25 72L89.65 73.6 88.5 74.3 88.5 75.2 89.5 75.2 89.5 78.9Q89.5 80.15 90.1 80.75 90.6 81.4 91.9 81.4 93.1 81.4 93.8 81.05L93.8 79.5Q92.95 79.75 92.5 79.75 92.15 79.75 91.85 79.55 91.6 79.3 91.6 78.9L91.6 75.2 93.75 75.2 93.75 73.65 91.6 73.65 91.6 72 90.25 72M84.9 73.5Q83.4 73.5 82.65 74.05 81.85 74.6 81.85 75.6 81.85 76.1 82.05 76.6 82.3 77.05 82.65 77.35L84.95 78.45 85.45 78.8Q85.6 79.05 85.6 79.2 85.6 79.9 84.45 79.9 84.2 79.9 83.2 79.7L81.9 79.25 81.9 80.95Q82.2 81.1 83 81.3L84.4 81.4Q86.05 81.4 86.85 80.8 87.65 80.2 87.65 79 87.65 78.4 87.45 78 87.3 77.6 86.85 77.3 86.2 76.9 85.55 76.6 84.6 76.25 84.25 76 83.95 75.8 83.95 75.5 83.95 75.05 84.85 75.05L85.9 75.2 86.95 75.6 87.6 74.1Q86.25 73.5 84.9 73.5M82.5 58.75Q82.5 58.25 83.45 58.25L84.45 58.4Q85.15 58.6 85.5 58.8L86.15 57.3Q84.9 56.7 83.45 56.7 81.95 56.7 81.2 57.25 80.45 57.8 80.45 58.8 80.45 59.45 80.6 59.8 80.85 60.25 81.2 60.55L83.5 61.7 84 62Q84.15 62.25 84.15 62.4 84.15 63.1 83.05 63.1 82.75 63.1 81.75 62.9L80.45 62.45 80.45 64.15 81.55 64.5 82.95 64.6Q84.6 64.6 85.4 64 86.25 63.4 86.25 62.2 86.25 61.8 86.05 61.2 85.8 60.75 85.4 60.5 85 60.15 84.1 59.8 83.1 59.4 82.8 59.2 82.5 59 82.5 58.75M95 57.35L95.7 58.75Q97.05 58.2 97.85 58.2 99.05 58.2 99.05 59.35L99.05 59.7 97.75 59.75Q96 59.85 95.15 60.4 94.3 61 94.3 62.2 94.3 63.35 94.95 64 95.55 64.6 96.7 64.6 97.5 64.6 98.15 64.35 98.55 64.15 99.2 63.45L99.25 63.45 99.65 64.45 101.15 64.45 101.15 59.35Q101.15 58.05 100.3 57.35 99.45 56.65 97.95 56.65 96.4 56.65 95 57.35M98.25 60.95L99.05 60.95 99.05 61.55Q99.05 62.3 98.6 62.65 98.25 63.1 97.45 63.1 96.45 63.1 96.45 62.2 96.45 61.6 96.9 61.3 97.45 60.95 98.25 60.95M93 61.2Q92.75 60.8 92.4 60.5 91.85 60.15 91.05 59.8 90.05 59.4 89.75 59.2 89.45 59 89.45 58.75 89.45 58.25 90.4 58.25 90.9 58.25 91.4 58.4 92.1 58.6 92.5 58.8L93.1 57.3Q91.85 56.7 90.4 56.7 88.9 56.7 88.2 57.25 87.4 57.75 87.4 58.8 87.4 59.45 87.6 59.8 87.75 60.25 88.2 60.55 88.5 60.8 89.5 61.2L91 62Q91.15 62.25 91.15 62.4 91.15 63.1 90 63.1 89.7 63.1 88.7 62.9L87.4 62.45 87.4 64.15 88.5 64.5 89.95 64.6Q91.6 64.6 92.35 64 93.2 63.4 93.2 62.2 93.2 61.8 93 61.2M97.4 55.4L97.95 55.65 99 56Q99.8 56 100.3 55.4 100.75 54.95 100.85 53.85L99.85 53.85Q99.75 54.25 99.55 54.4 99.4 54.6 99.15 54.6L98.65 54.5 97.6 54Q97.45 53.9 97.05 53.9 96.25 53.9 95.75 54.45 95.3 55 95.2 56L96.25 56Q96.35 55.65 96.5 55.45 96.8 55.25 96.9 55.25 97.2 55.25 97.4 55.4M121.25 73.5Q119.7 73.5 119 74.05 118.2 74.55 118.2 75.6 118.2 76.25 118.4 76.6 118.55 77.05 119 77.35 119.3 77.6 120.3 78L121.25 78.45 121.8 78.8Q121.95 79.05 121.95 79.2 121.95 79.9 120.8 79.9 120.5 79.9 119.5 79.7L118.2 79.25 118.2 80.95 119.3 81.3 120.75 81.4Q122.4 81.4 123.2 80.8 124 80.15 124 79 124 78.4 123.8 78 123.55 77.6 123.2 77.3 122.65 76.95 121.85 76.6 120.85 76.2 120.55 76 120.25 75.8 120.25 75.5 120.25 75.05 121.2 75.05 121.75 75.05 122.2 75.2 122.9 75.4 123.3 75.6L123.9 74.1Q122.65 73.5 121.25 73.5M105.6 73.65L104.05 73.65 104.05 81.25 106.1 81.25 106.1 77.4Q106.1 76.5 106.7 75.95 107.2 75.45 108.25 75.45L108.85 75.5 109 73.55 108.3 73.5Q107.55 73.5 107 73.85 106.3 74.35 106.05 74.9L105.9 74.9 105.6 73.65M103.8 57.7Q102.8 58.8 102.8 60.65 102.8 61.85 103.25 62.75 103.7 63.65 104.55 64.1 105.35 64.6 106.5 64.6 108.3 64.6 109.25 63.55 110.2 62.55 110.2 60.65 110.2 59.45 109.75 58.55 109.3 57.65 108.5 57.15 107.6 56.7 106.55 56.7 104.8 56.7 103.8 57.7M104.95 60.65Q104.95 59.45 105.3 58.95 105.7 58.35 106.5 58.35 107.35 58.35 107.7 58.95 108.1 59.5 108.1 60.65 108.1 61.7 107.7 62.35 107.4 62.95 106.5 62.95 105.7 62.95 105.3 62.35 104.95 61.8 104.95 60.65Z"/></g><g display="none"><g id="Estadual" transform="matrix(.053 0 0 .053 184.45 75.6)" opacity="1"><animateTransform attributeName="transform" additive="replace" type="translate" dur="1.333s" keyTimes="0;.344;.563;.625;.688;1" values="188.552,79.702;188.552,79.702;188.548,79.648;188.499,79.782;188.5,79.65;188.5,79.65" fill="freeze"/><animateTransform attributeName="transform" additive="sum" type="scale" dur="1.333s" keyTimes="0;.344;.563;.625;.688;1" values=".053,.053;.053,.053;1.026,1.026;.891,.891;1,1;1,1" fill="freeze"/><animateTransform attributeName="transform" additive="sum" type="translate" dur="1.333s" keyTimes="0;.344;.563;.625;.688;1" values="-77.7,-77.7;-77.7,-77.7;-77.65,-77.65;-77.65,-77.8;-77.6,-77.65;-77.6,-77.65" fill="freeze"/><animate attributeName="opacity" dur="1.333s" keyTimes="0;.344;.563;1" values="1;1;.9;.9" fill="freeze"/><path fill="#834E7C" stroke="none" d="M149.05 47.8Q143.15 33.9 132.4 23.15 121.65 12.4 107.75 6.5 93.3 .4 77.5 .4 61.7 .4 47.3 6.5 33.35 12.4 22.65 23.15 11.9 33.9 6 47.8 -.1 62.25 -.1 78.05 -.1 93.85 6 108.25 11.9 122.2 22.65 132.9 33.35 143.65 47.3 149.55 61.7 155.65 77.5 155.65 93.3 155.65 107.75 149.55 121.65 143.65 132.4 132.9 143.15 122.2 149.05 108.25 155.15 93.85 155.15 78.05 155.15 62.25 149.05 47.8M143 50.4Q148.6 63.6 148.6 78.05 148.6 92.5 143 105.7 137.6 118.45 127.75 128.3 117.9 138.1 105.15 143.5 91.95 149.1 77.5 149.1 48.1 149.1 27.3 128.3 17.45 118.45 12.05 105.7 6.45 92.5 6.45 78.05 6.45 63.6 12.05 50.4 17.45 37.65 27.3 27.8 37.1 17.95 49.85 12.55 63.05 6.95 77.5 6.95 91.95 6.95 105.15 12.55 117.9 17.95 127.75 27.8 137.6 37.65 143 50.4M147.6 78.05Q147.6 63.8 142.1 50.8 136.75 38.2 127.05 28.5 106.5 7.95 77.5 7.95 48.55 7.95 28 28.5 18.3 38.2 12.95 50.8 7.45 63.8 7.45 78.05 7.45 107 28 127.55 37.7 137.25 50.25 142.6 63.3 148.1 77.5 148.1 91.75 148.1 104.75 142.6 117.35 137.25 127.05 127.55 147.6 107 147.6 78.05M111.8 61.25L112.95 60.55 113.55 58.95 114.9 58.95 114.9 60.55 117.05 60.55 117.05 62.1 114.9 62.1 114.9 65.8Q114.9 66.25 115.15 66.45 115.4 66.7 115.8 66.7 116.35 66.7 117.15 66.45L117.15 68Q116.35 68.35 115.2 68.35 113.95 68.35 113.4 67.7 112.8 67.05 112.8 65.8L112.8 62.1 111.8 62.1 111.8 61.25M103.4 60.55L105 60.55 105.25 61.55 105.4 61.55Q105.75 61 106.35 60.7 106.95 60.4 107.75 60.4 109.05 60.4 109.75 61.15 110.45 61.85 110.45 63.2L110.45 68.2 108.35 68.2 108.35 63.75Q108.35 62.9 108.05 62.5 107.8 62.1 107.15 62.1 106.25 62.1 105.85 62.65 105.5 63.25 105.5 64.6L105.5 68.2 103.4 68.2 103.4 60.55M101.25 63.1L101.25 68.2 99.8 68.2 99.4 67.15 99.35 67.15Q98.8 67.8 98.25 68.1 97.7 68.35 96.8 68.35 95.7 68.35 95.05 67.7 94.45 67.1 94.45 65.9 94.45 64.7 95.3 64.15 96.15 63.55 97.85 63.5L99.2 63.45 99.2 63.1Q99.2 61.95 98 61.95 97.1 61.95 95.85 62.5L95.15 61.1Q96.45 60.4 98.05 60.4 99.6 60.4 100.45 61.05 101.25 61.75 101.25 63.1M119.25 67.3Q118.25 66.3 118.25 64.45 118.25 62.5 119.2 61.45 120.15 60.4 121.85 60.4 123.45 60.4 124.35 61.35 125.25 62.25 125.25 63.9L125.25 64.9 120.35 64.9Q120.4 65.8 120.85 66.3 121.35 66.8 122.25 66.8 122.95 66.8 123.55 66.65 124.15 66.5 124.85 66.2L124.85 67.8Q124.3 68.05 123.65 68.2 123.05 68.35 122.15 68.35 120.3 68.35 119.25 67.3M91.15 60.55L93.3 60.55 93.3 62.1 91.15 62.1 91.15 65.8Q91.15 66.25 91.4 66.45 91.65 66.7 92.05 66.7 92.6 66.7 93.4 66.45L93.4 68Q92.6 68.35 91.45 68.35 90.2 68.35 89.65 67.7 89.05 67.05 89.05 65.8L89.05 62.1 88.05 62.1 88.05 61.25 89.2 60.55 89.8 58.95 91.15 58.95 91.15 60.55M81.25 60.55L81.5 61.55 81.65 61.55Q82 61 82.6 60.7 83.2 60.4 84 60.4 85.3 60.4 86 61.15 86.7 61.85 86.7 63.2L86.7 68.2 84.6 68.2 84.6 63.75Q84.6 62.9 84.3 62.5 84.05 62.1 83.4 62.1 82.5 62.1 82.1 62.65 81.75 63.25 81.75 64.6L81.75 68.2 79.65 68.2 79.65 60.55 81.25 60.55M100.4 78.75Q99.5 78.75 98.25 79.3L97.55 77.9Q98.85 77.2 100.45 77.2 102 77.2 102.85 77.85 103.65 78.55 103.65 79.9L103.65 85 102.2 85 101.8 83.95 101.75 83.95Q101.2 84.6 100.65 84.9 100.1 85.15 99.2 85.15 98.1 85.15 97.45 84.5 96.85 83.9 96.85 82.7 96.85 81.5 97.7 80.95 98.55 80.35 100.25 80.3L101.6 80.25 101.6 79.9Q101.6 78.75 100.4 78.75M93.55 77.35L95.7 77.35 95.7 78.9 93.55 78.9 93.55 82.6Q93.55 83.05 93.8 83.25 94.05 83.5 94.45 83.5 95 83.5 95.8 83.25L95.8 84.8Q95 85.15 93.85 85.15 92.6 85.15 92.05 84.5 91.45 83.85 91.45 82.6L91.45 78.9 90.45 78.9 90.45 78.05 91.6 77.35 92.2 75.75 93.55 75.75 93.55 77.35M86.15 77.2Q87.75 77.2 88.65 78.15 89.55 79.05 89.55 80.7L89.55 81.7 84.65 81.7Q84.7 82.6 85.15 83.1 85.65 83.6 86.55 83.6 87.25 83.6 87.85 83.45 88.45 83.3 89.15 83L89.15 84.6Q88.6 84.85 87.95 85 87.35 85.15 86.45 85.15 84.6 85.15 83.55 84.1 82.55 83.1 82.55 81.25 82.55 79.3 83.5 78.25 84.45 77.2 86.15 77.2M81.6 77.3L81.45 79.25Q81.2 79.15 80.85 79.15 79.85 79.15 79.3 79.65 78.75 80.2 78.75 81.1L78.75 85 76.65 85 76.65 77.35 78.2 77.35 78.55 78.65 78.65 78.65Q79 78 79.6 77.6 80.2 77.2 80.9 77.2 81.35 77.2 81.6 77.3M81.3 97.75L81.3 94.15 83.4 94.15 83.4 101.8 81.8 101.8 81.55 100.8 81.4 100.8Q81.1 101.35 80.45 101.65 79.85 101.95 79.05 101.95 77.7 101.95 77.05 101.2 76.35 100.5 76.35 99.15L76.35 94.15 78.45 94.15 78.45 98.6Q78.45 99.45 78.75 99.85 79.05 100.3 79.65 100.3 80.55 100.3 80.95 99.7 81.3 99.1 81.3 97.75M89.85 96.7Q89.85 95.55 88.65 95.55 87.75 95.55 86.5 96.1L85.8 94.7Q87.1 94 88.7 94 90.25 94 91.1 94.65 91.9 95.35 91.9 96.7L91.9 101.8 90.45 101.8 90.05 100.75 90 100.75Q89.45 101.4 88.9 101.7 88.35 101.95 87.45 101.95 86.35 101.95 85.7 101.3 85.1 100.7 85.1 99.5 85.1 98.3 85.95 97.75 86.8 97.15 88.5 97.1L89.85 97.05 89.85 96.7M94.05 91.15L96.15 91.15 96.15 101.8 94.05 101.8 94.05 91.15M119.3 80.3L120.65 80.25 120.65 79.9Q120.65 78.75 119.45 78.75 118.55 78.75 117.3 79.3L116.6 77.9Q117.9 77.2 119.5 77.2 121.05 77.2 121.9 77.85 122.7 78.55 122.7 79.9L122.7 85 121.25 85 120.85 83.95 120.8 83.95Q120.25 84.6 119.7 84.9 119.15 85.15 118.25 85.15 117.15 85.15 116.5 84.5 115.9 83.9 115.9 82.7 115.9 81.5 116.75 80.95 117.6 80.35 119.3 80.3M112.15 77.35L114.25 77.35 114.25 85 112.15 85 112.15 77.35M112.05 75.4Q112.05 74.35 113.2 74.35 114.3 74.35 114.3 75.4 114.3 75.85 114.05 76.15 113.75 76.4 113.2 76.4 112.05 76.4 112.05 75.4M110.75 77.3L110.6 79.25Q110.35 79.15 110 79.15 109 79.15 108.45 79.65 107.9 80.2 107.9 81.1L107.9 85 105.8 85 105.8 77.35 107.35 77.35 107.7 78.65 107.8 78.65Q108.15 78 108.75 77.6 109.35 77.2 110.05 77.2 110.5 77.2 110.75 77.3M106.55 91.15L108.6 91.15 108.6 101.8 107 101.8 106.6 100.8 106.55 100.8Q105.8 101.95 104.35 101.95 103 101.95 102.25 100.9 101.5 99.85 101.5 98 101.5 96.1 102.25 95.05 103.05 94 104.4 94 105.85 94 106.6 95.15L106.7 95.15Q106.55 94.3 106.55 93.6L106.55 91.15M115.05 97.05L115.05 96.7Q115.05 95.55 113.85 95.55 112.95 95.55 111.7 96.1L111 94.7Q112.3 94 113.9 94 115.45 94 116.3 94.65 117.1 95.35 117.1 96.7L117.1 101.8 115.65 101.8 115.25 100.75 115.2 100.75Q114.65 101.4 114.1 101.7 113.55 101.95 112.65 101.95 111.55 101.95 110.9 101.3 110.3 100.7 110.3 99.5 110.3 98.3 111.15 97.75 112 97.15 113.7 97.1L115.05 97.05M127.25 60.95Q128.05 60.4 129.5 60.4 130.9 60.4 132.2 61L131.55 62.5Q131 62.25 130.5 62.1 130 61.95 129.45 61.95 128.55 61.95 128.55 62.45 128.55 62.75 128.85 62.95 129.15 63.15 130.15 63.55 131.05 63.9 131.45 64.25 131.9 64.55 132.1 64.95 132.3 65.35 132.3 65.95 132.3 67.1 131.45 67.7 130.65 68.35 129 68.35 128.2 68.35 127.6 68.25 127 68.1 126.5 67.9L126.5 66.15Q127.05 66.45 127.8 66.65 128.55 66.8 129.1 66.8 130.2 66.8 130.2 66.15 130.2 65.9 130.05 65.75 129.9 65.6 129.55 65.4 129.2 65.2 128.55 64.95 127.7 64.6 127.25 64.25 126.85 63.95 126.65 63.55 126.5 63.15 126.5 62.55 126.5 61.55 127.25 60.95M33.25 61.45Q34.2 60.4 35.9 60.4 37.5 60.4 38.4 61.35 39.3 62.25 39.3 63.9L39.3 64.9 34.4 64.9Q34.45 65.8 34.9 66.3 35.4 66.8 36.3 66.8 37 66.8 37.6 66.65 38.2 66.5 38.9 66.2L38.9 67.8Q38.35 68.05 37.7 68.2 37.1 68.35 36.2 68.35 34.35 68.35 33.3 67.3 32.3 66.3 32.3 64.45 32.3 62.5 33.25 61.45M26.55 58.2Q28.6 58.2 29.6 58.95 30.55 59.7 30.55 61.2 30.55 62.1 30.1 62.75 29.6 63.45 28.7 63.85 30.95 67.2 31.65 68.2L29.3 68.2 26.9 64.35 25.8 64.35 25.8 68.2 23.65 68.2 23.65 58.2 26.55 58.2M37.2 78.35L37.3 78.35Q37.15 77.5 37.15 76.8L37.15 74.35 39.2 74.35 39.2 85 37.6 85 37.2 84 37.15 84Q36.4 85.15 34.95 85.15 33.6 85.15 32.85 84.1 32.1 83.05 32.1 81.2 32.1 79.3 32.85 78.25 33.65 77.2 35 77.2 36.45 77.2 37.2 78.35M74.55 60.4Q76.15 60.4 77.05 61.35 77.95 62.25 77.95 63.9L77.95 64.9 73.05 64.9Q73.1 65.8 73.55 66.3 74.05 66.8 74.95 66.8 75.65 66.8 76.25 66.65 76.85 66.5 77.55 66.2L77.55 67.8Q77 68.05 76.35 68.2 75.75 68.35 74.85 68.35 73 68.35 71.95 67.3 70.95 66.3 70.95 64.45 70.95 62.5 71.9 61.45 72.85 60.4 74.55 60.4M64.75 60.95Q65.55 60.4 67 60.4 68.4 60.4 69.7 61L69.05 62.5Q68.5 62.25 68 62.1 67.5 61.95 66.95 61.95 66.05 61.95 66.05 62.45 66.05 62.75 66.35 62.95 66.65 63.15 67.65 63.55 68.55 63.9 68.95 64.25 69.4 64.55 69.6 64.95 69.8 65.35 69.8 65.95 69.8 67.1 68.95 67.7 68.15 68.35 66.5 68.35 65.7 68.35 65.1 68.25 64.5 68.1 64 67.9L64 66.15Q64.55 66.45 65.3 66.65 66.05 66.8 66.6 66.8 67.7 66.8 67.7 66.15 67.7 65.9 67.55 65.75 67.4 65.6 67.05 65.4 66.7 65.2 66.05 64.95 65.2 64.6 64.75 64.25 64.35 63.95 64.15 63.55 64 63.15 64 62.55 64 61.55 64.75 60.95M61.05 66.65Q61.65 66.5 62.35 66.2L62.35 67.8Q61.8 68.05 61.15 68.2 60.55 68.35 59.65 68.35 57.8 68.35 56.75 67.3 55.75 66.3 55.75 64.45 55.75 62.5 56.7 61.45 57.65 60.4 59.35 60.4 60.95 60.4 61.85 61.35 62.75 62.25 62.75 63.9L62.75 64.9 57.85 64.9Q57.9 65.8 58.35 66.3 58.85 66.8 59.75 66.8 60.45 66.8 61.05 66.65M52.8 60.8Q53.4 60.4 54.1 60.4 54.55 60.4 54.8 60.5L54.65 62.45Q54.4 62.35 54.05 62.35 53.05 62.35 52.5 62.85 51.95 63.4 51.95 64.3L51.95 68.2 49.85 68.2 49.85 60.55 51.4 60.55 51.75 61.85 51.85 61.85Q52.2 61.2 52.8 60.8M42.7 60.55L43 61.55 43.1 61.55Q43.8 60.4 45.25 60.4 46.6 60.4 47.35 61.45 48.15 62.5 48.15 64.35 48.15 65.6 47.8 66.5 47.4 67.4 46.75 67.85 46.1 68.35 45.2 68.35 43.85 68.35 43.1 67.35L42.95 67.35Q43.1 68.3 43.1 68.45L43.1 71.55 41 71.55 41 60.55 42.7 60.55M58.85 77.2Q58.05 76.9 57.5 76.75 57 76.65 56.45 76.65 55.85 76.65 55.55 76.9 55.25 77.2 55.25 77.65 55.25 77.9 55.35 78.15 55.5 78.35 55.8 78.55 56.05 78.7 57.1 79.25 58.5 79.9 59.05 80.6 59.55 81.25 59.55 82.2 59.55 83.6 58.6 84.35 57.6 85.15 55.85 85.15 54.25 85.15 53.05 84.55L53.05 82.55Q54.05 83 54.75 83.2 55.45 83.4 56.05 83.4 56.75 83.4 57.1 83.1 57.5 82.85 57.5 82.35 57.5 82.05 57.3 81.8 57.15 81.6 56.85 81.35 56.5 81.15 55.55 80.7 54.6 80.25 54.15 79.85 53.7 79.45 53.45 78.95 53.15 78.4 53.15 77.7 53.15 76.4 54.05 75.6 54.95 74.85 56.55 74.85 57.3 74.85 58.05 75.05 58.75 75.25 59.5 75.55L58.85 77.2M46.9 77.85Q47.7 78.55 47.7 79.9L47.7 85 46.25 85 45.85 83.95 45.8 83.95Q45.25 84.6 44.7 84.9 44.15 85.15 43.25 85.15 42.15 85.15 41.5 84.5 40.9 83.9 40.9 82.7 40.9 81.5 41.75 80.95 42.6 80.35 44.3 80.3L45.65 80.25 45.65 79.9Q45.65 78.75 44.45 78.75 43.55 78.75 42.3 79.3L41.6 77.9Q42.9 77.2 44.5 77.2 46.05 77.2 46.9 77.85M44.1 93.55L40.5 93.55 40.5 95.75 43.85 95.75 43.85 97.45 40.5 97.45 40.5 100.05 44.1 100.05 44.1 101.8 38.35 101.8 38.35 91.8 44.1 91.8 44.1 93.55M49.6 95.7Q49.1 95.55 48.55 95.55 47.65 95.55 47.65 96.05 47.65 96.35 47.95 96.55 48.25 96.75 49.25 97.15 50.15 97.5 50.55 97.85 51 98.15 51.2 98.55 51.4 98.95 51.4 99.55 51.4 100.7 50.55 101.3 49.75 101.95 48.1 101.95 47.3 101.95 46.7 101.85 46.1 101.7 45.6 101.5L45.6 99.75Q46.15 100.05 46.9 100.25 47.65 100.4 48.2 100.4 49.3 100.4 49.3 99.75 49.3 99.5 49.15 99.35 49 99.2 48.65 99 48.3 98.8 47.65 98.55 46.8 98.2 46.35 97.85 45.95 97.55 45.75 97.15 45.6 96.75 45.6 96.15 45.6 95.15 46.35 94.55 47.15 94 48.6 94 50 94 51.3 94.6L50.65 96.1Q50.1 95.85 49.6 95.7M53.95 92.55L55.3 92.55 55.3 94.15 57.45 94.15 57.45 95.7 55.3 95.7 55.3 99.4Q55.3 99.85 55.55 100.05 55.8 100.3 56.2 100.3 56.75 100.3 57.55 100.05L57.55 101.6Q56.75 101.95 55.6 101.95 54.35 101.95 53.8 101.3 53.2 100.65 53.2 99.4L53.2 95.7 52.2 95.7 52.2 94.85 53.35 94.15 53.95 92.55M60 96.1L59.3 94.7Q60.6 94 62.2 94 63.75 94 64.6 94.65 65.4 95.35 65.4 96.7L65.4 101.8 63.95 101.8 63.55 100.75 63.5 100.75Q62.95 101.4 62.4 101.7 61.85 101.95 60.95 101.95 59.85 101.95 59.2 101.3 58.6 100.7 58.6 99.5 58.6 98.3 59.45 97.75 60.3 97.15 62 97.1L63.35 97.05 63.35 96.7Q63.35 95.55 62.15 95.55 61.25 95.55 60 96.1M72.75 77.2Q74.05 77.2 75.1 77.75L74.5 79.35Q74 79.15 73.6 79.05 73.15 78.9 72.75 78.9 71.1 78.9 71.1 81.2 71.1 83.45 72.75 83.45 73.35 83.45 73.85 83.3 74.35 83.15 74.85 82.8L74.85 84.55Q74.35 84.9 73.85 85 73.35 85.15 72.55 85.15 69 85.15 69 81.2 69 79.25 69.95 78.25 70.9 77.2 72.75 77.2M61.7 78.25Q62.65 77.2 64.35 77.2 65.95 77.2 66.85 78.15 67.75 79.05 67.75 80.7L67.75 81.7 62.85 81.7Q62.9 82.6 63.35 83.1 63.85 83.6 64.75 83.6 65.45 83.6 66.05 83.45 66.65 83.3 67.35 83L67.35 84.6Q66.8 84.85 66.15 85 65.55 85.15 64.65 85.15 62.8 85.15 61.75 84.1 60.75 83.1 60.75 81.25 60.75 79.3 61.7 78.25M67.85 95.05Q68.65 94 70 94 71.45 94 72.2 95.15L72.3 95.15Q72.15 94.3 72.15 93.6L72.15 91.15 74.2 91.15 74.2 101.8 72.6 101.8 72.2 100.8 72.15 100.8Q71.4 101.95 69.95 101.95 68.6 101.95 67.85 100.9 67.1 99.85 67.1 98 67.1 96.1 67.85 95.05M73.6 110.95L75.7 110.95 75.7 115.4Q75.7 116.25 76 116.65 76.3 117.1 76.9 117.1 77.8 117.1 78.2 116.5 78.55 115.9 78.55 114.55L78.55 110.95 80.65 110.95 80.65 118.6 79.05 118.6 78.8 117.6 78.65 117.6Q78.35 118.15 77.7 118.45 77.1 118.75 76.3 118.75 74.95 118.75 74.3 118 73.6 117.3 73.6 115.95L73.6 110.95M75.95 109.95Q77.15 108.55 77.55 107.85L79.9 107.85 79.9 108Q79.55 108.35 78.7 109.1 77.85 109.75 77.35 110.1L75.95 110.1 75.95 109.95M62.85 110.8Q62.05 110.5 61.5 110.35 61 110.25 60.45 110.25 59.85 110.25 59.55 110.5 59.25 110.8 59.25 111.25 59.25 111.5 59.35 111.75 59.5 111.95 59.8 112.15 60.05 112.3 61.1 112.85 62.5 113.5 63.05 114.2 63.55 114.85 63.55 115.8 63.55 117.2 62.6 117.95 61.6 118.75 59.85 118.75 58.25 118.75 57.05 118.15L57.05 116.15Q58.05 116.6 58.75 116.8 59.45 117 60.05 117 60.75 117 61.1 116.7 61.5 116.45 61.5 115.95 61.5 115.65 61.3 115.4 61.15 115.2 60.85 114.95 60.5 114.75 59.55 114.3 58.6 113.85 58.15 113.45 57.7 113.05 57.45 112.55 57.15 112 57.15 111.3 57.15 110 58.05 109.2 58.95 108.45 60.55 108.45 61.3 108.45 62.05 108.65 62.75 108.85 63.5 109.15L62.85 110.8M69.45 113.85L69.45 113.5Q69.45 112.35 68.25 112.35 67.35 112.35 66.1 112.9L65.4 111.5Q66.7 110.8 68.3 110.8 69.85 110.8 70.7 111.45 71.5 112.15 71.5 113.5L71.5 118.6 70.05 118.6 69.65 117.55 69.6 117.55Q69.05 118.2 68.5 118.5 67.95 118.75 67.05 118.75 65.95 118.75 65.3 118.1 64.7 117.5 64.7 116.3 64.7 115.1 65.55 114.55 66.4 113.95 68.1 113.9L69.45 113.85M87.45 110.4L87.45 107.95 89.5 107.95 89.5 118.6 87.9 118.6 87.5 117.6 87.45 117.6Q86.7 118.75 85.25 118.75 83.9 118.75 83.15 117.7 82.4 116.65 82.4 114.8 82.4 112.9 83.15 111.85 83.95 110.8 85.3 110.8 86.75 110.8 87.5 111.95L87.6 111.95Q87.45 111.1 87.45 110.4M96.55 117.05Q97.15 116.9 97.85 116.6L97.85 118.2Q97.3 118.45 96.65 118.6 96.05 118.75 95.15 118.75 93.3 118.75 92.25 117.7 91.25 116.7 91.25 114.85 91.25 112.9 92.2 111.85 93.15 110.8 94.85 110.8 96.45 110.8 97.35 111.75 98.25 112.65 98.25 114.3L98.25 115.3 93.35 115.3Q93.4 116.2 93.85 116.7 94.35 117.2 95.25 117.2 95.95 117.2 96.55 117.05M93.8 112.7Q93.45 113.15 93.4 113.9L96.3 113.9Q96.3 113.15 95.9 112.7 95.5 112.3 94.85 112.3 94.2 112.3 93.8 112.7M87.55 114.8Q87.55 113.6 87.2 113.05 86.8 112.5 85.95 112.5 85.25 112.5 84.9 113.1 84.5 113.7 84.5 114.8 84.5 115.95 84.9 116.5 85.25 117.1 86 117.1 86.8 117.1 87.15 116.6 87.55 116.15 87.55 115.05L87.55 114.8M66.85 116.35Q66.85 117.2 67.85 117.2 68.55 117.2 69 116.8 69.45 116.4 69.45 115.7L69.45 115.05 68.65 115.1Q67.7 115.1 67.25 115.4 66.85 115.7 66.85 116.35M70.65 95.7Q69.95 95.7 69.6 96.3 69.2 96.9 69.2 98 69.2 99.15 69.6 99.7 69.95 100.3 70.7 100.3 71.5 100.3 71.85 99.8 72.25 99.35 72.25 98.25L72.25 98Q72.25 96.8 71.9 96.25 71.5 95.7 70.65 95.7M65.8 80.3Q65.8 79.55 65.4 79.1 65 78.7 64.35 78.7 63.7 78.7 63.3 79.1 62.95 79.55 62.9 80.3L65.8 80.3M62.55 98.3Q61.6 98.3 61.15 98.6 60.75 98.9 60.75 99.55 60.75 100.4 61.75 100.4 62.45 100.4 62.9 100 63.35 99.6 63.35 98.9L63.35 98.25 62.55 98.3M44.85 81.5Q43.9 81.5 43.45 81.8 43.05 82.1 43.05 82.75 43.05 83.6 44.05 83.6 44.75 83.6 45.2 83.2 45.65 82.8 45.65 82.1L45.65 81.45 44.85 81.5M46 64.35Q46 63.2 45.65 62.65 45.3 62.1 44.6 62.1 43.8 62.1 43.45 62.55 43.1 63.05 43.1 64.15L43.1 64.35Q43.1 65.6 43.45 66.1 43.8 66.65 44.6 66.65 46 66.65 46 64.35M58.3 62.3Q57.95 62.75 57.9 63.5L60.8 63.5Q60.8 62.75 60.4 62.3 60 61.9 59.35 61.9 58.7 61.9 58.3 62.3M73.5 62.3Q73.15 62.75 73.1 63.5L76 63.5Q76 62.75 75.6 62.3 75.2 61.9 74.55 61.9 73.9 61.9 73.5 62.3M36.9 79.45Q36.5 78.9 35.65 78.9 34.95 78.9 34.6 79.5 34.2 80.1 34.2 81.2 34.2 82.35 34.6 82.9 34.95 83.5 35.7 83.5 36.5 83.5 36.85 83 37.25 82.55 37.25 81.45L37.25 81.2Q37.25 80 36.9 79.45M28.4 61.25Q28.4 60.55 27.95 60.25 27.45 59.95 26.4 59.95L25.8 59.95 25.8 62.65 26.45 62.65Q27.45 62.65 27.95 62.3 28.4 61.95 28.4 61.25M36.95 62.3Q36.55 61.9 35.9 61.9 35.25 61.9 34.85 62.3 34.5 62.75 34.45 63.5L37.35 63.5Q37.35 62.75 36.95 62.3M115.05 98.25L114.25 98.3Q113.3 98.3 112.85 98.6 112.45 98.9 112.45 99.55 112.45 100.4 113.45 100.4 114.15 100.4 114.6 100 115.05 99.6 115.05 98.9L115.05 98.25M104 96.3Q103.6 96.9 103.6 98 103.6 99.15 104 99.7 104.35 100.3 105.1 100.3 105.9 100.3 106.25 99.8 106.65 99.35 106.65 98.25L106.65 98Q106.65 96.8 106.3 96.25 105.9 95.7 105.05 95.7 104.35 95.7 104 96.3M120.65 82.1L120.65 81.45 119.85 81.5Q118.9 81.5 118.45 81.8 118.05 82.1 118.05 82.75 118.05 83.6 119.05 83.6 119.75 83.6 120.2 83.2 120.65 82.8 120.65 82.1M89.85 98.9L89.85 98.25 89.05 98.3Q88.1 98.3 87.65 98.6 87.25 98.9 87.25 99.55 87.25 100.4 88.25 100.4 88.95 100.4 89.4 100 89.85 99.6 89.85 98.9M87.6 80.3Q87.6 79.55 87.2 79.1 86.8 78.7 86.15 78.7 85.5 78.7 85.1 79.1 84.75 79.55 84.7 80.3L87.6 80.3M100.8 81.5Q99.85 81.5 99.4 81.8 99 82.1 99 82.75 99 83.6 100 83.6 100.7 83.6 101.15 83.2 101.6 82.8 101.6 82.1L101.6 81.45 100.8 81.5M120.8 62.3Q120.45 62.75 120.4 63.5L123.3 63.5Q123.3 62.75 122.9 62.3 122.5 61.9 121.85 61.9 121.2 61.9 120.8 62.3M96.6 65.95Q96.6 66.8 97.6 66.8 98.3 66.8 98.75 66.4 99.2 66 99.2 65.3L99.2 64.65 98.4 64.7Q97.45 64.7 97 65 96.6 65.3 96.6 65.95Z"/><path fill="#FFF" stroke="none" d="M148.6 78.05Q148.6 63.6 143 50.4 137.6 37.65 127.75 27.8 117.9 17.95 105.15 12.55 91.95 6.95 77.5 6.95 63.05 6.95 49.85 12.55 37.1 17.95 27.3 27.8 17.45 37.65 12.05 50.4 6.45 63.6 6.45 78.05 6.45 92.5 12.05 105.7 17.45 118.45 27.3 128.3 48.1 149.1 77.5 149.1 91.95 149.1 105.15 143.5 117.9 138.1 127.75 128.3 137.6 118.45 143 105.7 148.6 92.5 148.6 78.05M142.1 50.8Q147.6 63.8 147.6 78.05 147.6 107 127.05 127.55 117.35 137.25 104.75 142.6 91.75 148.1 77.5 148.1 63.3 148.1 50.25 142.6 37.7 137.25 28 127.55 7.45 107 7.45 78.05 7.45 63.8 12.95 50.8 18.3 38.2 28 28.5 48.55 7.95 77.5 7.95 106.5 7.95 127.05 28.5 136.75 38.2 142.1 50.8M97.85 116.6Q97.15 116.9 96.55 117.05 95.95 117.2 95.25 117.2 94.35 117.2 93.85 116.7 93.4 116.2 93.35 115.3L98.25 115.3 98.25 114.3Q98.25 112.65 97.35 111.75 96.45 110.8 94.85 110.8 93.15 110.8 92.2 111.85 91.25 112.9 91.25 114.85 91.25 116.7 92.25 117.7 93.3 118.75 95.15 118.75 96.05 118.75 96.65 118.6 97.3 118.45 97.85 118.2L97.85 116.6M93.4 113.9Q93.45 113.15 93.8 112.7 94.2 112.3 94.85 112.3 95.5 112.3 95.9 112.7 96.3 113.15 96.3 113.9L93.4 113.9M87.45 107.95L87.45 110.4Q87.45 111.1 87.6 111.95L87.5 111.95Q86.75 110.8 85.3 110.8 83.95 110.8 83.15 111.85 82.4 112.9 82.4 114.8 82.4 116.65 83.15 117.7 83.9 118.75 85.25 118.75 86.7 118.75 87.45 117.6L87.5 117.6 87.9 118.6 89.5 118.6 89.5 107.95 87.45 107.95M87.2 113.05Q87.55 113.6 87.55 114.8L87.55 115.05Q87.55 116.15 87.15 116.6 86.8 117.1 86 117.1 85.25 117.1 84.9 116.5 84.5 115.95 84.5 114.8 84.5 113.7 84.9 113.1 85.25 112.5 85.95 112.5 86.8 112.5 87.2 113.05M69.45 113.5L69.45 113.85 68.1 113.9Q66.4 113.95 65.55 114.55 64.7 115.1 64.7 116.3 64.7 117.5 65.3 118.1 65.95 118.75 67.05 118.75 67.95 118.75 68.5 118.5 69.05 118.2 69.6 117.55L69.65 117.55 70.05 118.6 71.5 118.6 71.5 113.5Q71.5 112.15 70.7 111.45 69.85 110.8 68.3 110.8 66.7 110.8 65.4 111.5L66.1 112.9Q67.35 112.35 68.25 112.35 69.45 112.35 69.45 113.5M67.85 117.2Q66.85 117.2 66.85 116.35 66.85 115.7 67.25 115.4 67.7 115.1 68.65 115.1L69.45 115.05 69.45 115.7Q69.45 116.4 69 116.8 68.55 117.2 67.85 117.2M61.5 110.35Q62.05 110.5 62.85 110.8L63.5 109.15Q62.75 108.85 62.05 108.65 61.3 108.45 60.55 108.45 58.95 108.45 58.05 109.2 57.15 110 57.15 111.3 57.15 112 57.45 112.55 57.7 113.05 58.15 113.45 58.6 113.85 59.55 114.3 60.5 114.75 60.85 114.95 61.15 115.2 61.3 115.4 61.5 115.65 61.5 115.95 61.5 116.45 61.1 116.7 60.75 117 60.05 117 59.45 117 58.75 116.8 58.05 116.6 57.05 116.15L57.05 118.15Q58.25 118.75 59.85 118.75 61.6 118.75 62.6 117.95 63.55 117.2 63.55 115.8 63.55 114.85 63.05 114.2 62.5 113.5 61.1 112.85 60.05 112.3 59.8 112.15 59.5 111.95 59.35 111.75 59.25 111.5 59.25 111.25 59.25 110.8 59.55 110.5 59.85 110.25 60.45 110.25 61 110.25 61.5 110.35M77.55 107.85Q77.15 108.55 75.95 109.95L75.95 110.1 77.35 110.1Q77.85 109.75 78.7 109.1 79.55 108.35 79.9 108L79.9 107.85 77.55 107.85M75.7 110.95L73.6 110.95 73.6 115.95Q73.6 117.3 74.3 118 74.95 118.75 76.3 118.75 77.1 118.75 77.7 118.45 78.35 118.15 78.65 117.6L78.8 117.6 79.05 118.6 80.65 118.6 80.65 110.95 78.55 110.95 78.55 114.55Q78.55 115.9 78.2 116.5 77.8 117.1 76.9 117.1 76.3 117.1 76 116.65 75.7 116.25 75.7 115.4L75.7 110.95M70 94Q68.65 94 67.85 95.05 67.1 96.1 67.1 98 67.1 99.85 67.85 100.9 68.6 101.95 69.95 101.95 71.4 101.95 72.15 100.8L72.2 100.8 72.6 101.8 74.2 101.8 74.2 91.15 72.15 91.15 72.15 93.6Q72.15 94.3 72.3 95.15L72.2 95.15Q71.45 94 70 94M69.6 96.3Q69.95 95.7 70.65 95.7 71.5 95.7 71.9 96.25 72.25 96.8 72.25 98L72.25 98.25Q72.25 99.35 71.85 99.8 71.5 100.3 70.7 100.3 69.95 100.3 69.6 99.7 69.2 99.15 69.2 98 69.2 96.9 69.6 96.3M64.35 77.2Q62.65 77.2 61.7 78.25 60.75 79.3 60.75 81.25 60.75 83.1 61.75 84.1 62.8 85.15 64.65 85.15 65.55 85.15 66.15 85 66.8 84.85 67.35 84.6L67.35 83Q66.65 83.3 66.05 83.45 65.45 83.6 64.75 83.6 63.85 83.6 63.35 83.1 62.9 82.6 62.85 81.7L67.75 81.7 67.75 80.7Q67.75 79.05 66.85 78.15 65.95 77.2 64.35 77.2M65.4 79.1Q65.8 79.55 65.8 80.3L62.9 80.3Q62.95 79.55 63.3 79.1 63.7 78.7 64.35 78.7 65 78.7 65.4 79.1M75.1 77.75Q74.05 77.2 72.75 77.2 70.9 77.2 69.95 78.25 69 79.25 69 81.2 69 85.15 72.55 85.15 73.35 85.15 73.85 85 74.35 84.9 74.85 84.55L74.85 82.8Q74.35 83.15 73.85 83.3 73.35 83.45 72.75 83.45 71.1 83.45 71.1 81.2 71.1 78.9 72.75 78.9 73.15 78.9 73.6 79.05 74 79.15 74.5 79.35L75.1 77.75M59.3 94.7L60 96.1Q61.25 95.55 62.15 95.55 63.35 95.55 63.35 96.7L63.35 97.05 62 97.1Q60.3 97.15 59.45 97.75 58.6 98.3 58.6 99.5 58.6 100.7 59.2 101.3 59.85 101.95 60.95 101.95 61.85 101.95 62.4 101.7 62.95 101.4 63.5 100.75L63.55 100.75 63.95 101.8 65.4 101.8 65.4 96.7Q65.4 95.35 64.6 94.65 63.75 94 62.2 94 60.6 94 59.3 94.7M61.15 98.6Q61.6 98.3 62.55 98.3L63.35 98.25 63.35 98.9Q63.35 99.6 62.9 100 62.45 100.4 61.75 100.4 60.75 100.4 60.75 99.55 60.75 98.9 61.15 98.6M55.3 92.55L53.95 92.55 53.35 94.15 52.2 94.85 52.2 95.7 53.2 95.7 53.2 99.4Q53.2 100.65 53.8 101.3 54.35 101.95 55.6 101.95 56.75 101.95 57.55 101.6L57.55 100.05Q56.75 100.3 56.2 100.3 55.8 100.3 55.55 100.05 55.3 99.85 55.3 99.4L55.3 95.7 57.45 95.7 57.45 94.15 55.3 94.15 55.3 92.55M48.55 95.55Q49.1 95.55 49.6 95.7 50.1 95.85 50.65 96.1L51.3 94.6Q50 94 48.6 94 47.15 94 46.35 94.55 45.6 95.15 45.6 96.15 45.6 96.75 45.75 97.15 45.95 97.55 46.35 97.85 46.8 98.2 47.65 98.55 48.3 98.8 48.65 99 49 99.2 49.15 99.35 49.3 99.5 49.3 99.75 49.3 100.4 48.2 100.4 47.65 100.4 46.9 100.25 46.15 100.05 45.6 99.75L45.6 101.5Q46.1 101.7 46.7 101.85 47.3 101.95 48.1 101.95 49.75 101.95 50.55 101.3 51.4 100.7 51.4 99.55 51.4 98.95 51.2 98.55 51 98.15 50.55 97.85 50.15 97.5 49.25 97.15 48.25 96.75 47.95 96.55 47.65 96.35 47.65 96.05 47.65 95.55 48.55 95.55M40.5 93.55L44.1 93.55 44.1 91.8 38.35 91.8 38.35 101.8 44.1 101.8 44.1 100.05 40.5 100.05 40.5 97.45 43.85 97.45 43.85 95.75 40.5 95.75 40.5 93.55M47.7 79.9Q47.7 78.55 46.9 77.85 46.05 77.2 44.5 77.2 42.9 77.2 41.6 77.9L42.3 79.3Q43.55 78.75 44.45 78.75 45.65 78.75 45.65 79.9L45.65 80.25 44.3 80.3Q42.6 80.35 41.75 80.95 40.9 81.5 40.9 82.7 40.9 83.9 41.5 84.5 42.15 85.15 43.25 85.15 44.15 85.15 44.7 84.9 45.25 84.6 45.8 83.95L45.85 83.95 46.25 85 47.7 85 47.7 79.9M43.45 81.8Q43.9 81.5 44.85 81.5L45.65 81.45 45.65 82.1Q45.65 82.8 45.2 83.2 44.75 83.6 44.05 83.6 43.05 83.6 43.05 82.75 43.05 82.1 43.45 81.8M57.5 76.75Q58.05 76.9 58.85 77.2L59.5 75.55Q58.75 75.25 58.05 75.05 57.3 74.85 56.55 74.85 54.95 74.85 54.05 75.6 53.15 76.4 53.15 77.7 53.15 78.4 53.45 78.95 53.7 79.45 54.15 79.85 54.6 80.25 55.55 80.7 56.5 81.15 56.85 81.35 57.15 81.6 57.3 81.8 57.5 82.05 57.5 82.35 57.5 82.85 57.1 83.1 56.75 83.4 56.05 83.4 55.45 83.4 54.75 83.2 54.05 83 53.05 82.55L53.05 84.55Q54.25 85.15 55.85 85.15 57.6 85.15 58.6 84.35 59.55 83.6 59.55 82.2 59.55 81.25 59.05 80.6 58.5 79.9 57.1 79.25 56.05 78.7 55.8 78.55 55.5 78.35 55.35 78.15 55.25 77.9 55.25 77.65 55.25 77.2 55.55 76.9 55.85 76.65 56.45 76.65 57 76.65 57.5 76.75M43 61.55L42.7 60.55 41 60.55 41 71.55 43.1 71.55 43.1 68.45Q43.1 68.3 42.95 67.35L43.1 67.35Q43.85 68.35 45.2 68.35 46.1 68.35 46.75 67.85 47.4 67.4 47.8 66.5 48.15 65.6 48.15 64.35 48.15 62.5 47.35 61.45 46.6 60.4 45.25 60.4 43.8 60.4 43.1 61.55L43 61.55M45.65 62.65Q46 63.2 46 64.35 46 66.65 44.6 66.65 43.8 66.65 43.45 66.1 43.1 65.6 43.1 64.35L43.1 64.15Q43.1 63.05 43.45 62.55 43.8 62.1 44.6 62.1 45.3 62.1 45.65 62.65M54.1 60.4Q53.4 60.4 52.8 60.8 52.2 61.2 51.85 61.85L51.75 61.85 51.4 60.55 49.85 60.55 49.85 68.2 51.95 68.2 51.95 64.3Q51.95 63.4 52.5 62.85 53.05 62.35 54.05 62.35 54.4 62.35 54.65 62.45L54.8 60.5Q54.55 60.4 54.1 60.4M62.35 66.2Q61.65 66.5 61.05 66.65 60.45 66.8 59.75 66.8 58.85 66.8 58.35 66.3 57.9 65.8 57.85 64.9L62.75 64.9 62.75 63.9Q62.75 62.25 61.85 61.35 60.95 60.4 59.35 60.4 57.65 60.4 56.7 61.45 55.75 62.5 55.75 64.45 55.75 66.3 56.75 67.3 57.8 68.35 59.65 68.35 60.55 68.35 61.15 68.2 61.8 68.05 62.35 67.8L62.35 66.2M57.9 63.5Q57.95 62.75 58.3 62.3 58.7 61.9 59.35 61.9 60 61.9 60.4 62.3 60.8 62.75 60.8 63.5L57.9 63.5M67 60.4Q65.55 60.4 64.75 60.95 64 61.55 64 62.55 64 63.15 64.15 63.55 64.35 63.95 64.75 64.25 65.2 64.6 66.05 64.95 66.7 65.2 67.05 65.4 67.4 65.6 67.55 65.75 67.7 65.9 67.7 66.15 67.7 66.8 66.6 66.8 66.05 66.8 65.3 66.65 64.55 66.45 64 66.15L64 67.9Q64.5 68.1 65.1 68.25 65.7 68.35 66.5 68.35 68.15 68.35 68.95 67.7 69.8 67.1 69.8 65.95 69.8 65.35 69.6 64.95 69.4 64.55 68.95 64.25 68.55 63.9 67.65 63.55 66.65 63.15 66.35 62.95 66.05 62.75 66.05 62.45 66.05 61.95 66.95 61.95 67.5 61.95 68 62.1 68.5 62.25 69.05 62.5L69.7 61Q68.4 60.4 67 60.4M77.05 61.35Q76.15 60.4 74.55 60.4 72.85 60.4 71.9 61.45 70.95 62.5 70.95 64.45 70.95 66.3 71.95 67.3 73 68.35 74.85 68.35 75.75 68.35 76.35 68.2 77 68.05 77.55 67.8L77.55 66.2Q76.85 66.5 76.25 66.65 75.65 66.8 74.95 66.8 74.05 66.8 73.55 66.3 73.1 65.8 73.05 64.9L77.95 64.9 77.95 63.9Q77.95 62.25 77.05 61.35M73.1 63.5Q73.15 62.75 73.5 62.3 73.9 61.9 74.55 61.9 75.2 61.9 75.6 62.3 76 62.75 76 63.5L73.1 63.5M37.3 78.35L37.2 78.35Q36.45 77.2 35 77.2 33.65 77.2 32.85 78.25 32.1 79.3 32.1 81.2 32.1 83.05 32.85 84.1 33.6 85.15 34.95 85.15 36.4 85.15 37.15 84L37.2 84 37.6 85 39.2 85 39.2 74.35 37.15 74.35 37.15 76.8Q37.15 77.5 37.3 78.35M35.65 78.9Q36.5 78.9 36.9 79.45 37.25 80 37.25 81.2L37.25 81.45Q37.25 82.55 36.85 83 36.5 83.5 35.7 83.5 34.95 83.5 34.6 82.9 34.2 82.35 34.2 81.2 34.2 80.1 34.6 79.5 34.95 78.9 35.65 78.9M29.6 58.95Q28.6 58.2 26.55 58.2L23.65 58.2 23.65 68.2 25.8 68.2 25.8 64.35 26.9 64.35 29.3 68.2 31.65 68.2Q30.95 67.2 28.7 63.85 29.6 63.45 30.1 62.75 30.55 62.1 30.55 61.2 30.55 59.7 29.6 58.95M27.95 60.25Q28.4 60.55 28.4 61.25 28.4 61.95 27.95 62.3 27.45 62.65 26.45 62.65L25.8 62.65 25.8 59.95 26.4 59.95Q27.45 59.95 27.95 60.25M35.9 60.4Q34.2 60.4 33.25 61.45 32.3 62.5 32.3 64.45 32.3 66.3 33.3 67.3 34.35 68.35 36.2 68.35 37.1 68.35 37.7 68.2 38.35 68.05 38.9 67.8L38.9 66.2Q38.2 66.5 37.6 66.65 37 66.8 36.3 66.8 35.4 66.8 34.9 66.3 34.45 65.8 34.4 64.9L39.3 64.9 39.3 63.9Q39.3 62.25 38.4 61.35 37.5 60.4 35.9 60.4M35.9 61.9Q36.55 61.9 36.95 62.3 37.35 62.75 37.35 63.5L34.45 63.5Q34.5 62.75 34.85 62.3 35.25 61.9 35.9 61.9M129.5 60.4Q128.05 60.4 127.25 60.95 126.5 61.55 126.5 62.55 126.5 63.15 126.65 63.55 126.85 63.95 127.25 64.25 127.7 64.6 128.55 64.95 129.2 65.2 129.55 65.4 129.9 65.6 130.05 65.75 130.2 65.9 130.2 66.15 130.2 66.8 129.1 66.8 128.55 66.8 127.8 66.65 127.05 66.45 126.5 66.15L126.5 67.9Q127 68.1 127.6 68.25 128.2 68.35 129 68.35 130.65 68.35 131.45 67.7 132.3 67.1 132.3 65.95 132.3 65.35 132.1 64.95 131.9 64.55 131.45 64.25 131.05 63.9 130.15 63.55 129.15 63.15 128.85 62.95 128.55 62.75 128.55 62.45 128.55 61.95 129.45 61.95 130 61.95 130.5 62.1 131 62.25 131.55 62.5L132.2 61Q130.9 60.4 129.5 60.4M115.05 96.7L115.05 97.05 113.7 97.1Q112 97.15 111.15 97.75 110.3 98.3 110.3 99.5 110.3 100.7 110.9 101.3 111.55 101.95 112.65 101.95 113.55 101.95 114.1 101.7 114.65 101.4 115.2 100.75L115.25 100.75 115.65 101.8 117.1 101.8 117.1 96.7Q117.1 95.35 116.3 94.65 115.45 94 113.9 94 112.3 94 111 94.7L111.7 96.1Q112.95 95.55 113.85 95.55 115.05 95.55 115.05 96.7M114.25 98.3L115.05 98.25 115.05 98.9Q115.05 99.6 114.6 100 114.15 100.4 113.45 100.4 112.45 100.4 112.45 99.55 112.45 98.9 112.85 98.6 113.3 98.3 114.25 98.3M108.6 91.15L106.55 91.15 106.55 93.6Q106.55 94.3 106.7 95.15L106.6 95.15Q105.85 94 104.4 94 103.05 94 102.25 95.05 101.5 96.1 101.5 98 101.5 99.85 102.25 100.9 103 101.95 104.35 101.95 105.8 101.95 106.55 100.8L106.6 100.8 107 101.8 108.6 101.8 108.6 91.15M103.6 98Q103.6 96.9 104 96.3 104.35 95.7 105.05 95.7 105.9 95.7 106.3 96.25 106.65 96.8 106.65 98L106.65 98.25Q106.65 99.35 106.25 99.8 105.9 100.3 105.1 100.3 104.35 100.3 104 99.7 103.6 99.15 103.6 98M110.6 79.25L110.75 77.3Q110.5 77.2 110.05 77.2 109.35 77.2 108.75 77.6 108.15 78 107.8 78.65L107.7 78.65 107.35 77.35 105.8 77.35 105.8 85 107.9 85 107.9 81.1Q107.9 80.2 108.45 79.65 109 79.15 110 79.15 110.35 79.15 110.6 79.25M113.2 74.35Q112.05 74.35 112.05 75.4 112.05 76.4 113.2 76.4 113.75 76.4 114.05 76.15 114.3 75.85 114.3 75.4 114.3 74.35 113.2 74.35M114.25 77.35L112.15 77.35 112.15 85 114.25 85 114.25 77.35M120.65 80.25L119.3 80.3Q117.6 80.35 116.75 80.95 115.9 81.5 115.9 82.7 115.9 83.9 116.5 84.5 117.15 85.15 118.25 85.15 119.15 85.15 119.7 84.9 120.25 84.6 120.8 83.95L120.85 83.95 121.25 85 122.7 85 122.7 79.9Q122.7 78.55 121.9 77.85 121.05 77.2 119.5 77.2 117.9 77.2 116.6 77.9L117.3 79.3Q118.55 78.75 119.45 78.75 120.65 78.75 120.65 79.9L120.65 80.25M120.65 81.45L120.65 82.1Q120.65 82.8 120.2 83.2 119.75 83.6 119.05 83.6 118.05 83.6 118.05 82.75 118.05 82.1 118.45 81.8 118.9 81.5 119.85 81.5L120.65 81.45M96.15 91.15L94.05 91.15 94.05 101.8 96.15 101.8 96.15 91.15M88.65 95.55Q89.85 95.55 89.85 96.7L89.85 97.05 88.5 97.1Q86.8 97.15 85.95 97.75 85.1 98.3 85.1 99.5 85.1 100.7 85.7 101.3 86.35 101.95 87.45 101.95 88.35 101.95 88.9 101.7 89.45 101.4 90 100.75L90.05 100.75 90.45 101.8 91.9 101.8 91.9 96.7Q91.9 95.35 91.1 94.65 90.25 94 88.7 94 87.1 94 85.8 94.7L86.5 96.1Q87.75 95.55 88.65 95.55M89.85 98.25L89.85 98.9Q89.85 99.6 89.4 100 88.95 100.4 88.25 100.4 87.25 100.4 87.25 99.55 87.25 98.9 87.65 98.6 88.1 98.3 89.05 98.3L89.85 98.25M81.3 94.15L81.3 97.75Q81.3 99.1 80.95 99.7 80.55 100.3 79.65 100.3 79.05 100.3 78.75 99.85 78.45 99.45 78.45 98.6L78.45 94.15 76.35 94.15 76.35 99.15Q76.35 100.5 77.05 101.2 77.7 101.95 79.05 101.95 79.85 101.95 80.45 101.65 81.1 101.35 81.4 100.8L81.55 100.8 81.8 101.8 83.4 101.8 83.4 94.15 81.3 94.15M81.45 79.25L81.6 77.3Q81.35 77.2 80.9 77.2 80.2 77.2 79.6 77.6 79 78 78.65 78.65L78.55 78.65 78.2 77.35 76.65 77.35 76.65 85 78.75 85 78.75 81.1Q78.75 80.2 79.3 79.65 79.85 79.15 80.85 79.15 81.2 79.15 81.45 79.25M88.65 78.15Q87.75 77.2 86.15 77.2 84.45 77.2 83.5 78.25 82.55 79.3 82.55 81.25 82.55 83.1 83.55 84.1 84.6 85.15 86.45 85.15 87.35 85.15 87.95 85 88.6 84.85 89.15 84.6L89.15 83Q88.45 83.3 87.85 83.45 87.25 83.6 86.55 83.6 85.65 83.6 85.15 83.1 84.7 82.6 84.65 81.7L89.55 81.7 89.55 80.7Q89.55 79.05 88.65 78.15M87.2 79.1Q87.6 79.55 87.6 80.3L84.7 80.3Q84.75 79.55 85.1 79.1 85.5 78.7 86.15 78.7 86.8 78.7 87.2 79.1M95.7 77.35L93.55 77.35 93.55 75.75 92.2 75.75 91.6 77.35 90.45 78.05 90.45 78.9 91.45 78.9 91.45 82.6Q91.45 83.85 92.05 84.5 92.6 85.15 93.85 85.15 95 85.15 95.8 84.8L95.8 83.25Q95 83.5 94.45 83.5 94.05 83.5 93.8 83.25 93.55 83.05 93.55 82.6L93.55 78.9 95.7 78.9 95.7 77.35M98.25 79.3Q99.5 78.75 100.4 78.75 101.6 78.75 101.6 79.9L101.6 80.25 100.25 80.3Q98.55 80.35 97.7 80.95 96.85 81.5 96.85 82.7 96.85 83.9 97.45 84.5 98.1 85.15 99.2 85.15 100.1 85.15 100.65 84.9 101.2 84.6 101.75 83.95L101.8 83.95 102.2 85 103.65 85 103.65 79.9Q103.65 78.55 102.85 77.85 102 77.2 100.45 77.2 98.85 77.2 97.55 77.9L98.25 79.3M99.4 81.8Q99.85 81.5 100.8 81.5L101.6 81.45 101.6 82.1Q101.6 82.8 101.15 83.2 100.7 83.6 100 83.6 99 83.6 99 82.75 99 82.1 99.4 81.8M81.5 61.55L81.25 60.55 79.65 60.55 79.65 68.2 81.75 68.2 81.75 64.6Q81.75 63.25 82.1 62.65 82.5 62.1 83.4 62.1 84.05 62.1 84.3 62.5 84.6 62.9 84.6 63.75L84.6 68.2 86.7 68.2 86.7 63.2Q86.7 61.85 86 61.15 85.3 60.4 84 60.4 83.2 60.4 82.6 60.7 82 61 81.65 61.55L81.5 61.55M93.3 60.55L91.15 60.55 91.15 58.95 89.8 58.95 89.2 60.55 88.05 61.25 88.05 62.1 89.05 62.1 89.05 65.8Q89.05 67.05 89.65 67.7 90.2 68.35 91.45 68.35 92.6 68.35 93.4 68L93.4 66.45Q92.6 66.7 92.05 66.7 91.65 66.7 91.4 66.45 91.15 66.25 91.15 65.8L91.15 62.1 93.3 62.1 93.3 60.55M118.25 64.45Q118.25 66.3 119.25 67.3 120.3 68.35 122.15 68.35 123.05 68.35 123.65 68.2 124.3 68.05 124.85 67.8L124.85 66.2Q124.15 66.5 123.55 66.65 122.95 66.8 122.25 66.8 121.35 66.8 120.85 66.3 120.4 65.8 120.35 64.9L125.25 64.9 125.25 63.9Q125.25 62.25 124.35 61.35 123.45 60.4 121.85 60.4 120.15 60.4 119.2 61.45 118.25 62.5 118.25 64.45M120.4 63.5Q120.45 62.75 120.8 62.3 121.2 61.9 121.85 61.9 122.5 61.9 122.9 62.3 123.3 62.75 123.3 63.5L120.4 63.5M101.25 68.2L101.25 63.1Q101.25 61.75 100.45 61.05 99.6 60.4 98.05 60.4 96.45 60.4 95.15 61.1L95.85 62.5Q97.1 61.95 98 61.95 99.2 61.95 99.2 63.1L99.2 63.45 97.85 63.5Q96.15 63.55 95.3 64.15 94.45 64.7 94.45 65.9 94.45 67.1 95.05 67.7 95.7 68.35 96.8 68.35 97.7 68.35 98.25 68.1 98.8 67.8 99.35 67.15L99.4 67.15 99.8 68.2 101.25 68.2M97.6 66.8Q96.6 66.8 96.6 65.95 96.6 65.3 97 65 97.45 64.7 98.4 64.7L99.2 64.65 99.2 65.3Q99.2 66 98.75 66.4 98.3 66.8 97.6 66.8M105 60.55L103.4 60.55 103.4 68.2 105.5 68.2 105.5 64.6Q105.5 63.25 105.85 62.65 106.25 62.1 107.15 62.1 107.8 62.1 108.05 62.5 108.35 62.9 108.35 63.75L108.35 68.2 110.45 68.2 110.45 63.2Q110.45 61.85 109.75 61.15 109.05 60.4 107.75 60.4 106.95 60.4 106.35 60.7 105.75 61 105.4 61.55L105.25 61.55 105 60.55M112.95 60.55L111.8 61.25 111.8 62.1 112.8 62.1 112.8 65.8Q112.8 67.05 113.4 67.7 113.95 68.35 115.2 68.35 116.35 68.35 117.15 68L117.15 66.45Q116.35 66.7 115.8 66.7 115.4 66.7 115.15 66.45 114.9 66.25 114.9 65.8L114.9 62.1 117.05 62.1 117.05 60.55 114.9 60.55 114.9 58.95 113.55 58.95 112.95 60.55Z"/></g><animate attributeName="display" fill="freeze" repeatCount="1" dur="1.333s" keyTimes="0;.344;1" values="none;inline;inline"/></g><g display="none"><g id="Municipal" transform="matrix(.053 0 0 .053 184.4 292.3)" opacity="1"><animateTransform attributeName="transform" additive="replace" type="translate" dur="1.333s" keyTimes="0;.625;.844;.906;.969;1" values="188.499,296.402;188.499,296.402;188.599,294.947;188.587,296.487;188.5,296.4;188.5,296.4" fill="freeze"/><animateTransform attributeName="transform" additive="sum" type="scale" dur="1.333s" keyTimes="0;.625;.844;.906;.969;1" values=".053,.053;.053,.053;1.026,1.026;.923,.923;1,1;1,1" fill="freeze"/><animateTransform attributeName="transform" additive="sum" type="translate" dur="1.333s" keyTimes="0;.625;.844;.906;.969;1" values="-78.55,-78.6;-78.55,-78.6;-77.7,-77.65;-77.75,-77.75;-77.6,-77.6;-77.6,-77.6" fill="freeze"/><animate attributeName="opacity" dur="1.333s" keyTimes="0;.625;.844;1" values="1;1;.9;.9" fill="freeze"/><path fill="#0E8C9D" stroke="none" d="M149.05 47.8Q143.15 33.9 132.4 23.15 121.65 12.4 107.75 6.5 93.3 .4 77.5 .4 61.7 .4 47.3 6.5 33.35 12.4 22.65 23.15 11.9 33.9 6 47.8 -.1 62.25 -.1 78.05 -.1 93.85 6 108.25 11.9 122.2 22.65 132.9 33.35 143.65 47.3 149.55 61.7 155.65 77.5 155.65 93.3 155.65 107.75 149.55 121.65 143.65 132.4 132.9 143.15 122.2 149.05 108.25 155.15 93.85 155.15 78.05 155.15 62.25 149.05 47.8M143 50.4Q148.6 63.6 148.6 78.05 148.6 92.5 143 105.7 137.6 118.45 127.75 128.3 117.9 138.1 105.15 143.5 91.95 149.1 77.5 149.1 48.1 149.1 27.3 128.3 17.45 118.45 12.05 105.7 6.45 92.5 6.45 78.05 6.45 63.6 12.05 50.4 17.45 37.65 27.3 27.8 37.1 17.95 49.85 12.55 63.05 6.95 77.5 6.95 91.95 6.95 105.15 12.55 117.9 17.95 127.75 27.8 137.6 37.65 143 50.4M147.6 78.05Q147.6 63.8 142.1 50.8 136.75 38.2 127.05 28.5 106.5 7.95 77.5 7.95 48.55 7.95 28 28.5 18.3 38.2 12.95 50.8 7.45 63.8 7.45 78.05 7.45 107 28 127.55 37.7 137.25 50.25 142.6 63.3 148.1 77.5 148.1 91.75 148.1 104.75 142.6 117.35 137.25 127.05 127.55 147.6 107 147.6 78.05M113.65 55.55L115 55.55 115 57.15 117.15 57.15 117.15 58.7 115 58.7 115 62.4Q115 62.85 115.25 63.05 115.5 63.3 115.9 63.3 116.45 63.3 117.25 63.05L117.25 64.6Q116.45 64.95 115.3 64.95 114.05 64.95 113.5 64.3 112.9 63.65 112.9 62.4L112.9 58.7 111.9 58.7 111.9 57.85 113.05 57.15 113.65 55.55M118.35 61.05Q118.35 59.1 119.3 58.05 120.25 57 121.95 57 123.55 57 124.45 57.95 125.35 58.85 125.35 60.5L125.35 61.5 120.45 61.5Q120.5 62.4 120.95 62.9 121.45 63.4 122.35 63.4 123.05 63.4 123.65 63.25 124.25 63.1 124.95 62.8L124.95 64.4Q124.4 64.65 123.75 64.8 123.15 64.95 122.25 64.95 120.4 64.95 119.35 63.9 118.35 62.9 118.35 61.05M105.95 59.25Q105.6 59.85 105.6 61.2L105.6 64.8 103.5 64.8 103.5 57.15 105.1 57.15 105.35 58.15 105.5 58.15Q105.85 57.6 106.45 57.3 107.05 57 107.85 57 109.15 57 109.85 57.75 110.55 58.45 110.55 59.8L110.55 64.8 108.45 64.8 108.45 60.35Q108.45 59.5 108.15 59.1 107.9 58.7 107.25 58.7 106.35 58.7 105.95 59.25M105.9 73.95L107.45 73.95 107.8 75.25 107.9 75.25Q108.25 74.6 108.85 74.2 109.45 73.8 110.15 73.8 110.6 73.8 110.85 73.9L110.7 75.85Q110.45 75.75 110.1 75.75 109.1 75.75 108.55 76.25 108 76.8 108 77.7L108 81.6 105.9 81.6 105.9 73.95M114.15 72.75Q113.85 73 113.3 73 112.15 73 112.15 72 112.15 70.95 113.3 70.95 114.4 70.95 114.4 72 114.4 72.45 114.15 72.75M112.25 73.95L114.35 73.95 114.35 81.6 112.25 81.6 112.25 73.95M101.35 59.7L101.35 64.8 99.9 64.8 99.5 63.75 99.45 63.75Q98.9 64.4 98.35 64.7 97.8 64.95 96.9 64.95 95.8 64.95 95.15 64.3 94.55 63.7 94.55 62.5 94.55 61.3 95.4 60.75 96.25 60.15 97.95 60.1L99.3 60.05 99.3 59.7Q99.3 58.55 98.1 58.55 97.2 58.55 95.95 59.1L95.25 57.7Q96.55 57 98.15 57 99.7 57 100.55 57.65 101.35 58.35 101.35 59.7M91.25 57.15L93.4 57.15 93.4 58.7 91.25 58.7 91.25 62.4Q91.25 62.85 91.5 63.05 91.75 63.3 92.15 63.3 92.7 63.3 93.5 63.05L93.5 64.6Q92.7 64.95 91.55 64.95 90.3 64.95 89.75 64.3 89.15 63.65 89.15 62.4L89.15 58.7 88.15 58.7 88.15 57.85 89.3 57.15 89.9 55.55 91.25 55.55 91.25 57.15M82.7 57.3Q83.3 57 84.1 57 85.4 57 86.1 57.75 86.8 58.45 86.8 59.8L86.8 64.8 84.7 64.8 84.7 60.35Q84.7 59.5 84.4 59.1 84.15 58.7 83.5 58.7 82.6 58.7 82.2 59.25 81.85 59.85 81.85 61.2L81.85 64.8 79.75 64.8 79.75 57.15 81.35 57.15 81.6 58.15 81.75 58.15Q82.1 57.6 82.7 57.3M81 73.8Q81.45 73.8 81.7 73.9L81.55 75.85Q81.3 75.75 80.95 75.75 79.95 75.75 79.4 76.25 78.85 76.8 78.85 77.7L78.85 81.6 76.75 81.6 76.75 73.95 78.3 73.95 78.65 75.25 78.75 75.25Q79.1 74.6 79.7 74.2 80.3 73.8 81 73.8M93.65 72.35L93.65 73.95 95.8 73.95 95.8 75.5 93.65 75.5 93.65 79.2Q93.65 79.65 93.9 79.85 94.15 80.1 94.55 80.1 95.1 80.1 95.9 79.85L95.9 81.4Q95.1 81.75 93.95 81.75 92.7 81.75 92.15 81.1 91.55 80.45 91.55 79.2L91.55 75.5 90.55 75.5 90.55 74.65 91.7 73.95 92.3 72.35 93.65 72.35M96.95 79.3Q96.95 78.1 97.8 77.55 98.65 76.95 100.35 76.9L101.7 76.85 101.7 76.5Q101.7 75.35 100.5 75.35 99.6 75.35 98.35 75.9L97.65 74.5Q98.95 73.8 100.55 73.8 102.1 73.8 102.95 74.45 103.75 75.15 103.75 76.5L103.75 81.6 102.3 81.6 101.9 80.55 101.85 80.55Q101.3 81.2 100.75 81.5 100.2 81.75 99.3 81.75 98.2 81.75 97.55 81.1 96.95 80.5 96.95 79.3M88.75 74.75Q89.65 75.65 89.65 77.3L89.65 78.3 84.75 78.3Q84.8 79.2 85.25 79.7 85.75 80.2 86.65 80.2 87.35 80.2 87.95 80.05 88.55 79.9 89.25 79.6L89.25 81.2Q88.7 81.45 88.05 81.6 87.45 81.75 86.55 81.75 84.7 81.75 83.65 80.7 82.65 79.7 82.65 77.85 82.65 75.9 83.6 74.85 84.55 73.8 86.25 73.8 87.85 73.8 88.75 74.75M89.7 92.15Q88.8 92.15 87.55 92.7L86.85 91.3Q88.15 90.6 89.75 90.6 91.3 90.6 92.15 91.25 92.95 91.95 92.95 93.3L92.95 98.4 91.5 98.4 91.1 97.35 91.05 97.35Q90.5 98 89.95 98.3 89.4 98.55 88.5 98.55 87.4 98.55 86.75 97.9 86.15 97.3 86.15 96.1 86.15 94.9 87 94.35 87.85 93.75 89.55 93.7L90.9 93.65 90.9 93.3Q90.9 92.15 89.7 92.15M82.05 90.6Q83.4 90.6 84.15 91.65 84.95 92.7 84.95 94.55 84.95 95.8 84.6 96.7 84.2 97.6 83.55 98.05 82.9 98.55 82 98.55 80.65 98.55 79.9 97.55L79.75 97.55Q79.9 98.5 79.9 98.65L79.9 101.75 77.8 101.75 77.8 90.75 79.5 90.75 79.8 91.75 79.9 91.75Q80.6 90.6 82.05 90.6M98.9 92.75Q98.9 91.75 99.65 91.15 100.45 90.6 101.9 90.6 103.3 90.6 104.6 91.2L103.95 92.7Q103.4 92.45 102.9 92.3 102.4 92.15 101.85 92.15 100.95 92.15 100.95 92.65 100.95 92.95 101.25 93.15 101.55 93.35 102.55 93.75 103.45 94.1 103.85 94.45 104.3 94.75 104.5 95.15 104.7 95.55 104.7 96.15 104.7 97.3 103.85 97.9 103.05 98.55 101.4 98.55 100.6 98.55 100 98.45 99.4 98.3 98.9 98.1L98.9 96.35Q99.45 96.65 100.2 96.85 100.95 97 101.5 97 102.6 97 102.6 96.35 102.6 96.1 102.45 95.95 102.3 95.8 101.95 95.6 101.6 95.4 100.95 95.15 100.1 94.8 99.65 94.45 99.25 94.15 99.05 93.75 98.9 93.35 98.9 92.75M97.25 88.8Q97.25 89.25 97 89.55 96.7 89.8 96.15 89.8 95 89.8 95 88.8 95 87.75 96.15 87.75 97.25 87.75 97.25 88.8M95.1 90.75L97.2 90.75 97.2 98.4 95.1 98.4 95.1 90.75M119.4 76.9L120.75 76.85 120.75 76.5Q120.75 75.35 119.55 75.35 118.65 75.35 117.4 75.9L116.7 74.5Q118 73.8 119.6 73.8 121.15 73.8 122 74.45 122.8 75.15 122.8 76.5L122.8 81.6 121.35 81.6 120.95 80.55 120.9 80.55Q120.35 81.2 119.8 81.5 119.25 81.75 118.35 81.75 117.25 81.75 116.6 81.1 116 80.5 116 79.3 116 78.1 116.85 77.55 117.7 76.95 119.4 76.9M110.25 97.5Q109.5 96.45 109.5 94.6 109.5 92.7 110.25 91.65 111.05 90.6 112.4 90.6 113.85 90.6 114.6 91.75L114.7 91.75Q114.55 90.9 114.55 90.2L114.55 87.75 116.6 87.75 116.6 98.4 115 98.4 114.6 97.4 114.55 97.4Q113.8 98.55 112.35 98.55 111 98.55 110.25 97.5M119.35 97.5Q118.35 96.5 118.35 94.65 118.35 92.7 119.3 91.65 120.25 90.6 121.95 90.6 123.55 90.6 124.45 91.55 125.35 92.45 125.35 94.1L125.35 95.1 120.45 95.1Q120.5 96 120.95 96.5 121.45 97 122.35 97 123.05 97 123.65 96.85 124.25 96.7 124.95 96.4L124.95 98Q124.4 98.25 123.75 98.4 123.15 98.55 122.25 98.55 120.4 98.55 119.35 97.5M132.3 57.6L131.65 59.1Q131.1 58.85 130.6 58.7 130.1 58.55 129.55 58.55 128.65 58.55 128.65 59.05 128.65 59.35 128.95 59.55 129.25 59.75 130.25 60.15 131.15 60.5 131.55 60.85 132 61.15 132.2 61.55 132.4 61.95 132.4 62.55 132.4 63.7 131.55 64.3 130.75 64.95 129.1 64.95 128.3 64.95 127.7 64.85 127.1 64.7 126.6 64.5L126.6 62.75Q127.15 63.05 127.9 63.25 128.65 63.4 129.2 63.4 130.3 63.4 130.3 62.75 130.3 62.5 130.15 62.35 130 62.2 129.65 62 129.3 61.8 128.65 61.55 127.8 61.2 127.35 60.85 126.95 60.55 126.75 60.15 126.6 59.75 126.6 59.15 126.6 58.15 127.35 57.55 128.15 57 129.6 57 131 57 132.3 57.6M130.2 74.4L129.55 75.9Q129 75.65 128.5 75.5 128 75.35 127.45 75.35 126.55 75.35 126.55 75.85 126.55 76.15 126.85 76.35 127.15 76.55 128.15 76.95 129.05 77.3 129.45 77.65 129.9 77.95 130.1 78.35 130.3 78.75 130.3 79.35 130.3 80.5 129.45 81.1 128.65 81.75 127 81.75 126.2 81.75 125.6 81.65 125 81.5 124.5 81.3L124.5 79.55Q125.05 79.85 125.8 80.05 126.55 80.2 127.1 80.2 128.2 80.2 128.2 79.55 128.2 79.3 128.05 79.15 127.9 79 127.55 78.8 127.2 78.6 126.55 78.35 125.7 78 125.25 77.65 124.85 77.35 124.65 76.95 124.5 76.55 124.5 75.95 124.5 74.95 125.25 74.35 126.05 73.8 127.5 73.8 128.9 73.8 130.2 74.4M32.4 61.05Q32.4 59.1 33.35 58.05 34.3 57 36 57 37.6 57 38.5 57.95 39.4 58.85 39.4 60.5L39.4 61.5 34.5 61.5Q34.55 62.4 35 62.9 35.5 63.4 36.4 63.4 37.1 63.4 37.7 63.25 38.3 63.1 39 62.8L39 64.4Q38.45 64.65 37.8 64.8 37.2 64.95 36.3 64.95 34.45 64.95 33.4 63.9 32.4 62.9 32.4 61.05M26.65 54.8Q28.7 54.8 29.7 55.55 30.65 56.3 30.65 57.8 30.65 58.7 30.2 59.35 29.7 60.05 28.8 60.45 31.05 63.8 31.75 64.8L29.4 64.8 27 60.95 25.9 60.95 25.9 64.8 23.75 64.8 23.75 54.8 26.65 54.8M30.3 73.4L30.3 70.95 32.35 70.95 32.35 81.6 30.75 81.6 30.35 80.6 30.3 80.6Q29.55 81.75 28.1 81.75 26.75 81.75 26 80.7 25.25 79.65 25.25 77.8 25.25 75.9 26 74.85 26.8 73.8 28.15 73.8 29.6 73.8 30.35 74.95L30.45 74.95Q30.3 74.1 30.3 73.4M38.8 76.85L38.8 76.5Q38.8 75.35 37.6 75.35 36.7 75.35 35.45 75.9L34.75 74.5Q36.05 73.8 37.65 73.8 39.2 73.8 40.05 74.45 40.85 75.15 40.85 76.5L40.85 81.6 39.4 81.6 39 80.55 38.95 80.55Q38.4 81.2 37.85 81.5 37.3 81.75 36.4 81.75 35.3 81.75 34.65 81.1 34.05 80.5 34.05 79.3 34.05 78.1 34.9 77.55 35.75 76.95 37.45 76.9L38.8 76.85M39.45 90.55L39.4 90.55 36.85 98.4 34.9 98.4 32.5 90.55 32.4 90.55Q32.55 92.95 32.55 93.75L32.55 98.4 30.65 98.4 30.65 88.4 33.55 88.4 35.9 96.05 35.95 96.05 38.45 88.4 41.35 88.4 41.35 98.4 39.35 98.4 39.35 93.65Q39.35 93.35 39.4 92.9 39.4 92.45 39.45 90.55M71.05 61.05Q71.05 59.1 72 58.05 72.95 57 74.65 57 76.25 57 77.15 57.95 78.05 58.85 78.05 60.5L78.05 61.5 73.15 61.5Q73.2 62.4 73.65 62.9 74.15 63.4 75.05 63.4 75.75 63.4 76.35 63.25 76.95 63.1 77.65 62.8L77.65 64.4Q77.1 64.65 76.45 64.8 75.85 64.95 74.95 64.95 73.1 64.95 72.05 63.9 71.05 62.9 71.05 61.05M64.1 59.15Q64.1 58.15 64.85 57.55 65.65 57 67.1 57 68.5 57 69.8 57.6L69.15 59.1Q68.6 58.85 68.1 58.7 67.6 58.55 67.05 58.55 66.15 58.55 66.15 59.05 66.15 59.35 66.45 59.55 66.75 59.75 67.75 60.15 68.65 60.5 69.05 60.85 69.5 61.15 69.7 61.55 69.9 61.95 69.9 62.55 69.9 63.7 69.05 64.3 68.25 64.95 66.6 64.95 65.8 64.95 65.2 64.85 64.6 64.7 64.1 64.5L64.1 62.75Q64.65 63.05 65.4 63.25 66.15 63.4 66.7 63.4 67.8 63.4 67.8 62.75 67.8 62.5 67.65 62.35 67.5 62.2 67.15 62 66.8 61.8 66.15 61.55 65.3 61.2 64.85 60.85 64.45 60.55 64.25 60.15 64.1 59.75 64.1 59.15M61.95 57.95Q62.85 58.85 62.85 60.5L62.85 61.5 57.95 61.5Q58 62.4 58.45 62.9 58.95 63.4 59.85 63.4 60.55 63.4 61.15 63.25 61.75 63.1 62.45 62.8L62.45 64.4Q61.9 64.65 61.25 64.8 60.65 64.95 59.75 64.95 57.9 64.95 56.85 63.9 55.85 62.9 55.85 61.05 55.85 59.1 56.8 58.05 57.75 57 59.45 57 61.05 57 61.95 57.95M54.2 57Q54.65 57 54.9 57.1L54.75 59.05Q54.5 58.95 54.15 58.95 53.15 58.95 52.6 59.45 52.05 60 52.05 60.9L52.05 64.8 49.95 64.8 49.95 57.15 51.5 57.15 51.85 58.45 51.95 58.45Q52.3 57.8 52.9 57.4 53.5 57 54.2 57M42.8 57.15L43.1 58.15 43.2 58.15Q43.9 57 45.35 57 46.7 57 47.45 58.05 48.25 59.1 48.25 60.95 48.25 62.2 47.9 63.1 47.5 64 46.85 64.45 46.2 64.95 45.3 64.95 43.95 64.95 43.2 63.95L43.05 63.95Q43.2 64.9 43.2 65.05L43.2 68.15 41.1 68.15 41.1 57.15 42.8 57.15M59.6 72.15L58.95 73.8Q58.15 73.5 57.6 73.35 57.1 73.25 56.55 73.25 55.95 73.25 55.65 73.5 55.35 73.8 55.35 74.25 55.35 74.5 55.45 74.75 55.6 74.95 55.9 75.15 56.15 75.3 57.2 75.85 58.6 76.5 59.15 77.2 59.65 77.85 59.65 78.8 59.65 80.2 58.7 80.95 57.7 81.75 55.95 81.75 54.35 81.75 53.15 81.15L53.15 79.15Q54.15 79.6 54.85 79.8 55.55 80 56.15 80 56.85 80 57.2 79.7 57.6 79.45 57.6 78.95 57.6 78.65 57.4 78.4 57.25 78.2 56.95 77.95 56.6 77.75 55.65 77.3 54.7 76.85 54.25 76.45 53.8 76.05 53.55 75.55 53.25 75 53.25 74.3 53.25 73 54.15 72.2 55.05 71.45 56.65 71.45 57.4 71.45 58.15 71.65 58.85 71.85 59.6 72.15M48.25 74.4L47.6 75.9Q47.05 75.65 46.55 75.5 46.05 75.35 45.5 75.35 44.6 75.35 44.6 75.85 44.6 76.15 44.9 76.35 45.2 76.55 46.2 76.95 47.1 77.3 47.5 77.65 47.95 77.95 48.15 78.35 48.35 78.75 48.35 79.35 48.35 80.5 47.5 81.1 46.7 81.75 45.05 81.75 44.25 81.75 43.65 81.65 43.05 81.5 42.55 81.3L42.55 79.55Q43.1 79.85 43.85 80.05 44.6 80.2 45.15 80.2 46.25 80.2 46.25 79.55 46.25 79.3 46.1 79.15 45.95 79 45.6 78.8 45.25 78.6 44.6 78.35 43.75 78 43.3 77.65 42.9 77.35 42.7 76.95 42.55 76.55 42.55 75.95 42.55 74.95 43.3 74.35 44.1 73.8 45.55 73.8 46.95 73.8 48.25 74.4M44.35 97.8Q43.65 97.1 43.65 95.75L43.65 90.75 45.75 90.75 45.75 95.2Q45.75 96.05 46.05 96.45 46.35 96.9 46.95 96.9 47.85 96.9 48.25 96.3 48.6 95.7 48.6 94.35L48.6 90.75 50.7 90.75 50.7 98.4 49.1 98.4 48.85 97.4 48.7 97.4Q48.4 97.95 47.75 98.25 47.15 98.55 46.35 98.55 45 98.55 44.35 97.8M57.25 90.6Q58.55 90.6 59.25 91.35 59.95 92.05 59.95 93.4L59.95 98.4 57.85 98.4 57.85 93.95Q57.85 93.1 57.55 92.7 57.3 92.3 56.65 92.3 55.75 92.3 55.35 92.85 55 93.45 55 94.8L55 98.4 52.9 98.4 52.9 90.75 54.5 90.75 54.75 91.75 54.9 91.75Q55.25 91.2 55.85 90.9 56.45 90.6 57.25 90.6M73.7 75.65Q73.25 75.5 72.85 75.5 71.2 75.5 71.2 77.8 71.2 80.05 72.85 80.05 73.45 80.05 73.95 79.9 74.45 79.75 74.95 79.4L74.95 81.15Q74.45 81.5 73.95 81.6 73.45 81.75 72.65 81.75 69.1 81.75 69.1 77.8 69.1 75.85 70.05 74.85 71 73.8 72.85 73.8 74.15 73.8 75.2 74.35L74.6 75.95Q74.1 75.75 73.7 75.65M66.95 74.75Q67.85 75.65 67.85 77.3L67.85 78.3 62.95 78.3Q63 79.2 63.45 79.7 63.95 80.2 64.85 80.2 65.55 80.2 66.15 80.05 66.75 79.9 67.45 79.6L67.45 81.2Q66.9 81.45 66.25 81.6 65.65 81.75 64.75 81.75 62.9 81.75 61.85 80.7 60.85 79.7 60.85 77.85 60.85 75.9 61.8 74.85 62.75 73.8 64.45 73.8 66.05 73.8 66.95 74.75M66.85 91.65Q67.8 90.6 69.65 90.6 70.95 90.6 72 91.15L71.4 92.75Q70.9 92.55 70.5 92.45 70.05 92.3 69.65 92.3 68 92.3 68 94.6 68 96.85 69.65 96.85 70.25 96.85 70.75 96.7 71.25 96.55 71.75 96.2L71.75 97.95Q71.25 98.3 70.75 98.4 70.25 98.55 69.45 98.55 65.9 98.55 65.9 94.6 65.9 92.65 66.85 91.65M62 88.8Q62 87.75 63.15 87.75 64.25 87.75 64.25 88.8 64.25 89.25 64 89.55 63.7 89.8 63.15 89.8 62 89.8 62 88.8M62.1 90.75L64.2 90.75 64.2 98.4 62.1 98.4 62.1 90.75M74.6 89.8Q73.45 89.8 73.45 88.8 73.45 87.75 74.6 87.75 75.7 87.75 75.7 88.8 75.7 89.25 75.45 89.55 75.15 89.8 74.6 89.8M73.55 90.75L75.65 90.75 75.65 98.4 73.55 98.4 73.55 90.75M77.65 104.45L80 104.45 80 104.6Q79.65 104.95 78.8 105.7 77.95 106.35 77.45 106.7L76.05 106.7 76.05 106.55Q77.25 105.15 77.65 104.45M73.7 107.55L75.8 107.55 75.8 112Q75.8 112.85 76.1 113.25 76.4 113.7 77 113.7 77.9 113.7 78.3 113.1 78.65 112.5 78.65 111.15L78.65 107.55 80.75 107.55 80.75 115.2 79.15 115.2 78.9 114.2 78.75 114.2Q78.45 114.75 77.8 115.05 77.2 115.35 76.4 115.35 75.05 115.35 74.4 114.6 73.7 113.9 73.7 112.55L73.7 107.55M61.2 109.45Q62.6 110.1 63.15 110.8 63.65 111.45 63.65 112.4 63.65 113.8 62.7 114.55 61.7 115.35 59.95 115.35 58.35 115.35 57.15 114.75L57.15 112.75Q58.15 113.2 58.85 113.4 59.55 113.6 60.15 113.6 60.85 113.6 61.2 113.3 61.6 113.05 61.6 112.55 61.6 112.25 61.4 112 61.25 111.8 60.95 111.55 60.6 111.35 59.65 110.9 58.7 110.45 58.25 110.05 57.8 109.65 57.55 109.15 57.25 108.6 57.25 107.9 57.25 106.6 58.15 105.8 59.05 105.05 60.65 105.05 61.4 105.05 62.15 105.25 62.85 105.45 63.6 105.75L62.95 107.4Q62.15 107.1 61.6 106.95 61.1 106.85 60.55 106.85 59.95 106.85 59.65 107.1 59.35 107.4 59.35 107.85 59.35 108.1 59.45 108.35 59.6 108.55 59.9 108.75 60.15 108.9 61.2 109.45M68.4 107.4Q69.95 107.4 70.8 108.05 71.6 108.75 71.6 110.1L71.6 115.2 70.15 115.2 69.75 114.15 69.7 114.15Q69.15 114.8 68.6 115.1 68.05 115.35 67.15 115.35 66.05 115.35 65.4 114.7 64.8 114.1 64.8 112.9 64.8 111.7 65.65 111.15 66.5 110.55 68.2 110.5L69.55 110.45 69.55 110.1Q69.55 108.95 68.35 108.95 67.45 108.95 66.2 109.5L65.5 108.1Q66.8 107.4 68.4 107.4M94.95 107.4Q96.55 107.4 97.45 108.35 98.35 109.25 98.35 110.9L98.35 111.9 93.45 111.9Q93.5 112.8 93.95 113.3 94.45 113.8 95.35 113.8 96.05 113.8 96.65 113.65 97.25 113.5 97.95 113.2L97.95 114.8Q97.4 115.05 96.75 115.2 96.15 115.35 95.25 115.35 93.4 115.35 92.35 114.3 91.35 113.3 91.35 111.45 91.35 109.5 92.3 108.45 93.25 107.4 94.95 107.4M85.4 107.4Q86.85 107.4 87.6 108.55L87.7 108.55Q87.55 107.7 87.55 107L87.55 104.55 89.6 104.55 89.6 115.2 88 115.2 87.6 114.2 87.55 114.2Q86.8 115.35 85.35 115.35 84 115.35 83.25 114.3 82.5 113.25 82.5 111.4 82.5 109.5 83.25 108.45 84.05 107.4 85.4 107.4M87.3 109.65Q86.9 109.1 86.05 109.1 85.35 109.1 85 109.7 84.6 110.3 84.6 111.4 84.6 112.55 85 113.1 85.35 113.7 86.1 113.7 86.9 113.7 87.25 113.2 87.65 112.75 87.65 111.65L87.65 111.4Q87.65 110.2 87.3 109.65M94.95 108.9Q94.3 108.9 93.9 109.3 93.55 109.75 93.5 110.5L96.4 110.5Q96.4 109.75 96 109.3 95.6 108.9 94.95 108.9M69.55 112.3L69.55 111.65 68.75 111.7Q67.8 111.7 67.35 112 66.95 112.3 66.95 112.95 66.95 113.8 67.95 113.8 68.65 113.8 69.1 113.4 69.55 113 69.55 112.3M64.45 75.3Q63.8 75.3 63.4 75.7 63.05 76.15 63 76.9L65.9 76.9Q65.9 76.15 65.5 75.7 65.1 75.3 64.45 75.3M43.55 59.15Q43.2 59.65 43.2 60.75L43.2 60.95Q43.2 62.2 43.55 62.7 43.9 63.25 44.7 63.25 46.1 63.25 46.1 60.95 46.1 59.8 45.75 59.25 45.4 58.7 44.7 58.7 43.9 58.7 43.55 59.15M60.5 58.9Q60.1 58.5 59.45 58.5 58.8 58.5 58.4 58.9 58.05 59.35 58 60.1L60.9 60.1Q60.9 59.35 60.5 58.9M73.6 58.9Q73.25 59.35 73.2 60.1L76.1 60.1Q76.1 59.35 75.7 58.9 75.3 58.5 74.65 58.5 74 58.5 73.6 58.9M36.2 79.35Q36.2 80.2 37.2 80.2 37.9 80.2 38.35 79.8 38.8 79.4 38.8 78.7L38.8 78.05 38 78.1Q37.05 78.1 36.6 78.4 36.2 78.7 36.2 79.35M30.4 78.05L30.4 77.8Q30.4 76.6 30.05 76.05 29.65 75.5 28.8 75.5 28.1 75.5 27.75 76.1 27.35 76.7 27.35 77.8 27.35 78.95 27.75 79.5 28.1 80.1 28.85 80.1 29.65 80.1 30 79.6 30.4 79.15 30.4 78.05M28.5 57.85Q28.5 57.15 28.05 56.85 27.55 56.55 26.5 56.55L25.9 56.55 25.9 59.25 26.55 59.25Q27.55 59.25 28.05 58.9 28.5 58.55 28.5 57.85M34.95 58.9Q34.6 59.35 34.55 60.1L37.45 60.1Q37.45 59.35 37.05 58.9 36.65 58.5 36 58.5 35.35 58.5 34.95 58.9M120.9 92.5Q120.55 92.95 120.5 93.7L123.4 93.7Q123.4 92.95 123 92.5 122.6 92.1 121.95 92.1 121.3 92.1 120.9 92.5M114.65 94.6Q114.65 93.4 114.3 92.85 113.9 92.3 113.05 92.3 112.35 92.3 112 92.9 111.6 93.5 111.6 94.6 111.6 95.75 112 96.3 112.35 96.9 113.1 96.9 113.9 96.9 114.25 96.4 114.65 95.95 114.65 94.85L114.65 94.6M118.55 78.4Q118.15 78.7 118.15 79.35 118.15 80.2 119.15 80.2 119.85 80.2 120.3 79.8 120.75 79.4 120.75 78.7L120.75 78.05 119.95 78.1Q119 78.1 118.55 78.4M82.8 94.55Q82.8 93.4 82.45 92.85 82.1 92.3 81.4 92.3 80.6 92.3 80.25 92.75 79.9 93.25 79.9 94.35L79.9 94.55Q79.9 95.8 80.25 96.3 80.6 96.85 81.4 96.85 82.8 96.85 82.8 94.55M90.9 94.85L90.1 94.9Q89.15 94.9 88.7 95.2 88.3 95.5 88.3 96.15 88.3 97 89.3 97 90 97 90.45 96.6 90.9 96.2 90.9 95.5L90.9 94.85M87.7 76.9Q87.7 76.15 87.3 75.7 86.9 75.3 86.25 75.3 85.6 75.3 85.2 75.7 84.85 76.15 84.8 76.9L87.7 76.9M100.9 78.1Q99.95 78.1 99.5 78.4 99.1 78.7 99.1 79.35 99.1 80.2 100.1 80.2 100.8 80.2 101.25 79.8 101.7 79.4 101.7 78.7L101.7 78.05 100.9 78.1M99.3 61.25L98.5 61.3Q97.55 61.3 97.1 61.6 96.7 61.9 96.7 62.55 96.7 63.4 97.7 63.4 98.4 63.4 98.85 63 99.3 62.6 99.3 61.9L99.3 61.25M120.9 58.9Q120.55 59.35 120.5 60.1L123.4 60.1Q123.4 59.35 123 58.9 122.6 58.5 121.95 58.5 121.3 58.5 120.9 58.9Z"/><path fill="#FFF" stroke="none" d="M148.6 78.05Q148.6 63.6 143 50.4 137.6 37.65 127.75 27.8 117.9 17.95 105.15 12.55 91.95 6.95 77.5 6.95 63.05 6.95 49.85 12.55 37.1 17.95 27.3 27.8 17.45 37.65 12.05 50.4 6.45 63.6 6.45 78.05 6.45 92.5 12.05 105.7 17.45 118.45 27.3 128.3 48.1 149.1 77.5 149.1 91.95 149.1 105.15 143.5 117.9 138.1 127.75 128.3 137.6 118.45 143 105.7 148.6 92.5 148.6 78.05M142.1 50.8Q147.6 63.8 147.6 78.05 147.6 107 127.05 127.55 117.35 137.25 104.75 142.6 91.75 148.1 77.5 148.1 63.3 148.1 50.25 142.6 37.7 137.25 28 127.55 7.45 107 7.45 78.05 7.45 63.8 12.95 50.8 18.3 38.2 28 28.5 48.55 7.95 77.5 7.95 106.5 7.95 127.05 28.5 136.75 38.2 142.1 50.8M87.6 108.55Q86.85 107.4 85.4 107.4 84.05 107.4 83.25 108.45 82.5 109.5 82.5 111.4 82.5 113.25 83.25 114.3 84 115.35 85.35 115.35 86.8 115.35 87.55 114.2L87.6 114.2 88 115.2 89.6 115.2 89.6 104.55 87.55 104.55 87.55 107Q87.55 107.7 87.7 108.55L87.6 108.55M86.05 109.1Q86.9 109.1 87.3 109.65 87.65 110.2 87.65 111.4L87.65 111.65Q87.65 112.75 87.25 113.2 86.9 113.7 86.1 113.7 85.35 113.7 85 113.1 84.6 112.55 84.6 111.4 84.6 110.3 85 109.7 85.35 109.1 86.05 109.1M97.45 108.35Q96.55 107.4 94.95 107.4 93.25 107.4 92.3 108.45 91.35 109.5 91.35 111.45 91.35 113.3 92.35 114.3 93.4 115.35 95.25 115.35 96.15 115.35 96.75 115.2 97.4 115.05 97.95 114.8L97.95 113.2Q97.25 113.5 96.65 113.65 96.05 113.8 95.35 113.8 94.45 113.8 93.95 113.3 93.5 112.8 93.45 111.9L98.35 111.9 98.35 110.9Q98.35 109.25 97.45 108.35M93.9 109.3Q94.3 108.9 94.95 108.9 95.6 108.9 96 109.3 96.4 109.75 96.4 110.5L93.5 110.5Q93.55 109.75 93.9 109.3M70.8 108.05Q69.95 107.4 68.4 107.4 66.8 107.4 65.5 108.1L66.2 109.5Q67.45 108.95 68.35 108.95 69.55 108.95 69.55 110.1L69.55 110.45 68.2 110.5Q66.5 110.55 65.65 111.15 64.8 111.7 64.8 112.9 64.8 114.1 65.4 114.7 66.05 115.35 67.15 115.35 68.05 115.35 68.6 115.1 69.15 114.8 69.7 114.15L69.75 114.15 70.15 115.2 71.6 115.2 71.6 110.1Q71.6 108.75 70.8 108.05M69.55 111.65L69.55 112.3Q69.55 113 69.1 113.4 68.65 113.8 67.95 113.8 66.95 113.8 66.95 112.95 66.95 112.3 67.35 112 67.8 111.7 68.75 111.7L69.55 111.65M63.15 110.8Q62.6 110.1 61.2 109.45 60.15 108.9 59.9 108.75 59.6 108.55 59.45 108.35 59.35 108.1 59.35 107.85 59.35 107.4 59.65 107.1 59.95 106.85 60.55 106.85 61.1 106.85 61.6 106.95 62.15 107.1 62.95 107.4L63.6 105.75Q62.85 105.45 62.15 105.25 61.4 105.05 60.65 105.05 59.05 105.05 58.15 105.8 57.25 106.6 57.25 107.9 57.25 108.6 57.55 109.15 57.8 109.65 58.25 110.05 58.7 110.45 59.65 110.9 60.6 111.35 60.95 111.55 61.25 111.8 61.4 112 61.6 112.25 61.6 112.55 61.6 113.05 61.2 113.3 60.85 113.6 60.15 113.6 59.55 113.6 58.85 113.4 58.15 113.2 57.15 112.75L57.15 114.75Q58.35 115.35 59.95 115.35 61.7 115.35 62.7 114.55 63.65 113.8 63.65 112.4 63.65 111.45 63.15 110.8M75.8 107.55L73.7 107.55 73.7 112.55Q73.7 113.9 74.4 114.6 75.05 115.35 76.4 115.35 77.2 115.35 77.8 115.05 78.45 114.75 78.75 114.2L78.9 114.2 79.15 115.2 80.75 115.2 80.75 107.55 78.65 107.55 78.65 111.15Q78.65 112.5 78.3 113.1 77.9 113.7 77 113.7 76.4 113.7 76.1 113.25 75.8 112.85 75.8 112L75.8 107.55M80 104.45L77.65 104.45Q77.25 105.15 76.05 106.55L76.05 106.7 77.45 106.7Q77.95 106.35 78.8 105.7 79.65 104.95 80 104.6L80 104.45M75.65 90.75L73.55 90.75 73.55 98.4 75.65 98.4 75.65 90.75M73.45 88.8Q73.45 89.8 74.6 89.8 75.15 89.8 75.45 89.55 75.7 89.25 75.7 88.8 75.7 87.75 74.6 87.75 73.45 87.75 73.45 88.8M64.2 90.75L62.1 90.75 62.1 98.4 64.2 98.4 64.2 90.75M63.15 87.75Q62 87.75 62 88.8 62 89.8 63.15 89.8 63.7 89.8 64 89.55 64.25 89.25 64.25 88.8 64.25 87.75 63.15 87.75M69.65 90.6Q67.8 90.6 66.85 91.65 65.9 92.65 65.9 94.6 65.9 98.55 69.45 98.55 70.25 98.55 70.75 98.4 71.25 98.3 71.75 97.95L71.75 96.2Q71.25 96.55 70.75 96.7 70.25 96.85 69.65 96.85 68 96.85 68 94.6 68 92.3 69.65 92.3 70.05 92.3 70.5 92.45 70.9 92.55 71.4 92.75L72 91.15Q70.95 90.6 69.65 90.6M67.85 77.3Q67.85 75.65 66.95 74.75 66.05 73.8 64.45 73.8 62.75 73.8 61.8 74.85 60.85 75.9 60.85 77.85 60.85 79.7 61.85 80.7 62.9 81.75 64.75 81.75 65.65 81.75 66.25 81.6 66.9 81.45 67.45 81.2L67.45 79.6Q66.75 79.9 66.15 80.05 65.55 80.2 64.85 80.2 63.95 80.2 63.45 79.7 63 79.2 62.95 78.3L67.85 78.3 67.85 77.3M63.4 75.7Q63.8 75.3 64.45 75.3 65.1 75.3 65.5 75.7 65.9 76.15 65.9 76.9L63 76.9Q63.05 76.15 63.4 75.7M72.85 75.5Q73.25 75.5 73.7 75.65 74.1 75.75 74.6 75.95L75.2 74.35Q74.15 73.8 72.85 73.8 71 73.8 70.05 74.85 69.1 75.85 69.1 77.8 69.1 81.75 72.65 81.75 73.45 81.75 73.95 81.6 74.45 81.5 74.95 81.15L74.95 79.4Q74.45 79.75 73.95 79.9 73.45 80.05 72.85 80.05 71.2 80.05 71.2 77.8 71.2 75.5 72.85 75.5M59.25 91.35Q58.55 90.6 57.25 90.6 56.45 90.6 55.85 90.9 55.25 91.2 54.9 91.75L54.75 91.75 54.5 90.75 52.9 90.75 52.9 98.4 55 98.4 55 94.8Q55 93.45 55.35 92.85 55.75 92.3 56.65 92.3 57.3 92.3 57.55 92.7 57.85 93.1 57.85 93.95L57.85 98.4 59.95 98.4 59.95 93.4Q59.95 92.05 59.25 91.35M43.65 95.75Q43.65 97.1 44.35 97.8 45 98.55 46.35 98.55 47.15 98.55 47.75 98.25 48.4 97.95 48.7 97.4L48.85 97.4 49.1 98.4 50.7 98.4 50.7 90.75 48.6 90.75 48.6 94.35Q48.6 95.7 48.25 96.3 47.85 96.9 46.95 96.9 46.35 96.9 46.05 96.45 45.75 96.05 45.75 95.2L45.75 90.75 43.65 90.75 43.65 95.75M47.6 75.9L48.25 74.4Q46.95 73.8 45.55 73.8 44.1 73.8 43.3 74.35 42.55 74.95 42.55 75.95 42.55 76.55 42.7 76.95 42.9 77.35 43.3 77.65 43.75 78 44.6 78.35 45.25 78.6 45.6 78.8 45.95 79 46.1 79.15 46.25 79.3 46.25 79.55 46.25 80.2 45.15 80.2 44.6 80.2 43.85 80.05 43.1 79.85 42.55 79.55L42.55 81.3Q43.05 81.5 43.65 81.65 44.25 81.75 45.05 81.75 46.7 81.75 47.5 81.1 48.35 80.5 48.35 79.35 48.35 78.75 48.15 78.35 47.95 77.95 47.5 77.65 47.1 77.3 46.2 76.95 45.2 76.55 44.9 76.35 44.6 76.15 44.6 75.85 44.6 75.35 45.5 75.35 46.05 75.35 46.55 75.5 47.05 75.65 47.6 75.9M58.95 73.8L59.6 72.15Q58.85 71.85 58.15 71.65 57.4 71.45 56.65 71.45 55.05 71.45 54.15 72.2 53.25 73 53.25 74.3 53.25 75 53.55 75.55 53.8 76.05 54.25 76.45 54.7 76.85 55.65 77.3 56.6 77.75 56.95 77.95 57.25 78.2 57.4 78.4 57.6 78.65 57.6 78.95 57.6 79.45 57.2 79.7 56.85 80 56.15 80 55.55 80 54.85 79.8 54.15 79.6 53.15 79.15L53.15 81.15Q54.35 81.75 55.95 81.75 57.7 81.75 58.7 80.95 59.65 80.2 59.65 78.8 59.65 77.85 59.15 77.2 58.6 76.5 57.2 75.85 56.15 75.3 55.9 75.15 55.6 74.95 55.45 74.75 55.35 74.5 55.35 74.25 55.35 73.8 55.65 73.5 55.95 73.25 56.55 73.25 57.1 73.25 57.6 73.35 58.15 73.5 58.95 73.8M43.1 58.15L42.8 57.15 41.1 57.15 41.1 68.15 43.2 68.15 43.2 65.05Q43.2 64.9 43.05 63.95L43.2 63.95Q43.95 64.95 45.3 64.95 46.2 64.95 46.85 64.45 47.5 64 47.9 63.1 48.25 62.2 48.25 60.95 48.25 59.1 47.45 58.05 46.7 57 45.35 57 43.9 57 43.2 58.15L43.1 58.15M43.2 60.75Q43.2 59.65 43.55 59.15 43.9 58.7 44.7 58.7 45.4 58.7 45.75 59.25 46.1 59.8 46.1 60.95 46.1 63.25 44.7 63.25 43.9 63.25 43.55 62.7 43.2 62.2 43.2 60.95L43.2 60.75M54.9 57.1Q54.65 57 54.2 57 53.5 57 52.9 57.4 52.3 57.8 51.95 58.45L51.85 58.45 51.5 57.15 49.95 57.15 49.95 64.8 52.05 64.8 52.05 60.9Q52.05 60 52.6 59.45 53.15 58.95 54.15 58.95 54.5 58.95 54.75 59.05L54.9 57.1M62.85 60.5Q62.85 58.85 61.95 57.95 61.05 57 59.45 57 57.75 57 56.8 58.05 55.85 59.1 55.85 61.05 55.85 62.9 56.85 63.9 57.9 64.95 59.75 64.95 60.65 64.95 61.25 64.8 61.9 64.65 62.45 64.4L62.45 62.8Q61.75 63.1 61.15 63.25 60.55 63.4 59.85 63.4 58.95 63.4 58.45 62.9 58 62.4 57.95 61.5L62.85 61.5 62.85 60.5M59.45 58.5Q60.1 58.5 60.5 58.9 60.9 59.35 60.9 60.1L58 60.1Q58.05 59.35 58.4 58.9 58.8 58.5 59.45 58.5M64.85 57.55Q64.1 58.15 64.1 59.15 64.1 59.75 64.25 60.15 64.45 60.55 64.85 60.85 65.3 61.2 66.15 61.55 66.8 61.8 67.15 62 67.5 62.2 67.65 62.35 67.8 62.5 67.8 62.75 67.8 63.4 66.7 63.4 66.15 63.4 65.4 63.25 64.65 63.05 64.1 62.75L64.1 64.5Q64.6 64.7 65.2 64.85 65.8 64.95 66.6 64.95 68.25 64.95 69.05 64.3 69.9 63.7 69.9 62.55 69.9 61.95 69.7 61.55 69.5 61.15 69.05 60.85 68.65 60.5 67.75 60.15 66.75 59.75 66.45 59.55 66.15 59.35 66.15 59.05 66.15 58.55 67.05 58.55 67.6 58.55 68.1 58.7 68.6 58.85 69.15 59.1L69.8 57.6Q68.5 57 67.1 57 65.65 57 64.85 57.55M72 58.05Q71.05 59.1 71.05 61.05 71.05 62.9 72.05 63.9 73.1 64.95 74.95 64.95 75.85 64.95 76.45 64.8 77.1 64.65 77.65 64.4L77.65 62.8Q76.95 63.1 76.35 63.25 75.75 63.4 75.05 63.4 74.15 63.4 73.65 62.9 73.2 62.4 73.15 61.5L78.05 61.5 78.05 60.5Q78.05 58.85 77.15 57.95 76.25 57 74.65 57 72.95 57 72 58.05M73.2 60.1Q73.25 59.35 73.6 58.9 74 58.5 74.65 58.5 75.3 58.5 75.7 58.9 76.1 59.35 76.1 60.1L73.2 60.1M39.4 90.55L39.45 90.55Q39.4 92.45 39.4 92.9 39.35 93.35 39.35 93.65L39.35 98.4 41.35 98.4 41.35 88.4 38.45 88.4 35.95 96.05 35.9 96.05 33.55 88.4 30.65 88.4 30.65 98.4 32.55 98.4 32.55 93.75Q32.55 92.95 32.4 90.55L32.5 90.55 34.9 98.4 36.85 98.4 39.4 90.55M38.8 76.5L38.8 76.85 37.45 76.9Q35.75 76.95 34.9 77.55 34.05 78.1 34.05 79.3 34.05 80.5 34.65 81.1 35.3 81.75 36.4 81.75 37.3 81.75 37.85 81.5 38.4 81.2 38.95 80.55L39 80.55 39.4 81.6 40.85 81.6 40.85 76.5Q40.85 75.15 40.05 74.45 39.2 73.8 37.65 73.8 36.05 73.8 34.75 74.5L35.45 75.9Q36.7 75.35 37.6 75.35 38.8 75.35 38.8 76.5M37.2 80.2Q36.2 80.2 36.2 79.35 36.2 78.7 36.6 78.4 37.05 78.1 38 78.1L38.8 78.05 38.8 78.7Q38.8 79.4 38.35 79.8 37.9 80.2 37.2 80.2M30.3 70.95L30.3 73.4Q30.3 74.1 30.45 74.95L30.35 74.95Q29.6 73.8 28.15 73.8 26.8 73.8 26 74.85 25.25 75.9 25.25 77.8 25.25 79.65 26 80.7 26.75 81.75 28.1 81.75 29.55 81.75 30.3 80.6L30.35 80.6 30.75 81.6 32.35 81.6 32.35 70.95 30.3 70.95M30.4 77.8L30.4 78.05Q30.4 79.15 30 79.6 29.65 80.1 28.85 80.1 28.1 80.1 27.75 79.5 27.35 78.95 27.35 77.8 27.35 76.7 27.75 76.1 28.1 75.5 28.8 75.5 29.65 75.5 30.05 76.05 30.4 76.6 30.4 77.8M29.7 55.55Q28.7 54.8 26.65 54.8L23.75 54.8 23.75 64.8 25.9 64.8 25.9 60.95 27 60.95 29.4 64.8 31.75 64.8Q31.05 63.8 28.8 60.45 29.7 60.05 30.2 59.35 30.65 58.7 30.65 57.8 30.65 56.3 29.7 55.55M28.05 56.85Q28.5 57.15 28.5 57.85 28.5 58.55 28.05 58.9 27.55 59.25 26.55 59.25L25.9 59.25 25.9 56.55 26.5 56.55Q27.55 56.55 28.05 56.85M33.35 58.05Q32.4 59.1 32.4 61.05 32.4 62.9 33.4 63.9 34.45 64.95 36.3 64.95 37.2 64.95 37.8 64.8 38.45 64.65 39 64.4L39 62.8Q38.3 63.1 37.7 63.25 37.1 63.4 36.4 63.4 35.5 63.4 35 62.9 34.55 62.4 34.5 61.5L39.4 61.5 39.4 60.5Q39.4 58.85 38.5 57.95 37.6 57 36 57 34.3 57 33.35 58.05M34.55 60.1Q34.6 59.35 34.95 58.9 35.35 58.5 36 58.5 36.65 58.5 37.05 58.9 37.45 59.35 37.45 60.1L34.55 60.1M129.55 75.9L130.2 74.4Q128.9 73.8 127.5 73.8 126.05 73.8 125.25 74.35 124.5 74.95 124.5 75.95 124.5 76.55 124.65 76.95 124.85 77.35 125.25 77.65 125.7 78 126.55 78.35 127.2 78.6 127.55 78.8 127.9 79 128.05 79.15 128.2 79.3 128.2 79.55 128.2 80.2 127.1 80.2 126.55 80.2 125.8 80.05 125.05 79.85 124.5 79.55L124.5 81.3Q125 81.5 125.6 81.65 126.2 81.75 127 81.75 128.65 81.75 129.45 81.1 130.3 80.5 130.3 79.35 130.3 78.75 130.1 78.35 129.9 77.95 129.45 77.65 129.05 77.3 128.15 76.95 127.15 76.55 126.85 76.35 126.55 76.15 126.55 75.85 126.55 75.35 127.45 75.35 128 75.35 128.5 75.5 129 75.65 129.55 75.9M131.65 59.1L132.3 57.6Q131 57 129.6 57 128.15 57 127.35 57.55 126.6 58.15 126.6 59.15 126.6 59.75 126.75 60.15 126.95 60.55 127.35 60.85 127.8 61.2 128.65 61.55 129.3 61.8 129.65 62 130 62.2 130.15 62.35 130.3 62.5 130.3 62.75 130.3 63.4 129.2 63.4 128.65 63.4 127.9 63.25 127.15 63.05 126.6 62.75L126.6 64.5Q127.1 64.7 127.7 64.85 128.3 64.95 129.1 64.95 130.75 64.95 131.55 64.3 132.4 63.7 132.4 62.55 132.4 61.95 132.2 61.55 132 61.15 131.55 60.85 131.15 60.5 130.25 60.15 129.25 59.75 128.95 59.55 128.65 59.35 128.65 59.05 128.65 58.55 129.55 58.55 130.1 58.55 130.6 58.7 131.1 58.85 131.65 59.1M118.35 94.65Q118.35 96.5 119.35 97.5 120.4 98.55 122.25 98.55 123.15 98.55 123.75 98.4 124.4 98.25 124.95 98L124.95 96.4Q124.25 96.7 123.65 96.85 123.05 97 122.35 97 121.45 97 120.95 96.5 120.5 96 120.45 95.1L125.35 95.1 125.35 94.1Q125.35 92.45 124.45 91.55 123.55 90.6 121.95 90.6 120.25 90.6 119.3 91.65 118.35 92.7 118.35 94.65M120.5 93.7Q120.55 92.95 120.9 92.5 121.3 92.1 121.95 92.1 122.6 92.1 123 92.5 123.4 92.95 123.4 93.7L120.5 93.7M109.5 94.6Q109.5 96.45 110.25 97.5 111 98.55 112.35 98.55 113.8 98.55 114.55 97.4L114.6 97.4 115 98.4 116.6 98.4 116.6 87.75 114.55 87.75 114.55 90.2Q114.55 90.9 114.7 91.75L114.6 91.75Q113.85 90.6 112.4 90.6 111.05 90.6 110.25 91.65 109.5 92.7 109.5 94.6M114.3 92.85Q114.65 93.4 114.65 94.6L114.65 94.85Q114.65 95.95 114.25 96.4 113.9 96.9 113.1 96.9 112.35 96.9 112 96.3 111.6 95.75 111.6 94.6 111.6 93.5 112 92.9 112.35 92.3 113.05 92.3 113.9 92.3 114.3 92.85M120.75 76.85L119.4 76.9Q117.7 76.95 116.85 77.55 116 78.1 116 79.3 116 80.5 116.6 81.1 117.25 81.75 118.35 81.75 119.25 81.75 119.8 81.5 120.35 81.2 120.9 80.55L120.95 80.55 121.35 81.6 122.8 81.6 122.8 76.5Q122.8 75.15 122 74.45 121.15 73.8 119.6 73.8 118 73.8 116.7 74.5L117.4 75.9Q118.65 75.35 119.55 75.35 120.75 75.35 120.75 76.5L120.75 76.85M118.15 79.35Q118.15 78.7 118.55 78.4 119 78.1 119.95 78.1L120.75 78.05 120.75 78.7Q120.75 79.4 120.3 79.8 119.85 80.2 119.15 80.2 118.15 80.2 118.15 79.35M97.2 90.75L95.1 90.75 95.1 98.4 97.2 98.4 97.2 90.75M97 89.55Q97.25 89.25 97.25 88.8 97.25 87.75 96.15 87.75 95 87.75 95 88.8 95 89.8 96.15 89.8 96.7 89.8 97 89.55M99.65 91.15Q98.9 91.75 98.9 92.75 98.9 93.35 99.05 93.75 99.25 94.15 99.65 94.45 100.1 94.8 100.95 95.15 101.6 95.4 101.95 95.6 102.3 95.8 102.45 95.95 102.6 96.1 102.6 96.35 102.6 97 101.5 97 100.95 97 100.2 96.85 99.45 96.65 98.9 96.35L98.9 98.1Q99.4 98.3 100 98.45 100.6 98.55 101.4 98.55 103.05 98.55 103.85 97.9 104.7 97.3 104.7 96.15 104.7 95.55 104.5 95.15 104.3 94.75 103.85 94.45 103.45 94.1 102.55 93.75 101.55 93.35 101.25 93.15 100.95 92.95 100.95 92.65 100.95 92.15 101.85 92.15 102.4 92.15 102.9 92.3 103.4 92.45 103.95 92.7L104.6 91.2Q103.3 90.6 101.9 90.6 100.45 90.6 99.65 91.15M84.15 91.65Q83.4 90.6 82.05 90.6 80.6 90.6 79.9 91.75L79.8 91.75 79.5 90.75 77.8 90.75 77.8 101.75 79.9 101.75 79.9 98.65Q79.9 98.5 79.75 97.55L79.9 97.55Q80.65 98.55 82 98.55 82.9 98.55 83.55 98.05 84.2 97.6 84.6 96.7 84.95 95.8 84.95 94.55 84.95 92.7 84.15 91.65M82.45 92.85Q82.8 93.4 82.8 94.55 82.8 96.85 81.4 96.85 80.6 96.85 80.25 96.3 79.9 95.8 79.9 94.55L79.9 94.35Q79.9 93.25 80.25 92.75 80.6 92.3 81.4 92.3 82.1 92.3 82.45 92.85M87.55 92.7Q88.8 92.15 89.7 92.15 90.9 92.15 90.9 93.3L90.9 93.65 89.55 93.7Q87.85 93.75 87 94.35 86.15 94.9 86.15 96.1 86.15 97.3 86.75 97.9 87.4 98.55 88.5 98.55 89.4 98.55 89.95 98.3 90.5 98 91.05 97.35L91.1 97.35 91.5 98.4 92.95 98.4 92.95 93.3Q92.95 91.95 92.15 91.25 91.3 90.6 89.75 90.6 88.15 90.6 86.85 91.3L87.55 92.7M90.1 94.9L90.9 94.85 90.9 95.5Q90.9 96.2 90.45 96.6 90 97 89.3 97 88.3 97 88.3 96.15 88.3 95.5 88.7 95.2 89.15 94.9 90.1 94.9M89.65 77.3Q89.65 75.65 88.75 74.75 87.85 73.8 86.25 73.8 84.55 73.8 83.6 74.85 82.65 75.9 82.65 77.85 82.65 79.7 83.65 80.7 84.7 81.75 86.55 81.75 87.45 81.75 88.05 81.6 88.7 81.45 89.25 81.2L89.25 79.6Q88.55 79.9 87.95 80.05 87.35 80.2 86.65 80.2 85.75 80.2 85.25 79.7 84.8 79.2 84.75 78.3L89.65 78.3 89.65 77.3M87.3 75.7Q87.7 76.15 87.7 76.9L84.8 76.9Q84.85 76.15 85.2 75.7 85.6 75.3 86.25 75.3 86.9 75.3 87.3 75.7M97.8 77.55Q96.95 78.1 96.95 79.3 96.95 80.5 97.55 81.1 98.2 81.75 99.3 81.75 100.2 81.75 100.75 81.5 101.3 81.2 101.85 80.55L101.9 80.55 102.3 81.6 103.75 81.6 103.75 76.5Q103.75 75.15 102.95 74.45 102.1 73.8 100.55 73.8 98.95 73.8 97.65 74.5L98.35 75.9Q99.6 75.35 100.5 75.35 101.7 75.35 101.7 76.5L101.7 76.85 100.35 76.9Q98.65 76.95 97.8 77.55M99.5 78.4Q99.95 78.1 100.9 78.1L101.7 78.05 101.7 78.7Q101.7 79.4 101.25 79.8 100.8 80.2 100.1 80.2 99.1 80.2 99.1 79.35 99.1 78.7 99.5 78.4M93.65 73.95L93.65 72.35 92.3 72.35 91.7 73.95 90.55 74.65 90.55 75.5 91.55 75.5 91.55 79.2Q91.55 80.45 92.15 81.1 92.7 81.75 93.95 81.75 95.1 81.75 95.9 81.4L95.9 79.85Q95.1 80.1 94.55 80.1 94.15 80.1 93.9 79.85 93.65 79.65 93.65 79.2L93.65 75.5 95.8 75.5 95.8 73.95 93.65 73.95M81.7 73.9Q81.45 73.8 81 73.8 80.3 73.8 79.7 74.2 79.1 74.6 78.75 75.25L78.65 75.25 78.3 73.95 76.75 73.95 76.75 81.6 78.85 81.6 78.85 77.7Q78.85 76.8 79.4 76.25 79.95 75.75 80.95 75.75 81.3 75.75 81.55 75.85L81.7 73.9M84.1 57Q83.3 57 82.7 57.3 82.1 57.6 81.75 58.15L81.6 58.15 81.35 57.15 79.75 57.15 79.75 64.8 81.85 64.8 81.85 61.2Q81.85 59.85 82.2 59.25 82.6 58.7 83.5 58.7 84.15 58.7 84.4 59.1 84.7 59.5 84.7 60.35L84.7 64.8 86.8 64.8 86.8 59.8Q86.8 58.45 86.1 57.75 85.4 57 84.1 57M93.4 57.15L91.25 57.15 91.25 55.55 89.9 55.55 89.3 57.15 88.15 57.85 88.15 58.7 89.15 58.7 89.15 62.4Q89.15 63.65 89.75 64.3 90.3 64.95 91.55 64.95 92.7 64.95 93.5 64.6L93.5 63.05Q92.7 63.3 92.15 63.3 91.75 63.3 91.5 63.05 91.25 62.85 91.25 62.4L91.25 58.7 93.4 58.7 93.4 57.15M101.35 64.8L101.35 59.7Q101.35 58.35 100.55 57.65 99.7 57 98.15 57 96.55 57 95.25 57.7L95.95 59.1Q97.2 58.55 98.1 58.55 99.3 58.55 99.3 59.7L99.3 60.05 97.95 60.1Q96.25 60.15 95.4 60.75 94.55 61.3 94.55 62.5 94.55 63.7 95.15 64.3 95.8 64.95 96.9 64.95 97.8 64.95 98.35 64.7 98.9 64.4 99.45 63.75L99.5 63.75 99.9 64.8 101.35 64.8M98.5 61.3L99.3 61.25 99.3 61.9Q99.3 62.6 98.85 63 98.4 63.4 97.7 63.4 96.7 63.4 96.7 62.55 96.7 61.9 97.1 61.6 97.55 61.3 98.5 61.3M114.35 73.95L112.25 73.95 112.25 81.6 114.35 81.6 114.35 73.95M113.3 73Q113.85 73 114.15 72.75 114.4 72.45 114.4 72 114.4 70.95 113.3 70.95 112.15 70.95 112.15 72 112.15 73 113.3 73M107.45 73.95L105.9 73.95 105.9 81.6 108 81.6 108 77.7Q108 76.8 108.55 76.25 109.1 75.75 110.1 75.75 110.45 75.75 110.7 75.85L110.85 73.9Q110.6 73.8 110.15 73.8 109.45 73.8 108.85 74.2 108.25 74.6 107.9 75.25L107.8 75.25 107.45 73.95M105.6 61.2Q105.6 59.85 105.95 59.25 106.35 58.7 107.25 58.7 107.9 58.7 108.15 59.1 108.45 59.5 108.45 60.35L108.45 64.8 110.55 64.8 110.55 59.8Q110.55 58.45 109.85 57.75 109.15 57 107.85 57 107.05 57 106.45 57.3 105.85 57.6 105.5 58.15L105.35 58.15 105.1 57.15 103.5 57.15 103.5 64.8 105.6 64.8 105.6 61.2M119.3 58.05Q118.35 59.1 118.35 61.05 118.35 62.9 119.35 63.9 120.4 64.95 122.25 64.95 123.15 64.95 123.75 64.8 124.4 64.65 124.95 64.4L124.95 62.8Q124.25 63.1 123.65 63.25 123.05 63.4 122.35 63.4 121.45 63.4 120.95 62.9 120.5 62.4 120.45 61.5L125.35 61.5 125.35 60.5Q125.35 58.85 124.45 57.95 123.55 57 121.95 57 120.25 57 119.3 58.05M120.5 60.1Q120.55 59.35 120.9 58.9 121.3 58.5 121.95 58.5 122.6 58.5 123 58.9 123.4 59.35 123.4 60.1L120.5 60.1M115 55.55L113.65 55.55 113.05 57.15 111.9 57.85 111.9 58.7 112.9 58.7 112.9 62.4Q112.9 63.65 113.5 64.3 114.05 64.95 115.3 64.95 116.45 64.95 117.25 64.6L117.25 63.05Q116.45 63.3 115.9 63.3 115.5 63.3 115.25 63.05 115 62.85 115 62.4L115 58.7 117.15 58.7 117.15 57.15 115 57.15 115 55.55Z"/></g><animate attributeName="display" fill="freeze" repeatCount="1" dur="1.333s" keyTimes="0;.625;1" values="none;inline;inline"/></g></g></svg>