<?xml version="1.0" encoding="utf-8"?><svg id="M1_A2_RM_21" image-rendering="auto" baseProfile="basic" version="1.1" x="0px" y="0px" width="375" height="375" xmlns="http://www.w3.org/2000/svg" xmlns:xlink="http://www.w3.org/1999/xlink"><g id="Cena-1r1" overflow="visible"><g id="ComissaoTripartite" transform="matrix(.046 0 0 .046 181.4 200.45)"><animateTransform attributeName="transform" additive="replace" type="translate" dur="1.375s" keyTimes="0;.182;.242;.303;1" values="185.002,204.052;184.951,204.114;184.947,204.079;184.95,204;184.95,204" fill="freeze"/><animateTransform attributeName="transform" additive="sum" type="scale" dur="1.375s" keyTimes="0;.182;.242;.303;1" values=".046,.046;1.142,1.142;.955,.955;1,1;1,1" fill="freeze"/><animateTransform attributeName="transform" additive="sum" type="translate" dur="1.375s" keyTimes="0;.182;.242;.303;1" values="-78.8,-78.8;-77.3,-77.75;-77.35,-77.75;-77.3,-77.65;-77.3,-77.65" fill="freeze"/><path fill="#637D8E" stroke="none" d="M149.05 47.8Q143.15 33.9 132.4 23.15 121.65 12.4 107.75 6.5 93.3 .4 77.5 .4 61.7 .4 47.3 6.5 33.35 12.4 22.65 23.15 11.9 33.9 6 47.8 -.1 62.25 -.1 78.05 -.1 93.85 6 108.25 11.9 122.2 22.65 132.9 33.35 143.65 47.3 149.55 61.7 155.65 77.5 155.65 93.3 155.65 107.75 149.55 121.65 143.65 132.4 132.9 143.15 122.2 149.05 108.25 155.15 93.85 155.15 78.05 155.15 62.25 149.05 47.8M143 50.4Q148.6 63.6 148.6 78.05 148.6 92.5 143 105.7 137.6 118.45 127.75 128.3 117.9 138.1 105.15 143.5 91.95 149.1 77.5 149.1 48.1 149.1 27.3 128.3 17.45 118.45 12.05 105.7 6.45 92.5 6.45 78.05 6.45 63.6 12.05 50.4 17.45 37.65 27.3 27.8 37.1 17.95 49.85 12.55 63.05 6.95 77.5 6.95 91.95 6.95 105.15 12.55 117.9 17.95 127.75 27.8 137.6 37.65 143 50.4M147.6 78.05Q147.6 63.8 142.1 50.8 136.75 38.2 127.05 28.5 106.5 7.95 77.5 7.95 48.55 7.95 28 28.5 18.3 38.2 12.95 50.8 7.45 63.8 7.45 78.05 7.45 107 28 127.55 37.7 137.25 50.25 142.6 63.3 148.1 77.5 148.1 91.75 148.1 104.75 142.6 117.35 137.25 127.05 127.55 147.6 107 147.6 78.05M102.8 61.65Q102.8 59.8 103.8 58.7 104.8 57.7 106.55 57.7 107.65 57.7 108.45 58.15 109.3 58.65 109.75 59.55 110.2 60.45 110.2 61.65 110.2 63.55 109.25 64.55 108.3 65.6 106.5 65.6 105.35 65.6 104.55 65.1 103.7 64.65 103.25 63.75 102.8 62.85 102.8 61.65M99.15 55.6Q99.4 55.6 99.55 55.4 99.75 55.25 99.85 54.85L100.85 54.85Q100.75 55.95 100.3 56.4 99.8 57 99 57L98.45 56.85 97.4 56.4Q97.2 56.25 96.9 56.25 96.8 56.25 96.5 56.45 96.35 56.65 96.25 57L95.2 57Q95.3 56 95.75 55.45 96.25 54.9 97.05 54.9 97.45 54.9 97.6 55L98.65 55.5 99.15 55.6M95.7 59.75L95 58.35Q96.4 57.65 97.95 57.65 99.45 57.65 100.3 58.35 101.15 59.05 101.15 60.35L101.15 65.45 99.65 65.45 99.25 64.45 99.2 64.45Q98.55 65.15 98.15 65.35 97.5 65.6 96.7 65.6 95.55 65.6 94.95 65 94.3 64.35 94.3 63.2 94.3 62 95.15 61.4 96 60.85 97.75 60.75L99.05 60.7 99.05 60.35Q99.05 59.2 97.85 59.2 97.05 59.2 95.7 59.75M93.1 58.3L92.5 59.8Q92.1 59.6 91.4 59.4 90.9 59.25 90.4 59.25 89.45 59.25 89.45 59.75 89.45 60 89.75 60.2 90.05 60.4 91.05 60.8 91.85 61.15 92.4 61.5 92.75 61.8 93 62.2 93.2 62.8 93.2 63.2 93.2 64.4 92.35 65 91.6 65.6 89.95 65.6L88.5 65.5 87.4 65.15 87.4 63.45 88.7 63.9Q89.7 64.1 90 64.1 91.15 64.1 91.15 63.4 91.15 63.25 91 63L89.5 62.2Q88.5 61.8 88.2 61.55 87.75 61.25 87.6 60.8 87.4 60.45 87.4 59.8 87.4 58.75 88.2 58.25 88.9 57.7 90.4 57.7 91.85 57.7 93.1 58.3M82.5 59.75Q82.5 60 82.8 60.2 83.1 60.4 84.1 60.8 85 61.15 85.4 61.5 85.8 61.75 86.05 62.2 86.25 62.8 86.25 63.2 86.25 64.4 85.4 65 84.6 65.6 82.95 65.6L81.55 65.5 80.45 65.15 80.45 63.45 81.75 63.9Q82.75 64.1 83.05 64.1 84.15 64.1 84.15 63.4 84.15 63.25 84 63L83.5 62.7 81.2 61.55Q80.85 61.25 80.6 60.8 80.45 60.45 80.45 59.8 80.45 58.8 81.2 58.25 81.95 57.7 83.45 57.7 84.9 57.7 86.15 58.3L85.5 59.8Q85.15 59.6 84.45 59.4L83.45 59.25Q82.5 59.25 82.5 59.75M90.25 73L91.6 73 91.6 74.65 93.75 74.65 93.75 76.2 91.6 76.2 91.6 79.9Q91.6 80.3 91.85 80.55 92.15 80.75 92.5 80.75 92.95 80.75 93.8 80.5L93.8 82.05Q93.1 82.4 91.9 82.4 90.6 82.4 90.1 81.75 89.5 81.15 89.5 79.9L89.5 76.2 88.5 76.2 88.5 75.3 89.65 74.6 90.25 73M98.65 74.5Q99.75 74.5 100.55 74.95 101.4 75.45 101.85 76.35 102.3 77.25 102.3 78.45 102.3 80.35 101.35 81.35 100.3 82.4 98.6 82.4 97.45 82.4 96.65 81.9 95.8 81.45 95.35 80.55 94.9 79.65 94.9 78.45 94.9 76.6 95.9 75.5 96.9 74.5 98.65 74.5M87.6 75.1L86.95 76.6 85.9 76.2 84.85 76.05Q83.95 76.05 83.95 76.5 83.95 76.8 84.25 77 84.6 77.25 85.55 77.6 86.2 77.9 86.85 78.3 87.3 78.6 87.45 79 87.65 79.4 87.65 80 87.65 81.2 86.85 81.8 86.05 82.4 84.4 82.4L83 82.3Q82.2 82.1 81.9 81.95L81.9 80.25 83.2 80.7Q84.2 80.9 84.45 80.9 85.6 80.9 85.6 80.2 85.6 80.05 85.45 79.8L84.95 79.45 82.65 78.35Q82.3 78.05 82.05 77.6 81.85 77.1 81.85 76.6 81.85 75.6 82.65 75.05 83.4 74.5 84.9 74.5 86.25 74.5 87.6 75.1M86.7 92.1L87.85 91.4 88.45 89.8 89.8 89.8 89.8 91.4 91.9 91.4 91.9 93 89.8 93 89.8 96.65Q89.8 97.15 90.05 97.35 90.35 97.55 90.7 97.55 91.15 97.55 92 97.3L92 98.85Q91.3 99.2 90.1 99.2 88.85 99.2 88.25 98.55 87.7 97.9 87.7 96.65L87.7 93 86.7 93 86.7 92.1M83.1 92.7Q83.5 92.05 84.05 91.7 84.6 91.3 85.4 91.3L86.1 91.35 85.95 93.3 85.3 93.25Q84.3 93.25 83.75 93.75 83.2 94.3 83.2 95.2L83.2 99.05 81.1 99.05 81.1 91.45 82.7 91.45 83 92.7 83.1 92.7M97.05 92.1L98.2 91.4 98.8 89.8 100.15 89.8 100.15 91.4 102.25 91.4 102.25 93 100.15 93 100.15 96.65Q100.15 97.15 100.4 97.35 100.7 97.55 101.05 97.55 101.5 97.55 102.35 97.3L102.35 98.85Q101.65 99.2 100.45 99.2 99.2 99.2 98.6 98.55 98.05 97.9 98.05 96.65L98.05 93 97.05 93 97.05 92.1M93.45 89.45Q93.45 88.45 94.6 88.45 95.75 88.45 95.75 89.45 95.75 89.9 95.45 90.2 95.2 90.45 94.6 90.45 93.45 90.45 93.45 89.45M93.55 91.4L95.65 91.4 95.65 99.05 93.55 99.05 93.55 91.4M119 75.05Q119.7 74.5 121.25 74.5 122.65 74.5 123.9 75.1L123.3 76.6Q122.9 76.4 122.2 76.2 121.75 76.05 121.2 76.05 120.25 76.05 120.25 76.5 120.25 76.8 120.55 77 120.85 77.2 121.85 77.6 122.65 77.95 123.2 78.3 123.55 78.6 123.8 79 124 79.4 124 80 124 81.15 123.2 81.8 122.4 82.4 120.75 82.4L119.3 82.3 118.2 81.95 118.2 80.25 119.5 80.7Q120.5 80.9 120.8 80.9 121.95 80.9 121.95 80.2 121.95 80.05 121.8 79.8L121.25 79.45 120.3 79Q119.3 78.6 119 78.35 118.55 78.05 118.4 77.6 118.2 77.25 118.2 76.6 118.2 75.55 119 75.05M116.95 77.95L116.95 78.95 112.05 78.95Q112.05 79.75 112.55 80.35 113.05 80.85 113.95 80.85 114.65 80.85 115.25 80.7L116.55 80.25 116.55 81.85Q115.85 82.2 115.35 82.25 114.75 82.4 113.85 82.4 112.05 82.4 110.95 81.4 109.95 80.4 109.95 78.5 109.95 76.55 110.9 75.55 111.9 74.5 113.55 74.5 115.15 74.5 116.05 75.4 116.95 76.3 116.95 77.95M109 74.55L108.85 76.5 108.25 76.45Q107.2 76.45 106.7 76.95 106.1 77.5 106.1 78.4L106.1 82.25 104.05 82.25 104.05 74.65 105.6 74.65 105.9 75.9 106.05 75.9Q106.3 75.35 107 74.85 107.55 74.5 108.3 74.5L109 74.55M107.05 91.3Q108.65 91.3 109.55 92.2 110.45 93.1 110.45 94.75L110.45 95.75 105.55 95.75Q105.55 96.55 106.05 97.15 106.55 97.65 107.45 97.65 108.15 97.65 108.75 97.5L110.05 97.05 110.05 98.65Q109.5 99 108.9 99.05 108.25 99.2 107.35 99.2 105.55 99.2 104.45 98.2 103.45 97.1 103.45 95.3 103.45 93.35 104.4 92.35 105.4 91.3 107.05 91.3M31.75 72.25L33.9 72.25 33.9 82.25 31.75 82.25 31.75 72.25M38.1 75.6L38.25 75.6Q38.55 75.1 39.2 74.75 39.85 74.5 40.6 74.5 41.95 74.5 42.6 75.2 43.3 76 43.3 77.3L43.3 82.25 41.2 82.25 41.2 77.8Q41.2 77 40.9 76.55 40.6 76.15 40 76.15 39.15 76.15 38.7 76.75 38.35 77.25 38.35 78.65L38.35 82.25 36.25 82.25 36.25 74.6 37.85 74.6 38.1 75.6M72.4 61Q72.4 60.2 72.1 59.75 71.85 59.35 71.25 59.35 70.5 59.35 70.1 59.9 69.7 60.45 69.7 61.65L69.7 65.45 67.65 65.45 67.65 61Q67.65 60.2 67.35 59.75 67.1 59.35 66.5 59.35 65.65 59.35 65.35 59.95 64.95 60.6 64.95 61.85L64.95 65.45 62.9 65.45 62.9 57.8 64.45 57.8 64.75 58.8 64.85 58.8Q65.15 58.3 65.75 58 66.35 57.7 67.1 57.7 68.8 57.7 69.4 58.8L69.6 58.8Q69.95 58.2 70.5 58 71.1 57.7 71.85 57.7 73.2 57.7 73.8 58.35 74.5 59.05 74.5 60.5L74.5 65.45 72.4 65.45 72.4 61M76.65 57.85L78.7 57.85 78.7 65.45 76.65 65.45 76.65 57.85M77.65 56.85Q76.55 56.85 76.55 55.85 76.55 54.85 77.65 54.85 78.8 54.85 78.8 55.85 78.8 56.3 78.5 56.6 78.3 56.85 77.65 56.85M53.75 61.65Q53.75 59.7 54.7 58.7 55.8 57.7 57.45 57.7 58.6 57.7 59.4 58.15 60.3 58.7 60.7 59.55 61.15 60.45 61.15 61.65 61.15 63.55 60.15 64.55 59.2 65.6 57.45 65.6 56.3 65.6 55.5 65.1 54.65 64.65 54.2 63.75 53.75 62.85 53.75 61.65M51.95 57.75Q51.2 57.4 50.8 57.3 50.35 57.1 49.7 57.1 48.55 57.1 47.85 58 47.2 58.85 47.2 60.5 47.2 63.85 49.7 63.85 50.7 63.85 52.25 63.3L52.25 65.1Q51.1 65.6 49.5 65.6 47.4 65.6 46.15 64.3 45 62.9 45 60.5 45 58.95 45.6 57.75 46.1 56.55 47.2 55.95 48.25 55.35 49.7 55.35 51.25 55.35 52.65 56.05L51.95 57.75M46.4 73L47.75 73 47.75 74.65 49.9 74.65 49.9 76.2 47.75 76.2 47.75 79.9Q47.75 80.3 48 80.55 48.3 80.75 48.65 80.75 49.1 80.75 50 80.5L50 82.05Q49.25 82.4 48.05 82.4 46.75 82.4 46.25 81.75 45.65 81.15 45.65 79.9L45.65 76.2 44.65 76.2 44.65 75.3 45.8 74.6 46.4 73M58.1 77.95L58.1 78.95 53.15 78.95Q53.25 79.9 53.7 80.35 54.15 80.85 55.1 80.85 55.75 80.85 56.4 80.7L57.65 80.25 57.65 81.85Q57.1 82.2 56.5 82.25 55.9 82.4 55 82.4 53.2 82.4 52.1 81.4 51.05 80.35 51.05 78.5 51.05 76.65 52 75.55 53 74.5 54.65 74.5 56.3 74.5 57.2 75.4 58.1 76.3 58.1 77.95M59.8 82.25L59.8 74.65 61.35 74.65 61.7 75.9 61.8 75.9Q62.05 75.35 62.75 74.85 63.3 74.5 64.05 74.5L64.75 74.55 64.6 76.5 64 76.45Q62.95 76.45 62.45 76.95 61.9 77.45 61.9 78.4L61.9 82.25 59.8 82.25M46.95 90.85L44.25 90.85 44.25 89.05 51.8 89.05 51.8 90.85 49.1 90.85 49.1 99.05 46.95 99.05 46.95 90.85M56.1 91.7Q56.65 91.3 57.45 91.3L58.15 91.35 58 93.3 57.35 93.25Q56.35 93.25 55.8 93.75 55.25 94.3 55.25 95.2L55.25 99.05 53.15 99.05 53.15 91.45 54.75 91.45 55.05 92.7 55.15 92.7Q55.55 92.05 56.1 91.7M59.45 89.45Q59.45 88.45 60.55 88.45 61.7 88.45 61.7 89.45 61.7 89.9 61.4 90.2 61.2 90.45 60.55 90.45 59.45 90.45 59.45 89.45M77.2 74.5Q78.85 74.5 79.75 75.4 80.65 76.3 80.65 77.95L80.65 78.95 75.7 78.95Q75.8 79.9 76.25 80.35 76.7 80.85 77.6 80.85 78.3 80.85 78.9 80.7 79.5 80.55 80.2 80.25L80.2 81.85Q79.65 82.2 79.05 82.25 78.4 82.4 77.5 82.4 75.75 82.4 74.65 81.4 73.6 80.35 73.6 78.5 73.6 76.55 74.55 75.55 75.55 74.5 77.2 74.5M72.8 74.6L72.8 75.7 71.6 76Q71.95 76.6 71.95 77.15 71.95 78.35 71.1 79.05 70.15 79.75 68.7 79.75L68.3 79.7 68 79.7Q67.7 79.95 67.7 80.25 67.7 80.7 68.85 80.7L70.15 80.7Q71.45 80.7 72.05 81.25 72.7 81.75 72.7 82.8 72.7 84.15 71.6 84.9 70.5 85.65 68.4 85.65 66.8 85.65 65.95 85.05 65.1 84.5 65.1 83.5 65.1 82.8 65.55 82.35 65.95 81.85 66.8 81.7 66.45 81.55 66.25 81.25 66 81 66 80.6 66 80.2 66.25 79.85 66.5 79.5 67 79.3 66.3 78.95 66 78.45 65.65 77.75 65.65 77.1 65.65 75.85 66.5 75.15 67.3 74.5 68.8 74.5L72.8 74.6M65.9 92.4Q66.55 91.3 68.05 91.3 69.4 91.3 70.15 92.35 70.95 93.3 70.95 95.25 70.95 96.3 70.6 97.35 70.25 98.2 69.55 98.75 68.9 99.2 68 99.2 66.65 99.2 65.9 98.25L65.8 98.25 65.9 99.35 65.9 102.45 63.8 102.45 63.8 91.45 65.5 91.45 65.8 92.4 65.9 92.4M72.85 91.95Q74.25 91.25 75.8 91.25 77.3 91.25 78.15 91.95 78.95 92.6 78.95 93.95L78.95 99.05 77.5 99.05 77.1 98.05 77.05 98.05Q76.4 98.8 75.95 98.95 75.35 99.2 74.5 99.2 73.4 99.2 72.8 98.6 72.15 97.95 72.15 96.8 72.15 95.6 73 95 73.8 94.45 75.55 94.35L76.9 94.3 76.9 93.95Q76.9 92.8 75.7 92.8 74.9 92.8 73.55 93.35L72.85 91.95M59.55 91.4L61.6 91.4 61.6 99.05 59.55 99.05 59.55 91.4M74.3 96.8Q74.3 97.7 75.3 97.7 76 97.7 76.45 97.25 76.9 96.9 76.9 96.15L76.9 95.55 76.1 95.55Q75.3 95.55 74.75 95.9 74.3 96.2 74.3 96.8M68.8 95.2Q68.8 94.05 68.45 93.5 68.15 92.95 67.4 92.95 66.6 92.95 66.25 93.45 65.9 93.85 65.9 95L65.9 95.2Q65.9 96.5 66.25 97 66.6 97.5 67.4 97.5 68.8 97.5 68.8 95.2M70.5 82.55Q70.15 82.35 69.35 82.35L68.25 82.35Q67.7 82.35 67.3 82.65 66.9 82.9 66.9 83.35 66.9 83.75 67.3 84 67.7 84.25 68.45 84.25 69.6 84.25 70.25 83.95 70.85 83.65 70.85 83.1 70.85 82.7 70.5 82.55M69.95 77.15Q69.95 75.75 68.8 75.75 67.65 75.75 67.65 77.15 67.65 77.75 67.95 78.1 68.25 78.45 68.8 78.45 69.45 78.45 69.65 78.1 69.95 77.75 69.95 77.15M78.3 76.4Q77.85 75.95 77.2 75.95 76.6 75.95 76.2 76.4 75.85 76.8 75.75 77.6L78.7 77.6Q78.6 76.7 78.3 76.4M56.15 77.6Q56.15 76.8 55.75 76.4 55.4 75.95 54.7 75.95 54.05 75.95 53.65 76.4 53.3 76.8 53.2 77.6L56.15 77.6M59 61.65Q59 60.45 58.65 59.95 58.3 59.35 57.45 59.35 56.65 59.35 56.25 59.95 55.85 60.5 55.85 61.65 55.85 62.7 56.25 63.35 56.65 63.95 57.45 63.95 58.3 63.95 58.65 63.35 59 62.8 59 61.65M106 93.2Q105.7 93.5 105.6 94.4L108.5 94.4Q108.5 93.55 108.1 93.2 107.75 92.75 107.05 92.75 106.45 92.75 106 93.2M112.1 77.6L115 77.6Q115 76.8 114.6 76.4 114.25 75.95 113.55 75.95 112.9 75.95 112.5 76.4 112.1 76.8 112.1 77.6M99.8 76.75Q99.45 76.15 98.6 76.15 97.8 76.15 97.4 76.75 97.05 77.25 97.05 78.45 97.05 79.6 97.4 80.15 97.8 80.75 98.6 80.75 99.45 80.75 99.8 80.15 100.2 79.5 100.2 78.45 100.2 77.3 99.8 76.75M99.05 62.55L99.05 61.95 98.25 61.95Q97.45 61.95 96.9 62.3 96.45 62.6 96.45 63.2 96.45 64.1 97.45 64.1 98.25 64.1 98.6 63.65 99.05 63.3 99.05 62.55M105.3 59.95Q104.95 60.45 104.95 61.65 104.95 62.8 105.3 63.35 105.7 63.95 106.5 63.95 107.4 63.95 107.7 63.35 108.1 62.7 108.1 61.65 108.1 60.5 107.7 59.95 107.35 59.35 106.5 59.35 105.7 59.35 105.3 59.95Z"/><path fill="#FFF" stroke="none" d="M148.6 78.05Q148.6 63.6 143 50.4 137.6 37.65 127.75 27.8 117.9 17.95 105.15 12.55 91.95 6.95 77.5 6.95 63.05 6.95 49.85 12.55 37.1 17.95 27.3 27.8 17.45 37.65 12.05 50.4 6.45 63.6 6.45 78.05 6.45 92.5 12.05 105.7 17.45 118.45 27.3 128.3 48.1 149.1 77.5 149.1 91.95 149.1 105.15 143.5 117.9 138.1 127.75 128.3 137.6 118.45 143 105.7 148.6 92.5 148.6 78.05M142.1 50.8Q147.6 63.8 147.6 78.05 147.6 107 127.05 127.55 117.35 137.25 104.75 142.6 91.75 148.1 77.5 148.1 63.3 148.1 50.25 142.6 37.7 137.25 28 127.55 7.45 107 7.45 78.05 7.45 63.8 12.95 50.8 18.3 38.2 28 28.5 48.55 7.95 77.5 7.95 106.5 7.95 127.05 28.5 136.75 38.2 142.1 50.8M61.6 91.4L59.55 91.4 59.55 99.05 61.6 99.05 61.6 91.4M75.8 91.25Q74.25 91.25 72.85 91.95L73.55 93.35Q74.9 92.8 75.7 92.8 76.9 92.8 76.9 93.95L76.9 94.3 75.55 94.35Q73.8 94.45 73 95 72.15 95.6 72.15 96.8 72.15 97.95 72.8 98.6 73.4 99.2 74.5 99.2 75.35 99.2 75.95 98.95 76.4 98.8 77.05 98.05L77.1 98.05 77.5 99.05 78.95 99.05 78.95 93.95Q78.95 92.6 78.15 91.95 77.3 91.25 75.8 91.25M75.3 97.7Q74.3 97.7 74.3 96.8 74.3 96.2 74.75 95.9 75.3 95.55 76.1 95.55L76.9 95.55 76.9 96.15Q76.9 96.9 76.45 97.25 76 97.7 75.3 97.7M68.05 91.3Q66.55 91.3 65.9 92.4L65.8 92.4 65.5 91.45 63.8 91.45 63.8 102.45 65.9 102.45 65.9 99.35 65.8 98.25 65.9 98.25Q66.65 99.2 68 99.2 68.9 99.2 69.55 98.75 70.25 98.2 70.6 97.35 70.95 96.3 70.95 95.25 70.95 93.3 70.15 92.35 69.4 91.3 68.05 91.3M68.45 93.5Q68.8 94.05 68.8 95.2 68.8 97.5 67.4 97.5 66.6 97.5 66.25 97 65.9 96.5 65.9 95.2L65.9 95Q65.9 93.85 66.25 93.45 66.6 92.95 67.4 92.95 68.15 92.95 68.45 93.5M72.8 75.7L72.8 74.6 68.8 74.5Q67.3 74.5 66.5 75.15 65.65 75.85 65.65 77.1 65.65 77.75 66 78.45 66.3 78.95 67 79.3 66.5 79.5 66.25 79.85 66 80.2 66 80.6 66 81 66.25 81.25 66.45 81.55 66.8 81.7 65.95 81.85 65.55 82.35 65.1 82.8 65.1 83.5 65.1 84.5 65.95 85.05 66.8 85.65 68.4 85.65 70.5 85.65 71.6 84.9 72.7 84.15 72.7 82.8 72.7 81.75 72.05 81.25 71.45 80.7 70.15 80.7L68.85 80.7Q67.7 80.7 67.7 80.25 67.7 79.95 68 79.7L68.3 79.7 68.7 79.75Q70.15 79.75 71.1 79.05 71.95 78.35 71.95 77.15 71.95 76.6 71.6 76L72.8 75.7M68.8 75.75Q69.95 75.75 69.95 77.15 69.95 77.75 69.65 78.1 69.45 78.45 68.8 78.45 68.25 78.45 67.95 78.1 67.65 77.75 67.65 77.15 67.65 75.75 68.8 75.75M69.35 82.35Q70.15 82.35 70.5 82.55 70.85 82.7 70.85 83.1 70.85 83.65 70.25 83.95 69.6 84.25 68.45 84.25 67.7 84.25 67.3 84 66.9 83.75 66.9 83.35 66.9 82.9 67.3 82.65 67.7 82.35 68.25 82.35L69.35 82.35M79.75 75.4Q78.85 74.5 77.2 74.5 75.55 74.5 74.55 75.55 73.6 76.55 73.6 78.5 73.6 80.35 74.65 81.4 75.75 82.4 77.5 82.4 78.4 82.4 79.05 82.25 79.65 82.2 80.2 81.85L80.2 80.25Q79.5 80.55 78.9 80.7 78.3 80.85 77.6 80.85 76.7 80.85 76.25 80.35 75.8 79.9 75.7 78.95L80.65 78.95 80.65 77.95Q80.65 76.3 79.75 75.4M77.2 75.95Q77.85 75.95 78.3 76.4 78.6 76.7 78.7 77.6L75.75 77.6Q75.85 76.8 76.2 76.4 76.6 75.95 77.2 75.95M60.55 88.45Q59.45 88.45 59.45 89.45 59.45 90.45 60.55 90.45 61.2 90.45 61.4 90.2 61.7 89.9 61.7 89.45 61.7 88.45 60.55 88.45M57.45 91.3Q56.65 91.3 56.1 91.7 55.55 92.05 55.15 92.7L55.05 92.7 54.75 91.45 53.15 91.45 53.15 99.05 55.25 99.05 55.25 95.2Q55.25 94.3 55.8 93.75 56.35 93.25 57.35 93.25L58 93.3 58.15 91.35 57.45 91.3M44.25 90.85L46.95 90.85 46.95 99.05 49.1 99.05 49.1 90.85 51.8 90.85 51.8 89.05 44.25 89.05 44.25 90.85M59.8 74.65L59.8 82.25 61.9 82.25 61.9 78.4Q61.9 77.45 62.45 76.95 62.95 76.45 64 76.45L64.6 76.5 64.75 74.55 64.05 74.5Q63.3 74.5 62.75 74.85 62.05 75.35 61.8 75.9L61.7 75.9 61.35 74.65 59.8 74.65M58.1 78.95L58.1 77.95Q58.1 76.3 57.2 75.4 56.3 74.5 54.65 74.5 53 74.5 52 75.55 51.05 76.65 51.05 78.5 51.05 80.35 52.1 81.4 53.2 82.4 55 82.4 55.9 82.4 56.5 82.25 57.1 82.2 57.65 81.85L57.65 80.25 56.4 80.7Q55.75 80.85 55.1 80.85 54.15 80.85 53.7 80.35 53.25 79.9 53.15 78.95L58.1 78.95M55.75 76.4Q56.15 76.8 56.15 77.6L53.2 77.6Q53.3 76.8 53.65 76.4 54.05 75.95 54.7 75.95 55.4 75.95 55.75 76.4M47.75 73L46.4 73 45.8 74.6 44.65 75.3 44.65 76.2 45.65 76.2 45.65 79.9Q45.65 81.15 46.25 81.75 46.75 82.4 48.05 82.4 49.25 82.4 50 82.05L50 80.5Q49.1 80.75 48.65 80.75 48.3 80.75 48 80.55 47.75 80.3 47.75 79.9L47.75 76.2 49.9 76.2 49.9 74.65 47.75 74.65 47.75 73M50.8 57.3Q51.2 57.4 51.95 57.75L52.65 56.05Q51.25 55.35 49.7 55.35 48.25 55.35 47.2 55.95 46.1 56.55 45.6 57.75 45 58.95 45 60.5 45 62.9 46.15 64.3 47.4 65.6 49.5 65.6 51.1 65.6 52.25 65.1L52.25 63.3Q50.7 63.85 49.7 63.85 47.2 63.85 47.2 60.5 47.2 58.85 47.85 58 48.55 57.1 49.7 57.1 50.35 57.1 50.8 57.3M54.7 58.7Q53.75 59.7 53.75 61.65 53.75 62.85 54.2 63.75 54.65 64.65 55.5 65.1 56.3 65.6 57.45 65.6 59.2 65.6 60.15 64.55 61.15 63.55 61.15 61.65 61.15 60.45 60.7 59.55 60.3 58.7 59.4 58.15 58.6 57.7 57.45 57.7 55.8 57.7 54.7 58.7M58.65 59.95Q59 60.45 59 61.65 59 62.8 58.65 63.35 58.3 63.95 57.45 63.95 56.65 63.95 56.25 63.35 55.85 62.7 55.85 61.65 55.85 60.5 56.25 59.95 56.65 59.35 57.45 59.35 58.3 59.35 58.65 59.95M76.55 55.85Q76.55 56.85 77.65 56.85 78.3 56.85 78.5 56.6 78.8 56.3 78.8 55.85 78.8 54.85 77.65 54.85 76.55 54.85 76.55 55.85M78.7 57.85L76.65 57.85 76.65 65.45 78.7 65.45 78.7 57.85M72.1 59.75Q72.4 60.2 72.4 61L72.4 65.45 74.5 65.45 74.5 60.5Q74.5 59.05 73.8 58.35 73.2 57.7 71.85 57.7 71.1 57.7 70.5 58 69.95 58.2 69.6 58.8L69.4 58.8Q68.8 57.7 67.1 57.7 66.35 57.7 65.75 58 65.15 58.3 64.85 58.8L64.75 58.8 64.45 57.8 62.9 57.8 62.9 65.45 64.95 65.45 64.95 61.85Q64.95 60.6 65.35 59.95 65.65 59.35 66.5 59.35 67.1 59.35 67.35 59.75 67.65 60.2 67.65 61L67.65 65.45 69.7 65.45 69.7 61.65Q69.7 60.45 70.1 59.9 70.5 59.35 71.25 59.35 71.85 59.35 72.1 59.75M38.25 75.6L38.1 75.6 37.85 74.6 36.25 74.6 36.25 82.25 38.35 82.25 38.35 78.65Q38.35 77.25 38.7 76.75 39.15 76.15 40 76.15 40.6 76.15 40.9 76.55 41.2 77 41.2 77.8L41.2 82.25 43.3 82.25 43.3 77.3Q43.3 76 42.6 75.2 41.95 74.5 40.6 74.5 39.85 74.5 39.2 74.75 38.55 75.1 38.25 75.6M33.9 72.25L31.75 72.25 31.75 82.25 33.9 82.25 33.9 72.25M109.55 92.2Q108.65 91.3 107.05 91.3 105.4 91.3 104.4 92.35 103.45 93.35 103.45 95.3 103.45 97.1 104.45 98.2 105.55 99.2 107.35 99.2 108.25 99.2 108.9 99.05 109.5 99 110.05 98.65L110.05 97.05 108.75 97.5Q108.15 97.65 107.45 97.65 106.55 97.65 106.05 97.15 105.55 96.55 105.55 95.75L110.45 95.75 110.45 94.75Q110.45 93.1 109.55 92.2M105.6 94.4Q105.7 93.5 106 93.2 106.45 92.75 107.05 92.75 107.75 92.75 108.1 93.2 108.5 93.55 108.5 94.4L105.6 94.4M108.85 76.5L109 74.55 108.3 74.5Q107.55 74.5 107 74.85 106.3 75.35 106.05 75.9L105.9 75.9 105.6 74.65 104.05 74.65 104.05 82.25 106.1 82.25 106.1 78.4Q106.1 77.5 106.7 76.95 107.2 76.45 108.25 76.45L108.85 76.5M116.95 78.95L116.95 77.95Q116.95 76.3 116.05 75.4 115.15 74.5 113.55 74.5 111.9 74.5 110.9 75.55 109.95 76.55 109.95 78.5 109.95 80.4 110.95 81.4 112.05 82.4 113.85 82.4 114.75 82.4 115.35 82.25 115.85 82.2 116.55 81.85L116.55 80.25 115.25 80.7Q114.65 80.85 113.95 80.85 113.05 80.85 112.55 80.35 112.05 79.75 112.05 78.95L116.95 78.95M115 77.6L112.1 77.6Q112.1 76.8 112.5 76.4 112.9 75.95 113.55 75.95 114.25 75.95 114.6 76.4 115 76.8 115 77.6M121.25 74.5Q119.7 74.5 119 75.05 118.2 75.55 118.2 76.6 118.2 77.25 118.4 77.6 118.55 78.05 119 78.35 119.3 78.6 120.3 79L121.25 79.45 121.8 79.8Q121.95 80.05 121.95 80.2 121.95 80.9 120.8 80.9 120.5 80.9 119.5 80.7L118.2 80.25 118.2 81.95 119.3 82.3 120.75 82.4Q122.4 82.4 123.2 81.8 124 81.15 124 80 124 79.4 123.8 79 123.55 78.6 123.2 78.3 122.65 77.95 121.85 77.6 120.85 77.2 120.55 77 120.25 76.8 120.25 76.5 120.25 76.05 121.2 76.05 121.75 76.05 122.2 76.2 122.9 76.4 123.3 76.6L123.9 75.1Q122.65 74.5 121.25 74.5M95.65 91.4L93.55 91.4 93.55 99.05 95.65 99.05 95.65 91.4M94.6 88.45Q93.45 88.45 93.45 89.45 93.45 90.45 94.6 90.45 95.2 90.45 95.45 90.2 95.75 89.9 95.75 89.45 95.75 88.45 94.6 88.45M98.2 91.4L97.05 92.1 97.05 93 98.05 93 98.05 96.65Q98.05 97.9 98.6 98.55 99.2 99.2 100.45 99.2 101.65 99.2 102.35 98.85L102.35 97.3Q101.5 97.55 101.05 97.55 100.7 97.55 100.4 97.35 100.15 97.15 100.15 96.65L100.15 93 102.25 93 102.25 91.4 100.15 91.4 100.15 89.8 98.8 89.8 98.2 91.4M84.05 91.7Q83.5 92.05 83.1 92.7L83 92.7 82.7 91.45 81.1 91.45 81.1 99.05 83.2 99.05 83.2 95.2Q83.2 94.3 83.75 93.75 84.3 93.25 85.3 93.25L85.95 93.3 86.1 91.35 85.4 91.3Q84.6 91.3 84.05 91.7M87.85 91.4L86.7 92.1 86.7 93 87.7 93 87.7 96.65Q87.7 97.9 88.25 98.55 88.85 99.2 90.1 99.2 91.3 99.2 92 98.85L92 97.3Q91.15 97.55 90.7 97.55 90.35 97.55 90.05 97.35 89.8 97.15 89.8 96.65L89.8 93 91.9 93 91.9 91.4 89.8 91.4 89.8 89.8 88.45 89.8 87.85 91.4M86.95 76.6L87.6 75.1Q86.25 74.5 84.9 74.5 83.4 74.5 82.65 75.05 81.85 75.6 81.85 76.6 81.85 77.1 82.05 77.6 82.3 78.05 82.65 78.35L84.95 79.45 85.45 79.8Q85.6 80.05 85.6 80.2 85.6 80.9 84.45 80.9 84.2 80.9 83.2 80.7L81.9 80.25 81.9 81.95Q82.2 82.1 83 82.3L84.4 82.4Q86.05 82.4 86.85 81.8 87.65 81.2 87.65 80 87.65 79.4 87.45 79 87.3 78.6 86.85 78.3 86.2 77.9 85.55 77.6 84.6 77.25 84.25 77 83.95 76.8 83.95 76.5 83.95 76.05 84.85 76.05L85.9 76.2 86.95 76.6M100.55 74.95Q99.75 74.5 98.65 74.5 96.9 74.5 95.9 75.5 94.9 76.6 94.9 78.45 94.9 79.65 95.35 80.55 95.8 81.45 96.65 81.9 97.45 82.4 98.6 82.4 100.3 82.4 101.35 81.35 102.3 80.35 102.3 78.45 102.3 77.25 101.85 76.35 101.4 75.45 100.55 74.95M98.6 76.15Q99.45 76.15 99.8 76.75 100.2 77.3 100.2 78.45 100.2 79.5 99.8 80.15 99.45 80.75 98.6 80.75 97.8 80.75 97.4 80.15 97.05 79.6 97.05 78.45 97.05 77.25 97.4 76.75 97.8 76.15 98.6 76.15M91.6 73L90.25 73 89.65 74.6 88.5 75.3 88.5 76.2 89.5 76.2 89.5 79.9Q89.5 81.15 90.1 81.75 90.6 82.4 91.9 82.4 93.1 82.4 93.8 82.05L93.8 80.5Q92.95 80.75 92.5 80.75 92.15 80.75 91.85 80.55 91.6 80.3 91.6 79.9L91.6 76.2 93.75 76.2 93.75 74.65 91.6 74.65 91.6 73M82.8 60.2Q82.5 60 82.5 59.75 82.5 59.25 83.45 59.25L84.45 59.4Q85.15 59.6 85.5 59.8L86.15 58.3Q84.9 57.7 83.45 57.7 81.95 57.7 81.2 58.25 80.45 58.8 80.45 59.8 80.45 60.45 80.6 60.8 80.85 61.25 81.2 61.55L83.5 62.7 84 63Q84.15 63.25 84.15 63.4 84.15 64.1 83.05 64.1 82.75 64.1 81.75 63.9L80.45 63.45 80.45 65.15 81.55 65.5 82.95 65.6Q84.6 65.6 85.4 65 86.25 64.4 86.25 63.2 86.25 62.8 86.05 62.2 85.8 61.75 85.4 61.5 85 61.15 84.1 60.8 83.1 60.4 82.8 60.2M92.5 59.8L93.1 58.3Q91.85 57.7 90.4 57.7 88.9 57.7 88.2 58.25 87.4 58.75 87.4 59.8 87.4 60.45 87.6 60.8 87.75 61.25 88.2 61.55 88.5 61.8 89.5 62.2L91 63Q91.15 63.25 91.15 63.4 91.15 64.1 90 64.1 89.7 64.1 88.7 63.9L87.4 63.45 87.4 65.15 88.5 65.5 89.95 65.6Q91.6 65.6 92.35 65 93.2 64.4 93.2 63.2 93.2 62.8 93 62.2 92.75 61.8 92.4 61.5 91.85 61.15 91.05 60.8 90.05 60.4 89.75 60.2 89.45 60 89.45 59.75 89.45 59.25 90.4 59.25 90.9 59.25 91.4 59.4 92.1 59.6 92.5 59.8M95 58.35L95.7 59.75Q97.05 59.2 97.85 59.2 99.05 59.2 99.05 60.35L99.05 60.7 97.75 60.75Q96 60.85 95.15 61.4 94.3 62 94.3 63.2 94.3 64.35 94.95 65 95.55 65.6 96.7 65.6 97.5 65.6 98.15 65.35 98.55 65.15 99.2 64.45L99.25 64.45 99.65 65.45 101.15 65.45 101.15 60.35Q101.15 59.05 100.3 58.35 99.45 57.65 97.95 57.65 96.4 57.65 95 58.35M99.05 61.95L99.05 62.55Q99.05 63.3 98.6 63.65 98.25 64.1 97.45 64.1 96.45 64.1 96.45 63.2 96.45 62.6 96.9 62.3 97.45 61.95 98.25 61.95L99.05 61.95M99.55 55.4Q99.4 55.6 99.15 55.6L98.65 55.5 97.6 55Q97.45 54.9 97.05 54.9 96.25 54.9 95.75 55.45 95.3 56 95.2 57L96.25 57Q96.35 56.65 96.5 56.45 96.8 56.25 96.9 56.25 97.2 56.25 97.4 56.4L98.45 56.85 99 57Q99.8 57 100.3 56.4 100.75 55.95 100.85 54.85L99.85 54.85Q99.75 55.25 99.55 55.4M103.8 58.7Q102.8 59.8 102.8 61.65 102.8 62.85 103.25 63.75 103.7 64.65 104.55 65.1 105.35 65.6 106.5 65.6 108.3 65.6 109.25 64.55 110.2 63.55 110.2 61.65 110.2 60.45 109.75 59.55 109.3 58.65 108.45 58.15 107.65 57.7 106.55 57.7 104.8 57.7 103.8 58.7M104.95 61.65Q104.95 60.45 105.3 59.95 105.7 59.35 106.5 59.35 107.35 59.35 107.7 59.95 108.1 60.5 108.1 61.65 108.1 62.7 107.7 63.35 107.4 63.95 106.5 63.95 105.7 63.95 105.3 63.35 104.95 62.8 104.95 61.65Z"/></g><g display="none"><g id="cANASS" transform="matrix(.033 0 0 .033 283 286.15)" opacity="1"><animateTransform attributeName="transform" additive="replace" type="translate" dur="1.375s" keyTimes="0;.667;.848;.909;.97;1" values="285.6,288.75;285.6,288.75;285.55,288.757;285.549,288.792;285.55,288.7;285.55,288.7" fill="freeze"/><animateTransform attributeName="transform" additive="sum" type="scale" dur="1.375s" keyTimes="0;.667;.848;.909;.97;1" values=".033,.033;.033,.033;1.071,1.071;.936,.936;1,1;1,1" fill="freeze"/><animateTransform attributeName="transform" additive="sum" type="translate" dur="1.375s" keyTimes="0;.667;.848;.909;.97;1" values="-79.2,-79.2;-79.2,-79.2;-77.65,-77.75;-77.65,-77.75;-77.6,-77.65;-77.6,-77.65" fill="freeze"/><animate attributeName="opacity" dur="1.375s" keyTimes="0;.667;.848;1" values="1;1;.9;.9" fill="freeze"/><path fill="#0E8C9D" stroke="none" d="M150.05 47.8Q144.15 33.9 133.4 23.15 122.65 12.4 108.75 6.5 94.3 .4 78.5 .4 62.7 .4 48.3 6.5 34.35 12.4 23.65 23.15 12.9 33.9 7 47.8 .9 62.25 .9 78.05 .9 93.85 7 108.25 12.9 122.2 23.65 132.9 34.35 143.65 48.3 149.55 62.7 155.65 78.5 155.65 94.3 155.65 108.75 149.55 122.65 143.65 133.4 132.9 144.15 122.2 150.05 108.25 156.15 93.85 156.15 78.05 156.15 62.25 150.05 47.8M144 50.4Q149.6 63.6 149.6 78.05 149.6 92.5 144 105.7 138.6 118.45 128.75 128.3 118.9 138.1 106.15 143.5 92.95 149.1 78.5 149.1 49.1 149.1 28.3 128.3 18.45 118.45 13.05 105.7 7.45 92.5 7.45 78.05 7.45 63.6 13.05 50.4 18.45 37.65 28.3 27.8 38.1 17.95 50.85 12.55 64.05 6.95 78.5 6.95 92.95 6.95 106.15 12.55 118.9 17.95 128.75 27.8 138.6 37.65 144 50.4M148.6 78.05Q148.6 63.8 143.1 50.8 137.75 38.2 128.05 28.5 107.5 7.95 78.5 7.95 49.55 7.95 29 28.5 19.3 38.2 13.95 50.8 8.45 63.8 8.45 78.05 8.45 107 29 127.55 38.7 137.25 51.25 142.6 64.3 148.1 78.5 148.1 92.75 148.1 105.75 142.6 118.35 137.25 128.05 127.55 148.6 107 148.6 78.05M101.4 70.3Q102.2 71 102.2 72.35L102.2 77.4 100.75 77.4 100.35 76.4 100.3 76.4Q99.7 77.1 99.2 77.3 98.6 77.55 97.75 77.55 96.7 77.55 96 76.95 95.4 76.3 95.4 75.15 95.4 73.9 96.25 73.35 97.05 72.8 98.8 72.7L100.15 72.65 100.15 72.35Q100.15 71.15 98.95 71.15 98.05 71.15 96.8 71.7L96.1 70.3Q97.4 69.6 99 69.6 100.55 69.6 101.4 70.3M105.95 69.8L106.2 70.75 106.35 70.75Q106.65 70.25 107.3 69.9 107.95 69.65 108.7 69.65 110.05 69.65 110.7 70.35 111.4 71.15 111.4 72.45L111.4 77.4 109.3 77.4 109.3 72.95Q109.3 72.15 109 71.7 108.7 71.3 108.1 71.3 107.25 71.3 106.8 71.9 106.45 72.45 106.45 73.8L106.45 77.4 104.35 77.4 104.35 69.8 105.95 69.8M113.75 71.35L112.75 71.35 112.75 70.45 113.9 69.75 114.5 68.15 115.85 68.15 115.85 69.8 118 69.8 118 71.35 115.85 71.35 115.85 75.05Q115.85 75.45 116.1 75.7 116.3 75.9 116.75 75.9 117.2 75.9 118.1 75.65L118.1 77.2Q117.35 77.55 116.15 77.55 114.9 77.55 114.35 76.95 113.75 76.3 113.75 75.05L113.75 71.35M119.15 73.65Q119.15 71.8 120.1 70.7 121.1 69.65 122.75 69.65 124.4 69.65 125.3 70.55 126.2 71.45 126.2 73.1L126.2 74.1 121.25 74.1Q121.35 75.05 121.8 75.5 122.25 76 123.2 76 123.85 76 124.5 75.85L125.75 75.4 125.75 77Q125.2 77.35 124.6 77.4 124 77.55 123.1 77.55 121.3 77.55 120.2 76.55 119.15 75.5 119.15 73.65M85.3 71.7Q85 71.3 84.35 71.3 83.5 71.3 83.1 71.9 82.7 72.45 82.7 73.8L82.7 77.4 80.6 77.4 80.6 69.8 82.2 69.8 82.5 70.75 82.6 70.75Q83 70.15 83.55 69.9 84.2 69.65 84.95 69.65 86.3 69.65 86.95 70.35 87.65 71.05 87.65 72.45L87.65 77.4 85.6 77.4 85.6 72.95Q85.6 72.15 85.3 71.7M89.05 70.45L90.2 69.75 90.8 68.15 92.1 68.15 92.1 69.8 94.25 69.8 94.25 71.35 92.1 71.35 92.1 75.05Q92.1 75.45 92.35 75.7 92.6 75.9 93.05 75.9 93.5 75.9 94.35 75.65L94.35 77.2Q93.6 77.55 92.45 77.55 91.2 77.55 90.6 76.95 90.05 76.25 90.05 75.05L90.05 71.35 89.05 71.35 89.05 70.45M95.8 84.2L98.4 84.2 101.95 94.2 99.65 94.2 98.95 91.85 95.3 91.85 94.55 94.2 92.3 94.2 95.8 84.2M89.1 84.25L91.05 84.25 91.05 94.2 88.35 94.2 84 86.65 83.95 86.65 84.05 94.2 82.15 94.2 82.15 84.25 84.85 84.25 89.2 91.7 89.1 84.25M116.1 86.45Q115.3 86.1 114.75 86L113.75 85.85Q113.1 85.85 112.8 86.15 112.5 86.4 112.5 86.85L112.6 87.35 113.05 87.75Q113.15 87.85 114.35 88.45 115.8 89.15 116.3 89.8 116.8 90.45 116.8 91.45 116.8 92.8 115.85 93.6 114.9 94.35 113.15 94.35 111.5 94.35 110.3 93.75L110.3 91.8Q111.25 92.25 112 92.4 112.65 92.6 113.3 92.6 113.95 92.6 114.35 92.35 114.75 92.05 114.75 91.55 114.75 91.25 114.55 91.05 114.45 90.85 114.1 90.6L111.4 89.1Q110.9 88.6 110.7 88.15 110.4 87.65 110.4 86.95 110.4 85.6 111.3 84.85 112.2 84.1 113.8 84.1 114.55 84.1 115.3 84.25 116.35 84.6 116.75 84.8L116.1 86.45M106.1 84.1Q106.9 84.1 107.55 84.25 108.55 84.55 109.05 84.8L108.35 86.45Q107.6 86.1 107.05 86L106 85.85Q105.4 85.85 105.1 86.15 104.8 86.4 104.8 86.85 104.8 87.2 104.9 87.35L105.3 87.75 106.65 88.45Q108.1 89.15 108.6 89.8 109.1 90.45 109.1 91.45 109.1 92.8 108.15 93.6 107.2 94.35 105.4 94.35 103.8 94.35 102.6 93.75L102.6 91.8Q103.55 92.25 104.3 92.4 104.9 92.6 105.6 92.6 106.25 92.6 106.65 92.35 107 92.05 107 91.55 107 91.3 106.85 91.05 106.75 90.85 106.4 90.6L105.1 89.9Q104.1 89.45 103.7 89.1 103.2 88.6 103 88.15 102.7 87.65 102.7 86.95 102.7 85.6 103.6 84.85 104.5 84.1 106.1 84.1M128.2 73.5Q127.85 73.2 127.6 72.75 127.45 72.4 127.45 71.75 127.45 70.75 128.2 70.2 128.95 69.65 130.45 69.65 131.8 69.65 133.15 70.25L132.5 71.75 131.45 71.35 130.4 71.2Q129.5 71.2 129.5 71.7 129.5 72 129.8 72.15 130.1 72.35 131.1 72.75 132 73.1 132.4 73.45 132.8 73.7 133.05 74.15 133.25 74.75 133.25 75.15 133.25 76.35 132.4 76.95 131.6 77.55 129.95 77.55L128.55 77.45 127.45 77.1 127.45 75.4Q128.55 75.8 128.75 75.85 129.75 76.05 130.05 76.05 131.15 76.05 131.15 75.4 131.15 75.15 131 75 130.85 74.8 130.5 74.65L129.5 74.15Q128.8 73.9 128.2 73.5M27.8 73.6L26.65 73.6 26.65 77.4 24.55 77.4 24.55 67.45 27.45 67.45Q29.55 67.45 30.45 68.15 31.45 68.9 31.45 70.4 31.45 71.35 30.95 72 30.5 72.7 29.6 73.05 32.2 76.9 32.55 77.4L30.2 77.4 27.8 73.6M33.15 73.65Q33.15 71.8 34.1 70.7 35.1 69.65 36.75 69.65 38.4 69.65 39.3 70.55 40.2 71.45 40.2 73.1L40.2 74.1 35.25 74.1Q35.35 75.05 35.8 75.5 36.25 76 37.2 76 37.85 76 38.5 75.85L39.75 75.4 39.75 77Q39.2 77.35 38.6 77.4 38 77.55 37.1 77.55 35.3 77.55 34.2 76.55 33.15 75.5 33.15 73.65M63.7 73.1L63.7 74.1 58.75 74.1Q58.85 75.05 59.3 75.5 59.75 76 60.65 76 61.35 76 61.95 75.85L63.25 75.4 63.25 77Q62.7 77.35 62.1 77.4 61.45 77.55 60.55 77.55 58.8 77.55 57.7 76.55 56.65 75.5 56.65 73.65 56.65 71.7 57.6 70.7 58.6 69.65 60.25 69.65 61.9 69.65 62.8 70.55 63.7 71.45 63.7 73.1M65.1 72.75Q64.9 72.25 64.9 71.75 64.9 70.75 65.7 70.2 66.45 69.65 67.95 69.65 69.3 69.65 70.65 70.25L70 71.75 68.95 71.35 67.9 71.2Q67 71.2 67 71.7 67 72 67.3 72.15 67.65 72.4 68.6 72.75 69.25 73.05 69.9 73.45 70.35 73.75 70.5 74.15 70.7 74.55 70.7 75.15 70.7 76.35 69.9 76.95 69.1 77.55 67.45 77.55L66.05 77.45Q65.25 77.25 64.95 77.1L64.95 75.4Q65.8 75.75 66.25 75.85 67.15 76.05 67.5 76.05 68.65 76.05 68.65 75.4 68.65 75.15 68.5 75 68.35 74.8 68 74.65L67 74.15Q66.35 73.95 65.7 73.5 65.35 73.2 65.1 72.75M71.85 73.65Q71.85 71.8 72.85 70.7 73.75 69.65 75.5 69.65 77.1 69.65 78 70.55 78.9 71.45 78.9 73.1L78.9 74.1 74 74.1Q74 74.9 74.5 75.5 75 76 75.9 76 76.6 76 77.2 75.85L78.5 75.4 78.5 77Q77.8 77.35 77.3 77.4 76.7 77.55 75.8 77.55 74 77.55 72.9 76.55 71.85 75.5 71.85 73.65M43.9 70.75L44 70.75Q44.65 69.65 46.15 69.65 47.5 69.65 48.25 70.7 49.05 71.8 49.05 73.6 49.05 74.75 48.65 75.7 48.35 76.55 47.65 77.1 47 77.55 46.1 77.55 44.75 77.55 44 76.6L43.85 76.6 44 77.7 44 80.8 41.9 80.8 41.9 69.8 43.6 69.8 43.9 70.75M52.75 71.05Q53.15 70.4 53.7 70.05 54.25 69.65 55 69.65L55.7 69.7 55.55 71.65 54.95 71.6Q53.9 71.6 53.4 72.1 52.85 72.6 52.85 73.55L52.85 77.4 50.75 77.4 50.75 69.8 52.35 69.8 52.65 71.05 52.75 71.05M45.35 83.6L47.45 83.6 47.45 94.2 45.85 94.2 45.45 93.25 45.35 93.25Q44.7 94.35 43.2 94.35 41.85 94.35 41.1 93.3 40.3 92.3 40.3 90.4 40.3 88.5 41.1 87.5 41.85 86.45 43.25 86.45 44.7 86.45 45.45 87.55L45.5 87.55 45.35 83.6M49.6 92.5Q49.15 91.6 49.15 90.4 49.15 88.55 50.15 87.45 51.15 86.45 52.9 86.45 53.95 86.45 54.85 86.9 55.65 87.4 56.1 88.3 56.6 89.15 56.6 90.4 56.6 92.2 55.6 93.3 54.65 94.35 52.85 94.35 51.75 94.35 50.9 93.9 50 93.35 49.6 92.5M71.8 85.4Q73.1 84.05 75.35 84.05 77.65 84.05 78.85 85.4 80.1 86.75 80.1 89.2 80.1 91.75 78.85 93 77.65 94.35 75.35 94.35 73.1 94.35 71.8 93 70.6 91.75 70.6 89.2 70.6 86.7 71.8 85.4M62.2 86.5Q62.75 85.4 63.85 84.7 64.9 84.1 66.35 84.1 67.9 84.1 69.25 84.8L68.6 86.5 67.45 86.05Q67 85.85 66.35 85.85 65.2 85.85 64.5 86.75 63.85 87.6 63.85 89.25 63.85 92.6 66.35 92.6 67.35 92.6 68.9 92.05L68.9 93.85Q67.7 94.35 66.15 94.35 64.05 94.35 62.8 93.05 61.65 91.65 61.65 89.25 61.65 87.75 62.2 86.5M72.8 89.2Q72.8 90.9 73.45 91.75 74.05 92.6 75.35 92.6 77.85 92.6 77.85 89.2 77.85 85.85 75.35 85.85 74 85.85 73.45 86.7 72.8 87.5 72.8 89.2M52.85 88.1Q52.05 88.1 51.65 88.7 51.3 89.2 51.3 90.4 51.3 91.55 51.65 92.1 52.05 92.7 52.9 92.7 53.75 92.7 54.1 92.1 54.45 91.4 54.45 90.4 54.45 89.25 54.05 88.7 53.75 88.1 52.85 88.1M45.1 88.65Q44.75 88.15 43.9 88.15 43.2 88.15 42.8 88.7 42.4 89.35 42.4 90.45 42.4 91.5 42.8 92.15 43.2 92.7 43.9 92.7 44.75 92.7 45.1 92.25 45.5 91.7 45.5 90.65L45.5 90.45Q45.5 89.1 45.1 88.65M45.45 71.3Q44.7 71.3 44.35 71.8 44 72.2 44 73.35L44 73.55Q44 74.85 44.35 75.35 44.7 75.85 45.5 75.85 46.9 75.85 46.9 73.55 46.9 72.4 46.55 71.85 46.25 71.3 45.45 71.3M74.45 71.55Q74.05 71.95 74.05 72.75L76.95 72.75Q76.95 71.95 76.55 71.55 76.2 71.1 75.5 71.1 74.85 71.1 74.45 71.55M61.75 72.75Q61.65 71.85 61.35 71.55 60.9 71.1 60.25 71.1 59.65 71.1 59.25 71.55 58.9 71.95 58.8 72.75L61.75 72.75M37.85 71.55Q37.5 71.1 36.8 71.1 36.15 71.1 35.75 71.55 35.4 71.95 35.3 72.75L38.25 72.75Q38.25 71.95 37.85 71.55M29.3 70.5Q29.3 69.75 28.8 69.45 28.35 69.15 27.3 69.15L26.65 69.15 26.65 71.85 27.35 71.85Q28.35 71.85 28.85 71.55 29.3 71.2 29.3 70.5M95.85 90.05L98.45 90.05 97.1 85.75 95.85 90.05M123.85 71.55Q123.5 71.1 122.8 71.1 122.15 71.1 121.75 71.55 121.4 71.95 121.3 72.75L124.25 72.75Q124.25 71.95 123.85 71.55M100.15 73.9L99.3 73.9Q98.5 73.9 97.95 74.25 97.5 74.55 97.5 75.15 97.5 76.05 98.55 76.05 99.25 76.05 99.7 75.6 100.15 75.25 100.15 74.5L100.15 73.9Z"/><path fill="#FFF" stroke="none" d="M149.6 78.05Q149.6 63.6 144 50.4 138.6 37.65 128.75 27.8 118.9 17.95 106.15 12.55 92.95 6.95 78.5 6.95 64.05 6.95 50.85 12.55 38.1 17.95 28.3 27.8 18.45 37.65 13.05 50.4 7.45 63.6 7.45 78.05 7.45 92.5 13.05 105.7 18.45 118.45 28.3 128.3 49.1 149.1 78.5 149.1 92.95 149.1 106.15 143.5 118.9 138.1 128.75 128.3 138.6 118.45 144 105.7 149.6 92.5 149.6 78.05M143.1 50.8Q148.6 63.8 148.6 78.05 148.6 107 128.05 127.55 118.35 137.25 105.75 142.6 92.75 148.1 78.5 148.1 64.3 148.1 51.25 142.6 38.7 137.25 29 127.55 8.45 107 8.45 78.05 8.45 63.8 13.95 50.8 19.3 38.2 29 28.5 49.55 7.95 78.5 7.95 107.5 7.95 128.05 28.5 137.75 38.2 143.1 50.8M63.85 84.7Q62.75 85.4 62.2 86.5 61.65 87.75 61.65 89.25 61.65 91.65 62.8 93.05 64.05 94.35 66.15 94.35 67.7 94.35 68.9 93.85L68.9 92.05Q67.35 92.6 66.35 92.6 63.85 92.6 63.85 89.25 63.85 87.6 64.5 86.75 65.2 85.85 66.35 85.85 67 85.85 67.45 86.05L68.6 86.5 69.25 84.8Q67.9 84.1 66.35 84.1 64.9 84.1 63.85 84.7M75.35 84.05Q73.1 84.05 71.8 85.4 70.6 86.7 70.6 89.2 70.6 91.75 71.8 93 73.1 94.35 75.35 94.35 77.65 94.35 78.85 93 80.1 91.75 80.1 89.2 80.1 86.75 78.85 85.4 77.65 84.05 75.35 84.05M73.45 91.75Q72.8 90.9 72.8 89.2 72.8 87.5 73.45 86.7 74 85.85 75.35 85.85 77.85 85.85 77.85 89.2 77.85 92.6 75.35 92.6 74.05 92.6 73.45 91.75M49.15 90.4Q49.15 91.6 49.6 92.5 50 93.35 50.9 93.9 51.75 94.35 52.85 94.35 54.65 94.35 55.6 93.3 56.6 92.2 56.6 90.4 56.6 89.15 56.1 88.3 55.65 87.4 54.85 86.9 53.95 86.45 52.9 86.45 51.15 86.45 50.15 87.45 49.15 88.55 49.15 90.4M51.65 88.7Q52.05 88.1 52.85 88.1 53.75 88.1 54.05 88.7 54.45 89.25 54.45 90.4 54.45 91.4 54.1 92.1 53.75 92.7 52.9 92.7 52.05 92.7 51.65 92.1 51.3 91.55 51.3 90.4 51.3 89.2 51.65 88.7M47.45 83.6L45.35 83.6 45.5 87.55 45.45 87.55Q44.7 86.45 43.25 86.45 41.85 86.45 41.1 87.5 40.3 88.5 40.3 90.4 40.3 92.3 41.1 93.3 41.85 94.35 43.2 94.35 44.7 94.35 45.35 93.25L45.45 93.25 45.85 94.2 47.45 94.2 47.45 83.6M43.9 88.15Q44.75 88.15 45.1 88.65 45.5 89.1 45.5 90.45L45.5 90.65Q45.5 91.7 45.1 92.25 44.75 92.7 43.9 92.7 43.2 92.7 42.8 92.15 42.4 91.5 42.4 90.45 42.4 89.35 42.8 88.7 43.2 88.15 43.9 88.15M53.7 70.05Q53.15 70.4 52.75 71.05L52.65 71.05 52.35 69.8 50.75 69.8 50.75 77.4 52.85 77.4 52.85 73.55Q52.85 72.6 53.4 72.1 53.9 71.6 54.95 71.6L55.55 71.65 55.7 69.7 55 69.65Q54.25 69.65 53.7 70.05M44 70.75L43.9 70.75 43.6 69.8 41.9 69.8 41.9 80.8 44 80.8 44 77.7 43.85 76.6 44 76.6Q44.75 77.55 46.1 77.55 47 77.55 47.65 77.1 48.35 76.55 48.65 75.7 49.05 74.75 49.05 73.6 49.05 71.8 48.25 70.7 47.5 69.65 46.15 69.65 44.65 69.65 44 70.75M44.35 71.8Q44.7 71.3 45.45 71.3 46.25 71.3 46.55 71.85 46.9 72.4 46.9 73.55 46.9 75.85 45.5 75.85 44.7 75.85 44.35 75.35 44 74.85 44 73.55L44 73.35Q44 72.2 44.35 71.8M72.85 70.7Q71.85 71.8 71.85 73.65 71.85 75.5 72.9 76.55 74 77.55 75.8 77.55 76.7 77.55 77.3 77.4 77.8 77.35 78.5 77L78.5 75.4 77.2 75.85Q76.6 76 75.9 76 75 76 74.5 75.5 74 74.9 74 74.1L78.9 74.1 78.9 73.1Q78.9 71.45 78 70.55 77.1 69.65 75.5 69.65 73.75 69.65 72.85 70.7M74.05 72.75Q74.05 71.95 74.45 71.55 74.85 71.1 75.5 71.1 76.2 71.1 76.55 71.55 76.95 71.95 76.95 72.75L74.05 72.75M64.9 71.75Q64.9 72.25 65.1 72.75 65.35 73.2 65.7 73.5 66.35 73.95 67 74.15L68 74.65Q68.35 74.8 68.5 75 68.65 75.15 68.65 75.4 68.65 76.05 67.5 76.05 67.15 76.05 66.25 75.85 65.8 75.75 64.95 75.4L64.95 77.1Q65.25 77.25 66.05 77.45L67.45 77.55Q69.1 77.55 69.9 76.95 70.7 76.35 70.7 75.15 70.7 74.55 70.5 74.15 70.35 73.75 69.9 73.45 69.25 73.05 68.6 72.75 67.65 72.4 67.3 72.15 67 72 67 71.7 67 71.2 67.9 71.2L68.95 71.35 70 71.75 70.65 70.25Q69.3 69.65 67.95 69.65 66.45 69.65 65.7 70.2 64.9 70.75 64.9 71.75M63.7 74.1L63.7 73.1Q63.7 71.45 62.8 70.55 61.9 69.65 60.25 69.65 58.6 69.65 57.6 70.7 56.65 71.7 56.65 73.65 56.65 75.5 57.7 76.55 58.8 77.55 60.55 77.55 61.45 77.55 62.1 77.4 62.7 77.35 63.25 77L63.25 75.4 61.95 75.85Q61.35 76 60.65 76 59.75 76 59.3 75.5 58.85 75.05 58.75 74.1L63.7 74.1M61.35 71.55Q61.65 71.85 61.75 72.75L58.8 72.75Q58.9 71.95 59.25 71.55 59.65 71.1 60.25 71.1 60.9 71.1 61.35 71.55M34.1 70.7Q33.15 71.8 33.15 73.65 33.15 75.5 34.2 76.55 35.3 77.55 37.1 77.55 38 77.55 38.6 77.4 39.2 77.35 39.75 77L39.75 75.4 38.5 75.85Q37.85 76 37.2 76 36.25 76 35.8 75.5 35.35 75.05 35.25 74.1L40.2 74.1 40.2 73.1Q40.2 71.45 39.3 70.55 38.4 69.65 36.75 69.65 35.1 69.65 34.1 70.7M36.8 71.1Q37.5 71.1 37.85 71.55 38.25 71.95 38.25 72.75L35.3 72.75Q35.4 71.95 35.75 71.55 36.15 71.1 36.8 71.1M26.65 73.6L27.8 73.6 30.2 77.4 32.55 77.4Q32.2 76.9 29.6 73.05 30.5 72.7 30.95 72 31.45 71.35 31.45 70.4 31.45 68.9 30.45 68.15 29.55 67.45 27.45 67.45L24.55 67.45 24.55 77.4 26.65 77.4 26.65 73.6M28.8 69.45Q29.3 69.75 29.3 70.5 29.3 71.2 28.85 71.55 28.35 71.85 27.35 71.85L26.65 71.85 26.65 69.15 27.3 69.15Q28.35 69.15 28.8 69.45M127.6 72.75Q127.85 73.2 128.2 73.5 128.8 73.9 129.5 74.15L130.5 74.65Q130.85 74.8 131 75 131.15 75.15 131.15 75.4 131.15 76.05 130.05 76.05 129.75 76.05 128.75 75.85 128.55 75.8 127.45 75.4L127.45 77.1 128.55 77.45 129.95 77.55Q131.6 77.55 132.4 76.95 133.25 76.35 133.25 75.15 133.25 74.75 133.05 74.15 132.8 73.7 132.4 73.45 132 73.1 131.1 72.75 130.1 72.35 129.8 72.15 129.5 72 129.5 71.7 129.5 71.2 130.4 71.2L131.45 71.35 132.5 71.75 133.15 70.25Q131.8 69.65 130.45 69.65 128.95 69.65 128.2 70.2 127.45 70.75 127.45 71.75 127.45 72.4 127.6 72.75M107.55 84.25Q106.9 84.1 106.1 84.1 104.5 84.1 103.6 84.85 102.7 85.6 102.7 86.95 102.7 87.65 103 88.15 103.2 88.6 103.7 89.1 104.1 89.45 105.1 89.9L106.4 90.6Q106.75 90.85 106.85 91.05 107 91.3 107 91.55 107 92.05 106.65 92.35 106.25 92.6 105.6 92.6 104.9 92.6 104.3 92.4 103.55 92.25 102.6 91.8L102.6 93.75Q103.8 94.35 105.4 94.35 107.2 94.35 108.15 93.6 109.1 92.8 109.1 91.45 109.1 90.45 108.6 89.8 108.1 89.15 106.65 88.45L105.3 87.75 104.9 87.35Q104.8 87.2 104.8 86.85 104.8 86.4 105.1 86.15 105.4 85.85 106 85.85L107.05 86Q107.6 86.1 108.35 86.45L109.05 84.8Q108.55 84.55 107.55 84.25M114.75 86Q115.3 86.1 116.1 86.45L116.75 84.8Q116.35 84.6 115.3 84.25 114.55 84.1 113.8 84.1 112.2 84.1 111.3 84.85 110.4 85.6 110.4 86.95 110.4 87.65 110.7 88.15 110.9 88.6 111.4 89.1L114.1 90.6Q114.45 90.85 114.55 91.05 114.75 91.25 114.75 91.55 114.75 92.05 114.35 92.35 113.95 92.6 113.3 92.6 112.65 92.6 112 92.4 111.25 92.25 110.3 91.8L110.3 93.75Q111.5 94.35 113.15 94.35 114.9 94.35 115.85 93.6 116.8 92.8 116.8 91.45 116.8 90.45 116.3 89.8 115.8 89.15 114.35 88.45 113.15 87.85 113.05 87.75L112.6 87.35 112.5 86.85Q112.5 86.4 112.8 86.15 113.1 85.85 113.75 85.85L114.75 86M91.05 84.25L89.1 84.25 89.2 91.7 84.85 84.25 82.15 84.25 82.15 94.2 84.05 94.2 83.95 86.65 84 86.65 88.35 94.2 91.05 94.2 91.05 84.25M98.4 84.2L95.8 84.2 92.3 94.2 94.55 94.2 95.3 91.85 98.95 91.85 99.65 94.2 101.95 94.2 98.4 84.2M98.45 90.05L95.85 90.05 97.1 85.75 98.45 90.05M90.2 69.75L89.05 70.45 89.05 71.35 90.05 71.35 90.05 75.05Q90.05 76.25 90.6 76.95 91.2 77.55 92.45 77.55 93.6 77.55 94.35 77.2L94.35 75.65Q93.5 75.9 93.05 75.9 92.6 75.9 92.35 75.7 92.1 75.45 92.1 75.05L92.1 71.35 94.25 71.35 94.25 69.8 92.1 69.8 92.1 68.15 90.8 68.15 90.2 69.75M84.35 71.3Q85 71.3 85.3 71.7 85.6 72.15 85.6 72.95L85.6 77.4 87.65 77.4 87.65 72.45Q87.65 71.05 86.95 70.35 86.3 69.65 84.95 69.65 84.2 69.65 83.55 69.9 83 70.15 82.6 70.75L82.5 70.75 82.2 69.8 80.6 69.8 80.6 77.4 82.7 77.4 82.7 73.8Q82.7 72.45 83.1 71.9 83.5 71.3 84.35 71.3M120.1 70.7Q119.15 71.8 119.15 73.65 119.15 75.5 120.2 76.55 121.3 77.55 123.1 77.55 124 77.55 124.6 77.4 125.2 77.35 125.75 77L125.75 75.4 124.5 75.85Q123.85 76 123.2 76 122.25 76 121.8 75.5 121.35 75.05 121.25 74.1L126.2 74.1 126.2 73.1Q126.2 71.45 125.3 70.55 124.4 69.65 122.75 69.65 121.1 69.65 120.1 70.7M122.8 71.1Q123.5 71.1 123.85 71.55 124.25 71.95 124.25 72.75L121.3 72.75Q121.4 71.95 121.75 71.55 122.15 71.1 122.8 71.1M112.75 71.35L113.75 71.35 113.75 75.05Q113.75 76.3 114.35 76.95 114.9 77.55 116.15 77.55 117.35 77.55 118.1 77.2L118.1 75.65Q117.2 75.9 116.75 75.9 116.3 75.9 116.1 75.7 115.85 75.45 115.85 75.05L115.85 71.35 118 71.35 118 69.8 115.85 69.8 115.85 68.15 114.5 68.15 113.9 69.75 112.75 70.45 112.75 71.35M106.2 70.75L105.95 69.8 104.35 69.8 104.35 77.4 106.45 77.4 106.45 73.8Q106.45 72.45 106.8 71.9 107.25 71.3 108.1 71.3 108.7 71.3 109 71.7 109.3 72.15 109.3 72.95L109.3 77.4 111.4 77.4 111.4 72.45Q111.4 71.15 110.7 70.35 110.05 69.65 108.7 69.65 107.95 69.65 107.3 69.9 106.65 70.25 106.35 70.75L106.2 70.75M102.2 72.35Q102.2 71 101.4 70.3 100.55 69.6 99 69.6 97.4 69.6 96.1 70.3L96.8 71.7Q98.05 71.15 98.95 71.15 100.15 71.15 100.15 72.35L100.15 72.65 98.8 72.7Q97.05 72.8 96.25 73.35 95.4 73.9 95.4 75.15 95.4 76.3 96 76.95 96.7 77.55 97.75 77.55 98.6 77.55 99.2 77.3 99.7 77.1 100.3 76.4L100.35 76.4 100.75 77.4 102.2 77.4 102.2 72.35M99.3 73.9L100.15 73.9 100.15 74.5Q100.15 75.25 99.7 75.6 99.25 76.05 98.55 76.05 97.5 76.05 97.5 75.15 97.5 74.55 97.95 74.25 98.5 73.9 99.3 73.9Z"/></g><animate attributeName="display" fill="freeze" repeatCount="1" dur="1.375s" keyTimes="0;.667;1" values="none;inline;inline"/></g><g display="none"><g id="CANASEM" transform="matrix(.034 0 0 .034 86.95 286.1)" opacity="1"><animateTransform attributeName="transform" additive="replace" type="translate" dur="1.375s" keyTimes="0;.485;.667;.727;.788;1" values="89.551,288.701;89.551,288.701;89.554,288.759;89.595,288.839;89.55,288.7;89.55,288.7" fill="freeze"/><animateTransform attributeName="transform" additive="sum" type="scale" dur="1.375s" keyTimes="0;.485;.667;.727;.788;1" values=".033,.033;.033,.033;1.11,1.11;.936,.936;1,1;1,1" fill="freeze"/><animateTransform attributeName="transform" additive="sum" type="translate" dur="1.375s" keyTimes="0;.485;.667;.727;.788;1" values="-79.15,-79.15;-79.15,-79.15;-77.65,-77.7;-77.65,-77.75;-77.6,-77.6;-77.6,-77.6" fill="freeze"/><animate attributeName="opacity" dur="1.375s" keyTimes="0;.485;.667;1" values="1;1;.9;.9" fill="freeze"/><path fill="#D15757" stroke="none" d="M150.05 47.8Q144.15 33.9 133.4 23.15 122.65 12.4 108.75 6.5 94.3 .4 78.5 .4 62.7 .4 48.3 6.5 34.35 12.4 23.65 23.15 12.9 33.9 7 47.8 .9 62.25 .9 78.05 .9 93.85 7 108.25 12.9 122.2 23.65 132.9 34.35 143.65 48.3 149.55 62.7 155.65 78.5 155.65 94.3 155.65 108.75 149.55 122.65 143.65 133.4 132.9 144.15 122.2 150.05 108.25 156.15 93.85 156.15 78.05 156.15 62.25 150.05 47.8M144 50.4Q149.6 63.6 149.6 78.05 149.6 92.5 144 105.7 138.6 118.45 128.75 128.3 118.9 138.1 106.15 143.5 92.95 149.1 78.5 149.1 49.1 149.1 28.3 128.3 18.45 118.45 13.05 105.7 7.45 92.5 7.45 78.05 7.45 63.6 13.05 50.4 18.45 37.65 28.3 27.8 38.1 17.95 50.85 12.55 64.05 6.95 78.5 6.95 92.95 6.95 106.15 12.55 118.9 17.95 128.75 27.8 138.6 37.65 144 50.4M148.6 78.05Q148.6 63.8 143.1 50.8 137.75 38.2 128.05 28.5 107.5 7.95 78.5 7.95 49.55 7.95 29 28.5 19.3 38.2 13.95 50.8 8.45 63.8 8.45 78.05 8.45 107 29 127.55 38.7 137.25 51.25 142.6 64.3 148.1 78.5 148.1 92.75 148.1 105.75 142.6 118.35 137.25 128.05 127.55 148.6 107 148.6 78.05M101.4 71.55Q102.2 72.15 102.2 73.55L102.2 78.65 100.75 78.65 100.35 77.6 100.3 77.6Q99.85 78.2 99.2 78.55 98.6 78.8 97.75 78.8 96.65 78.8 96 78.15 95.4 77.55 95.4 76.35 95.4 75.1 96.25 74.6 97.05 74.05 98.8 73.95L100.15 73.9 100.15 73.55Q100.15 72.4 98.95 72.4 98.05 72.4 96.8 72.95L96.1 71.55Q97.4 70.85 99 70.85 100.55 70.85 101.4 71.55M105.95 71L106.2 72 106.35 72Q106.6 71.5 107.3 71.15 107.9 70.85 108.7 70.85 110.05 70.85 110.7 71.6 111.4 72.3 111.4 73.65L111.4 78.65 109.3 78.65 109.3 74.2Q109.3 73.4 109 72.95 108.7 72.55 108.1 72.55 107.25 72.55 106.8 73.1 106.45 73.65 106.45 75.05L106.45 78.65 104.35 78.65 104.35 71 105.95 71M113.75 72.6L112.75 72.6 112.75 71.7 113.9 71 114.5 69.4 115.85 69.4 115.85 71 118 71 118 72.6 115.85 72.6 115.85 76.25Q115.85 76.75 116.1 76.9 116.35 77.15 116.75 77.15 117.2 77.15 118.1 76.9L118.1 78.45Q117.35 78.8 116.15 78.8 114.85 78.8 114.35 78.15 113.75 77.55 113.75 76.25L113.75 72.6M85.3 72.95Q85 72.55 84.35 72.55 83.5 72.55 83.1 73.1 82.7 73.75 82.7 75.05L82.7 78.65 80.6 78.65 80.6 71 82.2 71 82.5 72 82.6 72Q82.95 71.45 83.55 71.15 84.15 70.85 84.95 70.85 86.25 70.85 87 71.6 87.65 72.25 87.65 73.65L87.65 78.65 85.6 78.65 85.6 74.2Q85.6 73.4 85.3 72.95M89.05 71.7L90.2 71 90.8 69.4 92.1 69.4 92.1 71 94.25 71 94.25 72.6 92.1 72.6 92.1 76.25Q92.1 76.75 92.35 76.9 92.7 77.15 93.05 77.15 93.5 77.15 94.35 76.9L94.35 78.45Q93.6 78.8 92.45 78.8 91.2 78.8 90.6 78.15 90.05 77.5 90.05 76.25L90.05 72.6 89.05 72.6 89.05 71.7M93.1 86.1Q93.95 85.3 95.55 85.3 96.15 85.3 97.05 85.5L98.55 86 97.85 87.65 96.55 87.2Q96.2 87.1 95.5 87.1 94.85 87.1 94.6 87.35 94.25 87.65 94.25 88.1 94.25 88.4 94.4 88.6L94.8 89 96.15 89.7Q97.5 90.35 98.05 91.05 98.6 91.75 98.6 92.7 98.6 94.05 97.6 94.8 96.65 95.6 94.9 95.6 93.35 95.6 92.05 95L92.05 93Q93.35 93.55 93.8 93.65 94.4 93.85 95.05 93.85 95.75 93.85 96.15 93.6 96.5 93.3 96.5 92.8 96.5 92.5 96.35 92.25L95.85 91.8 94.55 91.15Q93.55 90.65 93.2 90.3 92.75 89.95 92.45 89.4 92.2 88.95 92.2 88.15 92.2 86.85 93.1 86.1M85.3 85.4L87.9 85.4 91.4 95.45 89.15 95.45 88.4 93.1 84.75 93.1 84.05 95.45 81.75 95.45 85.3 85.4M100.4 95.45L100.4 85.45 106.15 85.45 106.15 87.2 102.5 87.2 102.5 89.4 105.9 89.4 105.9 91.15 102.5 91.15 102.5 93.7 106.15 93.7 106.15 95.45 100.4 95.45M120.2 77.75Q119.15 76.8 119.15 74.9 119.15 73 120.1 71.9 121.1 70.85 122.75 70.85 124.35 70.85 125.3 71.8 126.2 72.7 126.2 74.35L126.2 75.35 121.25 75.35Q121.35 76.3 121.8 76.75 122.4 77.25 123.2 77.25 123.85 77.25 124.5 77.1L125.75 76.65 125.75 78.25Q125.4 78.45 124.6 78.65 124 78.8 123.1 78.8 121.25 78.8 120.2 77.75M116.05 85.45L118.9 85.45 118.9 95.45 116.95 95.45 117.05 87.65 117 87.65 114.4 95.45 112.45 95.45 110.05 87.6 110 87.6 110.15 95.45 108.25 95.45 108.25 85.45 111.1 85.45 113.5 93.1 113.55 93.1 116.05 85.45M120.8 95L120.8 93Q122.1 93.55 122.55 93.65 123.15 93.85 123.8 93.85 124.5 93.85 124.9 93.6 125.25 93.3 125.25 92.8 125.25 92.5 125.1 92.25 125 92.1 124.6 91.8L123.3 91.15Q122.3 90.65 121.95 90.3 121.5 89.95 121.2 89.4 120.95 88.8 120.95 88.15 120.95 86.85 121.85 86.1 122.7 85.3 124.3 85.3 124.9 85.3 125.8 85.5L127.3 86 126.6 87.65 125.3 87.2Q124.95 87.1 124.25 87.1 123.6 87.1 123.35 87.35 123 87.65 123 88.1 123 88.4 123.15 88.6L123.55 89 124.9 89.7Q126.25 90.35 126.8 91.05 127.35 91.75 127.35 92.7 127.35 94.05 126.35 94.8 125.4 95.6 123.65 95.6 122.1 95.6 120.8 95M131.45 72.55L130.4 72.4Q129.5 72.4 129.5 72.9 129.5 73.2 129.8 73.4 130.1 73.6 131.1 74 132.15 74.45 132.4 74.7 132.8 74.95 133.05 75.4 133.25 76 133.25 76.4 133.25 77.5 132.4 78.2 131.6 78.8 129.95 78.8L128.55 78.7 127.45 78.35 127.45 76.65 128.75 77.1Q129.5 77.25 130.05 77.25 131.15 77.25 131.15 76.6 131.15 76.35 131 76.2L130.5 75.85 128.2 74.75Q127.75 74.3 127.6 74 127.45 73.65 127.45 73 127.45 72 128.2 71.45 129.05 70.85 130.45 70.85 131.8 70.85 133.15 71.45L132.5 73 131.45 72.55M24.55 68.65L27.45 68.65Q29.5 68.65 30.45 69.4 31.45 70.15 31.45 71.65 31.45 72.55 30.95 73.2 30.5 73.9 29.6 74.3 32.2 78.15 32.55 78.65L30.2 78.65 27.8 74.8 26.65 74.8 26.65 78.65 24.55 78.65 24.55 68.65M36.75 70.85Q38.35 70.85 39.3 71.8 40.2 72.7 40.2 74.35L40.2 75.35 35.25 75.35Q35.35 76.3 35.8 76.75 36.3 77.25 37.2 77.25 37.85 77.25 38.5 77.1L39.75 76.65 39.75 78.25Q39.4 78.45 38.6 78.65 38 78.8 37.1 78.8 35.25 78.8 34.2 77.75 33.15 76.8 33.15 74.9 33.15 73 34.1 71.9 35.1 70.85 36.75 70.85M34.85 84.8L36.95 84.8 36.95 95.45 35.35 95.45 34.9 94.45 34.85 94.45Q34.1 95.6 32.65 95.6 31.3 95.6 30.55 94.55 29.8 93.5 29.8 91.65 29.8 89.75 30.55 88.7 31.4 87.65 32.7 87.65 34.15 87.65 34.9 88.8L35 88.8 34.85 84.8M38.65 91.6Q38.65 89.7 39.6 88.7 40.6 87.65 42.35 87.65 43.4 87.65 44.3 88.15 45.15 88.6 45.6 89.5 46.05 90.4 46.05 91.6 46.05 93.55 45.05 94.55 44.1 95.6 42.35 95.6 41.2 95.6 40.4 95.1 39.55 94.65 39.1 93.75 38.65 92.8 38.65 91.6M64.9 73Q64.9 72 65.7 71.45 66.55 70.85 67.95 70.85 69.3 70.85 70.65 71.45L70 73 68.95 72.55 67.9 72.4Q67 72.4 67 72.9 67 73.2 67.3 73.4 67.65 73.65 68.6 74 69.5 74.4 69.9 74.7 70.35 75 70.5 75.4 70.7 75.8 70.7 76.4 70.7 77.55 69.9 78.2 69.1 78.8 67.45 78.8L66.05 78.7Q65.25 78.5 64.95 78.35L64.95 76.65 66.25 77.1Q66.95 77.25 67.5 77.25 68.65 77.25 68.65 76.6 68.65 76.35 68.5 76.2L68 75.85 65.7 74.75Q65.25 74.3 65.1 74 64.9 73.5 64.9 73M75.5 70.85Q77.05 70.85 78 71.8 78.9 72.7 78.9 74.35L78.9 75.35 74 75.35Q74 76.15 74.5 76.75 75.1 77.25 75.9 77.25 76.6 77.25 77.2 77.1L78.5 76.65 78.5 78.25Q78 78.5 77.3 78.65 76.7 78.8 75.8 78.8 73.95 78.8 72.9 77.75 71.85 76.8 71.85 74.9 71.85 73 72.85 71.9 73.85 70.85 75.5 70.85M41.9 71L43.6 71 43.9 72 44 72Q44.7 70.85 46.15 70.85 47.5 70.85 48.25 71.9 49.05 73 49.05 74.8 49.05 76 48.65 76.95 48.35 77.85 47.65 78.3 47 78.8 46.1 78.8 44.75 78.8 44 77.8L43.85 77.8 44 78.9 44 82 41.9 82 41.9 71M50.75 71L52.35 71 52.65 72.3 52.75 72.3Q53.15 71.6 53.7 71.25 54.35 70.85 55 70.85L55.7 70.95 55.55 72.9 54.95 72.8Q53.95 72.8 53.4 73.35 52.85 73.75 52.85 74.75L52.85 78.65 50.75 78.65 50.75 71M57.6 71.9Q58.6 70.85 60.25 70.85 61.85 70.85 62.8 71.8 63.7 72.7 63.7 74.35L63.7 75.35 58.75 75.35Q58.85 76.3 59.3 76.75 59.8 77.25 60.65 77.25 61.35 77.25 61.95 77.1L63.25 76.65 63.25 78.25Q62.9 78.45 62.1 78.65 61.45 78.8 60.55 78.8 58.75 78.8 57.7 77.75 56.65 76.8 56.65 74.9 56.65 72.9 57.6 71.9M55.8 85.3Q57.2 85.3 58.75 86L58.05 87.75Q57.6 87.5 56.95 87.3 56.4 87.1 55.8 87.1 54.65 87.1 53.95 88 53.3 89 53.3 90.5 53.3 93.85 55.8 93.85 56.8 93.85 58.35 93.3L58.35 95.1Q57 95.6 55.6 95.6 53.45 95.6 52.3 94.25 51.15 93.05 51.15 90.45 51.15 88.8 51.7 87.75 52.35 86.5 53.35 85.95 54.5 85.3 55.8 85.3M71.65 85.45L74.3 85.45 78.65 92.95 78.7 92.95 78.6 85.45 80.5 85.45 80.5 95.45 77.8 95.45 73.45 87.9 73.4 87.9 73.55 95.45 71.65 95.45 71.65 85.45M61.3 86.6Q62.55 85.3 64.85 85.3 67.15 85.3 68.35 86.65 69.55 87.95 69.55 90.45 69.55 92.9 68.35 94.25 67.1 95.6 64.8 95.6 62.5 95.6 61.3 94.25 60.05 92.95 60.05 90.45 60.05 87.95 61.3 86.6M62.9 87.9Q62.3 88.8 62.3 90.45 62.3 92.15 62.9 92.95 63.55 93.8 64.8 93.8 67.35 93.8 67.35 90.45 67.35 87.05 64.85 87.05 63.6 87.05 62.9 87.9M61.75 73.95Q61.65 73.15 61.35 72.75 60.85 72.35 60.25 72.35 59.65 72.35 59.25 72.75 58.9 73.2 58.8 73.95L61.75 73.95M45.45 72.55Q44.75 72.55 44.35 73 44 73.5 44 74.6L44 74.8Q44 76.05 44.35 76.55 44.7 77.1 45.5 77.1 46.9 77.1 46.9 74.8 46.9 73.65 46.55 73.1 46.3 72.55 45.45 72.55M74.05 73.95L76.95 73.95Q76.95 73.25 76.55 72.75 76.15 72.35 75.5 72.35 74.85 72.35 74.45 72.75 74.05 73.25 74.05 73.95M41.15 89.9Q40.75 90.55 40.75 91.6 40.75 92.7 41.15 93.35 41.55 93.9 42.35 93.9 43.2 93.9 43.55 93.35 43.9 92.8 43.9 91.6 43.9 90.45 43.55 89.9 43.15 89.35 42.35 89.35 41.55 89.35 41.15 89.9M35 91.65Q35 90.45 34.6 89.9 34.2 89.35 33.35 89.35 32.7 89.35 32.3 89.95 31.9 90.6 31.9 91.7 31.9 92.8 32.3 93.35 32.7 93.95 33.4 93.95 34.2 93.95 34.55 93.45 34.95 93 35 91.9L35 91.65M36.8 72.35Q36.15 72.35 35.75 72.75 35.4 73.2 35.3 73.95L38.25 73.95Q38.25 73.25 37.85 72.75 37.45 72.35 36.8 72.35M28.8 70.7Q28.35 70.4 27.3 70.4L26.65 70.4 26.65 73.1 27.35 73.1Q28.35 73.1 28.85 72.75 29.3 72.45 29.3 71.7 29.3 71 28.8 70.7M123.85 72.75Q123.45 72.35 122.8 72.35 122.15 72.35 121.75 72.75 121.4 73.2 121.3 73.95L124.25 73.95Q124.25 73.25 123.85 72.75M87.9 91.3L86.6 86.95 85.3 91.3 87.9 91.3M100.15 75.75L100.15 75.1 99.3 75.15Q98.4 75.15 97.95 75.45 97.5 75.75 97.5 76.4 97.5 77.25 98.55 77.25 99.3 77.25 99.7 76.85 100.15 76.4 100.15 75.75Z"/><path fill="#FFF" stroke="none" d="M149.6 78.05Q149.6 63.6 144 50.4 138.6 37.65 128.75 27.8 118.9 17.95 106.15 12.55 92.95 6.95 78.5 6.95 64.05 6.95 50.85 12.55 38.1 17.95 28.3 27.8 18.45 37.65 13.05 50.4 7.45 63.6 7.45 78.05 7.45 92.5 13.05 105.7 18.45 118.45 28.3 128.3 49.1 149.1 78.5 149.1 92.95 149.1 106.15 143.5 118.9 138.1 128.75 128.3 138.6 118.45 144 105.7 149.6 92.5 149.6 78.05M143.1 50.8Q148.6 63.8 148.6 78.05 148.6 107 128.05 127.55 118.35 137.25 105.75 142.6 92.75 148.1 78.5 148.1 64.3 148.1 51.25 142.6 38.7 137.25 29 127.55 8.45 107 8.45 78.05 8.45 63.8 13.95 50.8 19.3 38.2 29 28.5 49.55 7.95 78.5 7.95 107.5 7.95 128.05 28.5 137.75 38.2 143.1 50.8M64.85 85.3Q62.55 85.3 61.3 86.6 60.05 87.95 60.05 90.45 60.05 92.95 61.3 94.25 62.5 95.6 64.8 95.6 67.1 95.6 68.35 94.25 69.55 92.9 69.55 90.45 69.55 87.95 68.35 86.65 67.15 85.3 64.85 85.3M62.3 90.45Q62.3 88.8 62.9 87.9 63.6 87.05 64.85 87.05 67.35 87.05 67.35 90.45 67.35 93.8 64.8 93.8 63.55 93.8 62.9 92.95 62.3 92.15 62.3 90.45M74.3 85.45L71.65 85.45 71.65 95.45 73.55 95.45 73.4 87.9 73.45 87.9 77.8 95.45 80.5 95.45 80.5 85.45 78.6 85.45 78.7 92.95 78.65 92.95 74.3 85.45M58.75 86Q57.2 85.3 55.8 85.3 54.5 85.3 53.35 85.95 52.35 86.5 51.7 87.75 51.15 88.8 51.15 90.45 51.15 93.05 52.3 94.25 53.45 95.6 55.6 95.6 57 95.6 58.35 95.1L58.35 93.3Q56.8 93.85 55.8 93.85 53.3 93.85 53.3 90.5 53.3 89 53.95 88 54.65 87.1 55.8 87.1 56.4 87.1 56.95 87.3 57.6 87.5 58.05 87.75L58.75 86M60.25 70.85Q58.6 70.85 57.6 71.9 56.65 72.9 56.65 74.9 56.65 76.8 57.7 77.75 58.75 78.8 60.55 78.8 61.45 78.8 62.1 78.65 62.9 78.45 63.25 78.25L63.25 76.65 61.95 77.1Q61.35 77.25 60.65 77.25 59.8 77.25 59.3 76.75 58.85 76.3 58.75 75.35L63.7 75.35 63.7 74.35Q63.7 72.7 62.8 71.8 61.85 70.85 60.25 70.85M61.35 72.75Q61.65 73.15 61.75 73.95L58.8 73.95Q58.9 73.2 59.25 72.75 59.65 72.35 60.25 72.35 60.85 72.35 61.35 72.75M52.35 71L50.75 71 50.75 78.65 52.85 78.65 52.85 74.75Q52.85 73.75 53.4 73.35 53.95 72.8 54.95 72.8L55.55 72.9 55.7 70.95 55 70.85Q54.35 70.85 53.7 71.25 53.15 71.6 52.75 72.3L52.65 72.3 52.35 71M43.6 71L41.9 71 41.9 82 44 82 44 78.9 43.85 77.8 44 77.8Q44.75 78.8 46.1 78.8 47 78.8 47.65 78.3 48.35 77.85 48.65 76.95 49.05 76 49.05 74.8 49.05 73 48.25 71.9 47.5 70.85 46.15 70.85 44.7 70.85 44 72L43.9 72 43.6 71M44.35 73Q44.75 72.55 45.45 72.55 46.3 72.55 46.55 73.1 46.9 73.65 46.9 74.8 46.9 77.1 45.5 77.1 44.7 77.1 44.35 76.55 44 76.05 44 74.8L44 74.6Q44 73.5 44.35 73M78 71.8Q77.05 70.85 75.5 70.85 73.85 70.85 72.85 71.9 71.85 73 71.85 74.9 71.85 76.8 72.9 77.75 73.95 78.8 75.8 78.8 76.7 78.8 77.3 78.65 78 78.5 78.5 78.25L78.5 76.65 77.2 77.1Q76.6 77.25 75.9 77.25 75.1 77.25 74.5 76.75 74 76.15 74 75.35L78.9 75.35 78.9 74.35Q78.9 72.7 78 71.8M76.95 73.95L74.05 73.95Q74.05 73.25 74.45 72.75 74.85 72.35 75.5 72.35 76.15 72.35 76.55 72.75 76.95 73.25 76.95 73.95M65.7 71.45Q64.9 72 64.9 73 64.9 73.5 65.1 74 65.25 74.3 65.7 74.75L68 75.85 68.5 76.2Q68.65 76.35 68.65 76.6 68.65 77.25 67.5 77.25 66.95 77.25 66.25 77.1L64.95 76.65 64.95 78.35Q65.25 78.5 66.05 78.7L67.45 78.8Q69.1 78.8 69.9 78.2 70.7 77.55 70.7 76.4 70.7 75.8 70.5 75.4 70.35 75 69.9 74.7 69.5 74.4 68.6 74 67.65 73.65 67.3 73.4 67 73.2 67 72.9 67 72.4 67.9 72.4L68.95 72.55 70 73 70.65 71.45Q69.3 70.85 67.95 70.85 66.55 70.85 65.7 71.45M39.6 88.7Q38.65 89.7 38.65 91.6 38.65 92.8 39.1 93.75 39.55 94.65 40.4 95.1 41.2 95.6 42.35 95.6 44.1 95.6 45.05 94.55 46.05 93.55 46.05 91.6 46.05 90.4 45.6 89.5 45.15 88.6 44.3 88.15 43.4 87.65 42.35 87.65 40.6 87.65 39.6 88.7M40.75 91.6Q40.75 90.55 41.15 89.9 41.55 89.35 42.35 89.35 43.15 89.35 43.55 89.9 43.9 90.45 43.9 91.6 43.9 92.8 43.55 93.35 43.2 93.9 42.35 93.9 41.55 93.9 41.15 93.35 40.75 92.7 40.75 91.6M36.95 84.8L34.85 84.8 35 88.8 34.9 88.8Q34.15 87.65 32.7 87.65 31.4 87.65 30.55 88.7 29.8 89.75 29.8 91.65 29.8 93.5 30.55 94.55 31.3 95.6 32.65 95.6 34.1 95.6 34.85 94.45L34.9 94.45 35.35 95.45 36.95 95.45 36.95 84.8M34.6 89.9Q35 90.45 35 91.65L35 91.9Q34.95 93 34.55 93.45 34.2 93.95 33.4 93.95 32.7 93.95 32.3 93.35 31.9 92.8 31.9 91.7 31.9 90.6 32.3 89.95 32.7 89.35 33.35 89.35 34.2 89.35 34.6 89.9M39.3 71.8Q38.35 70.85 36.75 70.85 35.1 70.85 34.1 71.9 33.15 73 33.15 74.9 33.15 76.8 34.2 77.75 35.25 78.8 37.1 78.8 38 78.8 38.6 78.65 39.4 78.45 39.75 78.25L39.75 76.65 38.5 77.1Q37.85 77.25 37.2 77.25 36.3 77.25 35.8 76.75 35.35 76.3 35.25 75.35L40.2 75.35 40.2 74.35Q40.2 72.7 39.3 71.8M35.75 72.75Q36.15 72.35 36.8 72.35 37.45 72.35 37.85 72.75 38.25 73.25 38.25 73.95L35.3 73.95Q35.4 73.2 35.75 72.75M27.45 68.65L24.55 68.65 24.55 78.65 26.65 78.65 26.65 74.8 27.8 74.8 30.2 78.65 32.55 78.65Q32.2 78.15 29.6 74.3 30.5 73.9 30.95 73.2 31.45 72.55 31.45 71.65 31.45 70.15 30.45 69.4 29.5 68.65 27.45 68.65M27.3 70.4Q28.35 70.4 28.8 70.7 29.3 71 29.3 71.7 29.3 72.45 28.85 72.75 28.35 73.1 27.35 73.1L26.65 73.1 26.65 70.4 27.3 70.4M130.4 72.4L131.45 72.55 132.5 73 133.15 71.45Q131.8 70.85 130.45 70.85 129.05 70.85 128.2 71.45 127.45 72 127.45 73 127.45 73.65 127.6 74 127.75 74.3 128.2 74.75L130.5 75.85 131 76.2Q131.15 76.35 131.15 76.6 131.15 77.25 130.05 77.25 129.5 77.25 128.75 77.1L127.45 76.65 127.45 78.35 128.55 78.7 129.95 78.8Q131.6 78.8 132.4 78.2 133.25 77.5 133.25 76.4 133.25 76 133.05 75.4 132.8 74.95 132.4 74.7 132.15 74.45 131.1 74 130.1 73.6 129.8 73.4 129.5 73.2 129.5 72.9 129.5 72.4 130.4 72.4M120.8 93L120.8 95Q122.1 95.6 123.65 95.6 125.4 95.6 126.35 94.8 127.35 94.05 127.35 92.7 127.35 91.75 126.8 91.05 126.25 90.35 124.9 89.7L123.55 89 123.15 88.6Q123 88.4 123 88.1 123 87.65 123.35 87.35 123.6 87.1 124.25 87.1 124.95 87.1 125.3 87.2L126.6 87.65 127.3 86 125.8 85.5Q124.9 85.3 124.3 85.3 122.7 85.3 121.85 86.1 120.95 86.85 120.95 88.15 120.95 88.8 121.2 89.4 121.5 89.95 121.95 90.3 122.3 90.65 123.3 91.15L124.6 91.8Q125 92.1 125.1 92.25 125.25 92.5 125.25 92.8 125.25 93.3 124.9 93.6 124.5 93.85 123.8 93.85 123.15 93.85 122.55 93.65 122.1 93.55 120.8 93M118.9 85.45L116.05 85.45 113.55 93.1 113.5 93.1 111.1 85.45 108.25 85.45 108.25 95.45 110.15 95.45 110 87.6 110.05 87.6 112.45 95.45 114.4 95.45 117 87.65 117.05 87.65 116.95 95.45 118.9 95.45 118.9 85.45M119.15 74.9Q119.15 76.8 120.2 77.75 121.25 78.8 123.1 78.8 124 78.8 124.6 78.65 125.4 78.45 125.75 78.25L125.75 76.65 124.5 77.1Q123.85 77.25 123.2 77.25 122.4 77.25 121.8 76.75 121.35 76.3 121.25 75.35L126.2 75.35 126.2 74.35Q126.2 72.7 125.3 71.8 124.35 70.85 122.75 70.85 121.1 70.85 120.1 71.9 119.15 73 119.15 74.9M122.8 72.35Q123.45 72.35 123.85 72.75 124.25 73.25 124.25 73.95L121.3 73.95Q121.4 73.2 121.75 72.75 122.15 72.35 122.8 72.35M100.4 85.45L100.4 95.45 106.15 95.45 106.15 93.7 102.5 93.7 102.5 91.15 105.9 91.15 105.9 89.4 102.5 89.4 102.5 87.2 106.15 87.2 106.15 85.45 100.4 85.45M87.9 85.4L85.3 85.4 81.75 95.45 84.05 95.45 84.75 93.1 88.4 93.1 89.15 95.45 91.4 95.45 87.9 85.4M86.6 86.95L87.9 91.3 85.3 91.3 86.6 86.95M95.55 85.3Q93.95 85.3 93.1 86.1 92.2 86.85 92.2 88.15 92.2 88.95 92.45 89.4 92.75 89.95 93.2 90.3 93.55 90.65 94.55 91.15L95.85 91.8 96.35 92.25Q96.5 92.5 96.5 92.8 96.5 93.3 96.15 93.6 95.75 93.85 95.05 93.85 94.4 93.85 93.8 93.65 93.35 93.55 92.05 93L92.05 95Q93.35 95.6 94.9 95.6 96.65 95.6 97.6 94.8 98.6 94.05 98.6 92.7 98.6 91.75 98.05 91.05 97.5 90.35 96.15 89.7L94.8 89 94.4 88.6Q94.25 88.4 94.25 88.1 94.25 87.65 94.6 87.35 94.85 87.1 95.5 87.1 96.2 87.1 96.55 87.2L97.85 87.65 98.55 86 97.05 85.5Q96.15 85.3 95.55 85.3M90.2 71L89.05 71.7 89.05 72.6 90.05 72.6 90.05 76.25Q90.05 77.5 90.6 78.15 91.2 78.8 92.45 78.8 93.6 78.8 94.35 78.45L94.35 76.9Q93.5 77.15 93.05 77.15 92.7 77.15 92.35 76.9 92.1 76.75 92.1 76.25L92.1 72.6 94.25 72.6 94.25 71 92.1 71 92.1 69.4 90.8 69.4 90.2 71M84.35 72.55Q85 72.55 85.3 72.95 85.6 73.4 85.6 74.2L85.6 78.65 87.65 78.65 87.65 73.65Q87.65 72.25 87 71.6 86.25 70.85 84.95 70.85 84.15 70.85 83.55 71.15 82.95 71.45 82.6 72L82.5 72 82.2 71 80.6 71 80.6 78.65 82.7 78.65 82.7 75.05Q82.7 73.75 83.1 73.1 83.5 72.55 84.35 72.55M112.75 72.6L113.75 72.6 113.75 76.25Q113.75 77.55 114.35 78.15 114.85 78.8 116.15 78.8 117.35 78.8 118.1 78.45L118.1 76.9Q117.2 77.15 116.75 77.15 116.35 77.15 116.1 76.9 115.85 76.75 115.85 76.25L115.85 72.6 118 72.6 118 71 115.85 71 115.85 69.4 114.5 69.4 113.9 71 112.75 71.7 112.75 72.6M106.2 72L105.95 71 104.35 71 104.35 78.65 106.45 78.65 106.45 75.05Q106.45 73.65 106.8 73.1 107.25 72.55 108.1 72.55 108.7 72.55 109 72.95 109.3 73.4 109.3 74.2L109.3 78.65 111.4 78.65 111.4 73.65Q111.4 72.3 110.7 71.6 110.05 70.85 108.7 70.85 107.9 70.85 107.3 71.15 106.6 71.5 106.35 72L106.2 72M102.2 73.55Q102.2 72.15 101.4 71.55 100.55 70.85 99 70.85 97.4 70.85 96.1 71.55L96.8 72.95Q98.05 72.4 98.95 72.4 100.15 72.4 100.15 73.55L100.15 73.9 98.8 73.95Q97.05 74.05 96.25 74.6 95.4 75.1 95.4 76.35 95.4 77.55 96 78.15 96.65 78.8 97.75 78.8 98.6 78.8 99.2 78.55 99.85 78.2 100.3 77.6L100.35 77.6 100.75 78.65 102.2 78.65 102.2 73.55M100.15 75.1L100.15 75.75Q100.15 76.4 99.7 76.85 99.3 77.25 98.55 77.25 97.5 77.25 97.5 76.4 97.5 75.75 97.95 75.45 98.4 75.15 99.3 75.15L100.15 75.1Z"/></g><animate attributeName="display" fill="freeze" repeatCount="1" dur="1.375s" keyTimes="0;.485;1" values="none;inline;inline"/></g><g display="none"><g id="Ministerio" transform="matrix(.053 0 0 .053 180.8 81)" opacity="1"><animateTransform attributeName="transform" additive="replace" type="translate" dur="1.375s" keyTimes="0;.303;.485;.545;.606;1" values="184.953,85.153;184.953,85.153;184.951,85.151;185.089,85.196;184.95,85.15;184.95,85.15" fill="freeze"/><animateTransform attributeName="transform" additive="sum" type="scale" dur="1.375s" keyTimes="0;.303;.485;.545;.606;1" values=".053,.053;.053,.053;1.09,1.09;.936,.936;1,1;1,1" fill="freeze"/><animateTransform attributeName="transform" additive="sum" type="translate" dur="1.375s" keyTimes="0;.303;.485;.545;.606;1" values="-78.65,-78.65;-78.65,-78.65;-77.7,-77.7;-77.8,-77.7;-77.65,-77.65;-77.65,-77.65" fill="freeze"/><animate attributeName="opacity" dur="1.375s" keyTimes="0;.303;.485;1" values="1;1;.9;.9" fill="freeze"/><path fill="#834E7C" stroke="none" d="M150.05 47.8Q144.15 33.9 133.4 23.15 122.65 12.4 108.75 6.5 94.3 .4 78.5 .4 62.7 .4 48.3 6.5 34.35 12.4 23.65 23.15 12.9 33.9 7 47.8 .9 62.25 .9 78.05 .9 93.85 7 108.25 12.9 122.2 23.65 132.9 34.35 143.65 48.3 149.55 62.7 155.65 78.5 155.65 94.3 155.65 108.75 149.55 122.65 143.65 133.4 132.9 144.15 122.2 150.05 108.25 156.15 93.85 156.15 78.05 156.15 62.25 150.05 47.8M144 50.4Q149.6 63.6 149.6 78.05 149.6 92.5 144 105.7 138.6 118.45 128.75 128.3 118.9 138.1 106.15 143.5 92.95 149.1 78.5 149.1 49.1 149.1 28.3 128.3 18.45 118.45 13.05 105.7 7.45 92.5 7.45 78.05 7.45 63.6 13.05 50.4 18.45 37.65 28.3 27.8 38.1 17.95 50.85 12.55 64.05 6.95 78.5 6.95 92.95 6.95 106.15 12.55 118.9 17.95 128.75 27.8 138.6 37.65 144 50.4M148.6 78.05Q148.6 63.8 143.1 50.8 137.75 38.2 128.05 28.5 107.5 7.95 78.5 7.95 49.55 7.95 29 28.5 19.3 38.2 13.95 50.8 8.45 63.8 8.45 78.05 8.45 107 29 127.55 38.7 137.25 51.25 142.6 64.3 148.1 78.5 148.1 92.75 148.1 105.75 142.6 118.35 137.25 128.05 127.55 148.6 107 148.6 78.05M106.35 67Q106.6 66.5 107.3 66.15 107.9 65.85 108.7 65.85 110.05 65.85 110.7 66.6 111.4 67.3 111.4 68.65L111.4 73.65 109.3 73.65 109.3 69.2Q109.3 68.4 109 67.95 108.7 67.55 108.1 67.55 107.25 67.55 106.8 68.1 106.45 68.65 106.45 70.05L106.45 73.65 104.35 73.65 104.35 66 105.95 66 106.2 67 106.35 67M102.2 68.55L102.2 73.65 100.75 73.65 100.35 72.6 100.3 72.6Q99.85 73.2 99.2 73.55 98.6 73.8 97.75 73.8 96.65 73.8 96 73.15 95.4 72.55 95.4 71.35 95.4 70.1 96.25 69.6 97.05 69.05 98.8 68.95L100.15 68.9 100.15 68.55Q100.15 67.4 98.95 67.4 98.05 67.4 96.8 67.95L96.1 66.55Q97.4 65.85 99 65.85 100.55 65.85 101.4 66.55 102.2 67.15 102.2 68.55M118 66L118 67.6 115.85 67.6 115.85 71.25Q115.85 71.75 116.1 71.9 116.35 72.15 116.75 72.15 117.2 72.15 118.1 71.9L118.1 73.45Q117.35 73.8 116.15 73.8 114.85 73.8 114.35 73.15 113.75 72.55 113.75 71.25L113.75 67.6 112.75 67.6 112.75 66.7 113.9 66 114.5 64.4 115.85 64.4 115.85 66 118 66M120.2 72.75Q119.15 71.8 119.15 69.9 119.15 68 120.1 66.9 121.1 65.85 122.75 65.85 124.35 65.85 125.3 66.8 126.2 67.7 126.2 69.35L126.2 70.35 121.25 70.35Q121.35 71.3 121.8 71.75 122.4 72.25 123.2 72.25 123.85 72.25 124.5 72.1L125.75 71.65 125.75 73.25Q125.4 73.45 124.6 73.65 124 73.8 123.1 73.8 121.25 73.8 120.2 72.75M90.05 67.6L89.05 67.6 89.05 66.7 90.2 66 90.8 64.4 92.1 64.4 92.1 66 94.25 66 94.25 67.6 92.1 67.6 92.1 71.25Q92.1 71.75 92.35 71.9 92.7 72.15 93.05 72.15 93.5 72.15 94.35 71.9L94.35 73.45Q93.6 73.8 92.45 73.8 91.2 73.8 90.6 73.15 90.05 72.5 90.05 71.25L90.05 67.6M82.6 67Q82.95 66.45 83.55 66.15 84.15 65.85 84.95 65.85 86.25 65.85 87 66.6 87.65 67.25 87.65 68.65L87.65 73.65 85.6 73.65 85.6 69.2Q85.6 68.4 85.3 67.95 85 67.55 84.35 67.55 83.5 67.55 83.1 68.1 82.7 68.75 82.7 70.05L82.7 73.65 80.6 73.65 80.6 66 82.2 66 82.5 67 82.6 67M93.3 81.2L94.65 81.2 94.65 82.8 96.8 82.8 96.8 84.4 94.65 84.4 94.65 88.05Q94.65 88.6 94.9 88.7 95.15 88.95 95.55 88.95 96 88.95 96.85 88.7L96.85 90.25Q96.15 90.6 94.95 90.6 93.7 90.6 93.1 89.95 92.55 89.3 92.55 88.05L92.55 84.4 91.55 84.4 91.55 83.5 92.7 82.8 93.3 81.2M100.35 81.95L100.35 81.8Q101.6 80.4 101.95 79.75L104.3 79.75 104.3 79.85 103.1 80.95Q101.8 81.9 101.75 81.95L100.35 81.95M83 81.6Q82.65 81.85 82.15 81.85 81 81.85 81 80.85 81 79.8 82.15 79.8 83.3 79.8 83.3 80.85 83.3 81.3 83 81.6M84.9 84.8Q84.9 83.75 85.7 83.25 86.45 82.65 87.95 82.65 89.35 82.65 90.6 83.25L90 84.8 88.9 84.35Q88.45 84.2 87.9 84.2 86.95 84.2 86.95 84.7 86.95 85 87.25 85.2 87.55 85.4 88.55 85.8 89.55 86.25 89.9 86.5 90.25 86.8 90.5 87.2 90.7 87.6 90.7 88.2 90.7 89.35 89.9 90 89.1 90.6 87.45 90.6L86 90.5 84.9 90.15 84.9 88.45 86.2 88.9Q86.95 89.05 87.5 89.05 88.65 89.05 88.65 88.4 88.65 88.15 88.5 88L87.95 87.65 87 87.2Q86 86.8 85.7 86.55 85.2 86.15 85.1 85.8 84.9 85.45 84.9 84.8M81.1 82.8L83.2 82.8 83.2 90.45 81.1 90.45 81.1 82.8M87.3 98.75L87.3 98.6Q88.45 97.35 88.95 96.55L91.25 96.55 91.25 96.65 88.7 98.75 87.3 98.75M100.05 87.15Q100.05 88 100.6 88.55 101.1 89.05 101.95 89.05 102.65 89.05 103.25 88.9L104.55 88.45 104.55 90.05Q104.2 90.25 103.4 90.45 102.75 90.6 101.85 90.6 100 90.6 99 89.55 97.95 88.6 97.95 86.7 97.95 84.7 98.9 83.7 99.9 82.65 101.55 82.65 103.15 82.65 104.1 83.6 105 84.5 105 86.15L105 87.15 100.05 87.15M98.8 96.6L100.9 96.6 100.9 107.25 99.3 107.25 98.9 106.25 98.8 106.25Q98.05 107.4 96.65 107.4 95.35 107.4 94.5 106.35 93.75 105.3 93.75 103.45 93.75 101.5 94.55 100.5 95.3 99.45 96.7 99.45 98.15 99.45 98.9 100.6L98.95 100.6 98.8 96.6M115.2 80.85Q115.2 81.25 114.95 81.6 114.6 81.85 114.1 81.85 112.95 81.85 112.95 80.85 112.95 79.8 114.1 79.8 115.2 79.8 115.2 80.85M113.05 82.8L115.1 82.8 115.1 90.45 113.05 90.45 113.05 82.8M111.65 82.75L111.5 84.7 110.85 84.6Q109.95 84.6 109.3 85.15 108.75 85.6 108.75 86.55L108.75 90.45 106.65 90.45 106.65 82.8 108.25 82.8 108.55 84.1 108.65 84.1Q109.05 83.4 109.6 83.05 110.3 82.65 110.95 82.65L111.65 82.75M116.85 86.6Q116.85 84.7 117.8 83.7 118.8 82.65 120.55 82.65 121.6 82.65 122.5 83.15 123.35 83.6 123.8 84.5 124.25 85.4 124.25 86.6 124.25 88.45 123.25 89.55 122.3 90.6 120.55 90.6 119.4 90.6 118.6 90.1 117.75 89.7 117.3 88.75 116.85 87.8 116.85 86.6M127.45 68Q127.45 67 128.2 66.45 129.05 65.85 130.45 65.85 131.8 65.85 133.15 66.45L132.5 68 131.45 67.55 130.4 67.4Q129.5 67.4 129.5 67.9 129.5 68.2 129.8 68.4 130.1 68.6 131.1 69 132.15 69.45 132.4 69.7 132.8 69.95 133.05 70.4 133.25 71 133.25 71.4 133.25 72.5 132.4 73.2 131.6 73.8 129.95 73.8L128.55 73.7 127.45 73.35 127.45 71.65 128.75 72.1Q129.5 72.25 130.05 72.25 131.15 72.25 131.15 71.6 131.15 71.35 131 71.2L130.5 70.85 128.2 69.75Q127.75 69.3 127.6 69 127.45 68.65 127.45 68M26.65 69.8L26.65 73.65 24.55 73.65 24.55 63.65 27.45 63.65Q29.5 63.65 30.45 64.4 31.45 65.15 31.45 66.65 31.45 67.55 30.95 68.2 30.5 68.9 29.6 69.3 32.2 73.15 32.55 73.65L30.2 73.65 27.8 69.8 26.65 69.8M36.75 65.85Q38.35 65.85 39.3 66.8 40.2 67.7 40.2 69.35L40.2 70.35 35.25 70.35Q35.35 71.3 35.8 71.75 36.3 72.25 37.2 72.25 37.85 72.25 38.5 72.1L39.75 71.65 39.75 73.25Q39.4 73.45 38.6 73.65 38 73.8 37.1 73.8 35.25 73.8 34.2 72.75 33.15 71.8 33.15 69.9 33.15 68 34.1 66.9 35.1 65.85 36.75 65.85M37.95 83.8L38 83.8 37.85 79.8 39.95 79.8 39.95 90.45 38.35 90.45 37.95 89.45 37.85 89.45Q37.1 90.6 35.7 90.6 34.3 90.6 33.55 89.55 32.8 88.5 32.8 86.65 32.8 84.75 33.55 83.7 34.4 82.65 35.75 82.65 37.2 82.65 37.95 83.8M68.95 67.55L67.9 67.4Q67 67.4 67 67.9 67 68.2 67.3 68.4 67.65 68.65 68.6 69 69.5 69.4 69.9 69.7 70.35 70 70.5 70.4 70.7 70.8 70.7 71.4 70.7 72.55 69.9 73.2 69.1 73.8 67.45 73.8L66.05 73.7Q65.25 73.5 64.95 73.35L64.95 71.65 66.25 72.1Q66.95 72.25 67.5 72.25 68.65 72.25 68.65 71.6 68.65 71.35 68.5 71.2L68 70.85 65.7 69.75Q65.25 69.3 65.1 69 64.9 68.5 64.9 68 64.9 67 65.7 66.45 66.55 65.85 67.95 65.85 69.3 65.85 70.65 66.45L70 68 68.95 67.55M61.95 72.1L63.25 71.65 63.25 73.25Q62.9 73.45 62.1 73.65 61.45 73.8 60.55 73.8 58.75 73.8 57.7 72.75 56.65 71.8 56.65 69.9 56.65 67.9 57.6 66.9 58.6 65.85 60.25 65.85 61.85 65.85 62.8 66.8 63.7 67.7 63.7 69.35L63.7 70.35 58.75 70.35Q58.85 71.3 59.3 71.75 59.8 72.25 60.65 72.25 61.35 72.25 61.95 72.1M72.85 66.9Q73.85 65.85 75.5 65.85 77.05 65.85 78 66.8 78.9 67.7 78.9 69.35L78.9 70.35 74 70.35Q74 71.15 74.5 71.75 75.1 72.25 75.9 72.25 76.6 72.25 77.2 72.1L78.5 71.65 78.5 73.25Q78 73.5 77.3 73.65 76.7 73.8 75.8 73.8 73.95 73.8 72.9 72.75 71.85 71.8 71.85 69.9 71.85 68 72.85 66.9M46.15 65.85Q47.5 65.85 48.25 66.9 49.05 68 49.05 69.8 49.05 71 48.65 71.95 48.35 72.85 47.65 73.3 47 73.8 46.1 73.8 44.75 73.8 44 72.8L43.85 72.8 44 73.9 44 77 41.9 77 41.9 66 43.6 66 43.9 67 44 67Q44.7 65.85 46.15 65.85M53.7 66.25Q54.35 65.85 55 65.85L55.7 65.95 55.55 67.9 54.95 67.8Q53.95 67.8 53.4 68.35 52.85 68.75 52.85 69.75L52.85 73.65 50.75 73.65 50.75 66 52.35 66 52.65 67.3 52.75 67.3Q53.15 66.6 53.7 66.25M56.4 82.6L56.35 82.6 56.5 90.45 54.6 90.45 54.6 80.45 57.45 80.45 59.85 88.1 59.9 88.1 62.4 80.45 65.25 80.45 65.25 90.45 63.3 90.45 63.4 82.65 63.35 82.65 60.75 90.45 58.8 90.45 56.4 82.6M42.65 83.7Q43.65 82.65 45.4 82.65 46.4 82.65 47.3 83.15 48.15 83.55 48.6 84.5 49.05 85.4 49.05 86.6 49.05 88.55 48.1 89.55 47.05 90.6 45.35 90.6 44.2 90.6 43.4 90.1 42.55 89.65 42.1 88.75 41.65 87.8 41.65 86.6 41.65 84.8 42.65 83.7M52.5 96.6L54.55 96.6 54.55 107.25 52.95 107.25 52.55 106.25 52.5 106.25Q51.75 107.4 50.3 107.4 48.95 107.4 48.2 106.35 47.45 105.3 47.45 103.45 47.45 101.55 48.2 100.5 49.05 99.45 50.35 99.45 51.8 99.45 52.55 100.6L52.65 100.6 52.5 96.6M73.5 82.8L73.75 83.8 73.9 83.8Q74.15 83.3 74.85 82.95 75.45 82.65 76.25 82.65 77.6 82.65 78.25 83.4 78.95 84.1 78.95 85.45L78.95 90.45 76.85 90.45 76.85 86Q76.85 85.2 76.55 84.75 76.25 84.35 75.65 84.35 74.8 84.35 74.35 84.9 74 85.45 74 86.85L74 90.45 71.9 90.45 71.9 82.8 73.5 82.8M67.55 80.85Q67.55 79.8 68.65 79.8 69.8 79.8 69.8 80.85 69.8 81.3 69.5 81.6 69.25 81.85 68.65 81.85 67.55 81.85 67.55 80.85M67.6 82.8L69.7 82.8 69.7 90.45 67.6 90.45 67.6 82.8M71.9 97.1Q72.4 97.1 73.4 97.3L74.85 97.8 74.15 99.45 72.85 99 71.8 98.9Q71.25 98.9 70.9 99.15 70.6 99.45 70.6 99.9 70.6 100.25 70.7 100.4L71.1 100.8 72.45 101.5Q73.9 102.2 74.4 102.85 74.9 103.5 74.9 104.5 74.9 105.85 73.95 106.6 73 107.4 71.2 107.4 69.6 107.4 68.4 106.8L68.4 104.8Q69.55 105.35 70.1 105.45 70.7 105.65 71.4 105.65 72.05 105.65 72.45 105.4 72.85 105.1 72.85 104.6 72.85 104.35 72.65 104.05L72.2 103.6 70.9 102.95Q69.9 102.5 69.5 102.1 69 101.7 68.8 101.2 68.5 100.7 68.5 99.95 68.5 98.65 69.4 97.9 70.25 97.1 71.9 97.1M77.45 101.55L76.75 100.15Q78.15 99.45 79.7 99.45 81.2 99.45 82.05 100.15 82.85 100.75 82.85 102.15L82.85 107.25 81.4 107.25 81 106.2 80.95 106.2Q80.45 106.85 79.85 107.15 79.25 107.4 78.4 107.4 77.3 107.4 76.7 106.75 76.05 106.15 76.05 104.95 76.05 103.75 76.9 103.2 77.7 102.65 79.45 102.55L80.8 102.5 80.8 102.15Q80.8 101 79.6 101 78.7 101 77.45 101.55M61 102.5L61 102.15Q61 101 59.8 101 58.9 101 57.65 101.55L56.95 100.15Q58.35 99.45 59.9 99.45 61.4 99.45 62.25 100.15 63.05 100.75 63.05 102.15L63.05 107.25 61.6 107.25 61.2 106.2 61.15 106.2Q60.65 106.85 60.05 107.15 59.45 107.4 58.6 107.4 57.5 107.4 56.9 106.75 56.25 106.15 56.25 104.95 56.25 103.75 57.1 103.2 57.9 102.65 59.65 102.55L61 102.5M109.65 102.95L109.65 103.95 104.7 103.95Q104.8 104.9 105.25 105.35 105.75 105.85 106.6 105.85 107.3 105.85 107.95 105.7L109.2 105.25 109.2 106.85Q108.85 107.05 108.05 107.25 107.45 107.4 106.55 107.4 104.7 107.4 103.65 106.35 102.6 105.4 102.6 103.5 102.6 101.5 103.55 100.5 104.55 99.45 106.2 99.45 107.8 99.45 108.75 100.4 109.65 101.3 109.65 102.95M92 99.6L92 107.25 90.4 107.25 90.15 106.3 90.05 106.3Q89.7 106.8 89.1 107.1 88.45 107.4 87.7 107.4 86.35 107.4 85.65 106.65 84.95 105.95 84.95 104.6L84.95 99.6 87.05 99.6 87.05 104.1Q87.05 104.95 87.35 105.3 87.65 105.75 88.3 105.75 89.2 105.75 89.55 105.15 89.95 104.5 89.95 103.2L89.95 99.6 92 99.6M107.7 102.55Q107.7 101.85 107.3 101.35 106.9 100.95 106.25 100.95 105.6 100.95 105.2 101.35 104.85 101.8 104.75 102.55L107.7 102.55M61 104.35L61 103.7 60.2 103.75Q59.25 103.75 58.85 104.05 58.4 104.35 58.4 105 58.4 105.85 59.4 105.85 60.15 105.85 60.55 105.45 61 105 61 104.35M80.8 104.35L80.8 103.7 80 103.75Q79.1 103.75 78.65 104.05 78.2 104.35 78.2 105 78.2 105.85 79.2 105.85 79.95 105.85 80.35 105.45 80.8 105 80.8 104.35M52.6 103.45Q52.6 102.2 52.25 101.7 51.85 101.15 51 101.15 50.35 101.15 49.9 101.75 49.55 102.3 49.55 103.5 49.55 104.7 49.95 105.15 50.35 105.75 51.05 105.75 51.85 105.75 52.2 105.25 52.6 104.75 52.6 103.7L52.6 103.45M45.35 84.35Q44.55 84.35 44.15 84.9 43.8 85.45 43.8 86.6 43.8 87.8 44.15 88.35 44.55 88.9 45.35 88.9 46.15 88.9 46.55 88.35 46.95 87.7 46.95 86.6 46.95 85.55 46.55 84.9 46.15 84.35 45.35 84.35M45.45 67.55Q44.75 67.55 44.35 68 44 68.5 44 69.6L44 69.8Q44 71.05 44.35 71.55 44.7 72.1 45.5 72.1 46.9 72.1 46.9 69.8 46.9 68.65 46.55 68.1 46.25 67.55 45.45 67.55M75.5 67.35Q74.85 67.35 74.45 67.75 74.05 68.25 74.05 68.95L76.95 68.95Q76.95 68.25 76.55 67.75 76.15 67.35 75.5 67.35M61.75 68.95Q61.65 68.15 61.35 67.75 60.85 67.35 60.25 67.35 59.65 67.35 59.25 67.75 58.9 68.2 58.8 68.95L61.75 68.95M36.35 84.35Q35.7 84.35 35.3 84.95 34.9 85.6 34.9 86.7 34.9 87.8 35.3 88.35 35.7 88.95 36.4 88.95 37.25 88.95 37.6 88.45 37.9 88.05 38 86.9L38 86.65Q38 85.45 37.6 84.9 37.2 84.35 36.35 84.35M36.8 67.35Q36.15 67.35 35.75 67.75 35.4 68.2 35.3 68.95L38.25 68.95Q38.25 68.25 37.85 67.75 37.45 67.35 36.8 67.35M27.3 65.4L26.65 65.4 26.65 68.1 27.35 68.1Q28.35 68.1 28.85 67.75 29.3 67.45 29.3 66.7 29.3 66 28.8 65.7 28.35 65.4 27.3 65.4M120.55 84.35Q119.75 84.35 119.35 84.9 118.95 85.55 118.95 86.6 118.95 87.7 119.35 88.35 119.75 88.9 120.55 88.9 121.35 88.9 121.75 88.35 122.1 87.8 122.1 86.6 122.1 85.45 121.75 84.9 121.35 84.35 120.55 84.35M98.55 101.7Q98.15 101.15 97.35 101.15 96.65 101.15 96.25 101.75 95.85 102.4 95.85 103.5 95.85 104.6 96.25 105.15 96.65 105.75 97.35 105.75 98.2 105.75 98.55 105.25 98.85 104.85 98.95 103.7L98.95 103.45Q98.95 102.25 98.55 101.7M100.55 84.55Q100.2 85 100.1 85.75L103 85.75Q103 84.95 102.6 84.55 102.2 84.15 101.55 84.15 100.95 84.15 100.55 84.55M122.8 67.35Q122.15 67.35 121.75 67.75 121.4 68.2 121.3 68.95L124.25 68.95Q124.25 68.25 123.85 67.75 123.45 67.35 122.8 67.35M100.15 70.75L100.15 70.1 99.3 70.15Q98.4 70.15 97.95 70.45 97.5 70.75 97.5 71.4 97.5 72.25 98.55 72.25 99.3 72.25 99.7 71.85 100.15 71.4 100.15 70.75Z"/><path fill="#FFF" stroke="none" d="M149.6 78.05Q149.6 63.6 144 50.4 138.6 37.65 128.75 27.8 118.9 17.95 106.15 12.55 92.95 6.95 78.5 6.95 64.05 6.95 50.85 12.55 38.1 17.95 28.3 27.8 18.45 37.65 13.05 50.4 7.45 63.6 7.45 78.05 7.45 92.5 13.05 105.7 18.45 118.45 28.3 128.3 49.1 149.1 78.5 149.1 92.95 149.1 106.15 143.5 118.9 138.1 128.75 128.3 138.6 118.45 144 105.7 149.6 92.5 149.6 78.05M143.1 50.8Q148.6 63.8 148.6 78.05 148.6 107 128.05 127.55 118.35 137.25 105.75 142.6 92.75 148.1 78.5 148.1 64.3 148.1 51.25 142.6 38.7 137.25 29 127.55 8.45 107 8.45 78.05 8.45 63.8 13.95 50.8 19.3 38.2 29 28.5 49.55 7.95 78.5 7.95 107.5 7.95 128.05 28.5 137.75 38.2 143.1 50.8M92 107.25L92 99.6 89.95 99.6 89.95 103.2Q89.95 104.5 89.55 105.15 89.2 105.75 88.3 105.75 87.65 105.75 87.35 105.3 87.05 104.95 87.05 104.1L87.05 99.6 84.95 99.6 84.95 104.6Q84.95 105.95 85.65 106.65 86.35 107.4 87.7 107.4 88.45 107.4 89.1 107.1 89.7 106.8 90.05 106.3L90.15 106.3 90.4 107.25 92 107.25M109.65 103.95L109.65 102.95Q109.65 101.3 108.75 100.4 107.8 99.45 106.2 99.45 104.55 99.45 103.55 100.5 102.6 101.5 102.6 103.5 102.6 105.4 103.65 106.35 104.7 107.4 106.55 107.4 107.45 107.4 108.05 107.25 108.85 107.05 109.2 106.85L109.2 105.25 107.95 105.7Q107.3 105.85 106.6 105.85 105.75 105.85 105.25 105.35 104.8 104.9 104.7 103.95L109.65 103.95M107.3 101.35Q107.7 101.85 107.7 102.55L104.75 102.55Q104.85 101.8 105.2 101.35 105.6 100.95 106.25 100.95 106.9 100.95 107.3 101.35M61 102.15L61 102.5 59.65 102.55Q57.9 102.65 57.1 103.2 56.25 103.75 56.25 104.95 56.25 106.15 56.9 106.75 57.5 107.4 58.6 107.4 59.45 107.4 60.05 107.15 60.65 106.85 61.15 106.2L61.2 106.2 61.6 107.25 63.05 107.25 63.05 102.15Q63.05 100.75 62.25 100.15 61.4 99.45 59.9 99.45 58.35 99.45 56.95 100.15L57.65 101.55Q58.9 101 59.8 101 61 101 61 102.15M61 103.7L61 104.35Q61 105 60.55 105.45 60.15 105.85 59.4 105.85 58.4 105.85 58.4 105 58.4 104.35 58.85 104.05 59.25 103.75 60.2 103.75L61 103.7M76.75 100.15L77.45 101.55Q78.7 101 79.6 101 80.8 101 80.8 102.15L80.8 102.5 79.45 102.55Q77.7 102.65 76.9 103.2 76.05 103.75 76.05 104.95 76.05 106.15 76.7 106.75 77.3 107.4 78.4 107.4 79.25 107.4 79.85 107.15 80.45 106.85 80.95 106.2L81 106.2 81.4 107.25 82.85 107.25 82.85 102.15Q82.85 100.75 82.05 100.15 81.2 99.45 79.7 99.45 78.15 99.45 76.75 100.15M80.8 103.7L80.8 104.35Q80.8 105 80.35 105.45 79.95 105.85 79.2 105.85 78.2 105.85 78.2 105 78.2 104.35 78.65 104.05 79.1 103.75 80 103.75L80.8 103.7M73.4 97.3Q72.4 97.1 71.9 97.1 70.25 97.1 69.4 97.9 68.5 98.65 68.5 99.95 68.5 100.7 68.8 101.2 69 101.7 69.5 102.1 69.9 102.5 70.9 102.95L72.2 103.6 72.65 104.05Q72.85 104.35 72.85 104.6 72.85 105.1 72.45 105.4 72.05 105.65 71.4 105.65 70.7 105.65 70.1 105.45 69.55 105.35 68.4 104.8L68.4 106.8Q69.6 107.4 71.2 107.4 73 107.4 73.95 106.6 74.9 105.85 74.9 104.5 74.9 103.5 74.4 102.85 73.9 102.2 72.45 101.5L71.1 100.8 70.7 100.4Q70.6 100.25 70.6 99.9 70.6 99.45 70.9 99.15 71.25 98.9 71.8 98.9L72.85 99 74.15 99.45 74.85 97.8 73.4 97.3M69.7 82.8L67.6 82.8 67.6 90.45 69.7 90.45 69.7 82.8M68.65 79.8Q67.55 79.8 67.55 80.85 67.55 81.85 68.65 81.85 69.25 81.85 69.5 81.6 69.8 81.3 69.8 80.85 69.8 79.8 68.65 79.8M73.75 83.8L73.5 82.8 71.9 82.8 71.9 90.45 74 90.45 74 86.85Q74 85.45 74.35 84.9 74.8 84.35 75.65 84.35 76.25 84.35 76.55 84.75 76.85 85.2 76.85 86L76.85 90.45 78.95 90.45 78.95 85.45Q78.95 84.1 78.25 83.4 77.6 82.65 76.25 82.65 75.45 82.65 74.85 82.95 74.15 83.3 73.9 83.8L73.75 83.8M54.55 96.6L52.5 96.6 52.65 100.6 52.55 100.6Q51.8 99.45 50.35 99.45 49.05 99.45 48.2 100.5 47.45 101.55 47.45 103.45 47.45 105.3 48.2 106.35 48.95 107.4 50.3 107.4 51.75 107.4 52.5 106.25L52.55 106.25 52.95 107.25 54.55 107.25 54.55 96.6M52.25 101.7Q52.6 102.2 52.6 103.45L52.6 103.7Q52.6 104.75 52.2 105.25 51.85 105.75 51.05 105.75 50.35 105.75 49.95 105.15 49.55 104.7 49.55 103.5 49.55 102.3 49.9 101.75 50.35 101.15 51 101.15 51.85 101.15 52.25 101.7M45.4 82.65Q43.65 82.65 42.65 83.7 41.65 84.8 41.65 86.6 41.65 87.8 42.1 88.75 42.55 89.65 43.4 90.1 44.2 90.6 45.35 90.6 47.05 90.6 48.1 89.55 49.05 88.55 49.05 86.6 49.05 85.4 48.6 84.5 48.15 83.55 47.3 83.15 46.4 82.65 45.4 82.65M44.15 84.9Q44.55 84.35 45.35 84.35 46.15 84.35 46.55 84.9 46.95 85.55 46.95 86.6 46.95 87.7 46.55 88.35 46.15 88.9 45.35 88.9 44.55 88.9 44.15 88.35 43.8 87.8 43.8 86.6 43.8 85.45 44.15 84.9M56.35 82.6L56.4 82.6 58.8 90.45 60.75 90.45 63.35 82.65 63.4 82.65 63.3 90.45 65.25 90.45 65.25 80.45 62.4 80.45 59.9 88.1 59.85 88.1 57.45 80.45 54.6 80.45 54.6 90.45 56.5 90.45 56.35 82.6M55 65.85Q54.35 65.85 53.7 66.25 53.15 66.6 52.75 67.3L52.65 67.3 52.35 66 50.75 66 50.75 73.65 52.85 73.65 52.85 69.75Q52.85 68.75 53.4 68.35 53.95 67.8 54.95 67.8L55.55 67.9 55.7 65.95 55 65.85M48.25 66.9Q47.5 65.85 46.15 65.85 44.7 65.85 44 67L43.9 67 43.6 66 41.9 66 41.9 77 44 77 44 73.9 43.85 72.8 44 72.8Q44.75 73.8 46.1 73.8 47 73.8 47.65 73.3 48.35 72.85 48.65 71.95 49.05 71 49.05 69.8 49.05 68 48.25 66.9M44.35 68Q44.75 67.55 45.45 67.55 46.25 67.55 46.55 68.1 46.9 68.65 46.9 69.8 46.9 72.1 45.5 72.1 44.7 72.1 44.35 71.55 44 71.05 44 69.8L44 69.6Q44 68.5 44.35 68M75.5 65.85Q73.85 65.85 72.85 66.9 71.85 68 71.85 69.9 71.85 71.8 72.9 72.75 73.95 73.8 75.8 73.8 76.7 73.8 77.3 73.65 78 73.5 78.5 73.25L78.5 71.65 77.2 72.1Q76.6 72.25 75.9 72.25 75.1 72.25 74.5 71.75 74 71.15 74 70.35L78.9 70.35 78.9 69.35Q78.9 67.7 78 66.8 77.05 65.85 75.5 65.85M74.45 67.75Q74.85 67.35 75.5 67.35 76.15 67.35 76.55 67.75 76.95 68.25 76.95 68.95L74.05 68.95Q74.05 68.25 74.45 67.75M63.25 71.65L61.95 72.1Q61.35 72.25 60.65 72.25 59.8 72.25 59.3 71.75 58.85 71.3 58.75 70.35L63.7 70.35 63.7 69.35Q63.7 67.7 62.8 66.8 61.85 65.85 60.25 65.85 58.6 65.85 57.6 66.9 56.65 67.9 56.65 69.9 56.65 71.8 57.7 72.75 58.75 73.8 60.55 73.8 61.45 73.8 62.1 73.65 62.9 73.45 63.25 73.25L63.25 71.65M61.35 67.75Q61.65 68.15 61.75 68.95L58.8 68.95Q58.9 68.2 59.25 67.75 59.65 67.35 60.25 67.35 60.85 67.35 61.35 67.75M67.9 67.4L68.95 67.55 70 68 70.65 66.45Q69.3 65.85 67.95 65.85 66.55 65.85 65.7 66.45 64.9 67 64.9 68 64.9 68.5 65.1 69 65.25 69.3 65.7 69.75L68 70.85 68.5 71.2Q68.65 71.35 68.65 71.6 68.65 72.25 67.5 72.25 66.95 72.25 66.25 72.1L64.95 71.65 64.95 73.35Q65.25 73.5 66.05 73.7L67.45 73.8Q69.1 73.8 69.9 73.2 70.7 72.55 70.7 71.4 70.7 70.8 70.5 70.4 70.35 70 69.9 69.7 69.5 69.4 68.6 69 67.65 68.65 67.3 68.4 67 68.2 67 67.9 67 67.4 67.9 67.4M38 83.8L37.95 83.8Q37.2 82.65 35.75 82.65 34.4 82.65 33.55 83.7 32.8 84.75 32.8 86.65 32.8 88.5 33.55 89.55 34.3 90.6 35.7 90.6 37.1 90.6 37.85 89.45L37.95 89.45 38.35 90.45 39.95 90.45 39.95 79.8 37.85 79.8 38 83.8M35.3 84.95Q35.7 84.35 36.35 84.35 37.2 84.35 37.6 84.9 38 85.45 38 86.65L38 86.9Q37.9 88.05 37.6 88.45 37.25 88.95 36.4 88.95 35.7 88.95 35.3 88.35 34.9 87.8 34.9 86.7 34.9 85.6 35.3 84.95M39.3 66.8Q38.35 65.85 36.75 65.85 35.1 65.85 34.1 66.9 33.15 68 33.15 69.9 33.15 71.8 34.2 72.75 35.25 73.8 37.1 73.8 38 73.8 38.6 73.65 39.4 73.45 39.75 73.25L39.75 71.65 38.5 72.1Q37.85 72.25 37.2 72.25 36.3 72.25 35.8 71.75 35.35 71.3 35.25 70.35L40.2 70.35 40.2 69.35Q40.2 67.7 39.3 66.8M35.75 67.75Q36.15 67.35 36.8 67.35 37.45 67.35 37.85 67.75 38.25 68.25 38.25 68.95L35.3 68.95Q35.4 68.2 35.75 67.75M26.65 73.65L26.65 69.8 27.8 69.8 30.2 73.65 32.55 73.65Q32.2 73.15 29.6 69.3 30.5 68.9 30.95 68.2 31.45 67.55 31.45 66.65 31.45 65.15 30.45 64.4 29.5 63.65 27.45 63.65L24.55 63.65 24.55 73.65 26.65 73.65M26.65 65.4L27.3 65.4Q28.35 65.4 28.8 65.7 29.3 66 29.3 66.7 29.3 67.45 28.85 67.75 28.35 68.1 27.35 68.1L26.65 68.1 26.65 65.4M128.2 66.45Q127.45 67 127.45 68 127.45 68.65 127.6 69 127.75 69.3 128.2 69.75L130.5 70.85 131 71.2Q131.15 71.35 131.15 71.6 131.15 72.25 130.05 72.25 129.5 72.25 128.75 72.1L127.45 71.65 127.45 73.35 128.55 73.7 129.95 73.8Q131.6 73.8 132.4 73.2 133.25 72.5 133.25 71.4 133.25 71 133.05 70.4 132.8 69.95 132.4 69.7 132.15 69.45 131.1 69 130.1 68.6 129.8 68.4 129.5 68.2 129.5 67.9 129.5 67.4 130.4 67.4L131.45 67.55 132.5 68 133.15 66.45Q131.8 65.85 130.45 65.85 129.05 65.85 128.2 66.45M117.8 83.7Q116.85 84.7 116.85 86.6 116.85 87.8 117.3 88.75 117.75 89.7 118.6 90.1 119.4 90.6 120.55 90.6 122.3 90.6 123.25 89.55 124.25 88.45 124.25 86.6 124.25 85.4 123.8 84.5 123.35 83.6 122.5 83.15 121.6 82.65 120.55 82.65 118.8 82.65 117.8 83.7M119.35 84.9Q119.75 84.35 120.55 84.35 121.35 84.35 121.75 84.9 122.1 85.45 122.1 86.6 122.1 87.8 121.75 88.35 121.35 88.9 120.55 88.9 119.75 88.9 119.35 88.35 118.95 87.7 118.95 86.6 118.95 85.55 119.35 84.9M111.5 84.7L111.65 82.75 110.95 82.65Q110.3 82.65 109.6 83.05 109.05 83.4 108.65 84.1L108.55 84.1 108.25 82.8 106.65 82.8 106.65 90.45 108.75 90.45 108.75 86.55Q108.75 85.6 109.3 85.15 109.95 84.6 110.85 84.6L111.5 84.7M115.1 82.8L113.05 82.8 113.05 90.45 115.1 90.45 115.1 82.8M114.95 81.6Q115.2 81.25 115.2 80.85 115.2 79.8 114.1 79.8 112.95 79.8 112.95 80.85 112.95 81.85 114.1 81.85 114.6 81.85 114.95 81.6M100.9 96.6L98.8 96.6 98.95 100.6 98.9 100.6Q98.15 99.45 96.7 99.45 95.3 99.45 94.55 100.5 93.75 101.5 93.75 103.45 93.75 105.3 94.5 106.35 95.35 107.4 96.65 107.4 98.05 107.4 98.8 106.25L98.9 106.25 99.3 107.25 100.9 107.25 100.9 96.6M97.35 101.15Q98.15 101.15 98.55 101.7 98.95 102.25 98.95 103.45L98.95 103.7Q98.85 104.85 98.55 105.25 98.2 105.75 97.35 105.75 96.65 105.75 96.25 105.15 95.85 104.6 95.85 103.5 95.85 102.4 96.25 101.75 96.65 101.15 97.35 101.15M100.6 88.55Q100.05 88 100.05 87.15L105 87.15 105 86.15Q105 84.5 104.1 83.6 103.15 82.65 101.55 82.65 99.9 82.65 98.9 83.7 97.95 84.7 97.95 86.7 97.95 88.6 99 89.55 100 90.6 101.85 90.6 102.75 90.6 103.4 90.45 104.2 90.25 104.55 90.05L104.55 88.45 103.25 88.9Q102.65 89.05 101.95 89.05 101.1 89.05 100.6 88.55M100.1 85.75Q100.2 85 100.55 84.55 100.95 84.15 101.55 84.15 102.2 84.15 102.6 84.55 103 84.95 103 85.75L100.1 85.75M87.3 98.6L87.3 98.75 88.7 98.75 91.25 96.65 91.25 96.55 88.95 96.55Q88.45 97.35 87.3 98.6M83.2 82.8L81.1 82.8 81.1 90.45 83.2 90.45 83.2 82.8M85.7 83.25Q84.9 83.75 84.9 84.8 84.9 85.45 85.1 85.8 85.2 86.15 85.7 86.55 86 86.8 87 87.2L87.95 87.65 88.5 88Q88.65 88.15 88.65 88.4 88.65 89.05 87.5 89.05 86.95 89.05 86.2 88.9L84.9 88.45 84.9 90.15 86 90.5 87.45 90.6Q89.1 90.6 89.9 90 90.7 89.35 90.7 88.2 90.7 87.6 90.5 87.2 90.25 86.8 89.9 86.5 89.55 86.25 88.55 85.8 87.55 85.4 87.25 85.2 86.95 85 86.95 84.7 86.95 84.2 87.9 84.2 88.45 84.2 88.9 84.35L90 84.8 90.6 83.25Q89.35 82.65 87.95 82.65 86.45 82.65 85.7 83.25M82.15 81.85Q82.65 81.85 83 81.6 83.3 81.3 83.3 80.85 83.3 79.8 82.15 79.8 81 79.8 81 80.85 81 81.85 82.15 81.85M100.35 81.8L100.35 81.95 101.75 81.95Q101.8 81.9 103.1 80.95L104.3 79.85 104.3 79.75 101.95 79.75Q101.6 80.4 100.35 81.8M94.65 81.2L93.3 81.2 92.7 82.8 91.55 83.5 91.55 84.4 92.55 84.4 92.55 88.05Q92.55 89.3 93.1 89.95 93.7 90.6 94.95 90.6 96.15 90.6 96.85 90.25L96.85 88.7Q96 88.95 95.55 88.95 95.15 88.95 94.9 88.7 94.65 88.6 94.65 88.05L94.65 84.4 96.8 84.4 96.8 82.8 94.65 82.8 94.65 81.2M83.55 66.15Q82.95 66.45 82.6 67L82.5 67 82.2 66 80.6 66 80.6 73.65 82.7 73.65 82.7 70.05Q82.7 68.75 83.1 68.1 83.5 67.55 84.35 67.55 85 67.55 85.3 67.95 85.6 68.4 85.6 69.2L85.6 73.65 87.65 73.65 87.65 68.65Q87.65 67.25 87 66.6 86.25 65.85 84.95 65.85 84.15 65.85 83.55 66.15M89.05 67.6L90.05 67.6 90.05 71.25Q90.05 72.5 90.6 73.15 91.2 73.8 92.45 73.8 93.6 73.8 94.35 73.45L94.35 71.9Q93.5 72.15 93.05 72.15 92.7 72.15 92.35 71.9 92.1 71.75 92.1 71.25L92.1 67.6 94.25 67.6 94.25 66 92.1 66 92.1 64.4 90.8 64.4 90.2 66 89.05 66.7 89.05 67.6M119.15 69.9Q119.15 71.8 120.2 72.75 121.25 73.8 123.1 73.8 124 73.8 124.6 73.65 125.4 73.45 125.75 73.25L125.75 71.65 124.5 72.1Q123.85 72.25 123.2 72.25 122.4 72.25 121.8 71.75 121.35 71.3 121.25 70.35L126.2 70.35 126.2 69.35Q126.2 67.7 125.3 66.8 124.35 65.85 122.75 65.85 121.1 65.85 120.1 66.9 119.15 68 119.15 69.9M121.75 67.75Q122.15 67.35 122.8 67.35 123.45 67.35 123.85 67.75 124.25 68.25 124.25 68.95L121.3 68.95Q121.4 68.2 121.75 67.75M118 67.6L118 66 115.85 66 115.85 64.4 114.5 64.4 113.9 66 112.75 66.7 112.75 67.6 113.75 67.6 113.75 71.25Q113.75 72.55 114.35 73.15 114.85 73.8 116.15 73.8 117.35 73.8 118.1 73.45L118.1 71.9Q117.2 72.15 116.75 72.15 116.35 72.15 116.1 71.9 115.85 71.75 115.85 71.25L115.85 67.6 118 67.6M102.2 73.65L102.2 68.55Q102.2 67.15 101.4 66.55 100.55 65.85 99 65.85 97.4 65.85 96.1 66.55L96.8 67.95Q98.05 67.4 98.95 67.4 100.15 67.4 100.15 68.55L100.15 68.9 98.8 68.95Q97.05 69.05 96.25 69.6 95.4 70.1 95.4 71.35 95.4 72.55 96 73.15 96.65 73.8 97.75 73.8 98.6 73.8 99.2 73.55 99.85 73.2 100.3 72.6L100.35 72.6 100.75 73.65 102.2 73.65M100.15 70.1L100.15 70.75Q100.15 71.4 99.7 71.85 99.3 72.25 98.55 72.25 97.5 72.25 97.5 71.4 97.5 70.75 97.95 70.45 98.4 70.15 99.3 70.15L100.15 70.1M107.3 66.15Q106.6 66.5 106.35 67L106.2 67 105.95 66 104.35 66 104.35 73.65 106.45 73.65 106.45 70.05Q106.45 68.65 106.8 68.1 107.25 67.55 108.1 67.55 108.7 67.55 109 67.95 109.3 68.4 109.3 69.2L109.3 73.65 111.4 73.65 111.4 68.65Q111.4 67.3 110.7 66.6 110.05 65.85 108.7 65.85 107.9 65.85 107.3 66.15Z"/></g><animate attributeName="display" fill="freeze" repeatCount="1" dur="1.375s" keyTimes="0;.303;1" values="none;inline;inline"/></g></g></svg>