<?xml version="1.0" encoding="utf-8"?><svg id="M1_A2_RM_23" image-rendering="auto" baseProfile="basic" version="1.1" x="0px" y="0px" width="375" height="375" xmlns="http://www.w3.org/2000/svg" xmlns:xlink="http://www.w3.org/1999/xlink"><g id="Cena-1r1" overflow="visible"><g id="Bipartite" transform="matrix(.046 0 0 .046 184.95 183.65)"><animateTransform attributeName="transform" additive="replace" type="translate" dur="1.333s" keyTimes="0;.219;.281;.344;1" values="188.552,187.252;188.657,187.203;188.499,187.243;188.5,187.2;188.5,187.2" fill="freeze"/><animateTransform attributeName="transform" additive="sum" type="scale" dur="1.333s" keyTimes="0;.219;.281;.344;1" values=".046,.046;1.097,1.097;.891,.891;1,1;1,1" fill="freeze"/><animateTransform attributeName="transform" additive="sum" type="translate" dur="1.333s" keyTimes="0;.219;.281;.344;1" values="-78.8,-78.8;-77.75,-77.7;-77.65,-77.7;-77.6,-77.65;-77.6,-77.65" fill="freeze"/><path fill="#637D8E" stroke="none" d="M149.05 46.8Q143.15 32.9 132.4 22.15 121.65 11.4 107.75 5.5 93.3 -.6 77.5 -.6 61.7 -.6 47.3 5.5 33.35 11.4 22.65 22.15 11.9 32.9 6 46.8 -.1 61.25 -.1 77.05 -.1 92.85 6 107.25 11.9 121.2 22.65 131.9 33.35 142.65 47.3 148.55 61.7 154.65 77.5 154.65 93.3 154.65 107.75 148.55 121.65 142.65 132.4 131.9 143.15 121.2 149.05 107.25 155.15 92.85 155.15 77.05 155.15 61.25 149.05 46.8M127.75 26.8Q137.6 36.65 143 49.4 148.6 62.6 148.6 77.05 148.6 91.5 143 104.7 137.6 117.45 127.75 127.3 117.9 137.1 105.15 142.5 91.95 148.1 77.5 148.1 48.1 148.1 27.3 127.3 17.45 117.45 12.05 104.7 6.45 91.5 6.45 77.05 6.45 62.6 12.05 49.4 17.45 36.65 27.3 26.8 37.1 16.95 49.85 11.55 63.05 5.95 77.5 5.95 91.95 5.95 105.15 11.55 117.9 16.95 127.75 26.8M147.6 77.05Q147.6 62.8 142.1 49.8 136.75 37.2 127.05 27.5 106.5 6.95 77.5 6.95 48.55 6.95 28 27.5 18.3 37.2 12.95 49.8 7.45 62.8 7.45 77.05 7.45 106.05 28 126.55 37.7 136.25 50.25 141.6 63.3 147.1 77.5 147.1 91.75 147.1 104.75 141.6 117.35 136.25 127.05 126.55 147.6 106.05 147.6 77.05M102.8 60.65Q102.8 58.8 103.8 57.7 104.8 56.7 106.55 56.7 107.6 56.7 108.5 57.15 109.3 57.65 109.75 58.55 110.2 59.45 110.2 60.65 110.2 62.55 109.25 63.55 108.3 64.6 106.5 64.6 105.35 64.6 104.55 64.1 103.7 63.65 103.25 62.75 102.8 61.85 102.8 60.65M104.05 73.65L105.6 73.65 105.9 74.9 106.05 74.9Q106.3 74.35 107 73.85 107.55 73.5 108.3 73.5L109 73.55 108.85 75.5 108.25 75.45Q107.2 75.45 106.7 75.95 106.1 76.5 106.1 77.4L106.1 81.25 104.05 81.25 104.05 73.65M119 74.05Q119.7 73.5 121.25 73.5 122.65 73.5 123.9 74.1L123.3 75.6Q122.9 75.4 122.2 75.2 121.75 75.05 121.2 75.05 120.25 75.05 120.25 75.5 120.25 75.8 120.55 76 120.85 76.2 121.85 76.6 122.65 76.95 123.2 77.3 123.55 77.6 123.8 78 124 78.4 124 79 124 80.15 123.2 80.8 122.4 81.4 120.75 81.4L119.3 81.3 118.2 80.95 118.2 79.25 119.5 79.7Q120.5 79.9 120.8 79.9 121.95 79.9 121.95 79.2 121.95 79.05 121.8 78.8L121.25 78.45 120.3 78Q119.3 77.6 119 77.35 118.55 77.05 118.4 76.6 118.2 76.25 118.2 75.6 118.2 74.55 119 74.05M97.95 55.65L97.4 55.4Q97.2 55.25 96.9 55.25 96.8 55.25 96.5 55.45 96.35 55.65 96.25 56L95.2 56Q95.3 55 95.75 54.45 96.25 53.9 97.05 53.9 97.45 53.9 97.6 54L98.65 54.5 99.15 54.6Q99.4 54.6 99.55 54.4 99.75 54.25 99.85 53.85L100.85 53.85Q100.75 54.95 100.3 55.4 99.8 56 99 56L97.95 55.65M92.4 60.5Q92.75 60.8 93 61.2 93.2 61.8 93.2 62.2 93.2 63.4 92.35 64 91.6 64.6 89.95 64.6L88.5 64.5 87.4 64.15 87.4 62.45 88.7 62.9Q89.7 63.1 90 63.1 91.15 63.1 91.15 62.4 91.15 62.25 91 62L89.5 61.2Q88.5 60.8 88.2 60.55 87.75 60.25 87.6 59.8 87.4 59.45 87.4 58.8 87.4 57.75 88.2 57.25 88.9 56.7 90.4 56.7 91.85 56.7 93.1 57.3L92.5 58.8Q92.1 58.6 91.4 58.4 90.9 58.25 90.4 58.25 89.45 58.25 89.45 58.75 89.45 59 89.75 59.2 90.05 59.4 91.05 59.8 91.85 60.15 92.4 60.5M95.7 58.75L95 57.35Q96.4 56.65 97.95 56.65 99.45 56.65 100.3 57.35 101.15 58.05 101.15 59.35L101.15 64.45 99.65 64.45 99.25 63.45 99.2 63.45Q98.55 64.15 98.15 64.35 97.5 64.6 96.7 64.6 95.55 64.6 94.95 64 94.3 63.35 94.3 62.2 94.3 61 95.15 60.4 96 59.85 97.75 59.75L99.05 59.7 99.05 59.35Q99.05 58.2 97.85 58.2 97.05 58.2 95.7 58.75M83.45 58.25Q82.5 58.25 82.5 58.75 82.5 59 82.8 59.2 83.1 59.4 84.1 59.8 85 60.15 85.4 60.5 85.8 60.75 86.05 61.2 86.25 61.8 86.25 62.2 86.25 63.4 85.4 64 84.6 64.6 82.95 64.6L81.55 64.5 80.45 64.15 80.45 62.45 81.75 62.9Q82.75 63.1 83.05 63.1 84.15 63.1 84.15 62.4 84.15 62.25 84 62L83.5 61.7 81.2 60.55Q80.85 60.25 80.6 59.8 80.45 59.45 80.45 58.8 80.45 57.8 81.2 57.25 81.95 56.7 83.45 56.7 84.9 56.7 86.15 57.3L85.5 58.8Q85.15 58.6 84.45 58.4L83.45 58.25M82.65 74.05Q83.4 73.5 84.9 73.5 86.25 73.5 87.6 74.1L86.95 75.6 85.9 75.2 84.85 75.05Q83.95 75.05 83.95 75.5 83.95 75.8 84.25 76 84.6 76.25 85.55 76.6 86.2 76.9 86.85 77.3 87.3 77.6 87.45 78 87.65 78.4 87.65 79 87.65 80.2 86.85 80.8 86.05 81.4 84.4 81.4L83 81.3Q82.2 81.1 81.9 80.95L81.9 79.25 83.2 79.7Q84.2 79.9 84.45 79.9 85.6 79.9 85.6 79.2 85.6 79.05 85.45 78.8L84.95 78.45 82.65 77.35Q82.3 77.05 82.05 76.6 81.85 76.1 81.85 75.6 81.85 74.6 82.65 74.05M89.65 73.6L90.25 72 91.6 72 91.6 73.65 93.75 73.65 93.75 75.2 91.6 75.2 91.6 78.9Q91.6 79.3 91.85 79.55 92.15 79.75 92.5 79.75 92.95 79.75 93.8 79.5L93.8 81.05Q93.1 81.4 91.9 81.4 90.6 81.4 90.1 80.75 89.5 80.15 89.5 78.9L89.5 75.2 88.5 75.2 88.5 74.3 89.65 73.6M98.65 73.5Q99.75 73.5 100.55 73.95 101.4 74.45 101.85 75.35 102.3 76.25 102.3 77.45 102.3 79.35 101.35 80.35 100.3 81.4 98.6 81.4 97.45 81.4 96.65 80.9 95.8 80.45 95.35 79.55 94.9 78.65 94.9 77.45 94.9 75.6 95.9 74.5 96.9 73.5 98.65 73.5M86.85 90.4L88.45 90.4 88.7 91.4 88.8 91.4Q89.2 90.85 89.8 90.55 90.45 90.3 91.15 90.3 92.55 90.3 93.2 91 93.9 91.8 93.9 93.1L93.9 98.05 91.8 98.05 91.8 93.6Q91.8 92.8 91.5 92.35 91.2 91.95 90.55 91.95 89.7 91.95 89.3 92.55 88.9 93.1 88.9 94.45L88.9 98.05 86.85 98.05 86.85 90.4M81.45 90.3Q82.55 90.3 83.35 90.75 84.2 91.25 84.65 92.15 85.1 93.05 85.1 94.25 85.1 96.15 84.15 97.15 83.1 98.2 81.4 98.2 80.25 98.2 79.45 97.7 78.6 97.25 78.15 96.35 77.7 95.45 77.7 94.25 77.7 92.4 78.7 91.3 79.7 90.3 81.45 90.3M96.25 90.95Q97.55 90.25 99.15 90.25 100.7 90.25 101.5 90.95 102.35 91.65 102.35 92.95L102.35 98.05 100.9 98.05 100.5 97.05 100.45 97.05Q99.85 97.75 99.35 97.95 98.75 98.2 97.9 98.2 96.85 98.2 96.15 97.6 95.55 96.95 95.55 95.8 95.55 94.55 96.4 94 97.2 93.45 98.95 93.35L100.25 93.3 100.25 92.95Q100.25 91.8 99.1 91.8 98.2 91.8 96.95 92.35L96.25 90.95M116.95 76.95L116.95 77.95 112.05 77.95Q112.05 78.75 112.55 79.35 113.05 79.85 113.95 79.85 114.65 79.85 115.25 79.7L116.55 79.25 116.55 80.85Q115.85 81.2 115.35 81.25 114.75 81.4 113.85 81.4 112.05 81.4 110.95 80.4 109.95 79.3 109.95 77.5 109.95 75.55 110.9 74.55 111.9 73.5 113.55 73.5 115.15 73.5 116.05 74.4 116.95 75.3 116.95 76.95M104.5 98.05L104.5 87.45 106.6 87.45 106.6 98.05 104.5 98.05M31.75 71.25L33.9 71.25 33.9 81.25 31.75 81.25 31.75 71.25M36.25 73.6L37.85 73.6 38.1 74.6 38.25 74.6Q38.55 74.1 39.2 73.75 39.85 73.5 40.6 73.5 41.95 73.5 42.6 74.2 43.3 75 43.3 76.3L43.3 81.25 41.2 81.25 41.2 76.8Q41.2 76 40.9 75.55 40.6 75.15 40 75.15 39.15 75.15 38.7 75.75 38.35 76.25 38.35 77.65L38.35 81.25 36.25 81.25 36.25 73.6M78.8 54.85Q78.8 55.3 78.5 55.6 78.3 55.85 77.65 55.85 76.55 55.85 76.55 54.85 76.55 53.85 77.65 53.85 78.8 53.85 78.8 54.85M72.1 58.75Q71.85 58.35 71.25 58.35 70.5 58.35 70.1 58.9 69.7 59.45 69.7 60.65L69.7 64.45 67.65 64.45 67.65 60Q67.65 59.2 67.35 58.75 67.1 58.35 66.5 58.35 65.65 58.35 65.35 58.95 64.95 59.6 64.95 60.85L64.95 64.45 62.9 64.45 62.9 56.8 64.45 56.8 64.75 57.8 64.85 57.8Q65.15 57.3 65.75 57 66.35 56.7 67.1 56.7 68.8 56.7 69.4 57.8L69.6 57.8Q69.95 57.2 70.5 57 71.1 56.7 71.85 56.7 73.2 56.7 73.8 57.35 74.5 58.05 74.5 59.5L74.5 64.45 72.4 64.45 72.4 60Q72.4 59.2 72.1 58.75M76.65 56.85L78.7 56.85 78.7 64.45 76.65 64.45 76.65 56.85M64.05 73.5L64.75 73.55 64.6 75.5 64 75.45Q62.95 75.45 62.45 75.95 61.9 76.45 61.9 77.4L61.9 81.25 59.8 81.25 59.8 73.65 61.35 73.65 61.7 74.9 61.8 74.9Q62.05 74.35 62.75 73.85 63.3 73.5 64.05 73.5M66.5 74.15Q67.3 73.5 68.8 73.5L72.8 73.6 72.8 74.7 71.6 75Q71.95 75.6 71.95 76.15 71.95 77.35 71.1 78.05 70.15 78.75 68.7 78.75L68.3 78.7 68 78.7Q67.7 78.95 67.7 79.25 67.7 79.7 68.85 79.7L70.15 79.7Q71.45 79.7 72.05 80.25 72.7 80.75 72.7 81.8 72.7 83.15 71.6 83.9 70.5 84.65 68.4 84.65 66.8 84.65 65.95 84.05 65.1 83.5 65.1 82.5 65.1 81.8 65.55 81.35 65.9 80.95 66.8 80.7 66.45 80.55 66.25 80.25 66 80 66 79.6 66 79.2 66.25 78.85 66.5 78.5 67 78.3 66.3 77.95 66 77.45 65.65 76.75 65.65 76.1 65.65 74.85 66.5 74.15M53.75 60.65Q53.75 58.7 54.7 57.7 55.8 56.7 57.45 56.7 58.6 56.7 59.4 57.15 60.3 57.7 60.7 58.55 61.15 59.45 61.15 60.65 61.15 62.55 60.15 63.55 59.2 64.6 57.45 64.6 56.3 64.6 55.5 64.1 54.65 63.65 54.2 62.75 53.75 61.85 53.75 60.65M51.95 56.75Q51.2 56.4 50.8 56.3 50.35 56.1 49.7 56.1 48.55 56.1 47.85 57 47.2 57.85 47.2 59.5 47.2 62.85 49.7 62.85 50.7 62.85 52.25 62.3L52.25 64.1Q51.1 64.6 49.5 64.6 47.4 64.6 46.15 63.3 45 61.9 45 59.5 45 57.95 45.6 56.75 46.1 55.55 47.2 54.95 48.25 54.35 49.7 54.35 51.25 54.35 52.65 55.05L51.95 56.75M45.8 73.6L46.4 72 47.75 72 47.75 73.65 49.9 73.65 49.9 75.2 47.75 75.2 47.75 78.9Q47.75 79.3 48 79.55 48.3 79.75 48.65 79.75 49.1 79.75 50 79.5L50 81.05Q49.25 81.4 48.05 81.4 46.75 81.4 46.25 80.75 45.65 80.15 45.65 78.9L45.65 75.2 44.65 75.2 44.65 74.3 45.8 73.6M56.4 79.7L57.65 79.25 57.65 80.85Q57.1 81.2 56.5 81.25 55.9 81.4 55 81.4 53.2 81.4 52.1 80.4 51.05 79.35 51.05 77.5 51.05 75.65 52 74.55 53 73.5 54.65 73.5 56.3 73.5 57.2 74.4 58.1 75.3 58.1 76.95L58.1 77.95 53.15 77.95Q53.25 78.9 53.7 79.35 54.15 79.85 55.1 79.85 55.75 79.85 56.4 79.7M48.65 98.05L48.65 88.05 51.55 88.05Q53.6 88.05 54.55 88.8 55.55 89.55 55.55 91.05 55.55 92 55.05 92.65 54.65 93.3 53.7 93.7L56.6 98.05 54.25 98.05 51.9 94.25 50.75 94.25 50.75 98.05 48.65 98.05M59.35 94.75Q59.45 95.7 59.9 96.15 60.35 96.65 61.25 96.65 61.95 96.65 62.55 96.5 63.15 96.35 63.85 96.05L63.85 97.65Q63.3 98 62.7 98.05 62.05 98.2 61.15 98.2 59.4 98.2 58.3 97.2 57.25 96.15 57.25 94.3 57.25 92.35 58.2 91.35 59.2 90.3 60.85 90.3 62.5 90.3 63.4 91.2 64.3 92.1 64.3 93.75L64.3 94.75 59.35 94.75M79.75 74.4Q80.65 75.3 80.65 76.95L80.65 77.95 75.7 77.95Q75.8 78.9 76.25 79.35 76.7 79.85 77.6 79.85 78.3 79.85 78.9 79.7 79.5 79.55 80.2 79.25L80.2 80.85Q79.65 81.2 79.05 81.25 78.4 81.4 77.5 81.4 75.75 81.4 74.65 80.4 73.6 79.35 73.6 77.5 73.6 75.55 74.55 74.55 75.55 73.5 77.2 73.5 78.85 73.5 79.75 74.4M68.65 90.3L69.4 90.35 69.95 90.45 72.65 90.45 72.65 91.5 71.45 91.8Q71.75 92.35 71.75 92.95 71.75 94.2 70.9 94.85 70.05 95.55 68.55 95.55L68.15 95.55 67.85 95.5Q67.5 95.75 67.5 96.05 67.5 96.5 68.65 96.5L69.95 96.5Q71.3 96.5 71.9 97.05 72.55 97.55 72.55 98.6 72.55 99.9 71.45 100.7 70.35 101.45 68.2 101.45 66.65 101.45 65.8 100.85 64.95 100.35 64.95 99.3 64.95 98.55 65.35 98.15 65.8 97.7 66.65 97.5 66.4 97.4 66.05 97.05 65.85 96.8 65.85 96.4 65.85 95.9 66.1 95.65 66.35 95.35 66.8 95.1 66.2 94.8 65.85 94.25 65.5 93.7 65.5 92.9 65.5 91.65 66.3 90.95 67.1 90.3 68.65 90.3M75.8 89.2Q75.5 89.5 74.95 89.5 73.8 89.5 73.8 88.45 73.8 87.45 74.95 87.45 76.05 87.45 76.05 88.45 76.05 88.95 75.8 89.2M73.9 98.05L73.9 90.4 76 90.4 76 98.05 73.9 98.05M68.1 98.15Q67.55 98.15 67.1 98.45 66.75 98.65 66.75 99.15 66.75 99.6 67.15 99.8 67.55 100.05 68.3 100.05 69.45 100.05 70.05 99.75 70.7 99.45 70.7 98.9 70.7 98.5 70.3 98.35 69.95 98.15 69.15 98.15L68.1 98.15M69.5 93.9Q69.8 93.55 69.8 92.95 69.8 91.55 68.65 91.55 67.5 91.55 67.5 92.95 67.5 93.55 67.8 93.9 68 94.25 68.65 94.25 69.2 94.25 69.5 93.9M78.7 76.6Q78.6 75.7 78.3 75.4 77.85 74.95 77.2 74.95 76.6 74.95 76.2 75.4 75.85 75.8 75.75 76.6L78.7 76.6M59.85 92.2Q59.5 92.6 59.4 93.4L62.35 93.4Q62.25 92.5 61.95 92.2 61.5 91.75 60.9 91.75 60.25 91.75 59.85 92.2M52.9 90.1Q52.45 89.8 51.4 89.8L50.75 89.8 50.75 92.5 51.45 92.5Q52.45 92.5 52.9 92.2 53.4 91.85 53.4 91.1 53.4 90.4 52.9 90.1M56.15 76.6Q56.15 75.8 55.75 75.4 55.4 74.95 54.7 74.95 54.05 74.95 53.65 75.4 53.3 75.8 53.2 76.6L56.15 76.6M57.45 58.35Q56.65 58.35 56.25 58.95 55.85 59.5 55.85 60.65 55.85 61.7 56.25 62.35 56.65 62.95 57.45 62.95 58.3 62.95 58.65 62.35 59 61.8 59 60.65 59 59.45 58.65 58.95 58.3 58.35 57.45 58.35M70.25 82.95Q70.85 82.65 70.85 82.1 70.85 81.7 70.5 81.55 70.15 81.35 69.35 81.35L68.25 81.35Q67.7 81.35 67.3 81.65 66.9 81.9 66.9 82.35 66.9 82.75 67.3 83 67.7 83.25 68.45 83.25 69.6 83.25 70.25 82.95M69.65 77.1Q69.95 76.75 69.95 76.15 69.95 74.75 68.8 74.75 67.65 74.75 67.65 76.15 67.65 76.75 67.95 77.1 68.25 77.45 68.8 77.45 69.45 77.45 69.65 77.1M113.55 74.95Q112.9 74.95 112.5 75.4 112.1 75.8 112.1 76.6L115 76.6Q115 75.8 114.6 75.4 114.25 74.95 113.55 74.95M100.25 94.55L99.45 94.55Q98.65 94.55 98.1 94.9 97.65 95.2 97.65 95.8 97.65 96.7 98.7 96.7 99.4 96.7 99.85 96.25 100.25 95.9 100.25 95.15L100.25 94.55M82.6 92.55Q82.25 91.95 81.4 91.95 80.6 91.95 80.2 92.55 79.85 93.05 79.85 94.25 79.85 95.4 80.2 95.95 80.6 96.55 81.4 96.55 82.25 96.55 82.6 95.95 83 95.3 83 94.25 83 93.1 82.6 92.55M97.4 79.15Q97.8 79.75 98.6 79.75 99.45 79.75 99.8 79.15 100.2 78.5 100.2 77.45 100.2 76.3 99.8 75.75 99.45 75.15 98.6 75.15 97.8 75.15 97.4 75.75 97.05 76.25 97.05 77.45 97.05 78.6 97.4 79.15M99.05 60.95L98.25 60.95Q97.45 60.95 96.9 61.3 96.45 61.6 96.45 62.2 96.45 63.1 97.45 63.1 98.25 63.1 98.6 62.65 99.05 62.3 99.05 61.55L99.05 60.95M105.3 58.95Q104.95 59.45 104.95 60.65 104.95 61.8 105.3 62.35 105.7 62.95 106.5 62.95 107.4 62.95 107.7 62.35 108.1 61.7 108.1 60.65 108.1 59.5 107.7 58.95 107.35 58.35 106.5 58.35 105.7 58.35 105.3 58.95Z"/><path fill="#FFF" stroke="none" d="M143 49.4Q137.6 36.65 127.75 26.8 117.9 16.95 105.15 11.55 91.95 5.95 77.5 5.95 63.05 5.95 49.85 11.55 37.1 16.95 27.3 26.8 17.45 36.65 12.05 49.4 6.45 62.6 6.45 77.05 6.45 91.5 12.05 104.7 17.45 117.45 27.3 127.3 48.1 148.1 77.5 148.1 91.95 148.1 105.15 142.5 117.9 137.1 127.75 127.3 137.6 117.45 143 104.7 148.6 91.5 148.6 77.05 148.6 62.6 143 49.4M142.1 49.8Q147.6 62.8 147.6 77.05 147.6 106.05 127.05 126.55 117.35 136.25 104.75 141.6 91.75 147.1 77.5 147.1 63.3 147.1 50.25 141.6 37.7 136.25 28 126.55 7.45 106.05 7.45 77.05 7.45 62.8 12.95 49.8 18.3 37.2 28 27.5 48.55 6.95 77.5 6.95 106.5 6.95 127.05 27.5 136.75 37.2 142.1 49.8M73.9 90.4L73.9 98.05 76 98.05 76 90.4 73.9 90.4M74.95 89.5Q75.5 89.5 75.8 89.2 76.05 88.95 76.05 88.45 76.05 87.45 74.95 87.45 73.8 87.45 73.8 88.45 73.8 89.5 74.95 89.5M69.4 90.35L68.65 90.3Q67.1 90.3 66.3 90.95 65.5 91.65 65.5 92.9 65.5 93.7 65.85 94.25 66.2 94.8 66.8 95.1 66.35 95.35 66.1 95.65 65.85 95.9 65.85 96.4 65.85 96.8 66.05 97.05 66.4 97.4 66.65 97.5 65.8 97.7 65.35 98.15 64.95 98.55 64.95 99.3 64.95 100.35 65.8 100.85 66.65 101.45 68.2 101.45 70.35 101.45 71.45 100.7 72.55 99.9 72.55 98.6 72.55 97.55 71.9 97.05 71.3 96.5 69.95 96.5L68.65 96.5Q67.5 96.5 67.5 96.05 67.5 95.75 67.85 95.5L68.15 95.55 68.55 95.55Q70.05 95.55 70.9 94.85 71.75 94.2 71.75 92.95 71.75 92.35 71.45 91.8L72.65 91.5 72.65 90.45 69.95 90.45 69.4 90.35M69.8 92.95Q69.8 93.55 69.5 93.9 69.2 94.25 68.65 94.25 68 94.25 67.8 93.9 67.5 93.55 67.5 92.95 67.5 91.55 68.65 91.55 69.8 91.55 69.8 92.95M67.1 98.45Q67.55 98.15 68.1 98.15L69.15 98.15Q69.95 98.15 70.3 98.35 70.7 98.5 70.7 98.9 70.7 99.45 70.05 99.75 69.45 100.05 68.3 100.05 67.55 100.05 67.15 99.8 66.75 99.6 66.75 99.15 66.75 98.65 67.1 98.45M80.65 76.95Q80.65 75.3 79.75 74.4 78.85 73.5 77.2 73.5 75.55 73.5 74.55 74.55 73.6 75.55 73.6 77.5 73.6 79.35 74.65 80.4 75.75 81.4 77.5 81.4 78.4 81.4 79.05 81.25 79.65 81.2 80.2 80.85L80.2 79.25Q79.5 79.55 78.9 79.7 78.3 79.85 77.6 79.85 76.7 79.85 76.25 79.35 75.8 78.9 75.7 77.95L80.65 77.95 80.65 76.95M78.3 75.4Q78.6 75.7 78.7 76.6L75.75 76.6Q75.85 75.8 76.2 75.4 76.6 74.95 77.2 74.95 77.85 74.95 78.3 75.4M59.9 96.15Q59.45 95.7 59.35 94.75L64.3 94.75 64.3 93.75Q64.3 92.1 63.4 91.2 62.5 90.3 60.85 90.3 59.2 90.3 58.2 91.35 57.25 92.35 57.25 94.3 57.25 96.15 58.3 97.2 59.4 98.2 61.15 98.2 62.05 98.2 62.7 98.05 63.3 98 63.85 97.65L63.85 96.05Q63.15 96.35 62.55 96.5 61.95 96.65 61.25 96.65 60.35 96.65 59.9 96.15M59.4 93.4Q59.5 92.6 59.85 92.2 60.25 91.75 60.9 91.75 61.5 91.75 61.95 92.2 62.25 92.5 62.35 93.4L59.4 93.4M48.65 88.05L48.65 98.05 50.75 98.05 50.75 94.25 51.9 94.25 54.25 98.05 56.6 98.05 53.7 93.7Q54.65 93.3 55.05 92.65 55.55 92 55.55 91.05 55.55 89.55 54.55 88.8 53.6 88.05 51.55 88.05L48.65 88.05M51.4 89.8Q52.45 89.8 52.9 90.1 53.4 90.4 53.4 91.1 53.4 91.85 52.9 92.2 52.45 92.5 51.45 92.5L50.75 92.5 50.75 89.8 51.4 89.8M57.65 79.25L56.4 79.7Q55.75 79.85 55.1 79.85 54.15 79.85 53.7 79.35 53.25 78.9 53.15 77.95L58.1 77.95 58.1 76.95Q58.1 75.3 57.2 74.4 56.3 73.5 54.65 73.5 53 73.5 52 74.55 51.05 75.65 51.05 77.5 51.05 79.35 52.1 80.4 53.2 81.4 55 81.4 55.9 81.4 56.5 81.25 57.1 81.2 57.65 80.85L57.65 79.25M55.75 75.4Q56.15 75.8 56.15 76.6L53.2 76.6Q53.3 75.8 53.65 75.4 54.05 74.95 54.7 74.95 55.4 74.95 55.75 75.4M46.4 72L45.8 73.6 44.65 74.3 44.65 75.2 45.65 75.2 45.65 78.9Q45.65 80.15 46.25 80.75 46.75 81.4 48.05 81.4 49.25 81.4 50 81.05L50 79.5Q49.1 79.75 48.65 79.75 48.3 79.75 48 79.55 47.75 79.3 47.75 78.9L47.75 75.2 49.9 75.2 49.9 73.65 47.75 73.65 47.75 72 46.4 72M50.8 56.3Q51.2 56.4 51.95 56.75L52.65 55.05Q51.25 54.35 49.7 54.35 48.25 54.35 47.2 54.95 46.1 55.55 45.6 56.75 45 57.95 45 59.5 45 61.9 46.15 63.3 47.4 64.6 49.5 64.6 51.1 64.6 52.25 64.1L52.25 62.3Q50.7 62.85 49.7 62.85 47.2 62.85 47.2 59.5 47.2 57.85 47.85 57 48.55 56.1 49.7 56.1 50.35 56.1 50.8 56.3M54.7 57.7Q53.75 58.7 53.75 60.65 53.75 61.85 54.2 62.75 54.65 63.65 55.5 64.1 56.3 64.6 57.45 64.6 59.2 64.6 60.15 63.55 61.15 62.55 61.15 60.65 61.15 59.45 60.7 58.55 60.3 57.7 59.4 57.15 58.6 56.7 57.45 56.7 55.8 56.7 54.7 57.7M56.25 58.95Q56.65 58.35 57.45 58.35 58.3 58.35 58.65 58.95 59 59.45 59 60.65 59 61.8 58.65 62.35 58.3 62.95 57.45 62.95 56.65 62.95 56.25 62.35 55.85 61.7 55.85 60.65 55.85 59.5 56.25 58.95M68.8 73.5Q67.3 73.5 66.5 74.15 65.65 74.85 65.65 76.1 65.65 76.75 66 77.45 66.3 77.95 67 78.3 66.5 78.5 66.25 78.85 66 79.2 66 79.6 66 80 66.25 80.25 66.45 80.55 66.8 80.7 65.9 80.95 65.55 81.35 65.1 81.8 65.1 82.5 65.1 83.5 65.95 84.05 66.8 84.65 68.4 84.65 70.5 84.65 71.6 83.9 72.7 83.15 72.7 81.8 72.7 80.75 72.05 80.25 71.45 79.7 70.15 79.7L68.85 79.7Q67.7 79.7 67.7 79.25 67.7 78.95 68 78.7L68.3 78.7 68.7 78.75Q70.15 78.75 71.1 78.05 71.95 77.35 71.95 76.15 71.95 75.6 71.6 75L72.8 74.7 72.8 73.6 68.8 73.5M69.95 76.15Q69.95 76.75 69.65 77.1 69.45 77.45 68.8 77.45 68.25 77.45 67.95 77.1 67.65 76.75 67.65 76.15 67.65 74.75 68.8 74.75 69.95 74.75 69.95 76.15M70.85 82.1Q70.85 82.65 70.25 82.95 69.6 83.25 68.45 83.25 67.7 83.25 67.3 83 66.9 82.75 66.9 82.35 66.9 81.9 67.3 81.65 67.7 81.35 68.25 81.35L69.35 81.35Q70.15 81.35 70.5 81.55 70.85 81.7 70.85 82.1M64.75 73.55L64.05 73.5Q63.3 73.5 62.75 73.85 62.05 74.35 61.8 74.9L61.7 74.9 61.35 73.65 59.8 73.65 59.8 81.25 61.9 81.25 61.9 77.4Q61.9 76.45 62.45 75.95 62.95 75.45 64 75.45L64.6 75.5 64.75 73.55M78.7 56.85L76.65 56.85 76.65 64.45 78.7 64.45 78.7 56.85M71.25 58.35Q71.85 58.35 72.1 58.75 72.4 59.2 72.4 60L72.4 64.45 74.5 64.45 74.5 59.5Q74.5 58.05 73.8 57.35 73.2 56.7 71.85 56.7 71.1 56.7 70.5 57 69.95 57.2 69.6 57.8L69.4 57.8Q68.8 56.7 67.1 56.7 66.35 56.7 65.75 57 65.15 57.3 64.85 57.8L64.75 57.8 64.45 56.8 62.9 56.8 62.9 64.45 64.95 64.45 64.95 60.85Q64.95 59.6 65.35 58.95 65.65 58.35 66.5 58.35 67.1 58.35 67.35 58.75 67.65 59.2 67.65 60L67.65 64.45 69.7 64.45 69.7 60.65Q69.7 59.45 70.1 58.9 70.5 58.35 71.25 58.35M78.5 55.6Q78.8 55.3 78.8 54.85 78.8 53.85 77.65 53.85 76.55 53.85 76.55 54.85 76.55 55.85 77.65 55.85 78.3 55.85 78.5 55.6M37.85 73.6L36.25 73.6 36.25 81.25 38.35 81.25 38.35 77.65Q38.35 76.25 38.7 75.75 39.15 75.15 40 75.15 40.6 75.15 40.9 75.55 41.2 76 41.2 76.8L41.2 81.25 43.3 81.25 43.3 76.3Q43.3 75 42.6 74.2 41.95 73.5 40.6 73.5 39.85 73.5 39.2 73.75 38.55 74.1 38.25 74.6L38.1 74.6 37.85 73.6M33.9 71.25L31.75 71.25 31.75 81.25 33.9 81.25 33.9 71.25M104.5 87.45L104.5 98.05 106.6 98.05 106.6 87.45 104.5 87.45M116.95 77.95L116.95 76.95Q116.95 75.3 116.05 74.4 115.15 73.5 113.55 73.5 111.9 73.5 110.9 74.55 109.95 75.55 109.95 77.5 109.95 79.3 110.95 80.4 112.05 81.4 113.85 81.4 114.75 81.4 115.35 81.25 115.85 81.2 116.55 80.85L116.55 79.25 115.25 79.7Q114.65 79.85 113.95 79.85 113.05 79.85 112.55 79.35 112.05 78.75 112.05 77.95L116.95 77.95M112.5 75.4Q112.9 74.95 113.55 74.95 114.25 74.95 114.6 75.4 115 75.8 115 76.6L112.1 76.6Q112.1 75.8 112.5 75.4M99.15 90.25Q97.55 90.25 96.25 90.95L96.95 92.35Q98.2 91.8 99.1 91.8 100.25 91.8 100.25 92.95L100.25 93.3 98.95 93.35Q97.2 93.45 96.4 94 95.55 94.55 95.55 95.8 95.55 96.95 96.15 97.6 96.85 98.2 97.9 98.2 98.75 98.2 99.35 97.95 99.85 97.75 100.45 97.05L100.5 97.05 100.9 98.05 102.35 98.05 102.35 92.95Q102.35 91.65 101.5 90.95 100.7 90.25 99.15 90.25M99.45 94.55L100.25 94.55 100.25 95.15Q100.25 95.9 99.85 96.25 99.4 96.7 98.7 96.7 97.65 96.7 97.65 95.8 97.65 95.2 98.1 94.9 98.65 94.55 99.45 94.55M83.35 90.75Q82.55 90.3 81.45 90.3 79.7 90.3 78.7 91.3 77.7 92.4 77.7 94.25 77.7 95.45 78.15 96.35 78.6 97.25 79.45 97.7 80.25 98.2 81.4 98.2 83.1 98.2 84.15 97.15 85.1 96.15 85.1 94.25 85.1 93.05 84.65 92.15 84.2 91.25 83.35 90.75M81.4 91.95Q82.25 91.95 82.6 92.55 83 93.1 83 94.25 83 95.3 82.6 95.95 82.25 96.55 81.4 96.55 80.6 96.55 80.2 95.95 79.85 95.4 79.85 94.25 79.85 93.05 80.2 92.55 80.6 91.95 81.4 91.95M88.45 90.4L86.85 90.4 86.85 98.05 88.9 98.05 88.9 94.45Q88.9 93.1 89.3 92.55 89.7 91.95 90.55 91.95 91.2 91.95 91.5 92.35 91.8 92.8 91.8 93.6L91.8 98.05 93.9 98.05 93.9 93.1Q93.9 91.8 93.2 91 92.55 90.3 91.15 90.3 90.45 90.3 89.8 90.55 89.2 90.85 88.8 91.4L88.7 91.4 88.45 90.4M100.55 73.95Q99.75 73.5 98.65 73.5 96.9 73.5 95.9 74.5 94.9 75.6 94.9 77.45 94.9 78.65 95.35 79.55 95.8 80.45 96.65 80.9 97.45 81.4 98.6 81.4 100.3 81.4 101.35 80.35 102.3 79.35 102.3 77.45 102.3 76.25 101.85 75.35 101.4 74.45 100.55 73.95M98.6 79.75Q97.8 79.75 97.4 79.15 97.05 78.6 97.05 77.45 97.05 76.25 97.4 75.75 97.8 75.15 98.6 75.15 99.45 75.15 99.8 75.75 100.2 76.3 100.2 77.45 100.2 78.5 99.8 79.15 99.45 79.75 98.6 79.75M90.25 72L89.65 73.6 88.5 74.3 88.5 75.2 89.5 75.2 89.5 78.9Q89.5 80.15 90.1 80.75 90.6 81.4 91.9 81.4 93.1 81.4 93.8 81.05L93.8 79.5Q92.95 79.75 92.5 79.75 92.15 79.75 91.85 79.55 91.6 79.3 91.6 78.9L91.6 75.2 93.75 75.2 93.75 73.65 91.6 73.65 91.6 72 90.25 72M84.9 73.5Q83.4 73.5 82.65 74.05 81.85 74.6 81.85 75.6 81.85 76.1 82.05 76.6 82.3 77.05 82.65 77.35L84.95 78.45 85.45 78.8Q85.6 79.05 85.6 79.2 85.6 79.9 84.45 79.9 84.2 79.9 83.2 79.7L81.9 79.25 81.9 80.95Q82.2 81.1 83 81.3L84.4 81.4Q86.05 81.4 86.85 80.8 87.65 80.2 87.65 79 87.65 78.4 87.45 78 87.3 77.6 86.85 77.3 86.2 76.9 85.55 76.6 84.6 76.25 84.25 76 83.95 75.8 83.95 75.5 83.95 75.05 84.85 75.05L85.9 75.2 86.95 75.6 87.6 74.1Q86.25 73.5 84.9 73.5M82.5 58.75Q82.5 58.25 83.45 58.25L84.45 58.4Q85.15 58.6 85.5 58.8L86.15 57.3Q84.9 56.7 83.45 56.7 81.95 56.7 81.2 57.25 80.45 57.8 80.45 58.8 80.45 59.45 80.6 59.8 80.85 60.25 81.2 60.55L83.5 61.7 84 62Q84.15 62.25 84.15 62.4 84.15 63.1 83.05 63.1 82.75 63.1 81.75 62.9L80.45 62.45 80.45 64.15 81.55 64.5 82.95 64.6Q84.6 64.6 85.4 64 86.25 63.4 86.25 62.2 86.25 61.8 86.05 61.2 85.8 60.75 85.4 60.5 85 60.15 84.1 59.8 83.1 59.4 82.8 59.2 82.5 59 82.5 58.75M95 57.35L95.7 58.75Q97.05 58.2 97.85 58.2 99.05 58.2 99.05 59.35L99.05 59.7 97.75 59.75Q96 59.85 95.15 60.4 94.3 61 94.3 62.2 94.3 63.35 94.95 64 95.55 64.6 96.7 64.6 97.5 64.6 98.15 64.35 98.55 64.15 99.2 63.45L99.25 63.45 99.65 64.45 101.15 64.45 101.15 59.35Q101.15 58.05 100.3 57.35 99.45 56.65 97.95 56.65 96.4 56.65 95 57.35M98.25 60.95L99.05 60.95 99.05 61.55Q99.05 62.3 98.6 62.65 98.25 63.1 97.45 63.1 96.45 63.1 96.45 62.2 96.45 61.6 96.9 61.3 97.45 60.95 98.25 60.95M93 61.2Q92.75 60.8 92.4 60.5 91.85 60.15 91.05 59.8 90.05 59.4 89.75 59.2 89.45 59 89.45 58.75 89.45 58.25 90.4 58.25 90.9 58.25 91.4 58.4 92.1 58.6 92.5 58.8L93.1 57.3Q91.85 56.7 90.4 56.7 88.9 56.7 88.2 57.25 87.4 57.75 87.4 58.8 87.4 59.45 87.6 59.8 87.75 60.25 88.2 60.55 88.5 60.8 89.5 61.2L91 62Q91.15 62.25 91.15 62.4 91.15 63.1 90 63.1 89.7 63.1 88.7 62.9L87.4 62.45 87.4 64.15 88.5 64.5 89.95 64.6Q91.6 64.6 92.35 64 93.2 63.4 93.2 62.2 93.2 61.8 93 61.2M97.4 55.4L97.95 55.65 99 56Q99.8 56 100.3 55.4 100.75 54.95 100.85 53.85L99.85 53.85Q99.75 54.25 99.55 54.4 99.4 54.6 99.15 54.6L98.65 54.5 97.6 54Q97.45 53.9 97.05 53.9 96.25 53.9 95.75 54.45 95.3 55 95.2 56L96.25 56Q96.35 55.65 96.5 55.45 96.8 55.25 96.9 55.25 97.2 55.25 97.4 55.4M121.25 73.5Q119.7 73.5 119 74.05 118.2 74.55 118.2 75.6 118.2 76.25 118.4 76.6 118.55 77.05 119 77.35 119.3 77.6 120.3 78L121.25 78.45 121.8 78.8Q121.95 79.05 121.95 79.2 121.95 79.9 120.8 79.9 120.5 79.9 119.5 79.7L118.2 79.25 118.2 80.95 119.3 81.3 120.75 81.4Q122.4 81.4 123.2 80.8 124 80.15 124 79 124 78.4 123.8 78 123.55 77.6 123.2 77.3 122.65 76.95 121.85 76.6 120.85 76.2 120.55 76 120.25 75.8 120.25 75.5 120.25 75.05 121.2 75.05 121.75 75.05 122.2 75.2 122.9 75.4 123.3 75.6L123.9 74.1Q122.65 73.5 121.25 73.5M105.6 73.65L104.05 73.65 104.05 81.25 106.1 81.25 106.1 77.4Q106.1 76.5 106.7 75.95 107.2 75.45 108.25 75.45L108.85 75.5 109 73.55 108.3 73.5Q107.55 73.5 107 73.85 106.3 74.35 106.05 74.9L105.9 74.9 105.6 73.65M103.8 57.7Q102.8 58.8 102.8 60.65 102.8 61.85 103.25 62.75 103.7 63.65 104.55 64.1 105.35 64.6 106.5 64.6 108.3 64.6 109.25 63.55 110.2 62.55 110.2 60.65 110.2 59.45 109.75 58.55 109.3 57.65 108.5 57.15 107.6 56.7 106.55 56.7 104.8 56.7 103.8 57.7M104.95 60.65Q104.95 59.45 105.3 58.95 105.7 58.35 106.5 58.35 107.35 58.35 107.7 58.95 108.1 59.5 108.1 60.65 108.1 61.7 107.7 62.35 107.4 62.95 106.5 62.95 105.7 62.95 105.3 62.35 104.95 61.8 104.95 60.65Z"/></g><g display="none"><g id="Estadual" transform="matrix(.053 0 0 .053 184.45 75.6)" opacity="1"><animateTransform attributeName="transform" additive="replace" type="translate" dur="1.333s" keyTimes="0;.344;.563;.625;.688;1" values="188.552,79.702;188.552,79.702;188.548,79.648;188.499,79.782;188.5,79.65;188.5,79.65" fill="freeze"/><animateTransform attributeName="transform" additive="sum" type="scale" dur="1.333s" keyTimes="0;.344;.563;.625;.688;1" values=".053,.053;.053,.053;1.026,1.026;.891,.891;1,1;1,1" fill="freeze"/><animateTransform attributeName="transform" additive="sum" type="translate" dur="1.333s" keyTimes="0;.344;.563;.625;.688;1" values="-77.7,-77.7;-77.7,-77.7;-77.65,-77.65;-77.65,-77.8;-77.6,-77.65;-77.6,-77.65" fill="freeze"/><animate attributeName="opacity" dur="1.333s" keyTimes="0;.344;.563;1" values="1;1;.9;.9" fill="freeze"/><path fill="#834E7C" stroke="none" d="M150.05 47.8Q144.15 33.9 133.4 23.15 122.65 12.4 108.75 6.5 94.3 .4 78.5 .4 62.7 .4 48.3 6.5 34.35 12.4 23.65 23.15 12.9 33.9 7 47.8 .9 62.25 .9 78.05 .9 93.85 7 108.25 12.9 122.2 23.65 132.9 34.35 143.65 48.3 149.55 62.7 155.65 78.5 155.65 94.3 155.65 108.75 149.55 122.65 143.65 133.4 132.9 144.15 122.2 150.05 108.25 156.15 93.85 156.15 78.05 156.15 62.25 150.05 47.8M144 50.4Q149.6 63.6 149.6 78.05 149.6 92.5 144 105.7 138.6 118.45 128.75 128.3 118.9 138.1 106.15 143.5 92.95 149.1 78.5 149.1 49.1 149.1 28.3 128.3 18.45 118.45 13.05 105.7 7.45 92.5 7.45 78.05 7.45 63.6 13.05 50.4 18.45 37.65 28.3 27.8 38.1 17.95 50.85 12.55 64.05 6.95 78.5 6.95 92.95 6.95 106.15 12.55 118.9 17.95 128.75 27.8 138.6 37.65 144 50.4M148.6 78.05Q148.6 63.8 143.1 50.8 137.75 38.2 128.05 28.5 107.5 7.95 78.5 7.95 49.55 7.95 29 28.5 19.3 38.2 13.95 50.8 8.45 63.8 8.45 78.05 8.45 107 29 127.55 38.7 137.25 51.25 142.6 64.3 148.1 78.5 148.1 92.75 148.1 105.75 142.6 118.35 137.25 128.05 127.55 148.6 107 148.6 78.05M109.3 66.35L108.3 66.35 108.3 65.5 109.45 64.8 110.05 63.15 111.35 63.15 111.35 64.8 113.5 64.8 113.5 66.35 111.35 66.35 111.35 70.05Q111.35 70.45 111.6 70.7 111.85 70.9 112.3 70.9 112.95 70.9 113.6 70.7L113.6 72.25Q112.75 72.6 111.7 72.6 110.5 72.6 109.85 71.95 109.3 71.3 109.3 70.05L109.3 66.35M103.75 64.65Q105.3 64.65 106.1 65.3 106.9 65.95 106.9 67.35L106.9 72.45 105.45 72.45 105.05 71.4 105 71.4Q104.45 72.1 103.9 72.3 103.4 72.6 102.45 72.6 101.4 72.6 100.75 71.95 100.1 71.35 100.1 70.15 100.1 68.95 100.95 68.35 101.9 67.75 103.5 67.75L104.85 67.7 104.85 67.35Q104.85 66.2 103.65 66.2 102.65 66.2 101.5 66.75L100.8 65.35Q102.05 64.65 103.75 64.65M118.3 64.65Q119.9 64.65 120.8 65.6 121.7 66.5 121.7 68.15L121.7 69.15 116.8 69.15Q116.8 69.95 117.3 70.55 117.9 71.05 118.7 71.05 119.4 71.05 120 70.9L121.3 70.45 121.3 72.05Q120.45 72.4 120.1 72.45 119.5 72.6 118.6 72.6 116.75 72.6 115.7 71.55 114.7 70.6 114.7 68.7 114.7 66.7 115.65 65.7 116.65 64.65 118.3 64.65M90.3 68Q90.3 67.15 90 66.75 89.75 66.35 89.05 66.35 88.15 66.35 87.8 66.9 87.4 67.55 87.4 68.85L87.4 72.45 85.35 72.45 85.35 64.8 86.9 64.8 87.2 65.8 87.3 65.8Q87.65 65.25 88.3 64.95 88.9 64.65 89.65 64.65 91.05 64.65 91.7 65.4 92.4 66.1 92.4 67.45L92.4 72.45 90.3 72.45 90.3 68M83.65 68.15L83.65 69.15 78.7 69.15Q78.8 70.1 79.25 70.55 79.75 71.05 80.6 71.05 81.3 71.05 81.9 70.9 82.5 70.75 83.2 70.45L83.2 72.05 82.05 72.45Q81.4 72.6 80.5 72.6 78.65 72.6 77.65 71.55 76.6 70.6 76.6 68.7 76.6 66.7 77.55 65.7 78.55 64.65 80.2 64.65 81.85 64.65 82.75 65.6 83.65 66.5 83.65 68.15M99 66.35L96.85 66.35 96.85 70.05Q96.85 70.5 97.1 70.7 97.3 70.9 97.75 70.9 98.4 70.9 99.05 70.7L99.05 72.25Q98.2 72.6 97.15 72.6 95.9 72.6 95.35 71.95 94.75 71.35 94.75 70.05L94.75 66.35 93.75 66.35 93.75 65.5 94.9 64.8 95.5 63.15 96.85 63.15 96.85 64.8 99 64.8 99 66.35M93.25 82.1Q94.05 82.75 94.05 84.15L94.05 89.25 92.6 89.25 92.2 88.2 92.15 88.2Q91.6 88.9 91.05 89.1 90.55 89.4 89.6 89.4 88.55 89.4 87.9 88.75 87.25 88.15 87.25 86.95 87.25 85.75 88.1 85.15 89.05 84.55 90.65 84.55L92 84.5 92 84.15Q92 83 90.8 83 89.8 83 88.65 83.55L87.95 82.15Q89.2 81.45 90.9 81.45 92.45 81.45 93.25 82.1M100.9 82.6L100.95 82.6 100.8 78.6 102.9 78.6 102.9 89.25 101.3 89.25 100.9 88.25 100.8 88.25Q100.1 89.4 98.65 89.4 97.35 89.4 96.5 88.35 95.75 87.3 95.75 85.45 95.75 83.5 96.55 82.5 97.3 81.45 98.7 81.45 100.15 81.45 100.9 82.6M82.65 79.95L84 79.95 84 81.6 86.15 81.6 86.15 83.15 84 83.15 84 86.85Q84 87.25 84.25 87.5 84.45 87.7 84.9 87.7 85.55 87.7 86.2 87.5L86.2 89.05Q85.35 89.4 84.3 89.4 83.05 89.4 82.5 88.75 81.9 88.15 81.9 86.85L81.9 83.15 80.9 83.15 80.9 82.3 82.05 81.6 82.65 79.95M111.55 83.3Q112 84.2 112 85.4 112 87.35 111.05 88.35 110.1 89.4 108.3 89.4 107.25 89.4 106.35 88.9 105.55 88.45 105.05 87.5 104.6 86.6 104.6 85.4 104.6 83.6 105.6 82.5 106.6 81.45 108.35 81.45 109.45 81.45 110.3 81.95 111.1 82.4 111.55 83.3M128.05 66.75L126.95 66.35Q126.5 66.2 125.95 66.2 125 66.2 125 66.7 125 67 125.3 67.2L126.6 67.8Q127.6 68.2 127.95 68.45 128.4 68.9 128.55 69.2 128.75 69.55 128.75 70.15 128.75 71.3 127.95 71.95 127.15 72.6 125.5 72.6 124.65 72.6 124.05 72.45 123.5 72.4 122.95 72.15L122.95 70.4Q123.55 70.7 124.25 70.85 124.9 71.05 125.55 71.05 126.7 71.05 126.7 70.4 126.7 70.15 126.55 70L126 69.65 125.05 69.2Q124.15 68.85 123.75 68.5 123.3 68.2 123.15 67.8 122.95 67.4 122.95 66.8 122.95 65.8 123.75 65.2 124.55 64.65 125.95 64.65 127.4 64.65 128.65 65.25L128.05 66.75M29.25 72.45L29.25 62.45 32.15 62.45Q34.25 62.45 35.2 63.2 36.15 63.95 36.15 65.45 36.15 66.35 35.7 67 35.1 67.75 34.3 68.1L37.25 72.45 34.9 72.45 32.5 68.6 31.4 68.6 31.4 72.45 29.25 72.45M38.9 71.55Q37.85 70.6 37.85 68.7 37.85 66.8 38.85 65.7 39.75 64.65 41.5 64.65 43.1 64.65 44 65.6 44.9 66.5 44.9 68.15L44.9 69.15 40 69.15Q40 69.95 40.5 70.55 41.1 71.05 41.9 71.05 42.6 71.05 43.2 70.9L44.5 70.45 44.5 72.05Q43.65 72.4 43.3 72.45 42.7 72.6 41.8 72.6 39.95 72.6 38.9 71.55M69.8 67.8Q69.65 67.35 69.65 66.8 69.65 65.8 70.4 65.2 71.25 64.65 72.65 64.65 74.1 64.65 75.35 65.25L74.7 66.75 73.65 66.35 72.65 66.2Q71.7 66.2 71.7 66.7 71.7 67 72 67.2L73.3 67.8Q74.3 68.25 74.6 68.45 75.05 68.85 75.25 69.2 75.45 69.7 75.45 70.15 75.45 71.35 74.6 71.95 73.8 72.6 72.15 72.6 71.35 72.6 70.75 72.45 70.2 72.4 69.65 72.15L69.65 70.4Q70.3 70.7 70.95 70.85 71.6 71.05 72.25 71.05 73.35 71.05 73.35 70.4 73.35 70.15 73.2 70L72.7 69.65 70.4 68.5Q70.05 68.2 69.8 67.8M62.3 65.7Q63.3 64.65 65 64.65 66.6 64.65 67.5 65.6 68.4 66.5 68.4 68.15L68.4 69.15 63.45 69.15Q63.55 70.1 64 70.55 64.6 71.05 65.4 71.05 66.1 71.05 66.7 70.9 67.4 70.75 67.95 70.45L67.95 72.05 66.8 72.45Q66.2 72.6 65.3 72.6 63.45 72.6 62.4 71.55 61.35 70.6 61.35 68.7 61.35 66.8 62.3 65.7M46.6 64.8L48.3 64.8 48.6 65.8 48.7 65.8Q49.45 64.65 50.85 64.65 52.2 64.65 53 65.7 53.75 66.75 53.75 68.6 53.75 69.9 53.4 70.75 53.05 71.65 52.35 72.1 51.6 72.6 50.8 72.6 49.45 72.6 48.7 71.6L48.6 71.6 48.7 72.7 48.7 75.8 46.6 75.8 46.6 64.8M58.4 65.05Q59.05 64.65 59.75 64.65L60.45 64.7 60.3 66.65 59.65 66.6Q58.75 66.6 58.1 67.1 57.55 67.65 57.55 68.55L57.55 72.45 55.45 72.45 55.45 64.8 57.05 64.8 57.35 66.1 57.45 66.1Q57.85 65.4 58.4 65.05M54.1 85.4Q54.1 83.6 55.1 82.5 56.1 81.45 57.85 81.45 58.95 81.45 59.8 81.95 60.6 82.4 61.05 83.3 61.55 84.15 61.55 85.4 61.55 87.25 60.55 88.35 59.6 89.4 57.8 89.4 56.75 89.4 55.85 88.9 55.05 88.45 54.55 87.5 54.1 86.6 54.1 85.4M50.4 82.6L50.45 82.6 50.3 78.6 52.4 78.6 52.4 89.25 50.8 89.25 50.4 88.25 50.3 88.25Q49.6 89.4 48.15 89.4 46.8 89.4 46.05 88.35 45.25 87.35 45.25 85.45 45.25 83.5 46.05 82.5 46.8 81.45 48.2 81.45 49.65 81.45 50.4 82.6M74.25 83.6Q74.25 82.6 75.05 82 75.9 81.45 77.3 81.45 78.65 81.45 80 82.05L79.35 83.55 78.25 83.15Q77.8 83 77.25 83 76.35 83 76.35 83.5 76.35 83.8 76.65 84 77.6 84.5 77.95 84.6L79.25 85.25Q79.8 85.8 79.85 86 80.05 86.35 80.05 86.95 80.05 88.15 79.25 88.75 78.45 89.4 76.8 89.4 75.95 89.4 75.4 89.25 74.75 89.15 74.3 88.95L74.3 87.2Q74.8 87.5 75.6 87.65 76.2 87.85 76.85 87.85 78 87.85 78 87.2 78 86.95 77.85 86.8L77.35 86.45 76.35 86Q75.7 85.7 75.05 85.3 74.7 85 74.45 84.6 74.25 84.2 74.25 83.6M72.55 83.2L72.55 84.9 69.15 84.9 69.15 87.5 72.8 87.5 72.8 89.25 67.05 89.25 67.05 79.25 72.8 79.25 72.8 81 69.15 81 69.15 83.2 72.55 83.2M50.45 85.7L50.45 85.45Q50.45 84.15 50.05 83.7 49.65 83.15 48.85 83.15 48.15 83.15 47.75 83.75 47.35 84.4 47.35 85.45 47.35 86.6 47.75 87.15 48.1 87.7 48.85 87.7 49.7 87.7 50.05 87.25 50.45 86.75 50.45 85.7M56.6 83.7Q56.25 84.25 56.25 85.4 56.25 86.6 56.6 87.15 57 87.7 57.85 87.7 58.65 87.7 59.05 87.15 59.4 86.45 59.4 85.4 59.4 84.35 59 83.7 58.7 83.15 57.8 83.15 57 83.15 56.6 83.7M50.2 66.35Q49.45 66.35 49.05 66.8 48.7 67.35 48.7 68.35L48.7 68.6Q48.7 69.85 49.05 70.35 49.45 70.9 50.2 70.9 51.6 70.9 51.6 68.6 51.6 67.4 51.25 66.9 51 66.35 50.2 66.35M66.45 67.75Q66.45 67.05 66.05 66.55 65.65 66.15 65 66.15 64.35 66.15 63.95 66.55 63.6 67 63.5 67.75L66.45 67.75M40.45 66.55Q40.05 67.05 40.05 67.75L42.95 67.75Q42.95 67.05 42.55 66.55 42.15 66.15 41.5 66.15 40.85 66.15 40.45 66.55M32.05 66.9Q33.05 66.9 33.55 66.55 34.05 66.2 34.05 65.5 34.05 64.85 33.55 64.5 33.05 64.2 32 64.2L31.4 64.2 31.4 66.9 32.05 66.9M107.1 83.7Q106.75 84.25 106.75 85.4 106.75 86.6 107.1 87.15 107.5 87.7 108.3 87.7 109.2 87.7 109.5 87.15 109.9 86.5 109.9 85.4 109.9 84.35 109.5 83.7 109.1 83.15 108.3 83.15 107.5 83.15 107.1 83.7M100.95 85.7L100.95 85.45Q100.95 84.25 100.55 83.7 100.15 83.15 99.35 83.15 98.65 83.15 98.25 83.75 97.85 84.4 97.85 85.45 97.85 86.6 98.25 87.15 98.6 87.7 99.35 87.7 100.2 87.7 100.55 87.25 100.95 86.75 100.95 85.7M92 86.35L92 85.7 91.2 85.75Q90.3 85.75 89.85 86.05 89.4 86.35 89.4 86.95 89.4 87.85 90.4 87.85 91.15 87.85 91.55 87.45 92 87 92 86.35M81.7 67.75Q81.6 66.95 81.3 66.55 80.8 66.15 80.2 66.15 79.6 66.15 79.2 66.55 78.85 67 78.75 67.75L81.7 67.75M119.35 66.55Q118.95 66.15 118.3 66.15 117.65 66.15 117.25 66.55 116.85 67.05 116.85 67.75L119.75 67.75Q119.75 67.05 119.35 66.55M104.85 69.55L104.85 68.9 104.05 68.95Q103.15 68.95 102.7 69.25 102.25 69.55 102.25 70.15 102.25 71.05 103.25 71.05 103.9 71.05 104.4 70.65 104.85 70.2 104.85 69.55Z"/><path fill="#FFF" stroke="none" d="M149.6 78.05Q149.6 63.6 144 50.4 138.6 37.65 128.75 27.8 118.9 17.95 106.15 12.55 92.95 6.95 78.5 6.95 64.05 6.95 50.85 12.55 38.1 17.95 28.3 27.8 18.45 37.65 13.05 50.4 7.45 63.6 7.45 78.05 7.45 92.5 13.05 105.7 18.45 118.45 28.3 128.3 49.1 149.1 78.5 149.1 92.95 149.1 106.15 143.5 118.9 138.1 128.75 128.3 138.6 118.45 144 105.7 149.6 92.5 149.6 78.05M143.1 50.8Q148.6 63.8 148.6 78.05 148.6 107 128.05 127.55 118.35 137.25 105.75 142.6 92.75 148.1 78.5 148.1 64.3 148.1 51.25 142.6 38.7 137.25 29 127.55 8.45 107 8.45 78.05 8.45 63.8 13.95 50.8 19.3 38.2 29 28.5 49.55 7.95 78.5 7.95 107.5 7.95 128.05 28.5 137.75 38.2 143.1 50.8M72.55 84.9L72.55 83.2 69.15 83.2 69.15 81 72.8 81 72.8 79.25 67.05 79.25 67.05 89.25 72.8 89.25 72.8 87.5 69.15 87.5 69.15 84.9 72.55 84.9M75.05 82Q74.25 82.6 74.25 83.6 74.25 84.2 74.45 84.6 74.7 85 75.05 85.3 75.7 85.7 76.35 86L77.35 86.45 77.85 86.8Q78 86.95 78 87.2 78 87.85 76.85 87.85 76.2 87.85 75.6 87.65 74.8 87.5 74.3 87.2L74.3 88.95Q74.75 89.15 75.4 89.25 75.95 89.4 76.8 89.4 78.45 89.4 79.25 88.75 80.05 88.15 80.05 86.95 80.05 86.35 79.85 86 79.8 85.8 79.25 85.25L77.95 84.6Q77.6 84.5 76.65 84 76.35 83.8 76.35 83.5 76.35 83 77.25 83 77.8 83 78.25 83.15L79.35 83.55 80 82.05Q78.65 81.45 77.3 81.45 75.9 81.45 75.05 82M50.45 82.6L50.4 82.6Q49.65 81.45 48.2 81.45 46.8 81.45 46.05 82.5 45.25 83.5 45.25 85.45 45.25 87.35 46.05 88.35 46.8 89.4 48.15 89.4 49.6 89.4 50.3 88.25L50.4 88.25 50.8 89.25 52.4 89.25 52.4 78.6 50.3 78.6 50.45 82.6M50.45 85.45L50.45 85.7Q50.45 86.75 50.05 87.25 49.7 87.7 48.85 87.7 48.1 87.7 47.75 87.15 47.35 86.6 47.35 85.45 47.35 84.4 47.75 83.75 48.15 83.15 48.85 83.15 49.65 83.15 50.05 83.7 50.45 84.15 50.45 85.45M55.1 82.5Q54.1 83.6 54.1 85.4 54.1 86.6 54.55 87.5 55.05 88.45 55.85 88.9 56.75 89.4 57.8 89.4 59.6 89.4 60.55 88.35 61.55 87.25 61.55 85.4 61.55 84.15 61.05 83.3 60.6 82.4 59.8 81.95 58.95 81.45 57.85 81.45 56.1 81.45 55.1 82.5M56.25 85.4Q56.25 84.25 56.6 83.7 57 83.15 57.8 83.15 58.7 83.15 59 83.7 59.4 84.35 59.4 85.4 59.4 86.45 59.05 87.15 58.65 87.7 57.85 87.7 57 87.7 56.6 87.15 56.25 86.6 56.25 85.4M59.75 64.65Q59.05 64.65 58.4 65.05 57.85 65.4 57.45 66.1L57.35 66.1 57.05 64.8 55.45 64.8 55.45 72.45 57.55 72.45 57.55 68.55Q57.55 67.65 58.1 67.1 58.75 66.6 59.65 66.6L60.3 66.65 60.45 64.7 59.75 64.65M48.3 64.8L46.6 64.8 46.6 75.8 48.7 75.8 48.7 72.7 48.6 71.6 48.7 71.6Q49.45 72.6 50.8 72.6 51.6 72.6 52.35 72.1 53.05 71.65 53.4 70.75 53.75 69.9 53.75 68.6 53.75 66.75 53 65.7 52.2 64.65 50.85 64.65 49.45 64.65 48.7 65.8L48.6 65.8 48.3 64.8M49.05 66.8Q49.45 66.35 50.2 66.35 51 66.35 51.25 66.9 51.6 67.4 51.6 68.6 51.6 70.9 50.2 70.9 49.45 70.9 49.05 70.35 48.7 69.85 48.7 68.6L48.7 68.35Q48.7 67.35 49.05 66.8M65 64.65Q63.3 64.65 62.3 65.7 61.35 66.8 61.35 68.7 61.35 70.6 62.4 71.55 63.45 72.6 65.3 72.6 66.2 72.6 66.8 72.45L67.95 72.05 67.95 70.45Q67.4 70.75 66.7 70.9 66.1 71.05 65.4 71.05 64.6 71.05 64 70.55 63.55 70.1 63.45 69.15L68.4 69.15 68.4 68.15Q68.4 66.5 67.5 65.6 66.6 64.65 65 64.65M66.05 66.55Q66.45 67.05 66.45 67.75L63.5 67.75Q63.6 67 63.95 66.55 64.35 66.15 65 66.15 65.65 66.15 66.05 66.55M69.65 66.8Q69.65 67.35 69.8 67.8 70.05 68.2 70.4 68.5L72.7 69.65 73.2 70Q73.35 70.15 73.35 70.4 73.35 71.05 72.25 71.05 71.6 71.05 70.95 70.85 70.3 70.7 69.65 70.4L69.65 72.15Q70.2 72.4 70.75 72.45 71.35 72.6 72.15 72.6 73.8 72.6 74.6 71.95 75.45 71.35 75.45 70.15 75.45 69.7 75.25 69.2 75.05 68.85 74.6 68.45 74.3 68.25 73.3 67.8L72 67.2Q71.7 67 71.7 66.7 71.7 66.2 72.65 66.2L73.65 66.35 74.7 66.75 75.35 65.25Q74.1 64.65 72.65 64.65 71.25 64.65 70.4 65.2 69.65 65.8 69.65 66.8M37.85 68.7Q37.85 70.6 38.9 71.55 39.95 72.6 41.8 72.6 42.7 72.6 43.3 72.45 43.65 72.4 44.5 72.05L44.5 70.45 43.2 70.9Q42.6 71.05 41.9 71.05 41.1 71.05 40.5 70.55 40 69.95 40 69.15L44.9 69.15 44.9 68.15Q44.9 66.5 44 65.6 43.1 64.65 41.5 64.65 39.75 64.65 38.85 65.7 37.85 66.8 37.85 68.7M40.05 67.75Q40.05 67.05 40.45 66.55 40.85 66.15 41.5 66.15 42.15 66.15 42.55 66.55 42.95 67.05 42.95 67.75L40.05 67.75M29.25 62.45L29.25 72.45 31.4 72.45 31.4 68.6 32.5 68.6 34.9 72.45 37.25 72.45 34.3 68.1Q35.1 67.75 35.7 67 36.15 66.35 36.15 65.45 36.15 63.95 35.2 63.2 34.25 62.45 32.15 62.45L29.25 62.45M33.55 66.55Q33.05 66.9 32.05 66.9L31.4 66.9 31.4 64.2 32 64.2Q33.05 64.2 33.55 64.5 34.05 64.85 34.05 65.5 34.05 66.2 33.55 66.55M126.95 66.35L128.05 66.75 128.65 65.25Q127.4 64.65 125.95 64.65 124.55 64.65 123.75 65.2 122.95 65.8 122.95 66.8 122.95 67.4 123.15 67.8 123.3 68.2 123.75 68.5 124.15 68.85 125.05 69.2L126 69.65 126.55 70Q126.7 70.15 126.7 70.4 126.7 71.05 125.55 71.05 124.9 71.05 124.25 70.85 123.55 70.7 122.95 70.4L122.95 72.15Q123.5 72.4 124.05 72.45 124.65 72.6 125.5 72.6 127.15 72.6 127.95 71.95 128.75 71.3 128.75 70.15 128.75 69.55 128.55 69.2 128.4 68.9 127.95 68.45 127.6 68.2 126.6 67.8L125.3 67.2Q125 67 125 66.7 125 66.2 125.95 66.2 126.5 66.2 126.95 66.35M112 85.4Q112 84.2 111.55 83.3 111.1 82.4 110.3 81.95 109.45 81.45 108.35 81.45 106.6 81.45 105.6 82.5 104.6 83.6 104.6 85.4 104.6 86.6 105.05 87.5 105.55 88.45 106.35 88.9 107.25 89.4 108.3 89.4 110.1 89.4 111.05 88.35 112 87.35 112 85.4M106.75 85.4Q106.75 84.25 107.1 83.7 107.5 83.15 108.3 83.15 109.1 83.15 109.5 83.7 109.9 84.35 109.9 85.4 109.9 86.5 109.5 87.15 109.2 87.7 108.3 87.7 107.5 87.7 107.1 87.15 106.75 86.6 106.75 85.4M84 79.95L82.65 79.95 82.05 81.6 80.9 82.3 80.9 83.15 81.9 83.15 81.9 86.85Q81.9 88.15 82.5 88.75 83.05 89.4 84.3 89.4 85.35 89.4 86.2 89.05L86.2 87.5Q85.55 87.7 84.9 87.7 84.45 87.7 84.25 87.5 84 87.25 84 86.85L84 83.15 86.15 83.15 86.15 81.6 84 81.6 84 79.95M100.95 82.6L100.9 82.6Q100.15 81.45 98.7 81.45 97.3 81.45 96.55 82.5 95.75 83.5 95.75 85.45 95.75 87.3 96.5 88.35 97.35 89.4 98.65 89.4 100.1 89.4 100.8 88.25L100.9 88.25 101.3 89.25 102.9 89.25 102.9 78.6 100.8 78.6 100.95 82.6M100.95 85.45L100.95 85.7Q100.95 86.75 100.55 87.25 100.2 87.7 99.35 87.7 98.6 87.7 98.25 87.15 97.85 86.6 97.85 85.45 97.85 84.4 98.25 83.75 98.65 83.15 99.35 83.15 100.15 83.15 100.55 83.7 100.95 84.25 100.95 85.45M94.05 84.15Q94.05 82.75 93.25 82.1 92.45 81.45 90.9 81.45 89.2 81.45 87.95 82.15L88.65 83.55Q89.8 83 90.8 83 92 83 92 84.15L92 84.5 90.65 84.55Q89.05 84.55 88.1 85.15 87.25 85.75 87.25 86.95 87.25 88.15 87.9 88.75 88.55 89.4 89.6 89.4 90.55 89.4 91.05 89.1 91.6 88.9 92.15 88.2L92.2 88.2 92.6 89.25 94.05 89.25 94.05 84.15M92 85.7L92 86.35Q92 87 91.55 87.45 91.15 87.85 90.4 87.85 89.4 87.85 89.4 86.95 89.4 86.35 89.85 86.05 90.3 85.75 91.2 85.75L92 85.7M96.85 66.35L99 66.35 99 64.8 96.85 64.8 96.85 63.15 95.5 63.15 94.9 64.8 93.75 65.5 93.75 66.35 94.75 66.35 94.75 70.05Q94.75 71.35 95.35 71.95 95.9 72.6 97.15 72.6 98.2 72.6 99.05 72.25L99.05 70.7Q98.4 70.9 97.75 70.9 97.3 70.9 97.1 70.7 96.85 70.5 96.85 70.05L96.85 66.35M83.65 69.15L83.65 68.15Q83.65 66.5 82.75 65.6 81.85 64.65 80.2 64.65 78.55 64.65 77.55 65.7 76.6 66.7 76.6 68.7 76.6 70.6 77.65 71.55 78.65 72.6 80.5 72.6 81.4 72.6 82.05 72.45L83.2 72.05 83.2 70.45Q82.5 70.75 81.9 70.9 81.3 71.05 80.6 71.05 79.75 71.05 79.25 70.55 78.8 70.1 78.7 69.15L83.65 69.15M81.3 66.55Q81.6 66.95 81.7 67.75L78.75 67.75Q78.85 67 79.2 66.55 79.6 66.15 80.2 66.15 80.8 66.15 81.3 66.55M90 66.75Q90.3 67.15 90.3 68L90.3 72.45 92.4 72.45 92.4 67.45Q92.4 66.1 91.7 65.4 91.05 64.65 89.65 64.65 88.9 64.65 88.3 64.95 87.65 65.25 87.3 65.8L87.2 65.8 86.9 64.8 85.35 64.8 85.35 72.45 87.4 72.45 87.4 68.85Q87.4 67.55 87.8 66.9 88.15 66.35 89.05 66.35 89.75 66.35 90 66.75M120.8 65.6Q119.9 64.65 118.3 64.65 116.65 64.65 115.65 65.7 114.7 66.7 114.7 68.7 114.7 70.6 115.7 71.55 116.75 72.6 118.6 72.6 119.5 72.6 120.1 72.45 120.45 72.4 121.3 72.05L121.3 70.45 120 70.9Q119.4 71.05 118.7 71.05 117.9 71.05 117.3 70.55 116.8 69.95 116.8 69.15L121.7 69.15 121.7 68.15Q121.7 66.5 120.8 65.6M118.3 66.15Q118.95 66.15 119.35 66.55 119.75 67.05 119.75 67.75L116.85 67.75Q116.85 67.05 117.25 66.55 117.65 66.15 118.3 66.15M106.1 65.3Q105.3 64.65 103.75 64.65 102.05 64.65 100.8 65.35L101.5 66.75Q102.65 66.2 103.65 66.2 104.85 66.2 104.85 67.35L104.85 67.7 103.5 67.75Q101.9 67.75 100.95 68.35 100.1 68.95 100.1 70.15 100.1 71.35 100.75 71.95 101.4 72.6 102.45 72.6 103.4 72.6 103.9 72.3 104.45 72.1 105 71.4L105.05 71.4 105.45 72.45 106.9 72.45 106.9 67.35Q106.9 65.95 106.1 65.3M104.85 68.9L104.85 69.55Q104.85 70.2 104.4 70.65 103.9 71.05 103.25 71.05 102.25 71.05 102.25 70.15 102.25 69.55 102.7 69.25 103.15 68.95 104.05 68.95L104.85 68.9M108.3 66.35L109.3 66.35 109.3 70.05Q109.3 71.3 109.85 71.95 110.5 72.6 111.7 72.6 112.75 72.6 113.6 72.25L113.6 70.7Q112.95 70.9 112.3 70.9 111.85 70.9 111.6 70.7 111.35 70.45 111.35 70.05L111.35 66.35 113.5 66.35 113.5 64.8 111.35 64.8 111.35 63.15 110.05 63.15 109.45 64.8 108.3 65.5 108.3 66.35Z"/></g><animate attributeName="display" fill="freeze" repeatCount="1" dur="1.333s" keyTimes="0;.344;1" values="none;inline;inline"/></g><g display="none"><g id="Municipal" transform="matrix(.053 0 0 .053 184.4 292.3)" opacity="1"><animateTransform attributeName="transform" additive="replace" type="translate" dur="1.333s" keyTimes="0;.625;.844;.906;.969;1" values="188.499,296.402;188.499,296.402;188.599,294.947;188.587,296.487;188.5,296.4;188.5,296.4" fill="freeze"/><animateTransform attributeName="transform" additive="sum" type="scale" dur="1.333s" keyTimes="0;.625;.844;.906;.969;1" values=".053,.053;.053,.053;1.026,1.026;.923,.923;1,1;1,1" fill="freeze"/><animateTransform attributeName="transform" additive="sum" type="translate" dur="1.333s" keyTimes="0;.625;.844;.906;.969;1" values="-78.55,-78.6;-78.55,-78.6;-77.7,-77.65;-77.75,-77.75;-77.6,-77.6;-77.6,-77.6" fill="freeze"/><animate attributeName="opacity" dur="1.333s" keyTimes="0;.625;.844;1" values="1;1;.9;.9" fill="freeze"/><path fill="#0E8C9D" stroke="none" d="M149.05 47.8Q143.15 33.9 132.4 23.15 121.65 12.4 107.75 6.5 93.3 .4 77.5 .4 61.7 .4 47.3 6.5 33.35 12.4 22.65 23.15 11.9 33.9 6 47.8 -.1 62.25 -.1 78.05 -.1 93.85 6 108.25 11.9 122.2 22.65 132.9 33.35 143.65 47.3 149.55 61.7 155.65 77.5 155.65 93.3 155.65 107.75 149.55 121.65 143.65 132.4 132.9 143.15 122.2 149.05 108.25 155.15 93.85 155.15 78.05 155.15 62.25 149.05 47.8M143 50.4Q148.6 63.6 148.6 78.05 148.6 92.5 143 105.7 137.6 118.45 127.75 128.3 117.9 138.1 105.15 143.5 91.95 149.1 77.5 149.1 48.1 149.1 27.3 128.3 17.45 118.45 12.05 105.7 6.45 92.5 6.45 78.05 6.45 63.6 12.05 50.4 17.45 37.65 27.3 27.8 37.1 17.95 49.85 12.55 63.05 6.95 77.5 6.95 91.95 6.95 105.15 12.55 117.9 17.95 127.75 27.8 137.6 37.65 143 50.4M147.6 78.05Q147.6 63.8 142.1 50.8 136.75 38.2 127.05 28.5 106.5 7.95 77.5 7.95 48.55 7.95 28 28.5 18.3 38.2 12.95 50.8 7.45 63.8 7.45 78.05 7.45 107 28 127.55 37.7 137.25 50.25 142.6 63.3 148.1 77.5 148.1 91.75 148.1 104.75 142.6 117.35 137.25 127.05 127.55 147.6 107 147.6 78.05M113.75 54.6L115.1 54.6 115.1 56.2 117.25 56.2 117.25 57.8 115.1 57.8 115.1 61.45Q115.1 62 115.35 62.1 115.6 62.35 116 62.35 116.45 62.35 117.3 62.1L117.3 63.65Q116.6 64 115.4 64 114.1 64 113.6 63.35 113 62.75 113 61.45L113 57.8 112 57.8 112 56.9 113.15 56.2 113.75 54.6M118.4 60.1Q118.4 58.1 119.35 57.1 120.35 56.05 122 56.05 123.6 56.05 124.55 57 125.45 57.9 125.45 59.55L125.45 60.55 120.5 60.55Q120.6 61.5 121.05 61.95 121.5 62.45 122.4 62.45 123.1 62.45 123.7 62.3L125 61.85 125 63.45Q124.65 63.65 123.85 63.85 123.2 64 122.3 64 120.5 64 119.45 62.95 118.4 62 118.4 60.1M106.05 58.3Q105.65 58.95 105.65 60.25L105.65 63.85 103.6 63.85 103.6 56.2 105.15 56.2 105.45 57.2 105.55 57.2Q105.9 56.65 106.55 56.35 107.15 56.05 107.9 56.05 109.3 56.05 109.95 56.8 110.65 57.5 110.65 58.85L110.65 63.85 108.55 63.85 108.55 59.4Q108.55 58.6 108.25 58.15 107.95 57.75 107.3 57.75 106.45 57.75 106.05 58.3M106.75 72.85Q108.1 72.85 108.85 73.9 109.6 74.95 109.6 76.8 109.6 78.1 109.25 78.95 108.85 79.9 108.25 80.3 107.6 80.8 106.7 80.8 105.4 80.8 104.55 79.8L104.45 79.8 104.55 80.9 104.55 84 102.5 84 102.5 73 104.15 73 104.45 74 104.55 74Q105.3 72.85 106.75 72.85M102.05 69.95L102.05 70.1 99.5 72.15 98.1 72.15 98.1 72Q99.05 70.95 99.7 69.95L102.05 69.95M113.25 71.8Q112.9 72.05 112.4 72.05 111.25 72.05 111.25 71.05 111.25 70 112.4 70 113.5 70 113.5 71.05 113.5 71.55 113.25 71.8M118.85 72.85Q119.9 72.85 120.8 73.35 121.6 73.8 122.1 74.7 122.55 75.6 122.55 76.8 122.55 78.75 121.55 79.75 120.6 80.8 118.85 80.8 117.7 80.8 116.9 80.3 116.05 79.85 115.6 78.95 115.15 78.05 115.15 76.8 115.15 74.9 116.1 73.9 117.15 72.85 118.85 72.85M111.35 73L113.4 73 113.4 80.65 111.35 80.65 111.35 73M101.45 58.75L101.45 63.85 100 63.85 99.55 62.8 99.5 62.8Q99 63.45 98.45 63.75 97.8 64 97 64 95.85 64 95.25 63.35 94.6 62.7 94.6 61.55 94.6 60.35 95.45 59.8 96.3 59.25 98.05 59.15L99.35 59.1 99.35 58.75Q99.35 57.6 98.15 57.6 97.35 57.6 96 58.15L95.35 56.75Q96.65 56.05 98.25 56.05 99.75 56.05 100.6 56.75 101.45 57.35 101.45 58.75M91.35 56.2L93.5 56.2 93.5 57.8 91.35 57.8 91.35 61.45Q91.35 61.95 91.6 62.1 91.85 62.35 92.25 62.35 92.7 62.35 93.6 62.1L93.6 63.65Q92.85 64 91.65 64 90.35 64 89.85 63.35 89.25 62.75 89.25 61.45L89.25 57.8 88.25 57.8 88.25 56.9 89.4 56.2 90 54.6 91.35 54.6 91.35 56.2M82.8 56.35Q83.4 56.05 84.2 56.05 85.55 56.05 86.2 56.8 86.9 57.5 86.9 58.85L86.9 63.85 84.8 63.85 84.8 59.4Q84.8 58.6 84.5 58.15 84.25 57.75 83.6 57.75 82.75 57.75 82.3 58.3 81.95 58.85 81.95 60.25L81.95 63.85 79.85 63.85 79.85 56.2 81.45 56.2 81.7 57.2 81.85 57.2Q82.1 56.7 82.8 56.35M86.65 71.05Q86.65 70 87.8 70 88.9 70 88.9 71.05 88.9 71.45 88.65 71.8 88.3 72.05 87.8 72.05 86.65 72.05 86.65 71.05M86.75 73L88.8 73 88.8 80.65 86.75 80.65 86.75 73M81.9 72.85Q83.25 72.85 83.9 73.6 84.6 74.3 84.6 75.65L84.6 80.65 82.5 80.65 82.5 76.2Q82.5 75.4 82.2 74.95 81.9 74.55 81.3 74.55 80.4 74.55 80 75.1 79.6 75.75 79.6 77.05L79.6 80.65 77.55 80.65 77.55 73 79.15 73 79.4 74 79.55 74Q79.8 73.5 80.5 73.15 81.1 72.85 81.9 72.85M91.5 73.9Q92.5 72.85 94.3 72.85 95.5 72.85 96.7 73.4L96.05 75Q95.6 74.8 95.15 74.7 94.7 74.55 94.3 74.55 92.65 74.55 92.65 76.85 92.65 79.1 94.3 79.1L95.4 78.95Q95.75 78.85 96.45 78.45L96.45 80.25Q95.85 80.6 95.4 80.65 94.9 80.8 94.1 80.8 90.55 80.8 90.55 76.9 90.55 74.9 91.5 73.9M98.2 73L100.3 73 100.3 80.65 98.2 80.65 98.2 73M87.75 90.05Q88.4 89.65 89.05 89.65L89.75 89.75 89.6 91.7 89 91.6Q88 91.6 87.45 92.15 86.85 92.6 86.85 93.55L86.85 97.45 84.8 97.45 84.8 89.8 86.35 89.8 86.65 91.1 86.8 91.1Q87.05 90.6 87.75 90.05M98.95 92.3Q98.95 91 99.75 90.35 100.6 89.65 102.1 89.65L103.4 89.8 106.05 89.8 106.05 90.85 104.85 91.2Q105.2 91.6 105.2 92.35 105.2 93.55 104.35 94.25 103.4 94.95 101.95 94.95L101.6 94.9 101.3 94.9Q100.95 95.1 100.95 95.45 100.95 95.9 102.1 95.9L103.4 95.9Q104.75 95.9 105.3 96.4 106 97 106 98 106 99.35 104.85 100.1 103.7 100.8 101.65 100.8 99.95 100.8 99.2 100.25 98.35 99.7 98.35 98.7 98.35 98 98.8 97.55 99.3 97.05 100.05 96.9 99.7 96.75 99.5 96.45 99.25 96.1 99.25 95.75 99.25 95.4 99.5 95.05 99.9 94.65 100.25 94.5 99.7 94.25 99.3 93.65 98.95 93.1 98.95 92.3M91.65 90.7Q92.65 89.65 94.3 89.65 95.85 89.65 96.8 90.6 97.7 91.5 97.7 93.15L97.7 94.15 92.8 94.15Q92.8 94.95 93.3 95.55 93.9 96.05 94.7 96.05 95.4 96.05 96 95.9L97.3 95.45 97.3 97.05Q96.9 97.25 96.1 97.45 95.5 97.6 94.6 97.6 92.75 97.6 91.7 96.55 90.7 95.55 90.7 93.7 90.7 91.7 91.65 90.7M109.2 88.6Q108.95 88.85 108.35 88.85 107.25 88.85 107.25 87.85 107.25 86.8 108.35 86.8 109.5 86.8 109.5 87.85 109.5 88.3 109.2 88.6M107.35 89.8L109.4 89.8 109.4 97.45 107.35 97.45 107.35 89.8M117.65 86.85Q117.55 87.85 117.1 88.4 116.6 88.95 115.8 88.95 115.45 88.95 115.25 88.85L114.2 88.35 113.7 88.25Q113.45 88.25 113.3 88.45 113.1 88.6 113 89L112 89Q112.1 88 112.55 87.45 113.1 86.85 113.85 86.85 114.1 86.85 114.4 87L115.45 87.5 115.95 87.6Q116.15 87.6 116.35 87.4 116.55 87.25 116.65 86.85L117.65 86.85M117.1 90.35Q117.9 90.95 117.9 92.35L117.9 97.45 116.45 97.45 116.05 96.4 116 96.4Q115.5 97.05 114.9 97.35 114.3 97.6 113.45 97.6 112.35 97.6 111.75 96.95 111.1 96.35 111.1 95.15 111.1 93.95 111.95 93.4 112.75 92.85 114.5 92.75L115.85 92.7 115.85 92.35Q115.85 91.2 114.65 91.2 113.75 91.2 112.5 91.75L111.8 90.35Q113.2 89.65 114.75 89.65 116.25 89.65 117.1 90.35M121.35 97.1Q120.5 96.7 120.05 95.75 119.6 94.85 119.6 93.6 119.6 91.7 120.55 90.7 121.55 89.65 123.3 89.65 124.35 89.65 125.25 90.15 126.05 90.6 126.55 91.5 127 92.4 127 93.6 127 95.45 126 96.55 125.05 97.6 123.25 97.6 122.15 97.6 121.35 97.1M132.25 60.6Q132.45 61 132.45 61.6 132.45 62.75 131.65 63.4 130.85 64 129.2 64L127.8 63.9Q127 63.7 126.7 63.55L126.7 61.85 128 62.3Q128.7 62.45 129.25 62.45 130.4 62.45 130.4 61.8 130.4 61.55 130.25 61.4L129.75 61.05 127.45 59.95Q127 59.5 126.85 59.2 126.65 58.7 126.65 58.2 126.65 57.2 127.45 56.65 128.3 56.05 129.7 56.05 131.05 56.05 132.4 56.65L131.75 58.2 130.7 57.75 129.65 57.6Q128.75 57.6 128.75 58.1 128.75 58.4 129.05 58.6 129.4 58.85 130.35 59.2 131 59.5 131.65 59.9 132.1 60.2 132.25 60.6M124.6 73.45Q125.45 72.85 126.85 72.85 128.2 72.85 129.55 73.45L128.9 75 127.85 74.55 126.8 74.4Q125.9 74.4 125.9 74.9 125.9 75.2 126.2 75.4 126.55 75.65 127.5 76 128.15 76.3 128.8 76.7 129.25 77 129.4 77.4 129.6 77.8 129.6 78.4 129.6 79.55 128.8 80.2 128 80.8 126.35 80.8L124.95 80.7Q124.15 80.5 123.85 80.35L123.85 78.65 125.15 79.1Q125.85 79.25 126.4 79.25 127.55 79.25 127.55 78.6 127.55 78.35 127.4 78.2L126.9 77.85 124.6 76.75Q124.15 76.3 124 76 123.8 75.5 123.8 75 123.8 74 124.6 73.45M32.4 60.1Q32.4 58.1 33.35 57.1 34.35 56.05 36 56.05 37.6 56.05 38.55 57 39.45 57.9 39.45 59.55L39.45 60.55 34.5 60.55Q34.6 61.5 35.05 61.95 35.5 62.45 36.4 62.45 37.1 62.45 37.7 62.3 38.3 62.15 39 61.85L39 63.45Q38.65 63.65 37.85 63.85 37.2 64 36.3 64 34.45 64 33.45 62.95 32.4 62 32.4 60.1M26.7 53.85Q28.75 53.85 29.7 54.6 30.7 55.35 30.7 56.85 30.7 57.6 30.2 58.45 29.65 59.15 28.8 59.5L31.75 63.85 29.4 63.85 27 60 25.9 60 25.9 63.85 23.8 63.85 23.8 53.85 26.7 53.85M26.8 73.9Q27.55 72.85 28.95 72.85 30.4 72.85 31.15 74L31.2 74 31.05 70 33.15 70 33.15 80.65 31.55 80.65 31.15 79.65 31.05 79.65Q30.35 80.8 28.9 80.8 27.6 80.8 26.75 79.75 26 78.7 26 76.85 26 74.9 26.8 73.9M35.85 73.9Q36.85 72.85 38.6 72.85 39.55 72.85 40.55 73.35 41.3 73.75 41.8 74.7 42.25 75.6 42.25 76.8 42.25 78.75 41.3 79.75 40.35 80.8 38.55 80.8 37.4 80.8 36.6 80.3 35.75 79.85 35.3 78.95 34.85 78.05 34.85 76.8 34.85 75 35.85 73.9M28.5 93.65Q28.5 91.8 29.3 90.7 30.05 89.65 31.45 89.65 32.9 89.65 33.65 90.8L33.7 90.8 33.55 86.8 35.65 86.8 35.65 97.45 34.05 97.45 33.65 96.45 33.55 96.45Q32.85 97.6 31.4 97.6 30.05 97.6 29.3 96.55 28.5 95.55 28.5 93.65M38.4 96.55Q37.35 95.6 37.35 93.7 37.35 91.8 38.35 90.7 39.35 89.65 41 89.65 42.55 89.65 43.5 90.6 44.4 91.5 44.4 93.15L44.4 94.15 39.5 94.15Q39.5 94.95 40 95.55 40.6 96.05 41.4 96.05 42.1 96.05 42.7 95.9L44 95.45 44 97.05Q43.5 97.3 42.8 97.45 42.2 97.6 41.3 97.6 39.45 97.6 38.4 96.55M71.1 60.1Q71.1 58.2 72.05 57.1 73.05 56.05 74.75 56.05 76.3 56.05 77.25 57 78.15 57.9 78.15 59.55L78.15 60.55 73.2 60.55Q73.3 61.5 73.75 61.95 74.25 62.45 75.15 62.45 75.8 62.45 76.45 62.3L77.7 61.85 77.7 63.45Q77.35 63.65 76.55 63.85 75.95 64 75.05 64 73.2 64 72.15 62.95 71.1 62 71.1 60.1M64.35 59.2Q64.15 58.85 64.15 58.2 64.15 57.15 64.95 56.65 65.7 56.05 67.2 56.05 68.6 56.05 69.85 56.65L69.25 58.2 68.15 57.75Q67.7 57.6 67.15 57.6 66.2 57.6 66.2 58.1 66.2 58.4 66.5 58.6 66.8 58.8 67.8 59.2 68.6 59.55 69.15 59.9 69.5 60.2 69.75 60.6 69.95 61 69.95 61.6 69.95 62.75 69.15 63.4 68.35 64 66.7 64L65.25 63.9 64.15 63.55 64.15 61.85 65.45 62.3Q66.2 62.45 66.75 62.45 67.9 62.45 67.9 61.8 67.9 61.55 67.75 61.4L67.2 61.05 66.25 60.6Q65.25 60.2 64.95 59.95 64.45 59.55 64.35 59.2M62 57Q62.9 57.9 62.9 59.55L62.9 60.55 58 60.55Q58 61.35 58.5 61.95 59 62.45 59.9 62.45 60.6 62.45 61.2 62.3L62.5 61.85 62.5 63.45Q62.1 63.65 61.3 63.85 60.7 64 59.8 64 57.95 64 56.9 62.95 55.9 61.95 55.9 60.1 55.9 58.1 56.85 57.1 57.85 56.05 59.5 56.05 61.05 56.05 62 57M61.3 74Q61.6 73.45 62.2 73.15 62.8 72.85 63.55 72.85 64.85 72.85 65.55 73.55 66.2 74.3 66.2 75.65L66.2 80.65 64.1 80.65 64.1 76.2Q64.1 75.45 63.85 74.95 63.55 74.55 62.95 74.55 62.15 74.55 61.8 75.1 61.45 75.6 61.45 76.8L61.45 80.65 59.35 80.65 59.35 76.2Q59.35 75.4 59.05 74.95 58.8 74.55 58.2 74.55 57.45 74.55 57.05 75.15 56.65 75.7 56.65 77.05L56.65 80.65 54.6 80.65 54.6 73 56.2 73 56.45 74 56.6 74Q56.9 73.45 57.45 73.15 58.05 72.85 58.8 72.85 60.5 72.85 61.1 74L61.3 74M68.3 73L70.4 73 70.4 77.5Q70.4 78.3 70.65 78.7 70.95 79.15 71.6 79.15 72.5 79.15 72.85 78.55 73.25 78 73.25 76.6L73.25 73 75.35 73 75.35 80.65 73.75 80.65 73.45 79.7 73.35 79.7Q73.1 80.15 72.4 80.5 71.8 80.8 71 80.8 69.7 80.8 69 80.05 68.3 79.4 68.3 78L68.3 73M54.25 56.05L54.95 56.15 54.8 58.1 54.2 58Q53.2 58 52.65 58.55 52.05 59 52.05 59.95L52.05 63.85 50 63.85 50 56.2 51.55 56.2 51.85 57.5 52 57.5Q52.3 56.85 52.95 56.45 53.6 56.05 54.25 56.05M43.2 57.2Q43.95 56.05 45.4 56.05 46.75 56.05 47.5 57.1 48.25 58.15 48.25 60 48.25 61.3 47.9 62.15 47.5 63.1 46.9 63.5 46.25 64 45.3 64 43.95 64 43.2 63L43.1 63 43.2 64.1 43.2 67.2 41.15 67.2 41.15 56.2 42.8 56.2 43.1 57.2 43.2 57.2M46.55 72.85Q47.9 72.85 49.25 73.45L48.6 75 47.55 74.55 46.5 74.4Q45.6 74.4 45.6 74.9 45.6 75.2 45.9 75.4 46.2 75.6 47.2 76 48.1 76.35 48.5 76.7 48.9 76.95 49.15 77.4 49.3 77.85 49.3 78.4 49.3 79.55 48.5 80.2 47.7 80.8 46.05 80.8L44.65 80.7 43.55 80.35 43.55 78.65 44.85 79.1Q45.6 79.25 46.15 79.25 47.25 79.25 47.25 78.6 47.25 78.35 47.1 78.2L46.6 77.85 44.3 76.75Q43.85 76.3 43.7 76 43.55 75.65 43.55 75 43.55 74 44.3 73.45 45.15 72.85 46.55 72.85M50.4 96.85Q49.7 96.15 49.7 94.8L49.7 89.8 51.8 89.8 51.8 94.3Q51.8 95.15 52.1 95.5 52.4 95.95 53 95.95 53.95 95.95 54.3 95.35 54.7 94.7 54.7 93.4L54.7 89.8 56.75 89.8 56.75 97.45 55.15 97.45 54.9 96.5 54.75 96.5Q54.45 97 53.8 97.3 53.2 97.6 52.4 97.6 51.1 97.6 50.4 96.85M58.95 89.8L60.55 89.8 60.8 90.8 60.95 90.8Q61.25 90.25 61.85 89.95 62.4 89.65 63.15 89.65 64.9 89.65 65.5 90.8L65.65 90.8Q65.95 90.3 66.55 89.95 67.15 89.65 67.9 89.65 69.2 89.65 69.9 90.35 70.55 91 70.55 92.45L70.55 97.45 68.45 97.45 68.45 93Q68.45 92.25 68.2 91.75 67.9 91.35 67.3 91.35 66.5 91.35 66.15 91.9 65.8 92.4 65.8 93.6L65.8 97.45 63.7 97.45 63.7 93Q63.7 92.25 63.45 91.75 63.15 91.35 62.55 91.35 61.8 91.35 61.4 91.95 61.05 92.45 61.05 93.85L61.05 97.45 58.95 97.45 58.95 89.8M78.2 90.35Q79 90.95 79 92.35L79 97.45 77.55 97.45 77.15 96.4 77.1 96.4Q76.6 97.05 76 97.35 75.4 97.6 74.55 97.6 73.45 97.6 72.8 96.95 72.2 96.35 72.2 95.15 72.2 93.9 73.05 93.4 73.85 92.85 75.6 92.75L76.95 92.7 76.95 92.35Q76.95 91.2 75.75 91.2 74.85 91.2 73.6 91.75L72.9 90.35Q74.3 89.65 75.85 89.65 77.35 89.65 78.2 90.35M74.05 107.4Q74.95 108.3 74.95 109.95L74.95 110.95 70 110.95Q70 111.8 70.55 112.35 71 112.85 71.9 112.85 72.6 112.85 73.2 112.7L74.5 112.25 74.5 113.85Q74.15 114.05 73.35 114.25 72.7 114.4 71.8 114.4 69.95 114.4 68.95 113.35 67.9 112.4 67.9 110.5 67.9 108.5 68.85 107.5 69.85 106.45 71.5 106.45 73.1 106.45 74.05 107.4M76.15 110.5Q76.15 108.6 77.15 107.5 78.15 106.45 79.9 106.45 81.2 106.45 82.3 107L81.7 108.6 80.75 108.3Q80.4 108.15 79.9 108.15 78.3 108.15 78.3 110.45 78.3 112.7 79.9 112.7L81.05 112.55 82.05 112.05 82.05 113.85Q81.45 114.2 81.05 114.25 80.55 114.4 79.75 114.4 76.15 114.4 76.15 110.5M61.6 107.6Q62.3 106.45 63.75 106.45 65.1 106.45 65.85 107.5 66.65 108.5 66.65 110.4 66.65 111.6 66.25 112.55 65.95 113.45 65.25 113.9 64.6 114.4 63.7 114.4 62.35 114.4 61.6 113.4L61.45 113.4 61.6 114.5 61.6 117.6 59.5 117.6 59.5 106.6 61.2 106.6 61.5 107.6 61.6 107.6M52.85 110.35Q52.4 109.9 52.25 109.6 52.05 109.1 52.05 108.6 52.05 107.6 52.85 107.05 53.7 106.45 55.1 106.45 56.45 106.45 57.8 107.05L57.15 108.6 56.1 108.15 55.05 108Q54.15 108 54.15 108.5 54.15 108.8 54.45 109 54.8 109.25 55.75 109.6 56.65 109.95 57.05 110.3 57.5 110.6 57.65 111 57.85 111.4 57.85 112 57.85 113.15 57.05 113.8 56.25 114.4 54.6 114.4L53.2 114.3 52.1 113.95 52.1 112.25 53.4 112.7Q54.15 112.85 54.7 112.85 55.8 112.85 55.8 112.2 55.8 111.95 55.65 111.8L55.15 111.45 52.85 110.35M50.85 109.95L50.85 110.95 45.9 110.95Q46 111.9 46.45 112.35 46.9 112.85 47.8 112.85 48.5 112.85 49.15 112.7L50.4 112.25 50.4 113.85Q50.05 114.05 49.25 114.25 48.65 114.4 47.7 114.4 45.9 114.4 44.85 113.35 43.8 112.4 43.8 110.5 43.8 108.5 44.75 107.5 45.75 106.45 47.4 106.45 49 106.45 49.95 107.4 50.85 108.3 50.85 109.95M102.85 108.6L101.9 108.3Q101.55 108.15 101.05 108.15 99.45 108.15 99.45 110.45 99.45 112.7 101.05 112.7L102.2 112.55Q102.45 112.5 103.2 112.05L103.2 113.85Q102.6 114.2 102.2 114.25 101.7 114.4 100.9 114.4 97.3 114.4 97.3 110.5 97.3 108.6 98.3 107.5 99.3 106.45 101.05 106.45 102.35 106.45 103.45 107L102.85 108.6M105.9 108.55L105.2 107.15Q106.5 106.45 108.1 106.45 109.6 106.45 110.45 107.15 111.3 107.75 111.3 109.15L111.3 114.25 109.85 114.25 109.45 113.2 109.4 113.2Q108.95 113.8 108.3 114.15 107.65 114.4 106.85 114.4 105.75 114.4 105.1 113.75 104.5 113.15 104.5 111.95 104.5 110.7 105.35 110.2 106.15 109.65 107.9 109.55L109.2 109.5 109.2 109.15Q109.2 108 108.05 108 107.15 108 105.9 108.55M91.15 103.55Q92.25 103.55 93.05 103.85L92.5 105.4Q91.95 105.2 91.35 105.2 90.95 105.2 90.7 105.45 90.5 105.85 90.5 106.15L90.5 106.6 92.3 106.6 92.3 108.2 90.5 108.2 90.5 114.25 88.45 114.25 88.45 108.2 87.3 108.2 87.3 107.15 88.45 106.6 88.45 106.05Q88.45 104.75 89.05 104.15 89.75 103.55 91.15 103.55M94.55 103.6Q95.7 103.6 95.7 104.65 95.7 105.1 95.4 105.4 95.05 105.65 94.55 105.65 93.45 105.65 93.45 104.65 93.45 103.6 94.55 103.6M93.5 106.6L95.6 106.6 95.6 114.25 93.5 114.25 93.5 106.6M87.65 103.55L87.65 103.65Q87.4 103.95 86.45 104.75L85.1 105.75 83.7 105.75 83.7 105.6Q84.85 104.35 85.35 103.55L87.65 103.55M83.85 106.6L85.9 106.6 85.9 114.25 83.85 114.25 83.85 106.6M108.4 110.75Q107.5 110.75 107.05 111.05 106.6 111.35 106.6 112 106.6 112.85 107.65 112.85 108.4 112.85 108.8 112.45 109.2 111.95 109.2 111.35L109.2 110.7 108.4 110.75M47.45 107.95Q46.8 107.95 46.4 108.35 46.05 108.8 45.95 109.55L48.9 109.55Q48.9 108.85 48.5 108.35 48 107.95 47.45 107.95M64.15 108.7Q63.85 108.15 63.1 108.15 62.35 108.15 61.95 108.6 61.6 109.1 61.6 110.2L61.6 110.4Q61.6 111.65 61.95 112.15 62.3 112.7 63.1 112.7 64.5 112.7 64.5 110.4 64.5 109.25 64.15 108.7M72.55 108.35Q72.15 107.95 71.5 107.95 70.9 107.95 70.5 108.35 70.15 108.8 70.05 109.55L73 109.55Q72.9 108.7 72.55 108.35M74.75 94.25Q74.35 94.55 74.35 95.2 74.35 96.05 75.35 96.05 76.1 96.05 76.5 95.65 76.95 95.2 76.95 94.55L76.95 93.9 76.15 93.95Q75.2 93.95 74.75 94.25M44.7 57.75Q43.9 57.75 43.6 58.2 43.2 58.75 43.2 59.8L43.2 60Q43.2 61.2 43.6 61.75 43.9 62.3 44.75 62.3 46.15 62.3 46.15 60 46.15 59 45.8 58.3 45.4 57.75 44.7 57.75M60.55 57.95Q60.15 57.55 59.5 57.55 58.85 57.55 58.45 57.95 58.15 58.35 58.05 59.15L60.95 59.15Q60.95 58.45 60.55 57.95M75.8 57.95Q75.4 57.55 74.75 57.55 74.1 57.55 73.7 57.95 73.35 58.4 73.25 59.15L76.2 59.15Q76.2 58.45 75.8 57.95M39.95 91.55Q39.55 92.05 39.55 92.75L42.45 92.75Q42.45 92.05 42.05 91.55 41.65 91.15 41 91.15 40.35 91.15 39.95 91.55M33.35 91.9Q32.95 91.35 32.1 91.35 31.4 91.35 31 91.95 30.65 92.5 30.65 93.7 30.65 94.85 31 95.35 31.45 95.95 32.15 95.95 32.95 95.95 33.3 95.45 33.7 94.95 33.7 93.9L33.7 93.65Q33.7 92.4 33.35 91.9M37.35 78.55Q37.75 79.1 38.55 79.1 39.5 79.1 39.75 78.55 40.15 77.9 40.15 76.8 40.15 75.75 39.75 75.1 39.35 74.55 38.55 74.55 37.75 74.55 37.35 75.1 37 75.65 37 76.8 37 78 37.35 78.55M30.8 78.65Q31.1 78.25 31.2 77.1L31.2 76.85Q31.2 75.65 30.8 75.1 30.4 74.55 29.6 74.55 28.9 74.55 28.5 75.15 28.1 75.8 28.1 76.9 28.1 78 28.5 78.55 28.9 79.15 29.6 79.15 30.45 79.15 30.8 78.65M26.55 55.6L25.9 55.6 25.9 58.3 26.6 58.3Q27.65 58.3 28.05 57.95 28.55 57.65 28.55 56.9 28.55 56.2 28.05 55.9 27.6 55.6 26.55 55.6M35 57.95Q34.65 58.4 34.55 59.15L37.5 59.15Q37.4 58.3 37.05 57.95 36.65 57.55 36 57.55 35.4 57.55 35 57.95M124.5 91.9Q124.1 91.35 123.3 91.35 122.5 91.35 122.1 91.9 121.7 92.55 121.7 93.6 121.7 94.7 122.1 95.35 122.5 95.9 123.3 95.9 124.15 95.9 124.5 95.35 124.85 94.8 124.85 93.6 124.85 92.45 124.5 91.9M115.85 94.55L115.85 93.9 115.05 93.95Q114.1 93.95 113.7 94.25 113.25 94.55 113.25 95.2 113.25 96.05 114.25 96.05 115 96.05 115.4 95.65 115.85 95.2 115.85 94.55M95.35 91.55Q94.95 91.15 94.3 91.15 93.65 91.15 93.25 91.55 92.95 91.95 92.85 92.75L95.75 92.75Q95.75 92.05 95.35 91.55M100.95 92.3Q100.95 93 101.2 93.3 101.5 93.65 102.1 93.65 102.65 93.65 102.95 93.3 103.2 92.9 103.2 92.3 103.2 90.95 102.1 90.95 100.95 90.95 100.95 92.3M100.55 97.8Q100.15 98.1 100.15 98.55 100.15 99 100.6 99.2 100.9 99.45 101.75 99.45 102.85 99.45 103.5 99.15 104.15 98.85 104.15 98.3 104.15 97.95 103.75 97.7 103.4 97.55 102.6 97.55L101.5 97.55Q100.95 97.55 100.55 97.8M99.35 60.95L99.35 60.3 98.55 60.35Q97.65 60.35 97.2 60.65 96.75 60.95 96.75 61.6 96.75 62.45 97.75 62.45 98.55 62.45 98.95 62.05 99.35 61.55 99.35 60.95M120.05 75.1Q119.65 74.55 118.85 74.55 118.05 74.55 117.65 75.1 117.25 75.75 117.25 76.8 117.25 77.9 117.65 78.55 118.05 79.1 118.85 79.1 119.7 79.1 120.05 78.55 120.4 78 120.4 76.8 120.4 75.65 120.05 75.1M107.5 76.8Q107.5 75.8 107.15 75.1 106.75 74.55 106.05 74.55 105.25 74.55 104.95 75 104.55 75.55 104.55 76.6L104.55 76.8Q104.55 78 104.95 78.55 105.25 79.1 106.1 79.1 107.5 79.1 107.5 76.8M121 57.95Q120.65 58.4 120.55 59.15L123.5 59.15Q123.4 58.35 123.1 57.95 122.6 57.55 122 57.55 121.4 57.55 121 57.95Z"/><path fill="#FFF" stroke="none" d="M148.6 78.05Q148.6 63.6 143 50.4 137.6 37.65 127.75 27.8 117.9 17.95 105.15 12.55 91.95 6.95 77.5 6.95 63.05 6.95 49.85 12.55 37.1 17.95 27.3 27.8 17.45 37.65 12.05 50.4 6.45 63.6 6.45 78.05 6.45 92.5 12.05 105.7 17.45 118.45 27.3 128.3 48.1 149.1 77.5 149.1 91.95 149.1 105.15 143.5 117.9 138.1 127.75 128.3 137.6 118.45 143 105.7 148.6 92.5 148.6 78.05M142.1 50.8Q147.6 63.8 147.6 78.05 147.6 107 127.05 127.55 117.35 137.25 104.75 142.6 91.75 148.1 77.5 148.1 63.3 148.1 50.25 142.6 37.7 137.25 28 127.55 7.45 107 7.45 78.05 7.45 63.8 12.95 50.8 18.3 38.2 28 28.5 48.55 7.95 77.5 7.95 106.5 7.95 127.05 28.5 136.75 38.2 142.1 50.8M85.9 106.6L83.85 106.6 83.85 114.25 85.9 114.25 85.9 106.6M87.65 103.65L87.65 103.55 85.35 103.55Q84.85 104.35 83.7 105.6L83.7 105.75 85.1 105.75 86.45 104.75Q87.4 103.95 87.65 103.65M95.6 106.6L93.5 106.6 93.5 114.25 95.6 114.25 95.6 106.6M95.7 104.65Q95.7 103.6 94.55 103.6 93.45 103.6 93.45 104.65 93.45 105.65 94.55 105.65 95.05 105.65 95.4 105.4 95.7 105.1 95.7 104.65M93.05 103.85Q92.25 103.55 91.15 103.55 89.75 103.55 89.05 104.15 88.45 104.75 88.45 106.05L88.45 106.6 87.3 107.15 87.3 108.2 88.45 108.2 88.45 114.25 90.5 114.25 90.5 108.2 92.3 108.2 92.3 106.6 90.5 106.6 90.5 106.15Q90.5 105.85 90.7 105.45 90.95 105.2 91.35 105.2 91.95 105.2 92.5 105.4L93.05 103.85M105.2 107.15L105.9 108.55Q107.15 108 108.05 108 109.2 108 109.2 109.15L109.2 109.5 107.9 109.55Q106.15 109.65 105.35 110.2 104.5 110.7 104.5 111.95 104.5 113.15 105.1 113.75 105.75 114.4 106.85 114.4 107.65 114.4 108.3 114.15 108.95 113.8 109.4 113.2L109.45 113.2 109.85 114.25 111.3 114.25 111.3 109.15Q111.3 107.75 110.45 107.15 109.6 106.45 108.1 106.45 106.5 106.45 105.2 107.15M107.05 111.05Q107.5 110.75 108.4 110.75L109.2 110.7 109.2 111.35Q109.2 111.95 108.8 112.45 108.4 112.85 107.65 112.85 106.6 112.85 106.6 112 106.6 111.35 107.05 111.05M101.9 108.3L102.85 108.6 103.45 107Q102.35 106.45 101.05 106.45 99.3 106.45 98.3 107.5 97.3 108.6 97.3 110.5 97.3 114.4 100.9 114.4 101.7 114.4 102.2 114.25 102.6 114.2 103.2 113.85L103.2 112.05Q102.45 112.5 102.2 112.55L101.05 112.7Q99.45 112.7 99.45 110.45 99.45 108.15 101.05 108.15 101.55 108.15 101.9 108.3M50.85 110.95L50.85 109.95Q50.85 108.3 49.95 107.4 49 106.45 47.4 106.45 45.75 106.45 44.75 107.5 43.8 108.5 43.8 110.5 43.8 112.4 44.85 113.35 45.9 114.4 47.7 114.4 48.65 114.4 49.25 114.25 50.05 114.05 50.4 113.85L50.4 112.25 49.15 112.7Q48.5 112.85 47.8 112.85 46.9 112.85 46.45 112.35 46 111.9 45.9 110.95L50.85 110.95M46.4 108.35Q46.8 107.95 47.45 107.95 48 107.95 48.5 108.35 48.9 108.85 48.9 109.55L45.95 109.55Q46.05 108.8 46.4 108.35M52.25 109.6Q52.4 109.9 52.85 110.35L55.15 111.45 55.65 111.8Q55.8 111.95 55.8 112.2 55.8 112.85 54.7 112.85 54.15 112.85 53.4 112.7L52.1 112.25 52.1 113.95 53.2 114.3 54.6 114.4Q56.25 114.4 57.05 113.8 57.85 113.15 57.85 112 57.85 111.4 57.65 111 57.5 110.6 57.05 110.3 56.65 109.95 55.75 109.6 54.8 109.25 54.45 109 54.15 108.8 54.15 108.5 54.15 108 55.05 108L56.1 108.15 57.15 108.6 57.8 107.05Q56.45 106.45 55.1 106.45 53.7 106.45 52.85 107.05 52.05 107.6 52.05 108.6 52.05 109.1 52.25 109.6M63.75 106.45Q62.3 106.45 61.6 107.6L61.5 107.6 61.2 106.6 59.5 106.6 59.5 117.6 61.6 117.6 61.6 114.5 61.45 113.4 61.6 113.4Q62.35 114.4 63.7 114.4 64.6 114.4 65.25 113.9 65.95 113.45 66.25 112.55 66.65 111.6 66.65 110.4 66.65 108.5 65.85 107.5 65.1 106.45 63.75 106.45M63.1 108.15Q63.85 108.15 64.15 108.7 64.5 109.25 64.5 110.4 64.5 112.7 63.1 112.7 62.3 112.7 61.95 112.15 61.6 111.65 61.6 110.4L61.6 110.2Q61.6 109.1 61.95 108.6 62.35 108.15 63.1 108.15M77.15 107.5Q76.15 108.6 76.15 110.5 76.15 114.4 79.75 114.4 80.55 114.4 81.05 114.25 81.45 114.2 82.05 113.85L82.05 112.05 81.05 112.55 79.9 112.7Q78.3 112.7 78.3 110.45 78.3 108.15 79.9 108.15 80.4 108.15 80.75 108.3L81.7 108.6 82.3 107Q81.2 106.45 79.9 106.45 78.15 106.45 77.15 107.5M74.95 109.95Q74.95 108.3 74.05 107.4 73.1 106.45 71.5 106.45 69.85 106.45 68.85 107.5 67.9 108.5 67.9 110.5 67.9 112.4 68.95 113.35 69.95 114.4 71.8 114.4 72.7 114.4 73.35 114.25 74.15 114.05 74.5 113.85L74.5 112.25 73.2 112.7Q72.6 112.85 71.9 112.85 71 112.85 70.55 112.35 70 111.8 70 110.95L74.95 110.95 74.95 109.95M71.5 107.95Q72.15 107.95 72.55 108.35 72.9 108.7 73 109.55L70.05 109.55Q70.15 108.8 70.5 108.35 70.9 107.95 71.5 107.95M79 92.35Q79 90.95 78.2 90.35 77.35 89.65 75.85 89.65 74.3 89.65 72.9 90.35L73.6 91.75Q74.85 91.2 75.75 91.2 76.95 91.2 76.95 92.35L76.95 92.7 75.6 92.75Q73.85 92.85 73.05 93.4 72.2 93.9 72.2 95.15 72.2 96.35 72.8 96.95 73.45 97.6 74.55 97.6 75.4 97.6 76 97.35 76.6 97.05 77.1 96.4L77.15 96.4 77.55 97.45 79 97.45 79 92.35M74.35 95.2Q74.35 94.55 74.75 94.25 75.2 93.95 76.15 93.95L76.95 93.9 76.95 94.55Q76.95 95.2 76.5 95.65 76.1 96.05 75.35 96.05 74.35 96.05 74.35 95.2M60.55 89.8L58.95 89.8 58.95 97.45 61.05 97.45 61.05 93.85Q61.05 92.45 61.4 91.95 61.8 91.35 62.55 91.35 63.15 91.35 63.45 91.75 63.7 92.25 63.7 93L63.7 97.45 65.8 97.45 65.8 93.6Q65.8 92.4 66.15 91.9 66.5 91.35 67.3 91.35 67.9 91.35 68.2 91.75 68.45 92.25 68.45 93L68.45 97.45 70.55 97.45 70.55 92.45Q70.55 91 69.9 90.35 69.2 89.65 67.9 89.65 67.15 89.65 66.55 89.95 65.95 90.3 65.65 90.8L65.5 90.8Q64.9 89.65 63.15 89.65 62.4 89.65 61.85 89.95 61.25 90.25 60.95 90.8L60.8 90.8 60.55 89.8M49.7 94.8Q49.7 96.15 50.4 96.85 51.1 97.6 52.4 97.6 53.2 97.6 53.8 97.3 54.45 97 54.75 96.5L54.9 96.5 55.15 97.45 56.75 97.45 56.75 89.8 54.7 89.8 54.7 93.4Q54.7 94.7 54.3 95.35 53.95 95.95 53 95.95 52.4 95.95 52.1 95.5 51.8 95.15 51.8 94.3L51.8 89.8 49.7 89.8 49.7 94.8M49.25 73.45Q47.9 72.85 46.55 72.85 45.15 72.85 44.3 73.45 43.55 74 43.55 75 43.55 75.65 43.7 76 43.85 76.3 44.3 76.75L46.6 77.85 47.1 78.2Q47.25 78.35 47.25 78.6 47.25 79.25 46.15 79.25 45.6 79.25 44.85 79.1L43.55 78.65 43.55 80.35 44.65 80.7 46.05 80.8Q47.7 80.8 48.5 80.2 49.3 79.55 49.3 78.4 49.3 77.85 49.15 77.4 48.9 76.95 48.5 76.7 48.1 76.35 47.2 76 46.2 75.6 45.9 75.4 45.6 75.2 45.6 74.9 45.6 74.4 46.5 74.4L47.55 74.55 48.6 75 49.25 73.45M45.4 56.05Q43.95 56.05 43.2 57.2L43.1 57.2 42.8 56.2 41.15 56.2 41.15 67.2 43.2 67.2 43.2 64.1 43.1 63 43.2 63Q43.95 64 45.3 64 46.25 64 46.9 63.5 47.5 63.1 47.9 62.15 48.25 61.3 48.25 60 48.25 58.15 47.5 57.1 46.75 56.05 45.4 56.05M43.6 58.2Q43.9 57.75 44.7 57.75 45.4 57.75 45.8 58.3 46.15 59 46.15 60 46.15 62.3 44.75 62.3 43.9 62.3 43.6 61.75 43.2 61.2 43.2 60L43.2 59.8Q43.2 58.75 43.6 58.2M54.95 56.15L54.25 56.05Q53.6 56.05 52.95 56.45 52.3 56.85 52 57.5L51.85 57.5 51.55 56.2 50 56.2 50 63.85 52.05 63.85 52.05 59.95Q52.05 59 52.65 58.55 53.2 58 54.2 58L54.8 58.1 54.95 56.15M70.4 73L68.3 73 68.3 78Q68.3 79.4 69 80.05 69.7 80.8 71 80.8 71.8 80.8 72.4 80.5 73.1 80.15 73.35 79.7L73.45 79.7 73.75 80.65 75.35 80.65 75.35 73 73.25 73 73.25 76.6Q73.25 78 72.85 78.55 72.5 79.15 71.6 79.15 70.95 79.15 70.65 78.7 70.4 78.3 70.4 77.5L70.4 73M62.2 73.15Q61.6 73.45 61.3 74L61.1 74Q60.5 72.85 58.8 72.85 58.05 72.85 57.45 73.15 56.9 73.45 56.6 74L56.45 74 56.2 73 54.6 73 54.6 80.65 56.65 80.65 56.65 77.05Q56.65 75.7 57.05 75.15 57.45 74.55 58.2 74.55 58.8 74.55 59.05 74.95 59.35 75.4 59.35 76.2L59.35 80.65 61.45 80.65 61.45 76.8Q61.45 75.6 61.8 75.1 62.15 74.55 62.95 74.55 63.55 74.55 63.85 74.95 64.1 75.45 64.1 76.2L64.1 80.65 66.2 80.65 66.2 75.65Q66.2 74.3 65.55 73.55 64.85 72.85 63.55 72.85 62.8 72.85 62.2 73.15M62.9 59.55Q62.9 57.9 62 57 61.05 56.05 59.5 56.05 57.85 56.05 56.85 57.1 55.9 58.1 55.9 60.1 55.9 61.95 56.9 62.95 57.95 64 59.8 64 60.7 64 61.3 63.85 62.1 63.65 62.5 63.45L62.5 61.85 61.2 62.3Q60.6 62.45 59.9 62.45 59 62.45 58.5 61.95 58 61.35 58 60.55L62.9 60.55 62.9 59.55M59.5 57.55Q60.15 57.55 60.55 57.95 60.95 58.45 60.95 59.15L58.05 59.15Q58.15 58.35 58.45 57.95 58.85 57.55 59.5 57.55M64.15 58.2Q64.15 58.85 64.35 59.2 64.45 59.55 64.95 59.95 65.25 60.2 66.25 60.6L67.2 61.05 67.75 61.4Q67.9 61.55 67.9 61.8 67.9 62.45 66.75 62.45 66.2 62.45 65.45 62.3L64.15 61.85 64.15 63.55 65.25 63.9 66.7 64Q68.35 64 69.15 63.4 69.95 62.75 69.95 61.6 69.95 61 69.75 60.6 69.5 60.2 69.15 59.9 68.6 59.55 67.8 59.2 66.8 58.8 66.5 58.6 66.2 58.4 66.2 58.1 66.2 57.6 67.15 57.6 67.7 57.6 68.15 57.75L69.25 58.2 69.85 56.65Q68.6 56.05 67.2 56.05 65.7 56.05 64.95 56.65 64.15 57.15 64.15 58.2M72.05 57.1Q71.1 58.2 71.1 60.1 71.1 62 72.15 62.95 73.2 64 75.05 64 75.95 64 76.55 63.85 77.35 63.65 77.7 63.45L77.7 61.85 76.45 62.3Q75.8 62.45 75.15 62.45 74.25 62.45 73.75 61.95 73.3 61.5 73.2 60.55L78.15 60.55 78.15 59.55Q78.15 57.9 77.25 57 76.3 56.05 74.75 56.05 73.05 56.05 72.05 57.1M74.75 57.55Q75.4 57.55 75.8 57.95 76.2 58.45 76.2 59.15L73.25 59.15Q73.35 58.4 73.7 57.95 74.1 57.55 74.75 57.55M37.35 93.7Q37.35 95.6 38.4 96.55 39.45 97.6 41.3 97.6 42.2 97.6 42.8 97.45 43.5 97.3 44 97.05L44 95.45 42.7 95.9Q42.1 96.05 41.4 96.05 40.6 96.05 40 95.55 39.5 94.95 39.5 94.15L44.4 94.15 44.4 93.15Q44.4 91.5 43.5 90.6 42.55 89.65 41 89.65 39.35 89.65 38.35 90.7 37.35 91.8 37.35 93.7M39.55 92.75Q39.55 92.05 39.95 91.55 40.35 91.15 41 91.15 41.65 91.15 42.05 91.55 42.45 92.05 42.45 92.75L39.55 92.75M29.3 90.7Q28.5 91.8 28.5 93.65 28.5 95.55 29.3 96.55 30.05 97.6 31.4 97.6 32.85 97.6 33.55 96.45L33.65 96.45 34.05 97.45 35.65 97.45 35.65 86.8 33.55 86.8 33.7 90.8 33.65 90.8Q32.9 89.65 31.45 89.65 30.05 89.65 29.3 90.7M32.1 91.35Q32.95 91.35 33.35 91.9 33.7 92.4 33.7 93.65L33.7 93.9Q33.7 94.95 33.3 95.45 32.95 95.95 32.15 95.95 31.45 95.95 31 95.35 30.65 94.85 30.65 93.7 30.65 92.5 31 91.95 31.4 91.35 32.1 91.35M38.6 72.85Q36.85 72.85 35.85 73.9 34.85 75 34.85 76.8 34.85 78.05 35.3 78.95 35.75 79.85 36.6 80.3 37.4 80.8 38.55 80.8 40.35 80.8 41.3 79.75 42.25 78.75 42.25 76.8 42.25 75.6 41.8 74.7 41.3 73.75 40.55 73.35 39.55 72.85 38.6 72.85M38.55 79.1Q37.75 79.1 37.35 78.55 37 78 37 76.8 37 75.65 37.35 75.1 37.75 74.55 38.55 74.55 39.35 74.55 39.75 75.1 40.15 75.75 40.15 76.8 40.15 77.9 39.75 78.55 39.5 79.1 38.55 79.1M28.95 72.85Q27.55 72.85 26.8 73.9 26 74.9 26 76.85 26 78.7 26.75 79.75 27.6 80.8 28.9 80.8 30.35 80.8 31.05 79.65L31.15 79.65 31.55 80.65 33.15 80.65 33.15 70 31.05 70 31.2 74 31.15 74Q30.4 72.85 28.95 72.85M31.2 77.1Q31.1 78.25 30.8 78.65 30.45 79.15 29.6 79.15 28.9 79.15 28.5 78.55 28.1 78 28.1 76.9 28.1 75.8 28.5 75.15 28.9 74.55 29.6 74.55 30.4 74.55 30.8 75.1 31.2 75.65 31.2 76.85L31.2 77.1M29.7 54.6Q28.75 53.85 26.7 53.85L23.8 53.85 23.8 63.85 25.9 63.85 25.9 60 27 60 29.4 63.85 31.75 63.85 28.8 59.5Q29.65 59.15 30.2 58.45 30.7 57.6 30.7 56.85 30.7 55.35 29.7 54.6M25.9 55.6L26.55 55.6Q27.6 55.6 28.05 55.9 28.55 56.2 28.55 56.9 28.55 57.65 28.05 57.95 27.65 58.3 26.6 58.3L25.9 58.3 25.9 55.6M33.35 57.1Q32.4 58.1 32.4 60.1 32.4 62 33.45 62.95 34.45 64 36.3 64 37.2 64 37.85 63.85 38.65 63.65 39 63.45L39 61.85Q38.3 62.15 37.7 62.3 37.1 62.45 36.4 62.45 35.5 62.45 35.05 61.95 34.6 61.5 34.5 60.55L39.45 60.55 39.45 59.55Q39.45 57.9 38.55 57 37.6 56.05 36 56.05 34.35 56.05 33.35 57.1M34.55 59.15Q34.65 58.4 35 57.95 35.4 57.55 36 57.55 36.65 57.55 37.05 57.95 37.4 58.3 37.5 59.15L34.55 59.15M126.85 72.85Q125.45 72.85 124.6 73.45 123.8 74 123.8 75 123.8 75.5 124 76 124.15 76.3 124.6 76.75L126.9 77.85 127.4 78.2Q127.55 78.35 127.55 78.6 127.55 79.25 126.4 79.25 125.85 79.25 125.15 79.1L123.85 78.65 123.85 80.35Q124.15 80.5 124.95 80.7L126.35 80.8Q128 80.8 128.8 80.2 129.6 79.55 129.6 78.4 129.6 77.8 129.4 77.4 129.25 77 128.8 76.7 128.15 76.3 127.5 76 126.55 75.65 126.2 75.4 125.9 75.2 125.9 74.9 125.9 74.4 126.8 74.4L127.85 74.55 128.9 75 129.55 73.45Q128.2 72.85 126.85 72.85M132.45 61.6Q132.45 61 132.25 60.6 132.1 60.2 131.65 59.9 131 59.5 130.35 59.2 129.4 58.85 129.05 58.6 128.75 58.4 128.75 58.1 128.75 57.6 129.65 57.6L130.7 57.75 131.75 58.2 132.4 56.65Q131.05 56.05 129.7 56.05 128.3 56.05 127.45 56.65 126.65 57.2 126.65 58.2 126.65 58.7 126.85 59.2 127 59.5 127.45 59.95L129.75 61.05 130.25 61.4Q130.4 61.55 130.4 61.8 130.4 62.45 129.25 62.45 128.7 62.45 128 62.3L126.7 61.85 126.7 63.55Q127 63.7 127.8 63.9L129.2 64Q130.85 64 131.65 63.4 132.45 62.75 132.45 61.6M120.05 95.75Q120.5 96.7 121.35 97.1 122.15 97.6 123.25 97.6 125.05 97.6 126 96.55 127 95.45 127 93.6 127 92.4 126.55 91.5 126.05 90.6 125.25 90.15 124.35 89.65 123.3 89.65 121.55 89.65 120.55 90.7 119.6 91.7 119.6 93.6 119.6 94.85 120.05 95.75M123.3 91.35Q124.1 91.35 124.5 91.9 124.85 92.45 124.85 93.6 124.85 94.8 124.5 95.35 124.15 95.9 123.3 95.9 122.5 95.9 122.1 95.35 121.7 94.7 121.7 93.6 121.7 92.55 122.1 91.9 122.5 91.35 123.3 91.35M117.9 92.35Q117.9 90.95 117.1 90.35 116.25 89.65 114.75 89.65 113.2 89.65 111.8 90.35L112.5 91.75Q113.75 91.2 114.65 91.2 115.85 91.2 115.85 92.35L115.85 92.7 114.5 92.75Q112.75 92.85 111.95 93.4 111.1 93.95 111.1 95.15 111.1 96.35 111.75 96.95 112.35 97.6 113.45 97.6 114.3 97.6 114.9 97.35 115.5 97.05 116 96.4L116.05 96.4 116.45 97.45 117.9 97.45 117.9 92.35M115.85 93.9L115.85 94.55Q115.85 95.2 115.4 95.65 115 96.05 114.25 96.05 113.25 96.05 113.25 95.2 113.25 94.55 113.7 94.25 114.1 93.95 115.05 93.95L115.85 93.9M117.1 88.4Q117.55 87.85 117.65 86.85L116.65 86.85Q116.55 87.25 116.35 87.4 116.15 87.6 115.95 87.6L115.45 87.5 114.4 87Q114.1 86.85 113.85 86.85 113.1 86.85 112.55 87.45 112.1 88 112 89L113 89Q113.1 88.6 113.3 88.45 113.45 88.25 113.7 88.25L114.2 88.35 115.25 88.85Q115.45 88.95 115.8 88.95 116.6 88.95 117.1 88.4M109.4 89.8L107.35 89.8 107.35 97.45 109.4 97.45 109.4 89.8M108.35 88.85Q108.95 88.85 109.2 88.6 109.5 88.3 109.5 87.85 109.5 86.8 108.35 86.8 107.25 86.8 107.25 87.85 107.25 88.85 108.35 88.85M94.3 89.65Q92.65 89.65 91.65 90.7 90.7 91.7 90.7 93.7 90.7 95.55 91.7 96.55 92.75 97.6 94.6 97.6 95.5 97.6 96.1 97.45 96.9 97.25 97.3 97.05L97.3 95.45 96 95.9Q95.4 96.05 94.7 96.05 93.9 96.05 93.3 95.55 92.8 94.95 92.8 94.15L97.7 94.15 97.7 93.15Q97.7 91.5 96.8 90.6 95.85 89.65 94.3 89.65M94.3 91.15Q94.95 91.15 95.35 91.55 95.75 92.05 95.75 92.75L92.85 92.75Q92.95 91.95 93.25 91.55 93.65 91.15 94.3 91.15M99.75 90.35Q98.95 91 98.95 92.3 98.95 93.1 99.3 93.65 99.7 94.25 100.25 94.5 99.9 94.65 99.5 95.05 99.25 95.4 99.25 95.75 99.25 96.1 99.5 96.45 99.7 96.75 100.05 96.9 99.3 97.05 98.8 97.55 98.35 98 98.35 98.7 98.35 99.7 99.2 100.25 99.95 100.8 101.65 100.8 103.7 100.8 104.85 100.1 106 99.35 106 98 106 97 105.3 96.4 104.75 95.9 103.4 95.9L102.1 95.9Q100.95 95.9 100.95 95.45 100.95 95.1 101.3 94.9L101.6 94.9 101.95 94.95Q103.4 94.95 104.35 94.25 105.2 93.55 105.2 92.35 105.2 91.6 104.85 91.2L106.05 90.85 106.05 89.8 103.4 89.8 102.1 89.65Q100.6 89.65 99.75 90.35M100.15 98.55Q100.15 98.1 100.55 97.8 100.95 97.55 101.5 97.55L102.6 97.55Q103.4 97.55 103.75 97.7 104.15 97.95 104.15 98.3 104.15 98.85 103.5 99.15 102.85 99.45 101.75 99.45 100.9 99.45 100.6 99.2 100.15 99 100.15 98.55M101.2 93.3Q100.95 93 100.95 92.3 100.95 90.95 102.1 90.95 103.2 90.95 103.2 92.3 103.2 92.9 102.95 93.3 102.65 93.65 102.1 93.65 101.5 93.65 101.2 93.3M89.05 89.65Q88.4 89.65 87.75 90.05 87.05 90.6 86.8 91.1L86.65 91.1 86.35 89.8 84.8 89.8 84.8 97.45 86.85 97.45 86.85 93.55Q86.85 92.6 87.45 92.15 88 91.6 89 91.6L89.6 91.7 89.75 89.75 89.05 89.65M100.3 73L98.2 73 98.2 80.65 100.3 80.65 100.3 73M94.3 72.85Q92.5 72.85 91.5 73.9 90.55 74.9 90.55 76.9 90.55 80.8 94.1 80.8 94.9 80.8 95.4 80.65 95.85 80.6 96.45 80.25L96.45 78.45Q95.75 78.85 95.4 78.95L94.3 79.1Q92.65 79.1 92.65 76.85 92.65 74.55 94.3 74.55 94.7 74.55 95.15 74.7 95.6 74.8 96.05 75L96.7 73.4Q95.5 72.85 94.3 72.85M83.9 73.6Q83.25 72.85 81.9 72.85 81.1 72.85 80.5 73.15 79.8 73.5 79.55 74L79.4 74 79.15 73 77.55 73 77.55 80.65 79.6 80.65 79.6 77.05Q79.6 75.75 80 75.1 80.4 74.55 81.3 74.55 81.9 74.55 82.2 74.95 82.5 75.4 82.5 76.2L82.5 80.65 84.6 80.65 84.6 75.65Q84.6 74.3 83.9 73.6M88.8 73L86.75 73 86.75 80.65 88.8 80.65 88.8 73M87.8 70Q86.65 70 86.65 71.05 86.65 72.05 87.8 72.05 88.3 72.05 88.65 71.8 88.9 71.45 88.9 71.05 88.9 70 87.8 70M84.2 56.05Q83.4 56.05 82.8 56.35 82.1 56.7 81.85 57.2L81.7 57.2 81.45 56.2 79.85 56.2 79.85 63.85 81.95 63.85 81.95 60.25Q81.95 58.85 82.3 58.3 82.75 57.75 83.6 57.75 84.25 57.75 84.5 58.15 84.8 58.6 84.8 59.4L84.8 63.85 86.9 63.85 86.9 58.85Q86.9 57.5 86.2 56.8 85.55 56.05 84.2 56.05M93.5 56.2L91.35 56.2 91.35 54.6 90 54.6 89.4 56.2 88.25 56.9 88.25 57.8 89.25 57.8 89.25 61.45Q89.25 62.75 89.85 63.35 90.35 64 91.65 64 92.85 64 93.6 63.65L93.6 62.1Q92.7 62.35 92.25 62.35 91.85 62.35 91.6 62.1 91.35 61.95 91.35 61.45L91.35 57.8 93.5 57.8 93.5 56.2M101.45 63.85L101.45 58.75Q101.45 57.35 100.6 56.75 99.75 56.05 98.25 56.05 96.65 56.05 95.35 56.75L96 58.15Q97.35 57.6 98.15 57.6 99.35 57.6 99.35 58.75L99.35 59.1 98.05 59.15Q96.3 59.25 95.45 59.8 94.6 60.35 94.6 61.55 94.6 62.7 95.25 63.35 95.85 64 97 64 97.8 64 98.45 63.75 99 63.45 99.5 62.8L99.55 62.8 100 63.85 101.45 63.85M99.35 60.3L99.35 60.95Q99.35 61.55 98.95 62.05 98.55 62.45 97.75 62.45 96.75 62.45 96.75 61.6 96.75 60.95 97.2 60.65 97.65 60.35 98.55 60.35L99.35 60.3M113.4 73L111.35 73 111.35 80.65 113.4 80.65 113.4 73M120.8 73.35Q119.9 72.85 118.85 72.85 117.15 72.85 116.1 73.9 115.15 74.9 115.15 76.8 115.15 78.05 115.6 78.95 116.05 79.85 116.9 80.3 117.7 80.8 118.85 80.8 120.6 80.8 121.55 79.75 122.55 78.75 122.55 76.8 122.55 75.6 122.1 74.7 121.6 73.8 120.8 73.35M118.85 74.55Q119.65 74.55 120.05 75.1 120.4 75.65 120.4 76.8 120.4 78 120.05 78.55 119.7 79.1 118.85 79.1 118.05 79.1 117.65 78.55 117.25 77.9 117.25 76.8 117.25 75.75 117.65 75.1 118.05 74.55 118.85 74.55M112.4 72.05Q112.9 72.05 113.25 71.8 113.5 71.55 113.5 71.05 113.5 70 112.4 70 111.25 70 111.25 71.05 111.25 72.05 112.4 72.05M102.05 70.1L102.05 69.95 99.7 69.95Q99.05 70.95 98.1 72L98.1 72.15 99.5 72.15 102.05 70.1M108.85 73.9Q108.1 72.85 106.75 72.85 105.3 72.85 104.55 74L104.45 74 104.15 73 102.5 73 102.5 84 104.55 84 104.55 80.9 104.45 79.8 104.55 79.8Q105.4 80.8 106.7 80.8 107.6 80.8 108.25 80.3 108.85 79.9 109.25 78.95 109.6 78.1 109.6 76.8 109.6 74.95 108.85 73.9M107.15 75.1Q107.5 75.8 107.5 76.8 107.5 79.1 106.1 79.1 105.25 79.1 104.95 78.55 104.55 78 104.55 76.8L104.55 76.6Q104.55 75.55 104.95 75 105.25 74.55 106.05 74.55 106.75 74.55 107.15 75.1M105.65 60.25Q105.65 58.95 106.05 58.3 106.45 57.75 107.3 57.75 107.95 57.75 108.25 58.15 108.55 58.6 108.55 59.4L108.55 63.85 110.65 63.85 110.65 58.85Q110.65 57.5 109.95 56.8 109.3 56.05 107.9 56.05 107.15 56.05 106.55 56.35 105.9 56.65 105.55 57.2L105.45 57.2 105.15 56.2 103.6 56.2 103.6 63.85 105.65 63.85 105.65 60.25M119.35 57.1Q118.4 58.1 118.4 60.1 118.4 62 119.45 62.95 120.5 64 122.3 64 123.2 64 123.85 63.85 124.65 63.65 125 63.45L125 61.85 123.7 62.3Q123.1 62.45 122.4 62.45 121.5 62.45 121.05 61.95 120.6 61.5 120.5 60.55L125.45 60.55 125.45 59.55Q125.45 57.9 124.55 57 123.6 56.05 122 56.05 120.35 56.05 119.35 57.1M120.55 59.15Q120.65 58.4 121 57.95 121.4 57.55 122 57.55 122.6 57.55 123.1 57.95 123.4 58.35 123.5 59.15L120.55 59.15M115.1 54.6L113.75 54.6 113.15 56.2 112 56.9 112 57.8 113 57.8 113 61.45Q113 62.75 113.6 63.35 114.1 64 115.4 64 116.6 64 117.3 63.65L117.3 62.1Q116.45 62.35 116 62.35 115.6 62.35 115.35 62.1 115.1 62 115.1 61.45L115.1 57.8 117.25 57.8 117.25 56.2 115.1 56.2 115.1 54.6Z"/></g><animate attributeName="display" fill="freeze" repeatCount="1" dur="1.333s" keyTimes="0;.625;1" values="none;inline;inline"/></g></g></svg>