<svg id="Layer_1" data-name="Layer 1" xmlns="http://www.w3.org/2000/svg" viewBox="0 0 100 100"><defs><style>.cls-1{fill:#077730;}.cls-2{fill:#38932f;}.cls-3{fill:#0b4415;}.cls-4{fill:#fff;}</style></defs><title>icone-video-box</title><g id="video"><g id="base"><path class="cls-1" d="M12,0A12,12,0,0,0,0,12V88L50,50Z"/><path class="cls-2" d="M100,12A12,12,0,0,0,88,0H12L50,50Z"/><path class="cls-3" d="M0,88a12,12,0,0,0,12,12H88L50,50Z"/><path class="cls-1" d="M50,50l38,50a12,12,0,0,0,12-12V12Z"/></g><rect id="play-linha" class="cls-4" x="7" y="7" width="86" height="86" rx="15" ry="15"/><g id="play"><path class="cls-2" d="M88,22A10,10,0,0,0,78,12H22L50,50Z"/><path class="cls-1" d="M22,12A10,10,0,0,0,12,22V78L50,50Z"/><path class="cls-1" d="M50,50,78,88A10,10,0,0,0,88,78V22Z"/><path class="cls-3" d="M12,78A10,10,0,0,0,22,88H78L50,50Z"/><polygon class="cls-4" points="34.25 28.35 71.75 50 34.25 71.65 34.25 28.35"/></g></g></svg>