<svg id="Layer_1" data-name="Layer 1" xmlns="http://www.w3.org/2000/svg" viewBox="0 0 100 100"><defs><style>.cls-1{fill:#38932f;}.cls-2{fill:#077730;}.cls-3{fill:#0b4415;}</style></defs><title>icone-importante</title><g id="importante"><path class="cls-1" d="M57.78,69.22a11,11,0,0,0-15.56,0L50,77Z"/><path class="cls-2" d="M42.22,69.22a11,11,0,0,0,0,15.56L50,77Z"/><path class="cls-3" d="M42.22,84.78a11,11,0,0,0,15.56,0L50,77Z"/><path class="cls-2" d="M57.78,69.22,50,77l7.78,7.78a11,11,0,0,0,0-15.56Z"/><polygon class="cls-2" points="39.39 19.99 41.14 52.36 50 37.63 39.39 19.99"/><path class="cls-1" d="M50,37.63,60.61,20A7.52,7.52,0,0,0,53,12H47a7.52,7.52,0,0,0-7.57,8Z"/><path class="cls-3" d="M41.14,52.36a8.56,8.56,0,0,0,8.43,8h.87a8.56,8.56,0,0,0,8.43-8L50,37.63Z"/><polygon class="cls-2" points="58.86 52.36 60.61 19.99 50 37.63 58.86 52.36"/></g></svg>