<svg id="Layer_1" data-name="Layer 1" xmlns="http://www.w3.org/2000/svg" viewBox="0 0 100 100"><defs><style>.cls-1{fill:#38932f;}.cls-2{fill:#0b4415;}.cls-3{fill:#077730;}</style></defs><title>icone-citacao-abre</title><g id="citacao-abre"><path class="cls-1" d="M95,0V16.93Q84.56,21.38,84.58,36.76H84.4l-4.21,8.88-9-28.41Q78.34,1.45,95,0Z"/><path class="cls-1" d="M30.86,17.2l9,28.43L44,36.76q0-15.39,10.6-19.83V0Q38,1.45,30.86,17.2Z"/><path class="cls-2" d="M80.19,45.64,91,80H69.71a4,4,0,0,1-4-4Z"/><path class="cls-2" d="M25.42,76a4,4,0,0,0,4,4H50.69L39.83,45.64Z"/><path class="cls-3" d="M95,40.71V76a4,4,0,0,1-4,4L80.19,45.64l4.21-8.88H91A4,4,0,0,1,95,40.71Z"/><path class="cls-3" d="M71.19,17.22q-4,8.69-5,21.79c-.26,3.16-.42,6.49-.42,10V76L80.19,45.64Z"/><path class="cls-3" d="M50.69,36.76H44l-4.21,8.88L50.69,80a4,4,0,0,0,4-4V40.71A3.94,3.94,0,0,0,50.69,36.76Z"/><path class="cls-3" d="M25.82,39c-.26,3.16-.39,6.49-.39,10V76L39.83,45.64l-9-28.43Q26.88,25.92,25.82,39Z"/></g></svg>