<svg id="Layer_1" data-name="Layer 1" xmlns="http://www.w3.org/2000/svg" viewBox="0 0 100 100"><defs><style>.cls-1{fill:#38932f;}.cls-2{fill:#0b4415;}.cls-3{fill:#077730;}</style></defs><title>icone-citacao-fecha</title><g id="citacao-fecha"><path class="cls-1" d="M70.63,20H49.29L60.15,54.36,74.58,24A4,4,0,0,0,70.63,20Z"/><path class="cls-1" d="M34.22,24,19.81,54.36,9,20H30.27A3.94,3.94,0,0,1,34.22,24Z"/><path class="cls-2" d="M55.93,63.24q0,15.39-10.6,19.83V100Q62,98.55,69.14,82.8l-9-28.43Z"/><path class="cls-2" d="M19.81,54.36l9,28.43Q21.67,98.54,5,100V83.07q10.44-4.45,10.42-19.83h.18Z"/><path class="cls-3" d="M60.15,54.36l9,28.43q4-8.72,5-21.81c.26-3.16.4-6.51.4-10V24Z"/><path class="cls-3" d="M49.29,20,60.15,54.36l-4.21,8.88H49.29a4,4,0,0,1-4-4V24A4,4,0,0,1,49.29,20Z"/><path class="cls-3" d="M34.22,24v27c0,3.54-.14,6.88-.4,10-.71,8.74-2.37,16-5,21.81l-9-28.43Z"/><path class="cls-3" d="M9,20,19.81,54.36,15.6,63.24H9a4,4,0,0,1-4-4V24A3.94,3.94,0,0,1,9,20Z"/></g></svg>