<svg id="Layer_1" data-name="Layer 1" xmlns="http://www.w3.org/2000/svg" viewBox="0 0 100 100"><defs><style>.cls-1{fill:#38932f;}.cls-2{fill:#0b4415;}.cls-3{fill:#077730;}</style></defs><title>icone-proibido</title><g id="proibido"><path class="cls-1" d="M53.53,46.47,34.06,27A28,28,0,0,1,69.8,30.2l7.07-7.07a38,38,0,0,0-53.74,0L50,50,76.87,76.87,73,65.95Z"/><path class="cls-2" d="M50,50,23.13,23.13,27,34.06,46.46,53.54,65.94,73A28,28,0,0,1,30.2,69.8l-7.07,7.07a38,38,0,0,0,53.74,0Z"/><path class="cls-3" d="M30.2,69.8l-7.07,7.07a38,38,0,0,1,0-53.74L27,34.06A28,28,0,0,0,30.2,69.8ZM69.8,30.2A28,28,0,0,1,73,65.95l3.86,10.92a38,38,0,0,0,0-53.74Z"/></g></svg>