<svg id="Layer_1" data-name="Layer 1" xmlns="http://www.w3.org/2000/svg" viewBox="0 0 100 100"><defs><style>.cls-1{fill:#38932f;}.cls-2{fill:#0b4415;}.cls-3{fill:#077730;}</style></defs><title>icone-citacao</title><g id="citacao"><path class="cls-1" d="M47.19,12v8.56q-5.28,2.25-5.27,10h-.09L39.7,35.08,35.15,20.71Q38.77,12.73,47.19,12ZM14.75,20.7l4.54,14.38,2.13-4.49q0-7.79,5.36-10V12Q18.36,12.74,14.75,20.7ZM86,47.54H75.21L80.7,64.92,88,49.54A2,2,0,0,0,86,47.54Zm-18.41,2L60.3,64.92,54.81,47.54H65.59A2,2,0,0,1,67.59,49.54Z"/><path class="cls-2" d="M39.7,35.08l5.49,17.38H34.4a2,2,0,0,1-2-2ZM12,50.46a2,2,0,0,0,2,2H24.78L19.29,35.08ZM78.57,69.41q0,7.79-5.36,10V88q8.43-.74,12-8.7L80.7,64.92ZM60.3,64.92,64.84,79.3q-3.6,8-12,8.7V79.44q5.28-2.25,5.27-10h.09Z"/><path class="cls-3" d="M47.19,32.59V50.46a2,2,0,0,1-2,2L39.7,35.08l2.13-4.49h3.36A2,2,0,0,1,47.19,32.59Zm-12-11.88a33.15,33.15,0,0,0-2.54,11c-.13,1.6-.21,3.28-.21,5.08V50.46l7.3-15.38ZM24.78,30.59H21.42l-2.13,4.49,5.49,17.38a2,2,0,0,0,2-2V32.59A2,2,0,0,0,24.78,30.59ZM12.2,31.73c-.13,1.6-.2,3.28-.2,5.08V50.46l7.29-15.38L14.75,20.7A33.19,33.19,0,0,0,12.2,31.73ZM80.7,64.92,85.25,79.3a33.2,33.2,0,0,0,2.55-11c.13-1.6.2-3.29.2-5.08V49.54ZM75.21,47.54,80.7,64.92l-2.13,4.49H75.21a2,2,0,0,1-2-2V49.54A2,2,0,0,1,75.21,47.54Zm-7.62,2V63.19c0,1.79-.07,3.48-.2,5.08a33,33,0,0,1-2.55,11L60.3,64.92Zm-12.78-2L60.3,64.92l-2.13,4.49H54.81a2,2,0,0,1-2-2V49.54A2,2,0,0,1,54.81,47.54Z"/></g></svg>