<svg id="Layer_1" data-name="Layer 1" xmlns="http://www.w3.org/2000/svg" viewBox="0 0 100 100"><defs><style>.cls-1{fill:#077730;}.cls-2{fill:#38932f;}.cls-3{fill:#0b4415;}.cls-4{fill:#fff;}</style></defs><title>icone-importante-box</title><g id="importante"><g id="base"><path class="cls-1" d="M12,0A12,12,0,0,0,0,12V88L50,50Z"/><path class="cls-2" d="M100,12A12,12,0,0,0,88,0H12L50,50Z"/><path class="cls-3" d="M0,88a12,12,0,0,0,12,12H88L50,50Z"/><path class="cls-1" d="M50,50l38,50a12,12,0,0,0,12-12V12Z"/></g><path id="exclamacao-linha" class="cls-4" d="M50,93a16,16,0,0,1-7.85-30,13.45,13.45,0,0,1-6-10.42L34.4,20.26A12.52,12.52,0,0,1,47,7H53A12.52,12.52,0,0,1,65.6,20.26L63.86,52.63a13.45,13.45,0,0,1-6,10.42A16,16,0,0,1,50,93Z"/><g id="exclamacao"><path class="cls-2" d="M57.78,69.22a11,11,0,0,0-15.56,0L50,77Z"/><path class="cls-1" d="M42.22,69.22a11,11,0,0,0,0,15.56L50,77Z"/><path class="cls-3" d="M42.22,84.78a11,11,0,0,0,15.56,0L50,77Z"/><path class="cls-1" d="M57.78,69.22,50,77l7.78,7.78a11,11,0,0,0,0-15.56Z"/><polygon class="cls-1" points="39.39 19.99 41.14 52.36 50 37.63 39.39 19.99"/><path class="cls-2" d="M50,37.63,60.61,20A7.52,7.52,0,0,0,53,12H47a7.52,7.52,0,0,0-7.57,8Z"/><path class="cls-3" d="M41.14,52.36a8.56,8.56,0,0,0,8.43,8h.87a8.56,8.56,0,0,0,8.43-8L50,37.63Z"/><polygon class="cls-1" points="58.86 52.36 60.61 19.99 50 37.63 58.86 52.36"/></g></g></svg>