<svg id="Camada_1" data-name="Camada 1" xmlns="http://www.w3.org/2000/svg" viewBox="0 0 248.823 248.823"><defs><style>.cls-1{fill:#fff;}.cls-2{fill:#c97a32;}</style></defs><title>Icon_Up</title><rect class="cls-1" x="1.059" y="1.059" width="246.706" height="246.706" rx="8"/><path class="cls-2" d="M244.412,11.588V244.412H11.588V11.588H244.412m0-8H11.588a8.024,8.024,0,0,0-8,8V244.412a8.024,8.024,0,0,0,8,8H244.412a8.024,8.024,0,0,0,8-8V11.588a8.024,8.024,0,0,0-8-8Z" transform="translate(-3.588 -3.588)"/><rect class="cls-2" x="69.498" y="146.597" width="117.005" height="17.448" rx="6" transform="translate(-30.909 279.733) rotate(-90)"/><path class="cls-2" d="M204.777,123.454l-70.4-70.4a9.323,9.323,0,0,0-12.76,0l-70.4,70.4a8.724,8.724,0,1,0,12.338,12.337L128,71.352l64.439,64.439a8.724,8.724,0,1,0,12.338-12.337Z" transform="translate(-3.588 -3.588)"/></svg>