<svg id="Layer_1" data-name="Layer 1" xmlns="http://www.w3.org/2000/svg" viewBox="0 0 100 100"><defs><style>.cls-1{fill:#077730;}.cls-2{fill:#38932f;}.cls-3{fill:#0b4415;}.cls-4{fill:#fff;}</style></defs><title>icone-citacao-box</title><g id="citacao"><g id="base"><path class="cls-1" d="M12,0A12,12,0,0,0,0,12V88L50,50Z"/><path class="cls-2" d="M100,12A12,12,0,0,0,88,0H12L50,50Z"/><path class="cls-3" d="M0,88a12,12,0,0,0,12,12H88L50,50Z"/><path class="cls-1" d="M50,50l38,50a12,12,0,0,0,12-12V12Z"/></g><path id="aspas-linha" class="cls-4" d="M86,42.54H75.21a7,7,0,0,0-4.81,1.93,7,7,0,0,0-4.81-1.93H54.81a7,7,0,0,0-2.62.51V32.59a7,7,0,0,0-4.29-6.46,2.69,2.69,0,0,1,1.25-1,5,5,0,0,0,3-4.6V12a5,5,0,0,0-5-5l-.43,0a18.52,18.52,0,0,0-15,9.35V12a5,5,0,0,0-5-5l-.44,0c-7.41.65-13,4.66-16.14,11.61a37.77,37.77,0,0,0-3,12.7C7.07,33.12,7,34.91,7,36.81V50.46a7,7,0,0,0,7,7H24.78a7,7,0,0,0,4.81-1.93,7,7,0,0,0,4.81,1.93H45.19a7,7,0,0,0,2.62-.51V67.41a7,7,0,0,0,4.29,6.46,2.68,2.68,0,0,1-1.25,1,5,5,0,0,0-3,4.6V88a5,5,0,0,0,5,5l.44,0a18.5,18.5,0,0,0,15-9.34V88a5,5,0,0,0,5,5l.44,0c7.42-.65,13-4.66,16.16-11.61a37.75,37.75,0,0,0,3-12.7c.14-1.77.22-3.62.22-5.48V49.54A7,7,0,0,0,86,42.54Z"/><g id="aspas"><path class="cls-2" d="M47.19,12v8.56q-5.28,2.25-5.27,10h-.09L39.7,35.08,35.15,20.71Q38.77,12.73,47.19,12ZM14.75,20.7l4.54,14.38,2.13-4.49q0-7.79,5.36-10V12Q18.36,12.74,14.75,20.7ZM86,47.54H75.21L80.7,64.92,88,49.54A2,2,0,0,0,86,47.54Zm-18.41,2L60.3,64.92,54.81,47.54H65.59A2,2,0,0,1,67.59,49.54Z"/><path class="cls-3" d="M39.7,35.08l5.49,17.38H34.4a2,2,0,0,1-2-2ZM12,50.46a2,2,0,0,0,2,2H24.78L19.29,35.08ZM78.57,69.41q0,7.79-5.36,10V88q8.43-.74,12-8.7L80.7,64.92ZM60.3,64.92,64.84,79.3q-3.6,8-12,8.7V79.44q5.28-2.25,5.27-10h.09Z"/><path class="cls-1" d="M47.19,32.59V50.46a2,2,0,0,1-2,2L39.7,35.08l2.13-4.49h3.36A2,2,0,0,1,47.19,32.59Zm-12-11.88a33.15,33.15,0,0,0-2.54,11c-.13,1.6-.21,3.28-.21,5.08V50.46l7.3-15.38ZM24.78,30.59H21.42l-2.13,4.49,5.49,17.38a2,2,0,0,0,2-2V32.59A2,2,0,0,0,24.78,30.59ZM12.2,31.73c-.13,1.6-.2,3.28-.2,5.08V50.46l7.29-15.38L14.75,20.7A33.19,33.19,0,0,0,12.2,31.73ZM80.7,64.92,85.25,79.3a33.2,33.2,0,0,0,2.55-11c.13-1.6.2-3.29.2-5.08V49.54ZM75.21,47.54,80.7,64.92l-2.13,4.49H75.21a2,2,0,0,1-2-2V49.54A2,2,0,0,1,75.21,47.54Zm-7.62,2V63.19c0,1.79-.07,3.48-.2,5.08a33,33,0,0,1-2.55,11L60.3,64.92Zm-12.78-2L60.3,64.92l-2.13,4.49H54.81a2,2,0,0,1-2-2V49.54A2,2,0,0,1,54.81,47.54Z"/></g></g></svg>