<svg id="Layer_1" data-name="Layer 1" xmlns="http://www.w3.org/2000/svg" viewBox="0 0 100 100"><defs><style>.cls-1{fill:#0b4415;}.cls-2{fill:#38932f;}.cls-3{fill:#077730;}</style></defs><title>icone-audio</title><g id="audio"><path class="cls-1" d="M61.74,50h8.75A13.39,13.39,0,0,1,57.12,63.38V54.68A4.68,4.68,0,0,0,61.74,50Z"/><path class="cls-1" d="M28.2,43.33,52.7,80.89,32.87,68.09H20.72A8.74,8.74,0,0,1,12,59.36Z"/><path class="cls-2" d="M88,50H79.25A22.19,22.19,0,0,0,57.12,27.82V19.11A30.87,30.87,0,0,1,88,50Z"/><polygon class="cls-2" points="52.7 19.11 28.2 43.33 20.72 31.86 32.87 31.86 52.7 19.11"/><path class="cls-3" d="M79.25,50H88a30.89,30.89,0,0,1-30.88,30.9V72.17A22.21,22.21,0,0,0,79.25,50Z"/><path class="cls-3" d="M70.49,50H61.74a4.65,4.65,0,0,0-4.62-4.69V36.54A13.42,13.42,0,0,1,70.49,50Z"/><polygon class="cls-3" points="52.7 19.11 52.7 80.89 28.2 43.33 52.7 19.11"/><path class="cls-3" d="M20.72,31.87,28.2,43.33,12,59.36V40.6A8.74,8.74,0,0,1,20.72,31.87Z"/></g></svg>