<svg id="Layer_1" data-name="Layer 1" xmlns="http://www.w3.org/2000/svg" viewBox="0 0 100 100"><defs><style>.cls-1{fill:#077730;}.cls-2{fill:#38932f;}.cls-3{fill:#0b4415;}.cls-4{fill:#fff;}</style></defs><title>icone-texto-box</title><g id="texto"><g id="base"><path class="cls-1" d="M12,0A12,12,0,0,0,0,12V88L50,50Z"/><path class="cls-2" d="M100,12A12,12,0,0,0,88,0H12L50,50Z"/><path class="cls-3" d="M0,88a12,12,0,0,0,12,12H88L50,50Z"/><path class="cls-1" d="M50,50l38,50a12,12,0,0,0,12-12V12Z"/></g><rect id="folha-linha" class="cls-4" x="16.5" y="7" width="67" height="86" rx="10" ry="10"/><g id="folha"><polygon class="cls-2" points="50 50 52.3 47.33 48.35 47.33 50 50"/><polygon class="cls-3" points="34.45 68 61.13 68 57.83 62.67 39.06 62.67 34.45 68"/><polygon class="cls-2" points="42.17 37.33 60.94 37.33 65.55 32 38.87 32 42.17 37.33"/><polygon class="cls-3" points="51.65 52.67 50 50 47.7 52.67 51.65 52.67"/><path class="cls-2" d="M68,22a5,5,0,0,1,4.2,2.3L78.5,17a5,5,0,0,0-5-5h-47l6.18,10Z"/><path class="cls-1" d="M72.2,24.3A5,5,0,0,1,68,32H65.54l-4.61,5.33H68a5,5,0,0,1,0,10H52.3L50,50l1.65,2.67H68a5,5,0,0,1,0,10H57.83L61.13,68H68a5,5,0,0,1,0,10h-.68L73.5,88a5,5,0,0,0,5-5V17Z"/><path class="cls-1" d="M27,73a5,5,0,0,1,5-5h2.46l4.61-5.33H32a5,5,0,0,1,0-10H47.7L50,50l-1.65-2.67H32a5,5,0,0,1,0-10H42.17L38.87,32H32a5,5,0,0,1,0-10h.68L26.5,12a5,5,0,0,0-5,5V83l6.3-7.3A5,5,0,0,1,27,73Z"/><path class="cls-3" d="M32,78a5,5,0,0,1-4.2-2.3L21.5,83a5,5,0,0,0,5,5h47L67.32,78Z"/></g></g></svg>