<svg id="Layer_1" data-name="Layer 1" xmlns="http://www.w3.org/2000/svg" viewBox="0 0 100 100"><defs><style>.cls-1{fill:#077730;}.cls-2{fill:#38932f;}.cls-3{fill:#0b4415;}</style></defs><title>icone-video</title><g id="video"><path class="cls-1" d="M59.55,43l12.2,7L56.49,58.81,78,88A10,10,0,0,0,88,78V22Z"/><path class="cls-1" d="M34.25,28.63,22,12A10,10,0,0,0,12,22V78L34.25,61.61Z"/><path class="cls-2" d="M34.25,28.35,59.55,43,88,22A10,10,0,0,0,78,12H22L34.25,28.63Z"/><path class="cls-3" d="M56.49,58.81,34.25,71.65v-10L12,78A10,10,0,0,0,22,88H78Z"/></g></svg>