<svg id="Layer_1" data-name="Layer 1" xmlns="http://www.w3.org/2000/svg" viewBox="0 0 100 100"><defs><style>.cls-1{fill:#0b4415;}.cls-2{fill:#077730;}.cls-3{fill:#38932f;}</style></defs><title>icone-verbete</title><g id="verbete"><path class="cls-1" d="M34.27,60H41.4a.7.7,0,0,0,.71-1l-1.69-5.44-5.69,4.89Z"/><path class="cls-1" d="M63.56,68.4l-1.63-2.21A2.3,2.3,0,0,0,63.56,68.4Z"/><path class="cls-1" d="M66.75,72.74a11.58,11.58,0,0,1-4.14.65,7.32,7.32,0,0,1-5.41-2,7.52,7.52,0,0,1-2-5.59,6.35,6.35,0,0,1,2.44-5.44L47.9,47.15l-2.78,2.39L53.05,72a.67.67,0,0,1-.67.94H47.25A1.44,1.44,0,0,1,46,72l-1.68-5.52a1.45,1.45,0,0,0-1.3-1H33.6a1.44,1.44,0,0,0-1.29,1L30.63,72a1.43,1.43,0,0,1-1.29,1H24.2a.66.66,0,0,1-.66-.94l2-5.64L12,78A10,10,0,0,0,22,88H78Z"/><path class="cls-2" d="M78,22v3h5V17l-5.07,4.35A4.89,4.89,0,0,1,78,22Z"/><path class="cls-2" d="M83,27H71.36L47.9,47.15l9.76,13.24.22-.17q2.65-1.8,8-2L69,58.13c.55,0,1-.27,1-.56a5.89,5.89,0,0,0-.32-1.47s-.92-2.68-3.39-2.68a16.79,16.79,0,0,0-6.73,1.73l-1.72-3.51a.88.88,0,0,1,.5-1.24s4.86-1.81,8.2-1.81,5.66.7,7.37,2.09,2.56,3.52,2.56,6.37V72a1,1,0,0,1-1,1H73A1.59,1.59,0,0,1,71.6,72l-.53-1.38a3.48,3.48,0,0,0-.45-.94,5,5,0,0,0-.78.73,12.14,12.14,0,0,1-2.69,2.15c-.12.06-.27.1-.4.15L78,88A10,10,0,0,0,88,78V32A5,5,0,0,0,83,27Z"/><path class="cls-2" d="M65.07,68.62a5,5,0,0,0,3.62-1.3A4.59,4.59,0,0,0,70,63.86v-1a1,1,0,0,0-1-1l-.52,0c-.55,0-1.44.08-2,.15a10.14,10.14,0,0,0-3.24.91,3.23,3.23,0,0,0-1.39,2.86c0,.11,0,.21,0,.32l1.63,2.21A4.73,4.73,0,0,0,65.07,68.62Z"/><path class="cls-2" d="M33.89,42.55a1.5,1.5,0,0,1,1.33-.94h6.1a1.5,1.5,0,0,1,1.33.94l2.47,7,2.78-2.39L33.05,27H22a5,5,0,0,1,0-10h3.68L22,12A10,10,0,0,0,12,22V78L25.52,66.38Z"/><path class="cls-2" d="M38.3,46.45q-.65,2.55-3.57,12l5.69-4.89c-.72-2.33-1.43-4.62-1.55-5C38.61,47.66,38.42,47,38.3,46.45Z"/><polygon class="cls-3" points="33.05 27 47.9 47.15 71.36 27 33.05 27 33.05 27"/><path class="cls-3" d="M73,17a5,5,0,0,1,4.93,4.35h0L83,17a5,5,0,0,0-5-5H22l3.68,5Z"/></g></svg>