<svg id="Layer_1" data-name="Layer 1" xmlns="http://www.w3.org/2000/svg" viewBox="0 0 100 100"><defs><style>.cls-1{fill:#077730;}.cls-2{fill:#38932f;}.cls-3{fill:#0b4415;}.cls-4{fill:#fff;}</style></defs><title>icone-pergunta-box</title><g id="pergunta"><g id="base"><path class="cls-1" d="M12,0A12,12,0,0,0,0,12V88L50,50Z"/><path class="cls-2" d="M100,12A12,12,0,0,0,88,0H12L50,50Z"/><path class="cls-3" d="M0,88a12,12,0,0,0,12,12H88L50,50Z"/><path class="cls-1" d="M50,50l38,50a12,12,0,0,0,12-12V12Z"/></g><g id="interrogacao-linha"><path class="cls-4" d="M46.43,92.92c-7.86,0-13.79-5.79-13.79-13.48a13,13,0,0,1,8.6-12.55,8.13,8.13,0,0,1-6.85-7.4,18.88,18.88,0,0,1,2.09-11c2.35-4.54,6.09-7.28,9.4-9.7,2.31-1.69,4.5-3.29,5.82-5.25.27-.4,1.13-1.76.74-2.49s-2.08-1.66-4.3-1.66h-.35a21.86,21.86,0,0,0-4.7,1.21,28.31,28.31,0,0,1-8.65,1.84,11.73,11.73,0,0,1-5.31-1.2,10.78,10.78,0,0,1-6.24-9.74,11.47,11.47,0,0,1,6.63-10.19A48.07,48.07,0,0,1,49.67,7h.81c10,.18,18,3.85,22.66,10.35a23.23,23.23,0,0,1,0,26c-2.57,3.71-6,6.26-9.11,8.52a39.69,39.69,0,0,0-5.55,4.6,1.66,1.66,0,0,0-.23.29c0,.09-.07.5-.1.8a14.85,14.85,0,0,1-.91,4.09,8.26,8.26,0,0,1-5.82,5.14,13.48,13.48,0,0,1,5,3.16,13.09,13.09,0,0,1,3.75,9.52C60.22,87.14,54.28,92.92,46.43,92.92Z"/></g><g id="interrogacao"><path class="cls-3" d="M68.54,41.22C64.82,46,59,48.66,54.87,53.07c-2.26,2.43-1.16,4-2.25,6.78s-4.5,2.41-7.37,2.38c-3.35,0-5.46-.23-5.92-3.43h0l20.38-26.4ZM40.22,85.65a9.64,9.64,0,0,0,12.43,0l-6.21-6.21Z"/><path class="cls-1" d="M40.32,13,52.48,25.17a12.6,12.6,0,0,0-4.9-.75c-4.86.2-11.57,4.71-16.22,2.38-5-2.53-4.32-8.69.35-11A36.7,36.7,0,0,1,40.32,13ZM68.54,41.22c.18-.24.37-.47.54-.72,4-5.77,4.1-14.47,0-20.22L59.71,32.39ZM57.36,30c.46,1.81.07,4-1.53,6.32-3.94,5.81-11.57,8-14.92,14.43a14,14,0,0,0-1.58,8l20.38-26.4ZM40.23,73.21a8.76,8.76,0,0,0,0,12.44l6.22-6.22ZM52.66,85.64a8.75,8.75,0,0,0,0-12.43l-6.22,6.22Z"/><path class="cls-2" d="M59.71,32.39,57.36,30a7.38,7.38,0,0,0-4.88-4.88L40.32,13a46.51,46.51,0,0,1,10.07-1c7,.12,14.45,2.33,18.68,8.25ZM40.23,73.21l6.21,6.21,6.22-6.22A9.65,9.65,0,0,0,40.23,73.21Z"/></g></g></svg>