<svg id="Layer_1" data-name="Layer 1" xmlns="http://www.w3.org/2000/svg" viewBox="0 0 100 100"><defs><style>.cls-1{fill:#0b4415;}.cls-2{fill:#077730;}.cls-3{fill:#38932f;}</style></defs><title>icone-pergunta</title><g id="pergunta"><path class="cls-1" d="M68.54,41.22C64.82,46,59,48.66,54.87,53.07c-2.26,2.43-1.16,4-2.25,6.78s-4.5,2.41-7.37,2.38c-3.35,0-5.46-.23-5.92-3.43h0l20.38-26.4ZM40.22,85.65a9.64,9.64,0,0,0,12.43,0l-6.21-6.21Z"/><path class="cls-2" d="M40.32,13,52.48,25.17a12.6,12.6,0,0,0-4.9-.75c-4.86.2-11.57,4.71-16.22,2.38-5-2.53-4.32-8.69.35-11A36.7,36.7,0,0,1,40.32,13ZM68.54,41.22c.18-.24.37-.47.54-.72,4-5.77,4.1-14.47,0-20.22L59.71,32.39ZM57.36,30c.46,1.81.07,4-1.53,6.32-3.94,5.81-11.57,8-14.92,14.43a14,14,0,0,0-1.58,8l20.38-26.4ZM40.23,73.21a8.76,8.76,0,0,0,0,12.44l6.22-6.22ZM52.66,85.64a8.75,8.75,0,0,0,0-12.43l-6.22,6.22Z"/><path class="cls-3" d="M59.71,32.39,57.36,30a7.38,7.38,0,0,0-4.88-4.88L40.32,13a46.51,46.51,0,0,1,10.07-1c7,.12,14.45,2.33,18.68,8.25ZM40.23,73.21l6.21,6.21,6.22-6.22A9.65,9.65,0,0,0,40.23,73.21Z"/></g></svg>