<svg id="Layer_1" data-name="Layer 1" xmlns="http://www.w3.org/2000/svg" viewBox="0 0 100 100"><defs><style>.cls-1{fill:#077730;}.cls-2{fill:#38932f;}.cls-3{fill:#0b4415;}.cls-4{fill:#fff;}</style></defs><title>icone-saiba-mais-box</title><g id="saiba-mais"><g id="base"><path class="cls-1" d="M12,0A12,12,0,0,0,0,12V88L50,50Z"/><path class="cls-2" d="M100,12A12,12,0,0,0,88,0H12L50,50Z"/><path class="cls-3" d="M0,88a12,12,0,0,0,12,12H88L50,50Z"/><path class="cls-1" d="M50,50l38,50a12,12,0,0,0,12-12V12Z"/></g><path id="mais-linha" class="cls-4" d="M50,93A18,18,0,0,1,32,75V68H25a18,18,0,0,1,0-36h7V25a18,18,0,0,1,36,0v7h7a18,18,0,0,1,0,36H68v7A18,18,0,0,1,50,93Z"/><g id="mais"><path class="cls-1" d="M50,12A13,13,0,0,0,37,25V37L50,50Z"/><path class="cls-2" d="M37,37H25A13,13,0,0,0,12,50H50Z"/><path class="cls-1" d="M88,50A13,13,0,0,0,75,37H63L50,50Z"/><path class="cls-2" d="M63,37V25A13,13,0,0,0,50,12V50Z"/><path class="cls-1" d="M50,88A13,13,0,0,0,63,75V63L50,50Z"/><path class="cls-3" d="M50,50,63,63H75A13,13,0,0,0,88,50Z"/><path class="cls-3" d="M37,63V75A13,13,0,0,0,50,88V50Z"/><path class="cls-1" d="M12,50A13,13,0,0,0,25,63H37L50,50Z"/></g></g></svg>