<svg id="Layer_1" data-name="Layer 1" xmlns="http://www.w3.org/2000/svg" viewBox="0 0 100 100"><defs><style>.cls-1{fill:#077730;}.cls-2{fill:#38932f;}.cls-3{fill:#0b4415;}.cls-4{fill:#fff;}</style></defs><title>icone-verbete-box</title><g id="verbete"><g id="base"><path class="cls-1" d="M12,0A12,12,0,0,0,0,12V88L50,50Z"/><path class="cls-2" d="M100,12A12,12,0,0,0,88,0H12L50,50Z"/><path class="cls-3" d="M0,88a12,12,0,0,0,12,12H88L50,50Z"/><path class="cls-1" d="M50,50l38,50a12,12,0,0,0,12-12V12Z"/></g><path id="livro-linha" class="cls-4" d="M22,93A15,15,0,0,1,7,78V22A15,15,0,0,1,22,7H78A10,10,0,0,1,88,17v6.34A10,10,0,0,1,93,32V78A15,15,0,0,1,78,93Z"/><g id="livro"><polygon class="cls-2" points="33.05 27 47.9 47.15 71.36 27 33.05 27 33.05 27"/><path class="cls-2" d="M73,17a5,5,0,0,1,4.93,4.35h0L83,17a5,5,0,0,0-5-5H22l3.68,5Z"/><path class="cls-1" d="M33.05,27H22a5,5,0,0,1,0-10h3.68L22,12A10,10,0,0,0,12,22V78L47.9,47.15Z"/><path class="cls-1" d="M78,22v3h5V17l-5.07,4.35A4.9,4.9,0,0,1,78,22Z"/><path class="cls-1" d="M83,27H71.36L47.9,47.15,78,88A10,10,0,0,0,88,78V32A5,5,0,0,0,83,27Z"/><path class="cls-3" d="M12,78A10,10,0,0,0,22,88H78L47.9,47.15Z"/></g><g id="Aa"><path id="a" class="cls-4" d="M74,50.68c-1.71-1.39-4.16-2.09-7.37-2.09s-8.2,1.81-8.2,1.81a.88.88,0,0,0-.5,1.24l1.72,3.51a16.79,16.79,0,0,1,6.73-1.73c2.47,0,3.39,2.68,3.39,2.68A5.89,5.89,0,0,1,70,57.57c0,.29-.45.54-1,.56l-3.14.09q-5.37.19-8,2a6.3,6.3,0,0,0-2.66,5.61,7.52,7.52,0,0,0,2,5.59,7.32,7.32,0,0,0,5.41,2,11,11,0,0,0,4.54-.8,12.14,12.14,0,0,0,2.69-2.15,5,5,0,0,1,.78-.73,3.48,3.48,0,0,1,.45.94L71.6,72A1.59,1.59,0,0,0,73,73h2.55a1,1,0,0,0,1-1V57.05Q76.51,52.78,74,50.68ZM70,63.86a4.59,4.59,0,0,1-1.35,3.46,5,5,0,0,1-3.62,1.3c-2.11,0-3.17-.91-3.17-2.75A3.23,3.23,0,0,1,63.29,63a10.14,10.14,0,0,1,3.24-.91c.55-.07,1.44-.13,2-.15l.52,0a1,1,0,0,1,1,1Z"/><path id="A-2" data-name="A" class="cls-4" d="M42.65,42.55a1.5,1.5,0,0,0-1.33-.94h-6.1a1.5,1.5,0,0,0-1.33.94L23.54,72a.66.66,0,0,0,.66.94h5.14a1.43,1.43,0,0,0,1.29-1l1.68-5.52a1.44,1.44,0,0,1,1.29-1H43a1.45,1.45,0,0,1,1.3,1L46,72a1.44,1.44,0,0,0,1.29,1h5.13a.67.67,0,0,0,.67-.94ZM41.4,60H34.27q3.33-10.79,4-13.52c.12.52.31,1.21.57,2.1S42.11,59,42.11,59A.7.7,0,0,1,41.4,60Z"/></g></g></svg>